<svg width="151" height="150" viewBox="0 0 151 150" fill="none" xmlns="http://www.w3.org/2000/svg">
<path fill-rule="evenodd" clip-rule="evenodd" d="M149.857 74.6005C149.857 96.2078 140.71 115.607 126.042 129.329C118.945 135.795 110.743 141 101.596 144.469C95.7603 146.677 89.4516 148.255 82.9852 148.885C81.408 149.043 79.6731 149.201 78.0959 149.201C77.1496 149.201 76.2033 149.201 75.0993 149.201C71.7872 149.201 68.4751 149.043 65.3208 148.57C53.9651 147.151 43.398 143.05 34.2504 137.057C33.3041 136.426 32.5155 135.953 31.7269 135.322C30.1497 134.218 28.7303 133.114 27.1531 131.852C19.4249 125.386 12.9585 117.342 8.38468 108.352C5.54576 102.674 3.3377 96.5232 1.91824 90.0568C1.28737 86.7447 0.814227 83.4327 0.498792 80.1206C0.341074 78.3857 0.341064 76.4931 0.341064 74.6005C0.341064 59.9327 4.59946 46.0536 12.0122 34.5402C15.1665 29.6509 18.7941 25.0771 23.0524 21.1342C36.4584 8.0436 54.9114 0 75.0993 0C76.6764 0 78.4113 -2.40893e-06 79.9885 0.157715C86.4549 0.630868 92.7636 1.89261 98.5992 3.78523C100.492 4.4161 102.227 5.04697 103.962 5.83556C105.223 6.30871 106.485 6.93958 107.747 7.57045C115.002 11.0402 121.626 15.7718 127.304 21.4496C130.143 24.2885 132.824 27.2852 135.19 30.4395C142.602 40.5335 147.649 52.3623 149.227 65.4529C149.542 68.2918 149.857 71.4461 149.857 74.6005Z" fill="url(#paint0_radial_4_1363)"/>
<path fill-rule="evenodd" clip-rule="evenodd" d="M107.904 7.41257C107.588 7.41257 107.431 7.41256 107.115 7.57028C106.327 7.728 105.538 7.57028 104.75 7.41257C104.119 7.25485 103.803 6.93941 103.015 6.93941C102.068 6.7817 101.28 6.46626 100.333 6.30854C99.3872 6.15082 98.5986 5.83539 97.6523 5.51995C96.8637 5.20452 96.5482 5.36224 95.9174 5.51995C95.2865 5.67767 94.8133 5.36223 94.1825 5.20452C93.5516 4.88908 92.763 4.88908 92.1321 4.73136C90.2395 4.41593 88.3469 3.78506 86.4543 3.3119C85.3503 2.99647 84.2463 2.99647 82.9845 2.99647C82.0382 2.99647 81.2496 3.3119 80.3033 3.3119C79.6724 3.3119 79.1993 3.15419 78.5684 3.15419C77.9376 2.99647 77.3067 3.15419 76.6758 3.15419C75.7295 2.99647 75.2564 2.83875 74.3101 3.15419C73.5215 3.31191 73.0483 3.31191 72.2597 3.46962C71.4711 3.46962 70.5248 3.78506 69.7362 3.94278C68.3168 4.25821 66.7396 4.57365 65.3201 4.57365C64.3738 4.57365 63.1121 4.25821 62.3235 4.57365C61.8503 4.73137 61.5349 5.36223 61.0618 5.67767C60.2732 6.46626 59.4846 7.09713 58.8537 7.88572C58.2228 8.67431 57.592 9.62061 57.592 10.7246C57.592 11.6709 58.0651 12.775 58.5383 13.5636C59.0114 14.5099 59.1691 15.2984 58.2228 15.9293C57.1188 16.7179 55.6994 17.3488 54.4376 17.8219C53.4913 18.1374 52.7027 18.2951 52.0719 17.6642C51.7564 17.5065 51.5987 17.0333 51.2833 16.7179C50.9678 16.5602 50.4947 16.7179 50.1792 16.8756C49.2329 17.1911 48.2866 17.5065 47.3403 17.6642C46.7094 17.8219 46.2363 18.1374 45.6054 18.1374C44.9745 18.2951 44.5014 17.8219 43.7128 17.9797C42.7665 18.1374 41.6625 18.6105 40.7162 18.6105C39.9276 18.6105 38.9813 18.2951 38.3504 17.9797C38.035 17.8219 37.8773 17.5065 37.4041 17.6642C37.0887 17.6642 36.6155 18.1374 36.4578 18.4528C36.1424 18.7682 36.1424 19.2414 35.8269 19.5568C35.5115 20.03 35.3538 20.3454 35.0383 20.8186C34.5652 21.6072 34.092 22.3957 33.6189 23.1843C33.3035 23.6575 32.988 24.4461 32.5149 24.9192C32.3572 25.2347 31.884 25.3924 31.5686 25.5501C30.78 26.0233 29.9914 26.6541 29.2028 27.1273C27.7833 28.2313 26.3639 29.493 24.9444 30.5971C23.8404 31.3857 22.2632 31.8588 21.0015 32.4897C20.2129 32.8051 19.4243 33.1205 18.6357 33.436C18.3203 33.5937 17.8471 33.5937 17.6894 33.9091C17.374 34.2246 17.2162 34.54 17.0585 35.0132C16.4277 35.8017 15.6391 36.7481 15.1659 37.6944C14.8505 38.3252 14.6928 38.7984 14.3773 39.4293C14.0619 40.2178 13.5887 41.0064 13.431 41.9527C12.8001 43.6876 12.8002 45.5802 12.0116 47.3151C11.6961 48.2615 11.0652 49.2078 10.5921 50.1541C9.8035 51.7312 9.64579 53.6239 9.48807 55.3587C9.33036 56.305 9.48808 57.5668 9.6458 58.5131C9.80352 59.6171 9.8035 60.7211 9.8035 61.8252C9.8035 62.9292 9.01493 64.1909 8.38405 64.9795C7.75318 65.7681 6.64915 66.0836 5.86056 66.8721C5.22969 67.503 4.44112 68.1339 4.12568 69.0802C3.96796 69.3956 4.12568 69.8688 4.12568 70.3419C3.96796 71.2882 3.65252 72.0768 3.65252 73.0231C3.49481 74.1272 3.4948 75.2312 3.4948 76.4929C3.4948 77.1238 3.4948 77.5969 3.4948 78.2278C3.4948 78.8587 3.65251 79.3318 3.81023 79.805C3.81023 80.1204 3.81023 80.5936 3.81023 80.909C3.81023 81.3822 4.12568 81.8553 4.12568 82.1708C4.44112 83.2748 4.59882 84.2211 4.75654 85.3251C4.91426 86.2714 5.38741 87.2177 5.54513 88.164C6.01828 89.4258 6.17601 90.6875 6.49145 92.107C6.64916 93.0533 6.64916 94.1573 6.80688 95.1036C6.96459 95.8922 7.12231 96.6808 7.12231 97.4694C7.12231 98.7311 6.80688 99.8351 6.80688 101.097C6.80688 103.147 7.59547 105.198 8.06862 107.248C8.22634 107.879 8.38404 108.352 8.54176 108.983C3.33707 98.8888 0.498169 87.3754 0.498169 75.2312C0.498169 60.4057 4.75654 46.6843 12.1693 35.1709C15.3236 30.2816 18.9511 25.7078 23.2095 21.7649C36.6155 8.67431 55.0685 0.630707 75.2563 0.630707C76.8335 0.630707 78.5684 0.630704 80.1456 0.788422C89.9241 0.630704 99.3872 3.31191 107.904 7.41257Z" fill="url(#paint1_linear_4_1363)"/>
<g opacity="0.5">
<g opacity="0.4">
<path opacity="0.4" fill-rule="evenodd" clip-rule="evenodd" d="M66.4248 95.4191V95.2614C66.8979 95.7345 67.3711 96.2077 67.3711 96.8385C67.0556 96.6808 66.5825 95.7345 66.4248 95.4191Z" fill="url(#paint2_linear_4_1363)"/>
<path fill-rule="evenodd" clip-rule="evenodd" d="M149.227 65.2949C148.911 64.664 148.596 64.1909 148.122 63.7177C147.334 62.6137 146.23 62.1405 144.968 61.8251C144.022 61.5096 143.076 61.0365 142.287 61.8251C141.498 62.6137 140.867 63.7177 140.394 64.5063C140.079 65.1372 139.606 66.3989 138.817 66.5566C138.029 66.7143 137.082 65.6103 136.451 64.9794C135.663 64.1908 135.19 62.9291 134.401 62.2982C133.77 61.8251 132.824 61.3519 132.193 61.1942C130.774 60.5633 129.196 60.4056 127.619 60.2479C126.515 60.2479 125.727 59.617 124.78 59.1439C123.834 58.6707 122.572 58.513 121.626 58.3553C120.68 58.1976 119.733 58.0399 118.787 57.7244C117.841 57.5667 117.052 57.409 116.264 56.6204C115.475 55.6741 114.844 54.4124 113.898 53.6238C112.163 52.0466 110.27 53.1506 108.062 53.1506C106.327 53.1506 104.908 52.0466 103.173 51.5734C101.123 51.1003 99.3877 50.7848 98.126 49.0499C97.022 47.4728 97.3374 45.5802 96.7065 43.8453C95.4448 40.3755 90.7132 39.4292 87.4012 39.1137C84.72 38.956 82.3542 39.9023 79.8307 39.9023C77.6227 39.9023 75.7301 39.4292 74.3106 41.3218C72.7334 43.3721 71.1563 45.5802 69.8945 47.7882C68.9482 49.5231 67.371 51.258 66.7402 53.3083C66.4247 54.4124 66.4247 55.5164 66.267 56.6204C65.9516 57.8821 65.0053 59.617 64.2167 60.7211C63.4281 61.8251 61.8509 62.6137 60.5892 63.2445C59.4851 63.8754 58.6966 64.664 57.7503 65.6103C56.6462 66.7143 55.5422 67.8184 54.7536 69.0801C54.4382 69.711 54.1227 70.3418 53.4919 70.815C53.0187 71.2881 52.3878 71.4459 51.9147 71.919C51.4415 72.2345 51.1261 72.7076 50.8107 73.1808C50.1798 73.8116 49.0758 74.2848 48.1295 74.4425C46.5523 74.4425 44.9751 73.1808 43.7134 74.9157C42.9248 75.862 41.9785 77.5969 42.1362 78.8586C42.2939 79.9626 43.2402 80.9089 43.8711 81.8552C44.9751 83.2747 47.3409 85.7982 46.8677 87.8485C46.71 88.6371 45.9214 89.1102 46.2369 90.0565C46.3946 90.8451 46.5523 91.6337 46.5523 92.58C46.5523 93.2109 46.2369 94.3149 46.5523 94.7881C47.0254 95.419 48.4449 96.0498 49.2335 96.2075C50.8107 96.8384 52.2301 97.9424 53.8073 98.731C54.9113 99.3619 55.5422 100.15 56.6462 100.466C57.7502 100.781 58.6965 100.624 59.8006 100.781C60.4314 100.939 61.22 100.939 61.8509 101.097C62.3241 101.255 62.7972 101.57 63.2704 101.728C65.163 102.201 67.371 101.728 69.4214 101.728C70.6831 101.728 71.9448 102.043 73.0489 101.412C74.3106 100.624 74.626 99.6773 74.626 98.2579C74.626 96.9961 73.9952 95.8921 73.522 94.6304C73.3643 93.9995 73.2066 93.2109 72.7334 92.58C72.418 92.1069 71.9448 92.1069 71.4717 91.7914C70.8408 91.3183 70.6831 90.8451 69.7368 90.6874C69.1059 90.5297 68.4751 90.8451 67.8442 91.1606C67.0556 91.7915 65.6361 93.0532 65.7938 94.1572C65.9516 94.6304 66.267 95.1035 66.7402 95.419C66.7402 94.9458 66.8979 94.4726 67.0556 93.8418C68.6328 94.1572 70.9985 94.6304 72.1026 95.8921C71.7871 96.9961 70.3677 97.7847 69.4214 97.7847C67.5287 97.7847 65.6361 98.1002 64.2167 96.6807C62.9549 95.5767 62.9549 93.9995 62.1663 92.58C61.8509 91.7914 61.5355 91.1606 60.9046 90.5297C60.4315 90.0566 60.116 89.5834 59.8006 88.9525C59.1697 88.0062 58.5388 86.5868 59.4851 85.6405C60.4314 84.6942 62.1664 84.0633 63.2704 83.4324C65.0053 82.4861 66.8979 81.5398 68.6328 80.4358C71.1563 79.0163 73.2066 77.1237 76.2032 76.966C78.569 76.8083 81.4079 77.2814 83.3005 78.8586C84.5623 79.9626 84.8777 81.2244 85.5086 82.6438C86.1394 83.9056 87.0857 84.8519 88.0321 85.6405C89.4515 86.5868 90.871 87.5331 92.1327 88.4794C93.8676 89.7411 95.2871 90.2143 96.5488 92.1069C98.4414 95.2612 99.3877 98.731 100.334 102.359C100.965 104.093 101.28 105.828 101.596 107.721C101.911 109.14 102.542 110.244 103.173 111.664C103.646 112.926 104.119 113.872 104.75 114.976C105.066 115.449 105.381 115.922 105.539 116.553C106.012 118.761 103.804 120.338 102.7 122.073C101.438 123.966 100.019 125.543 99.3877 127.751C98.9146 129.486 99.5454 130.275 99.8609 131.852C100.492 134.533 99.23 136.11 97.4951 138.003C96.5488 138.949 95.6025 139.738 94.3408 140.369C91.0287 141.788 88.032 144.311 85.5086 146.993C85.1931 147.781 83.7737 148.885 83.1428 149.358C89.6092 148.728 95.9179 147.15 101.753 144.942C110.901 141.473 119.102 136.268 126.2 129.801C140.867 116.238 150.015 96.6807 150.015 75.0734C149.857 71.4459 149.542 68.2915 149.227 65.2949ZM65.7938 66.2412C65.4784 67.1875 63.1126 67.6606 62.1663 67.9761C61.8509 68.1338 61.3778 68.2915 61.0623 67.9761C60.2737 67.3452 62.9549 65.1372 62.9549 65.2949L62.1663 64.9794C62.9549 64.9794 63.1126 64.0331 63.7435 64.1908C63.9012 64.1908 64.5321 64.5063 64.6898 64.664C65.3207 64.8217 66.1093 65.4526 65.7938 66.2412ZM91.0287 48.8922C90.3978 52.2043 86.6126 54.7278 83.616 55.6741C82.0388 56.1473 80.6193 56.4627 79.0421 56.4627C77.6227 56.4627 76.0455 56.7781 74.626 56.4627C72.1026 55.8318 71.4717 54.0969 72.2603 52.9929C71.7871 51.7311 71.1562 50.6271 71.6294 49.3654C72.1026 48.4191 72.5757 47.4728 73.2066 46.6842C74.3106 45.107 75.8878 45.107 77.6227 44.4761C81.0925 43.3721 84.8777 42.1104 88.3475 44.003C89.9247 45.107 91.3441 46.8419 91.0287 48.8922ZM124.465 118.919C123.045 123.177 119.418 125.228 115.475 126.647C113.425 127.436 111.532 128.54 109.482 129.328C108.062 129.959 107.116 130.275 105.854 129.801C104.119 129.013 103.646 127.436 104.435 125.701C105.539 123.808 107.589 122.231 107.116 119.865C106.8 118.288 106.643 117.026 106.958 115.449C107.274 113.083 107.274 110.718 107.274 108.352C105.696 111.348 105.539 108.825 105.696 107.09C105.696 105.671 106.17 105.04 107.431 104.251C111.374 101.57 116.737 104.093 120.206 106.301C122.415 107.721 123.992 110.087 124.938 112.452C125.569 114.661 125.253 116.869 124.465 118.919ZM123.203 74.4425C122.099 74.6002 120.364 73.023 119.576 72.3922C118.787 71.7613 118.156 70.815 117.525 70.0264C116.894 69.3955 116.106 68.6069 115.633 67.8184C115.159 66.872 114.844 65.768 114.371 64.664C113.74 63.0868 113.267 61.8251 112.321 60.2479C112.005 61.1942 112.005 60.2479 112.636 59.9325C113.267 59.617 114.213 59.9325 114.844 59.9325C116.579 60.2479 117.525 61.0365 118.787 62.1405C120.049 63.56 121.468 64.664 122.572 66.0835C123.519 67.1875 125.569 69.3955 125.569 70.815C125.727 72.2345 124.465 74.4425 123.203 74.4425Z" fill="url(#paint3_linear_4_1363)"/>
<path opacity="0.4" fill-rule="evenodd" clip-rule="evenodd" d="M135.19 30.2816C134.559 30.9125 133.613 31.2279 132.824 31.8588C132.193 32.3319 131.562 33.1205 130.931 33.436C129.985 33.7514 128.723 33.436 127.935 33.1205C125.884 32.3319 124.623 31.5433 122.415 32.3319C121.784 32.6474 121.153 32.4896 120.522 32.6474C119.891 32.8051 119.891 33.1205 119.103 33.1205C117.841 33.1205 116.579 31.8588 115.79 31.0702C114.844 29.9662 114.371 29.9662 112.952 29.9662C111.532 29.9662 109.955 30.2816 109.639 32.0165C109.324 33.9091 111.69 35.4863 112.952 36.4326C114.844 37.8521 112.794 38.1675 112.005 39.5869C111.374 40.8487 112.636 41.6373 111.69 42.7413C109.639 44.9493 104.75 46.5265 102.069 45.1071C100.176 44.003 99.2301 41.9527 97.8106 40.3755C97.0221 39.4292 95.918 38.7984 95.1295 37.8521C93.8677 36.5903 92.9214 34.8554 92.2905 33.1205C92.9214 34.8554 91.8174 32.3319 91.5019 30.2816C91.3442 29.3353 91.8174 28.7044 91.9751 27.9158C92.1328 26.9695 91.6597 26.6541 91.1865 26.0232C90.3979 24.6038 89.2939 23.4997 90.3979 22.0803C91.0288 21.134 91.8174 20.3454 92.606 19.5568C93.3945 18.7682 94.3409 17.6642 95.4449 17.191C95.6026 16.5602 93.5523 14.5098 93.0791 14.0367C91.9751 12.7749 91.0288 11.1978 89.767 10.0937C89.2939 9.62059 88.3476 9.14743 88.0322 8.67428C87.4013 7.41254 89.4516 5.67765 90.2402 5.04677C91.8174 3.94275 93.2368 3.78503 94.9717 3.78503C96.0757 3.78503 97.3375 3.78503 98.5992 3.94275C100.492 4.57362 102.227 5.20449 103.962 5.99308C105.223 6.46623 106.485 7.09711 107.747 7.72798C115.002 11.1978 121.626 15.9293 127.304 21.6071C130.301 23.9729 132.824 26.9695 135.19 30.2816Z" fill="url(#paint4_linear_4_1363)"/>
<path opacity="0.4" fill-rule="evenodd" clip-rule="evenodd" d="M113.74 46.2111C115.317 46.5266 116.894 46.9997 118.314 47.6306C118.156 47.946 118.314 48.2615 118.472 48.5769C117.998 49.05 117.052 49.6809 116.264 49.8386C115.317 49.9963 114.844 49.8386 114.056 49.3655C113.267 48.8923 112.321 48.8923 112.478 47.946C112.478 46.842 113.582 46.5266 114.529 46.3688H113.74V46.2111Z" fill="url(#paint5_linear_4_1363)"/>
<path opacity="0.4" fill-rule="evenodd" clip-rule="evenodd" d="M28.7302 134.849C29.2034 135.164 29.8343 135.479 30.3074 135.637C29.3611 135.953 28.2571 136.11 27.1531 136.11C26.9953 135.164 26.3645 134.06 23.2101 132.167C25.2604 133.114 26.8376 133.902 28.7302 134.849Z" fill="url(#paint6_linear_4_1363)"/>
<path opacity="0.4" fill-rule="evenodd" clip-rule="evenodd" d="M96.0757 123.65C95.4448 124.754 95.2871 125.859 95.2871 126.963C95.2871 128.067 95.2871 129.171 95.2871 130.275C95.2871 131.852 94.1831 132.798 93.2368 133.902C92.1328 135.322 90.7133 136.268 89.4516 137.372C88.8207 138.003 88.5053 138.791 87.8744 139.422C87.2435 140.053 86.6127 140.526 86.1395 141.157C85.5086 141.946 85.3509 142.419 84.5623 142.892C83.616 143.523 82.9852 144.311 82.1966 145.1C80.7771 146.362 79.5154 147.781 78.0959 148.885C77.1496 148.885 76.2033 148.885 75.0993 148.885C71.7872 148.885 68.4751 148.728 65.3207 148.254C53.9651 146.835 43.398 142.734 34.2504 136.741C35.1967 136.899 35.9853 137.214 36.9316 137.372C37.8779 137.53 38.8242 138.003 39.7705 138.161C41.5054 138.634 43.7134 138.318 45.4483 138.318C48.1295 138.318 50.653 138.791 53.3342 139.107C55.2268 139.422 56.6463 139.738 58.5389 139.107C60.1161 138.634 61.6932 138.003 62.955 137.214C65.9516 135.479 69.4214 135.479 72.418 133.902C73.6798 133.271 74.7838 132.167 76.0456 131.379C76.6764 131.063 77.6227 130.275 78.4113 130.117C79.0422 129.959 79.5154 129.959 80.1462 129.644C81.7234 129.013 83.3006 128.697 84.8778 128.224C86.1395 127.751 88.1898 126.805 89.2939 125.859C90.7133 124.597 92.6059 122.546 93.2368 120.812C93.71 119.55 93.7099 118.446 93.7099 117.184C93.7099 116.711 93.7099 116.08 93.7099 115.607C93.7099 114.976 93.5522 114.661 93.3945 114.187C93.0791 112.926 93.71 112.295 94.0254 111.191C94.3408 110.244 94.6562 109.298 94.9717 108.194C95.2871 106.775 95.2871 105.986 94.814 104.567C94.6563 104.093 94.3408 103.305 94.1831 102.832C94.0254 102.359 94.0254 101.728 94.0254 101.255C94.0254 101.885 94.814 103.463 94.9717 103.936C95.4448 105.04 96.3912 105.986 96.3912 107.406C96.3912 108.667 96.0757 109.614 95.7603 110.875C95.4448 112.137 95.918 112.926 95.918 114.187C95.918 114.661 95.918 115.291 96.0757 115.765C96.2334 116.395 96.2334 117.026 96.3912 117.499C96.5489 118.604 97.3374 119.55 97.6529 120.496C97.6529 121.916 96.7066 122.704 96.0757 123.65Z" fill="url(#paint7_linear_4_1363)"/>
</g>
<path opacity="0.4" fill-rule="evenodd" clip-rule="evenodd" d="M38.5087 124.912C38.6665 128.698 36.4584 132.01 33.4618 134.218C32.8309 134.691 32.2 135.006 31.5692 135.322C29.992 134.218 28.5725 133.114 26.9954 131.852C19.2672 125.385 12.8008 117.342 8.22695 108.352C5.38803 102.674 3.18 96.5231 1.76054 90.0567C1.12967 86.7446 0.6565 83.4326 0.341064 80.1205C0.6565 79.8051 0.814218 79.6473 1.12965 79.3319C1.12965 81.8554 2.07596 83.748 2.70683 86.1138C3.17998 87.8487 3.81085 89.5836 4.28401 91.3185C4.59944 92.7379 4.91488 93.9997 5.86118 95.2614C6.49205 96.05 6.96521 96.3654 7.91152 96.6809C8.54239 96.9963 9.17326 97.4694 9.80413 97.7849C11.2236 98.258 13.1162 98.7312 14.6934 98.5735C15.482 98.5735 15.9551 98.5735 16.7437 98.8889C17.2169 99.2043 17.69 99.5198 18.1632 99.8352C19.2672 100.624 20.2135 101.412 21.1598 102.359C22.5793 103.936 22.4215 105.986 23.5256 107.721C24.4719 109.141 25.7336 109.614 27.4685 109.614C30.7806 109.614 33.6195 113.557 35.3544 115.922C36.9316 118.604 38.351 122.073 38.5087 124.912Z" fill="url(#paint8_linear_4_1363)"/>
</g>
<defs>
<radialGradient id="paint0_radial_4_1363" cx="0" cy="0" r="1" gradientUnits="userSpaceOnUse" gradientTransform="translate(38.6774 28.7202) scale(125.259)">
<stop offset="0.00558659" stop-color="#B1FFFF"/>
<stop offset="0.2928" stop-color="#B1FDFF"/>
<stop offset="0.4362" stop-color="#AFF5FF"/>
<stop offset="0.5473" stop-color="#ACE8FF"/>
<stop offset="0.6173" stop-color="#A9DBFF"/>
<stop offset="0.6508" stop-color="#A2D7FE"/>
<stop offset="0.6994" stop-color="#8FCAFC"/>
<stop offset="0.757" stop-color="#6FB5F9"/>
<stop offset="0.8216" stop-color="#4399F4"/>
<stop offset="0.8913" stop-color="#0C75EE"/>
<stop offset="0.905" stop-color="#006DED"/>
</radialGradient>
<linearGradient id="paint1_linear_4_1363" x1="0.354488" y1="54.0797" x2="107.839" y2="54.0797" gradientUnits="userSpaceOnUse">
<stop offset="0.0111732" stop-color="#B0E1FF"/>
<stop offset="0.2926" stop-color="#ADDEFF"/>
<stop offset="0.499" stop-color="#A5D5FF"/>
<stop offset="0.6813" stop-color="#98C5FF"/>
<stop offset="0.8488" stop-color="#85AEFF"/>
<stop offset="1" stop-color="#6D93FF"/>
</linearGradient>
<linearGradient id="paint2_linear_4_1363" x1="66.4238" y1="95.9477" x2="67.4174" y2="95.9477" gradientUnits="userSpaceOnUse">
<stop stop-color="#E8DDFF"/>
<stop offset="1" stop-color="#AA8AD8"/>
</linearGradient>
<linearGradient id="paint3_linear_4_1363" x1="41.9534" y1="93.9135" x2="149.793" y2="93.9135" gradientUnits="userSpaceOnUse">
<stop stop-color="#E8DDFF"/>
<stop offset="1" stop-color="#AA8AD8"/>
</linearGradient>
<linearGradient id="paint4_linear_4_1363" x1="87.7494" y1="24.5101" x2="135.22" y2="24.5101" gradientUnits="userSpaceOnUse">
<stop stop-color="#E8DDFF"/>
<stop offset="1" stop-color="#AA8AD8"/>
</linearGradient>
<linearGradient id="paint5_linear_4_1363" x1="112.47" y1="47.9823" x2="118.414" y2="47.9823" gradientUnits="userSpaceOnUse">
<stop stop-color="#E8DDFF"/>
<stop offset="1" stop-color="#AA8AD8"/>
</linearGradient>
<linearGradient id="paint6_linear_4_1363" x1="23.2407" y1="134.234" x2="30.3538" y2="134.234" gradientUnits="userSpaceOnUse">
<stop stop-color="#E8DDFF"/>
<stop offset="1" stop-color="#AA8AD8"/>
</linearGradient>
<linearGradient id="paint7_linear_4_1363" x1="34.2021" y1="125.354" x2="97.4232" y2="125.354" gradientUnits="userSpaceOnUse">
<stop stop-color="#E8DDFF"/>
<stop offset="1" stop-color="#AA8AD8"/>
</linearGradient>
<linearGradient id="paint8_linear_4_1363" x1="0.560923" y1="107.28" x2="38.6012" y2="107.28" gradientUnits="userSpaceOnUse">
<stop stop-color="#E8DDFF"/>
<stop offset="1" stop-color="#AA8AD8"/>
</linearGradient>
</defs>
</svg>
