<svg width="150" height="150" viewBox="0 0 150 150" fill="none" xmlns="http://www.w3.org/2000/svg">
<path fill-rule="evenodd" clip-rule="evenodd" d="M149.8 74.6005C149.8 81.8555 148.854 88.7951 146.962 95.2615C143.176 108.51 135.764 120.181 125.985 129.329C119.046 135.795 110.686 141 101.697 144.469C93.4952 147.624 84.5053 149.359 75.2 149.359C73.9382 149.359 72.5188 149.359 71.257 149.201C69.3644 149.043 67.3141 148.885 65.4215 148.728C50.9115 146.835 37.8209 140.842 27.2538 131.852C23.3109 128.54 19.6834 124.755 16.3713 120.654C14.0055 117.657 11.7975 114.345 9.74713 110.876C9.27397 110.087 8.80084 109.298 8.4854 108.352C8.4854 108.352 8.4854 108.352 8.4854 108.194C8.01225 107.248 7.53909 106.459 7.22366 105.513C5.96192 102.674 4.85788 99.6776 3.91158 96.6809C3.2807 94.4729 2.64985 92.2649 2.17669 90.0568C1.86126 88.4796 1.54582 86.9025 1.38811 85.1676C0.914953 81.6978 0.599518 78.228 0.599518 74.6005C0.599518 72.5501 0.757231 70.4998 0.914948 68.4495C1.07267 67.1877 1.23039 65.926 1.38811 64.6643C2.33441 57.2515 4.38472 50.3119 7.38136 43.8455C8.80082 40.6911 10.5357 37.5368 12.4283 34.5402C15.5827 29.6509 19.2102 25.0771 23.4686 21.1342C36.8746 8.04359 55.3276 0 75.5154 0C76.304 0 77.0926 0 77.8812 0C78.6698 0 79.6161 9.62397e-06 80.4047 0.157727C84.663 0.473163 88.9214 1.10403 92.8644 2.05033C95.2301 2.68121 97.5959 3.31208 99.8039 4.10067C101.381 4.57382 102.801 5.20468 104.378 5.83555C105.482 6.3087 106.586 6.78187 107.69 7.25502C107.848 7.41274 108.005 7.41274 108.321 7.57045C115.576 11.0402 122.2 15.7718 127.878 21.4496C128.666 22.2382 129.455 23.0268 130.243 23.8154C130.717 24.4463 131.347 24.9194 131.821 25.5503C132.767 26.4966 133.556 27.6006 134.344 28.5469C137.341 32.3321 139.864 36.4328 142.072 40.6911C144.596 45.7381 146.646 51.1005 148.066 56.6206C149.012 62.2985 149.8 68.2917 149.8 74.6005Z" fill="url(#paint0_radial_4_1244)"/>
<g opacity="0.4">
<path opacity="0.4" fill-rule="evenodd" clip-rule="evenodd" d="M19.2097 41.0067C17.7903 43.8456 16.6863 46.2113 16.3708 49.5234C16.2131 51.8892 15.7399 54.0972 16.0554 56.463C16.3708 58.9865 17.3171 61.0368 17.948 63.4026C18.8943 66.2415 20.3138 68.765 22.3641 70.8153C25.9916 74.2851 31.0386 74.4428 35.297 72.0771C37.505 70.8153 39.2399 69.2381 41.6057 68.2918C44.76 66.8723 47.7566 65.6106 49.9647 62.7717C52.3305 59.775 53.2768 56.1476 53.5922 52.3623C53.7499 50.1543 54.0654 47.9462 53.5922 45.7382C53.1191 44.0033 52.4882 42.1107 51.5419 40.5335C50.911 39.2718 49.9647 38.01 49.1761 36.906C47.9144 35.3288 46.4949 34.6979 44.76 33.9094C43.656 33.4362 42.7097 32.8053 41.4479 32.8053C40.0285 32.8053 38.4513 32.8053 37.1896 32.963C35.6124 33.1208 34.0352 33.7517 32.458 34.2248C31.0386 34.698 29.4614 35.0134 28.0419 35.6443C26.6225 36.2751 25.203 36.7483 23.7836 37.0637C21.891 37.5369 20.3138 38.1677 18.8943 39.5872C18.5789 39.9026 17.948 40.3758 17.6326 40.6912C17.0017 41.4798 17.1594 42.2684 19.2097 41.0067Z" fill="#B9BFE2"/>
<path opacity="0.4" fill-rule="evenodd" clip-rule="evenodd" d="M46.3372 73.0233C46.8103 71.6038 46.968 69.0804 48.3875 67.9763C48.8607 67.5032 49.6493 67.1877 50.2801 67.03C51.3842 66.7146 52.1727 67.1877 53.119 67.6609C55.4848 68.9226 55.0117 72.5501 53.7499 74.6005C52.6459 76.3353 49.807 77.7548 47.9144 76.3354C46.6526 75.389 46.0218 73.3387 46.3372 71.7616C46.4949 71.7616 46.4949 71.7616 46.6526 71.7616L46.3372 73.0233Z" fill="#B9BFE2"/>
<path opacity="0.4" fill-rule="evenodd" clip-rule="evenodd" d="M91.2867 95.7346C91.129 97.154 90.6558 99.5198 90.9713 101.097C91.129 102.674 91.4444 104.251 91.9176 105.671C92.5485 108.352 93.6525 111.506 96.4914 112.453C99.0149 113.399 102.169 112.453 104.535 111.506C107.058 110.402 110.055 109.614 112.421 108.037C114.787 106.459 116.995 104.567 118.73 102.359C120.622 99.9929 121.411 97.7849 121.569 94.6305C121.726 90.2144 119.834 86.2715 117.626 82.644C115.102 78.5433 110.528 77.2816 106.112 79.0165C102.327 80.2782 100.434 84.3789 97.7531 87.0601C96.9646 87.8487 96.3337 88.795 95.3874 89.5835C94.2834 90.3721 93.9679 91.1607 93.337 92.2648C92.8639 93.0534 92.0753 93.6842 91.7599 94.6305C91.129 95.7346 91.2867 97.154 91.2867 95.7346Z" fill="#B9BFE2"/>
<path opacity="0.4" fill-rule="evenodd" clip-rule="evenodd" d="M125.511 93.2111C125.827 92.8957 127.562 88.9528 129.139 89.1105C129.928 89.2682 130.558 90.0568 130.874 90.6876C131.505 91.634 131.978 92.5803 131.189 93.6843C130.243 95.1037 126.142 96.2077 125.985 93.5265C125.827 93.5265 125.827 93.5265 125.669 93.5265V93.2111H125.511Z" fill="#B9BFE2"/>
<path opacity="0.4" fill-rule="evenodd" clip-rule="evenodd" d="M64.7901 13.5638C65.1056 13.2483 66.8405 9.30537 68.4176 9.46309C69.2062 9.6208 69.8371 10.4094 70.1525 11.0403C70.7834 11.9866 71.2565 12.9329 70.468 14.0369C69.5216 15.4563 65.421 16.5604 65.2633 13.8792C65.1056 13.8792 65.1056 13.8792 64.9478 13.8792V13.5638H64.7901Z" fill="#B9BFE2"/>
<path opacity="0.4" fill-rule="evenodd" clip-rule="evenodd" d="M106.27 69.8689C106.585 69.5535 108.32 65.6106 109.897 65.7683C110.686 65.926 111.317 66.7146 111.632 67.3455C112.263 68.2918 112.736 69.2381 111.948 70.3421C111.001 71.7616 106.901 72.8656 106.743 70.1844C106.585 70.1844 106.585 70.1844 106.428 70.1844V69.8689H106.27Z" fill="#B9BFE2"/>
<path opacity="0.4" fill-rule="evenodd" clip-rule="evenodd" d="M96.0183 51.416C95.072 53.7818 93.9679 55.3589 94.7565 57.567C95.0719 58.671 95.2297 59.775 95.5451 60.879C96.176 63.0871 97.9109 64.3488 99.3303 65.926C101.381 67.9763 103.116 68.6072 105.797 67.3455C106.743 66.8723 107.532 66.3992 108.32 65.7683C109.582 64.822 110.055 64.3488 110.686 62.9294C111.317 61.8253 111.475 60.7213 111.948 59.4596C112.421 58.1979 113.052 57.0938 113.052 55.6743C113.052 54.2549 113.209 52.6777 112.894 51.416C112.421 49.6811 111.475 48.1039 110.528 46.6845C109.74 45.4227 108.793 44.1609 107.532 43.0569C106.585 42.2683 105.166 42.2684 103.904 41.9529C101.696 41.4798 98.5417 43.2147 97.4377 45.1073C95.8605 47.6308 95.072 50.4697 96.0183 51.416Z" fill="#B9BFE2"/>
<path opacity="0.4" fill-rule="evenodd" clip-rule="evenodd" d="M90.9713 65.7683C91.129 67.5032 91.7599 69.0803 92.5485 70.4998C92.8639 70.3421 93.3371 70.1843 93.6525 70.0266C93.6525 69.5535 93.968 69.3958 94.1257 68.9226C94.2834 68.4495 94.1257 67.8186 94.1257 67.3454C94.1257 66.3991 93.8103 65.7683 93.4948 64.9797C93.1794 64.3488 92.864 63.2448 92.0754 63.4025C90.4982 63.7179 90.6559 64.9797 90.9713 65.7683Z" fill="#B9BFE2"/>
<path opacity="0.4" fill-rule="evenodd" clip-rule="evenodd" d="M16.2131 113.557C16.3708 114.976 16.2131 116.08 17.0017 117.184C17.7902 118.288 18.7365 119.392 19.6829 120.339C20.3137 120.969 21.4178 122.389 22.5218 121.758C23.4681 121.285 23.6258 119.55 23.6258 118.604C23.6258 117.815 23.3104 117.026 23.1526 116.396C22.9949 115.607 22.6795 114.818 22.0486 114.03C21.26 112.768 19.3674 110.718 17.6325 111.664C17.1594 111.979 16.6862 112.137 16.3708 112.768C16.0554 113.399 16.2131 113.872 16.2131 113.557Z" fill="#B9BFE2"/>
<path opacity="0.4" fill-rule="evenodd" clip-rule="evenodd" d="M53.7499 107.564C53.4345 106.933 53.2768 106.144 53.119 105.356C52.9613 105.198 53.119 104.882 53.2768 104.725C53.5922 103.936 53.7499 103.147 54.2231 102.359C55.0117 101.097 55.8002 99.6777 57.062 98.7314C57.5351 98.416 58.0083 98.4159 58.6392 98.2582C59.1123 98.1005 59.7432 97.9428 60.2163 97.7851C61.1626 97.6274 62.2667 97.7851 63.213 98.1005C64.317 98.416 65.5788 98.7314 66.3673 99.2045C67.3136 99.6777 67.7868 100.624 68.4177 101.413C69.5217 103.147 69.9949 105.513 68.4177 107.248C67.9445 107.721 67.4714 108.037 66.9982 108.352C66.525 108.668 65.8942 109.141 65.2633 109.456C64.6324 109.772 63.6861 109.929 62.8976 110.087C61.4781 110.402 59.9009 110.403 58.3237 109.929C56.7465 109.772 55.6425 108.668 53.7499 107.564Z" fill="#B9BFE2"/>
</g>
<path fill-rule="evenodd" clip-rule="evenodd" d="M107.847 7.41258C107.532 7.41258 107.374 7.41259 107.059 7.57031C106.27 7.72803 105.482 7.5703 104.693 7.41258C104.062 7.25486 103.747 6.93942 102.958 6.93942C102.012 6.7817 101.223 6.46628 100.277 6.30856C99.3307 6.15084 98.5421 5.83541 97.5958 5.51997C96.8072 5.20454 96.4917 5.36226 95.8609 5.51997C95.23 5.67769 94.7568 5.36226 94.126 5.20454C93.4951 4.88911 92.7065 4.8891 92.0756 4.73138C90.183 4.41595 88.2904 3.78509 86.3978 3.31193C85.2938 2.9965 84.1898 2.99648 82.928 2.99648C81.9817 2.99648 81.1931 3.31193 80.2468 3.31193C79.616 3.31193 79.1428 3.15421 78.5119 3.15421C77.881 2.99649 77.2502 3.15421 76.6193 3.15421C75.673 2.99649 75.1998 2.83877 74.2535 3.15421C73.465 3.31192 72.9918 3.31192 72.2032 3.46964C71.4146 3.46964 70.4683 3.78508 69.6797 3.9428C68.2603 4.25823 66.6831 4.57366 65.2636 4.57366C64.3173 4.57366 63.0556 4.25822 62.267 4.57366C61.7938 4.73137 61.4784 5.36226 61.0052 5.6777C60.2167 6.46629 59.4281 7.09715 58.7972 7.88574C58.1663 8.67433 57.5355 9.62061 57.5355 10.7246C57.5355 11.6709 58.0086 12.775 58.4818 13.5636C58.9549 14.5099 59.1126 15.2985 58.1663 15.9294C57.0623 16.7179 55.6428 17.3488 54.3811 17.8219C53.4348 18.1374 52.6462 18.2951 52.0153 17.6643C51.6999 17.5065 51.5422 17.0334 51.2267 16.7179C50.9113 16.5602 50.4382 16.7179 50.1227 16.8757C49.1764 17.1911 48.2301 17.5065 47.2838 17.6643C46.6529 17.822 46.1798 18.1374 45.5489 18.1374C44.9181 18.2951 44.4449 17.8219 43.6563 17.9797C42.71 18.1374 41.606 18.6105 40.6597 18.6105C39.8711 18.6105 38.9248 18.2951 38.2939 17.9797C37.9785 17.8219 37.8207 17.5065 37.3476 17.6643C37.0321 17.6643 36.559 18.1374 36.4013 18.4528C36.0859 18.7683 36.0858 19.2414 35.7704 19.5568C35.455 20.03 35.2973 20.3455 34.9818 20.8186C34.5087 21.6072 34.0355 22.3958 33.5624 23.1844C33.2469 23.6575 32.9315 24.4461 32.4584 24.9192C32.3006 25.2347 31.8275 25.3924 31.512 25.5501C30.7234 26.0233 29.9349 26.6542 29.1463 27.1273C27.7268 28.2313 26.3074 29.4931 24.8879 30.5971C23.7839 31.3857 22.2067 31.8588 20.945 32.4897C20.1564 32.8051 19.3678 33.1206 18.5792 33.436C18.2638 33.5937 17.7906 33.5937 17.6329 33.9092C17.3174 34.2246 17.1597 34.5401 17.002 35.0132C16.3711 35.8018 15.5826 36.7481 15.1094 37.6944C14.794 38.3252 14.6362 38.7984 14.3208 39.4293C14.0054 40.2179 13.5322 41.0065 13.3745 41.9528C12.7436 43.6877 12.7436 45.5803 11.955 47.3152C11.6396 48.2615 11.0087 49.2078 10.5356 50.1541C9.74699 51.7312 9.58927 53.6239 9.43155 55.3588C9.27384 56.3051 9.43156 57.5668 9.58928 58.5131C9.747 59.6172 9.74699 60.7212 9.74699 61.8252C9.74699 62.9292 8.95841 64.191 8.32754 64.9796C7.69666 65.7682 6.59263 66.0836 5.80404 66.8722C5.17317 67.503 4.3846 68.1339 4.06916 69.0802C3.91144 69.3956 4.06916 69.8688 4.06916 70.342C3.91144 71.2883 3.596 72.0768 3.596 73.0231C3.43829 74.1272 3.43828 75.2312 3.43828 76.4929C3.43828 77.1238 3.43828 77.597 3.43828 78.2278C3.43828 78.8587 3.59601 79.3319 3.75373 79.805C3.75373 80.1205 3.75373 80.5936 3.75373 80.909C3.75373 81.3822 4.06916 81.8554 4.06916 82.1708C4.3846 83.2748 4.54231 84.2211 4.70002 85.3251C4.85774 86.2714 5.33089 87.2177 5.48861 88.164C5.96177 89.4258 6.11949 90.6875 6.43493 92.107C6.59265 93.0533 6.59264 94.1573 6.75036 95.1036C6.90808 95.8922 7.06579 96.6808 7.06579 97.4694C7.06579 98.7311 6.75036 99.8352 6.75036 101.097C6.75036 103.147 7.53895 105.198 8.0121 107.248C8.16982 107.879 8.32755 108.352 8.48526 108.983C3.28058 98.8889 0.44165 87.3755 0.44165 75.2312C0.44165 60.4058 4.70002 46.6843 12.1128 35.1709C15.2671 30.2816 18.8946 25.7078 23.153 21.7649C36.559 8.67431 55.012 0.630714 75.1998 0.630714C76.777 0.630714 78.5119 0.630724 80.0891 0.788442C89.8676 0.630724 99.3307 3.1542 107.847 7.41258Z" fill="url(#paint1_linear_4_1244)"/>
<defs>
<radialGradient id="paint0_radial_4_1244" cx="0" cy="0" r="1" gradientUnits="userSpaceOnUse" gradientTransform="translate(28.8352 39.5715) scale(120.026)">
<stop offset="0.00558659" stop-color="#0CC463"/>
<stop offset="0.2058" stop-color="#0CC163"/>
<stop offset="0.3613" stop-color="#0BB765"/>
<stop offset="0.5018" stop-color="#09A767"/>
<stop offset="0.6334" stop-color="#078F6B"/>
<stop offset="0.7576" stop-color="#04726F"/>
<stop offset="0.8715" stop-color="#004F74"/>
</radialGradient>
<linearGradient id="paint1_linear_4_1244" x1="0.389604" y1="54.0212" x2="107.874" y2="54.0212" gradientUnits="userSpaceOnUse">
<stop offset="0.0111732" stop-color="#92FF2C"/>
<stop offset="0.2325" stop-color="#8FFC2D"/>
<stop offset="0.3947" stop-color="#86F332"/>
<stop offset="0.5382" stop-color="#76E33A"/>
<stop offset="0.6707" stop-color="#5FCD44"/>
<stop offset="0.7958" stop-color="#42B152"/>
<stop offset="0.9136" stop-color="#1F8E63"/>
<stop offset="1" stop-color="#007072"/>
</linearGradient>
</defs>
</svg>
