<svg width="156" height="151" viewBox="0 0 156 151" fill="none" xmlns="http://www.w3.org/2000/svg">
<path fill-rule="evenodd" clip-rule="evenodd" d="M153.434 74.4428C153.434 81.6978 152.488 88.6374 150.596 95.1038C146.81 108.352 139.555 120.023 129.619 129.171C122.679 135.637 114.32 140.842 105.173 144.312C96.9715 147.466 87.9816 149.201 78.6762 149.201C77.4145 149.201 75.995 149.201 74.7333 149.043C72.8407 148.886 70.7904 148.728 68.8978 148.57C54.5454 146.677 41.2971 140.684 30.7301 131.694C26.7871 128.382 23.1596 124.597 19.8475 120.496C17.4818 117.5 15.2737 114.188 13.3811 110.718C12.908 109.929 12.4348 108.983 11.9617 108.194C11.4885 107.248 11.0154 106.459 10.6999 105.513C9.4382 102.674 8.33416 99.6776 7.38786 96.681C6.75699 94.4729 6.12611 92.2649 5.65295 90.0568C5.33752 88.4796 5.02208 86.9025 4.86436 85.1676C4.39121 81.6978 4.07578 78.228 4.07578 74.6005C4.07578 72.5501 4.07579 70.4998 4.39123 68.4495C4.54895 67.1877 4.54893 65.926 4.86436 64.6643C5.81067 57.2515 7.86098 50.312 10.8576 43.8455C12.2771 40.6912 14.012 37.5368 15.9046 34.6979C19.059 29.8086 22.6865 25.2348 26.9448 21.1342C40.3508 8.0436 58.8038 0 78.9917 0C79.7803 0 80.5689 0 81.3575 0C82.146 0 83.0924 3.60752e-06 83.8809 0.157721C88.1393 0.473157 92.3977 1.10403 96.3406 2.05033C98.7064 2.68121 101.072 3.31208 103.28 4.10066C104.857 4.57382 106.277 5.20469 107.854 5.83556C108.958 6.30871 110.062 6.78187 111.166 7.25502C111.324 7.41274 111.482 7.41274 111.797 7.57045C119.052 11.0402 125.676 15.7718 131.354 21.4496C132.143 22.2382 132.931 23.0268 133.72 23.8154C134.193 24.4462 134.824 24.9194 135.297 25.5503C136.243 26.4966 137.032 27.6006 137.82 28.5469C140.817 32.3321 143.341 36.4328 145.549 40.6912C148.072 45.7381 150.122 51.1005 151.542 56.6207C152.646 62.2985 153.434 68.2918 153.434 74.4428Z" fill="url(#paint0_radial_4_1433)"/>
<path opacity="0.5" fill-rule="evenodd" clip-rule="evenodd" d="M111.481 7.2551C111.166 7.2551 111.008 7.25509 110.693 7.41281C109.904 7.57053 109.116 7.41281 108.327 7.2551C107.696 7.09738 107.381 6.78194 106.592 6.78194C105.646 6.62423 104.857 6.30879 103.911 6.15107C102.965 5.99335 102.176 5.67792 101.23 5.36248C100.441 5.04705 100.126 5.20476 99.495 5.36248C98.8641 5.5202 98.391 5.20476 97.7601 5.04705C97.1293 4.73161 96.3406 4.73161 95.7097 4.57389C93.8171 4.25846 91.9245 3.62759 90.0319 3.15443C88.9279 2.839 87.8239 2.839 86.5621 2.839C85.6158 2.839 84.8273 3.15443 83.881 3.15443C83.2501 3.15443 82.7769 2.99672 82.146 2.99672C81.5152 2.839 80.8843 2.99672 80.2534 2.99672C79.3071 2.839 78.834 2.68128 77.8876 2.99672C77.0991 3.15443 76.6259 3.15444 75.8373 3.31215C75.0487 3.31215 74.1024 3.62759 73.3138 3.78531C71.8944 4.10074 70.3172 4.41618 68.8978 4.41618C67.9515 4.41618 66.6897 4.10074 65.9011 4.41618C65.428 4.5739 65.1125 5.20476 64.6394 5.5202C63.8508 6.30879 63.0622 6.93966 62.4313 7.72825C61.8005 8.51684 61.1696 9.46314 61.1696 10.5672C61.1696 11.5135 61.6427 12.6175 62.1159 13.4061C62.589 14.3524 62.7468 15.141 61.8005 15.7718C60.6964 16.5604 59.277 17.1913 58.0153 17.6645C57.0689 17.9799 56.2804 18.1376 55.6495 17.5067C55.3341 17.349 55.1763 16.8759 54.8609 16.5604C54.5455 16.4027 54.0723 16.5604 53.7569 16.7182C52.8106 17.0336 51.8643 17.349 50.918 17.5067C50.2871 17.6645 49.8139 17.9799 49.1831 17.9799C48.5522 18.1376 48.079 17.6645 47.2904 17.8222C46.3441 17.9799 45.2401 18.4531 44.2938 18.4531C43.5052 18.4531 42.5589 18.1376 41.928 17.8222C41.6126 17.6645 41.4549 17.349 40.9817 17.5067C40.6663 17.5067 40.1931 17.9799 40.0354 18.2953C39.72 18.6108 39.72 19.0839 39.4045 19.3994C39.0891 19.8725 38.9314 20.1879 38.6159 20.6611C38.1428 21.4497 37.6696 22.2383 37.1965 23.0269C36.8811 23.5 36.5656 24.2886 36.0925 24.7618C35.9347 25.0772 35.4616 25.2349 35.1462 25.3926C34.3576 25.8658 33.569 26.4967 32.7804 26.9698C31.361 28.0738 29.9415 29.3356 28.522 30.4396C27.418 31.2282 25.8408 31.7013 24.5791 32.3322C23.7905 32.6476 23.0019 32.9631 22.2133 33.2785C21.8979 33.4362 21.4247 33.4362 21.267 33.7517C20.9516 34.0671 20.7939 34.3825 20.6361 34.8557C20.0053 35.6443 19.2167 36.5906 18.7435 37.5369C18.4281 38.1678 18.2704 38.6409 17.9549 39.2718C17.6395 40.0604 17.1664 40.849 17.0086 41.7953C16.3778 43.5302 16.3777 45.4228 15.5891 47.1577C15.2737 48.104 14.6429 49.0503 14.1697 49.9966C13.3811 51.5738 13.2234 53.4664 13.0657 55.2013C12.908 56.1476 13.0657 57.4093 13.2234 58.3556C13.3811 59.4597 13.3811 60.5637 13.3811 61.6677C13.3811 62.7717 12.5925 64.0335 11.9617 64.8221C11.3308 65.6106 10.2268 65.9261 9.43817 66.7147C8.8073 67.3455 8.0187 67.9764 7.70326 68.9227C7.54555 69.2382 7.70326 69.7113 7.70326 70.1845C7.54555 71.1308 7.23013 71.9194 7.23013 72.8657C7.07241 73.9697 7.0724 75.0737 7.0724 76.3354C7.0724 76.9663 7.0724 77.4395 7.0724 78.0703C7.0724 78.7012 7.23014 79.1744 7.38786 79.6475C7.38786 79.963 7.38786 80.4361 7.38786 80.7515C7.38786 81.2247 7.70326 81.6978 7.70326 82.0133C8.0187 83.1173 8.17646 84.0636 8.33417 85.1676C8.49189 86.1139 8.96504 87.0603 9.12276 88.0066C9.59591 89.2683 9.75359 90.53 10.069 91.9495C10.2267 92.8958 10.2268 93.9998 10.3845 94.9461C10.5422 95.7347 10.6999 96.5233 10.6999 97.3119C10.6999 98.5737 10.3845 99.6777 10.3845 100.939C10.3845 102.99 11.1731 105.04 11.6462 107.09C11.8039 107.721 11.9617 108.194 12.1194 108.825C6.9147 98.7314 4.07578 87.218 4.07578 75.0737C4.07578 60.2482 8.33414 46.5268 15.7469 35.0134C18.9012 30.1242 22.5287 25.5504 26.7871 21.6074C40.1931 8.51684 58.6461 0.473236 78.834 0.473236C80.4111 0.473236 82.146 0.473234 83.7232 0.630951C93.5017 0.473234 102.965 3.15444 111.481 7.2551Z" fill="url(#paint1_linear_4_1433)"/>
<path fill-rule="evenodd" clip-rule="evenodd" d="M35.9347 72.7078C60.0655 76.493 58.646 82.9595 86.7197 75.2313C114.793 67.5031 134.981 25.3925 134.981 25.3925C134.981 25.3925 136.401 22.2381 135.139 20.3455C134.666 19.5569 131.038 21.1341 131.038 21.1341C131.669 34.6978 112.743 62.7716 91.2935 70.8152C88.9278 71.6038 86.7197 71.9192 84.5117 72.3924C83.5654 71.9192 81.0419 69.5535 92.713 61.6676C106.592 52.3622 112.743 48.8924 111.481 39.1139C110.22 29.3354 122.522 14.0368 122.522 14.0368C122.522 14.0368 123.468 9.93616 121.102 7.41268C118.106 4.1006 111.481 7.41268 111.481 7.41268C111.481 7.41268 109.747 26.4965 85.6157 36.7482C61.4849 46.9998 47.9212 41.9529 38.7736 39.1139C29.4682 36.275 26.787 20.9764 26.787 20.9764C26.787 20.9764 18.9011 19.3992 16.0622 24.2885C14.0119 27.916 17.0085 32.4898 17.0085 32.4898C17.0085 32.4898 31.6763 37.8522 44.7668 42.8992C57.8574 47.9461 83.0923 43.3723 91.9245 39.1139C100.914 34.8556 100.914 27.916 108.012 21.6073C111.008 19.0838 114.005 17.1912 116.528 16.0871C116.528 16.0871 108.643 28.2314 109.589 36.7482C110.535 45.2649 105.173 44.9495 91.9245 59.9327C82.6191 70.342 74.5755 73.8118 70.6326 74.7581C60.5386 75.7045 51.2333 74.6004 38.7736 71.1306C18.428 65.6105 6.28371 56.7783 6.28371 56.7783C6.28371 56.7783 4.54882 55.9897 3.91795 57.8824C3.60251 58.6709 5.49512 61.0367 5.49512 61.0367C5.49512 61.0367 11.8039 68.7649 35.9347 72.7078Z" fill="url(#paint2_linear_4_1433)"/>
<path fill-rule="evenodd" clip-rule="evenodd" d="M52.9683 144.312C52.9683 144.312 46.975 140.527 42.5589 129.013C38.1428 117.5 38.616 118.288 30.2569 111.033C21.8979 103.778 7.38786 96.681 7.38786 96.681C7.38786 96.681 6.44154 96.9965 6.44154 97.3119C6.44154 98.7314 8.17645 99.0468 8.17645 99.0468C8.17645 99.0468 21.7402 104.882 30.2569 114.188C38.7737 123.493 47.9213 140.211 41.4549 139.265C41.4549 139.265 42.8743 143.365 46.3441 144.312C49.6562 145.258 52.9683 144.312 52.9683 144.312Z" fill="url(#paint3_radial_4_1433)"/>
<path d="M112.428 88.6375C115.267 85.6408 118.579 81.6979 132.143 81.5402C145.706 81.3824 152.646 84.3791 152.646 84.3791C152.646 84.3791 155.485 83.5905 155.8 79.963C156.116 76.3355 153.277 74.6006 153.277 74.6006C153.119 75.7046 151.699 83.275 140.186 78.859C140.186 78.7012 144.287 75.0737 145.075 67.5033C146.022 59.9328 148.703 49.0503 148.703 49.0503C148.703 49.0503 150.28 46.3691 149.334 44.1611C149.018 43.3725 146.337 43.057 146.337 43.057C148.703 58.3557 142.867 76.6509 136.559 78.859C128.988 79.0167 119.683 80.2784 115.424 83.1173C110.22 86.5871 105.015 102.043 101.703 112.926C100.914 115.607 99.1795 118.604 96.9715 121.443C88.6124 123.493 91.2936 113.399 87.6661 110.402C84.0386 107.406 77.2567 108.983 72.6829 107.406C68.2668 105.671 67.0051 102.201 62.2735 101.57C57.542 100.939 49.9716 109.929 41.2971 106.302C32.6226 102.674 3.91796 68.6073 3.91796 68.6073C3.91796 68.6073 1.39448 67.9764 0.76361 69.7113C0.290457 71.1308 3.60256 74.7583 3.60256 74.7583C3.60256 74.7583 23.6327 104.882 42.7165 108.825C61.8004 112.768 79.1493 109.141 85.1426 114.188C91.1359 119.392 91.609 127.594 91.609 127.751C85.458 134.376 78.0453 140.053 74.5755 141.788C68.5823 144.785 58.8038 146.835 58.8038 146.835C60.2232 148.412 62.9044 149.674 65.7433 150.463C70.0017 151.567 72.6829 149.516 72.6829 149.516C72.6829 149.516 70.3171 147.466 73.4715 144.785C81.5151 138.003 87.3506 135.164 95.7096 133.114C100.757 131.852 102.334 134.218 102.965 133.429C110.851 135.953 117.002 130.117 123.626 124.597C130.25 119.235 138.924 118.446 138.924 118.446C138.924 118.446 143.34 117.658 144.602 115.765C145.706 114.03 143.183 111.98 143.183 111.98C143.183 111.98 139.398 113.557 132.143 117.184C125.045 120.812 117.317 131.379 108.485 131.064C103.596 130.906 104.7 126.017 104.226 125.228C104.226 124.913 104.226 124.597 104.226 124.124C104.069 120.654 103.28 117.342 103.28 114.819C103.28 114.188 103.28 113.557 103.438 112.926C104.7 108.983 109.589 91.4764 112.428 88.6375ZM97.1291 121.285C95.552 123.335 93.8171 125.386 91.9245 127.436L97.1291 121.285ZM103.911 126.647C104.069 127.436 104.226 128.225 104.069 129.171C104.069 129.644 103.911 129.96 103.596 130.117C103.28 130.275 103.122 130.275 102.807 130.275C102.492 130.433 102.018 130.433 101.703 130.59C101.072 130.748 100.441 130.59 99.968 130.59C99.3372 130.59 98.7063 130.59 98.0754 130.59C97.76 130.59 97.4446 130.433 97.1291 130.433C96.8137 130.433 96.3406 130.433 96.1829 130.275C95.552 129.959 95.0788 129.171 94.6057 129.013C94.6057 128.382 94.6056 127.909 94.9211 127.436C94.9211 127.278 95.0788 127.121 95.0788 126.805C95.2365 126.49 95.2366 126.174 95.3943 125.859C95.7097 125.07 96.0251 124.282 96.656 123.651C96.8137 123.335 97.1291 122.862 97.2868 122.547C97.6023 122.074 97.9177 121.758 98.2332 121.443C98.7063 120.97 99.1795 120.496 99.8104 120.181C100.284 119.866 101.072 119.55 101.703 119.708C102.334 119.866 102.492 120.654 102.649 121.127C102.807 121.443 102.807 121.916 102.965 122.231C103.122 122.704 103.28 123.178 103.438 123.651C103.596 124.282 103.596 124.755 103.753 125.386C103.753 125.701 103.753 126.174 103.911 126.647Z" fill="url(#paint4_linear_4_1433)"/>
<path fill-rule="evenodd" clip-rule="evenodd" d="M18.744 22.5538C18.744 22.5538 22.0561 29.4934 30.7305 35.8021C30.7305 35.8021 27.8916 25.7081 25.8413 21.6075C25.8413 21.6075 23.0024 18.9263 18.744 22.5538Z" fill="#FFFF0E"/>
<path fill-rule="evenodd" clip-rule="evenodd" d="M64.3242 43.8455C64.3242 43.8455 70.1598 41.4797 72.0524 42.426C72.0524 42.2683 66.3746 43.8455 64.3242 43.8455Z" fill="#FFFF0E"/>
<path fill-rule="evenodd" clip-rule="evenodd" d="M84.0392 38.3254C85.1432 38.01 86.2472 37.6946 87.1935 37.2214C88.1398 36.906 88.9284 36.4328 89.8747 35.9597C90.9787 35.3288 92.0828 34.6979 93.0291 33.9093C93.3445 33.7516 93.5022 33.5939 93.8177 33.4362C94.1331 33.2785 94.4485 32.963 94.7639 32.8053C95.0794 32.6476 95.2371 32.3322 95.5525 32.1745C95.868 32.0167 96.0257 31.7013 96.3411 31.5436C96.8143 31.2281 97.2874 30.755 97.6028 30.4396C97.7606 30.2818 97.9183 30.1241 98.2337 29.8087C98.3915 29.651 98.5492 29.651 98.7069 29.651C98.7069 29.8087 98.5492 30.1241 98.5492 30.2818C98.3915 30.5973 98.2337 30.755 98.076 31.0704C97.7605 31.7013 97.1297 32.0167 96.6566 32.6476C96.3411 32.963 96.0257 33.2785 95.5525 33.5939C95.0794 33.9093 94.4485 34.2248 93.8177 34.5402C93.1868 34.8557 92.5559 35.0134 92.0827 35.3288C91.6096 35.6442 90.9787 35.9597 90.5055 36.1174C90.1901 36.2751 89.717 36.5905 89.4015 36.7483C89.0861 36.906 88.7707 37.0637 88.4552 37.2214C87.9821 37.5368 87.5089 37.6946 87.0358 38.01C86.7203 38.1677 86.5626 38.1677 86.2472 38.3254C85.774 38.6409 84.9854 38.7986 84.3546 38.7986C84.1968 38.7986 83.8814 38.7986 83.7237 38.7986C83.566 38.7986 83.4082 38.6409 83.4082 38.6409C83.7237 38.4832 83.8814 38.3254 84.0392 38.3254Z" fill="#FFFF0E"/>
<path fill-rule="evenodd" clip-rule="evenodd" d="M99.8109 28.0739C99.4955 28.2316 99.3378 28.3893 99.0223 28.7048C99.0223 28.8625 98.8646 29.0202 99.18 29.0202C99.4954 29.0202 99.6532 28.8625 99.9686 28.5471C100.126 28.3893 100.284 28.0739 100.126 27.9162C99.9686 27.7585 99.6532 27.9162 99.4955 28.0739H99.8109Z" fill="#FFFF0E"/>
<path fill-rule="evenodd" clip-rule="evenodd" d="M112.586 7.72821C112.428 8.04364 112.113 8.35908 111.955 8.67451C111.797 8.98995 111.797 9.14767 111.64 9.4631C111.482 9.93625 111.324 10.5671 111.167 11.0403C110.851 11.9866 110.693 13.0906 110.22 14.0369C110.062 14.5101 109.905 14.8255 109.589 15.2987C109.432 15.4564 109.274 15.7718 109.274 15.9295C109.116 16.0872 109.116 16.245 108.958 16.5604C108.801 16.7181 108.801 16.8758 108.643 17.0336C108.485 17.1913 108.485 17.5067 108.328 17.6644C108.17 17.8221 107.855 18.2953 108.012 18.453C108.17 18.453 108.17 18.2953 108.328 18.2953C108.485 18.1376 108.801 17.9799 108.958 17.6644C109.432 17.349 109.747 16.8758 110.063 16.4027C110.22 16.245 110.378 16.0872 110.536 15.7718C110.693 15.4564 111.009 15.2987 111.167 14.9832C111.482 14.5101 111.955 14.0369 112.271 13.7215C112.428 13.5638 112.586 13.2483 112.744 13.0906C112.901 12.9329 113.059 12.7752 113.217 12.4597C113.848 11.8289 114.321 11.198 114.952 10.5671C115.425 10.094 115.74 9.4631 116.213 8.98995C116.529 8.5168 116.844 8.04365 117.002 7.57049C117.16 7.41278 117.318 6.93962 117.318 6.7819C117.16 6.46647 116.844 6.30875 116.529 6.30875C116.056 6.30875 115.583 6.30875 115.11 6.30875C114.636 6.46646 114.321 6.62419 113.848 6.7819C113.532 6.93962 113.217 7.25505 112.744 7.41277C112.586 7.72821 112.271 7.88593 112.586 7.72821Z" fill="#FFFF0E"/>
<path fill-rule="evenodd" clip-rule="evenodd" d="M116.371 16.7183C116.213 17.0337 116.055 17.3492 115.897 17.6646C115.74 17.8223 115.582 18.1378 115.424 18.2955C115.109 18.7686 114.951 19.2418 114.636 19.5572C114.162 20.3458 113.532 21.1344 113.216 21.923C113.059 22.2384 112.901 22.5539 112.743 22.8693C112.585 23.1847 112.428 23.6579 112.428 23.9733C112.27 24.2888 112.27 24.6042 112.112 25.0773C112.112 25.3928 111.955 25.7082 111.955 26.0236C112.27 25.7082 112.428 25.2351 112.743 24.9196C112.901 24.6042 113.058 24.2888 113.374 24.131C113.689 23.9733 113.847 23.6579 114.005 23.3424C114.163 23.027 114.478 22.8693 114.636 22.5539C114.793 22.2384 114.951 22.0807 115.109 21.7653C115.267 21.6076 115.424 21.2921 115.582 20.9767C115.74 20.6612 115.897 20.3458 116.055 20.0304C116.213 19.3995 116.528 18.7686 116.686 18.1378C116.686 17.8223 116.844 17.5069 116.686 17.1915C116.686 17.0337 116.371 16.4029 116.371 16.7183Z" fill="#FFFF0E"/>
<path fill-rule="evenodd" clip-rule="evenodd" d="M111.166 26.9698C111.009 27.443 110.851 27.7584 110.851 28.2316C110.851 28.3893 110.851 28.547 110.851 28.547C111.009 28.547 111.166 28.547 111.166 28.3893C111.324 28.3893 111.324 28.2316 111.324 28.0739C111.482 27.9162 111.639 27.6007 111.482 27.2853C111.482 26.9698 111.166 26.8121 111.009 27.1276L111.166 26.9698Z" fill="#FFFF0E"/>
<path fill-rule="evenodd" clip-rule="evenodd" d="M103.438 48.5773C102.649 49.3659 101.545 50.1545 100.915 51.1008C100.915 51.2585 100.441 51.574 100.599 51.7317C100.757 51.8894 101.072 51.7317 101.23 51.7317C101.703 51.574 102.176 51.2585 102.649 51.1008C102.965 50.9431 103.28 50.6276 103.596 50.4699C104.384 49.9968 105.015 49.3659 105.646 48.5773C105.962 48.2619 106.119 47.9464 106.277 47.631C106.277 47.4733 106.435 47.1579 106.435 47.1579C106.277 46.6847 105.331 47.1579 105.173 47.3156C105.015 47.4733 104.7 47.631 104.542 47.7887C104.384 47.9464 104.227 48.1042 104.069 48.1042C103.911 48.2619 103.753 48.4196 103.438 48.5773C103.438 48.735 103.28 48.8928 103.438 48.5773Z" fill="#FFFF0E"/>
<path fill-rule="evenodd" clip-rule="evenodd" d="M99.6529 52.52C99.3375 52.6777 99.0221 52.8354 98.8644 52.9932C98.8644 53.1509 98.549 53.3086 98.7067 53.4663C98.8644 53.624 99.1798 53.4663 99.1798 53.4663C99.3375 53.4663 99.4952 53.3086 99.6529 53.1509C99.6529 52.8355 99.6529 52.8355 99.6529 52.52Z" fill="#FFFF0E"/>
<path fill-rule="evenodd" clip-rule="evenodd" d="M80.2536 70.9729C79.6228 71.4461 78.8342 71.9193 78.0456 72.3924C77.0993 72.8656 76.153 73.181 75.3644 73.6542C73.945 74.4427 72.5255 75.0736 71.106 75.7045C70.9483 75.8622 68.7403 76.6508 69.5288 77.1239C69.8443 77.2817 70.3175 77.2817 70.6329 77.2817C70.9483 77.2817 71.2637 77.4394 71.5792 77.4394C71.8946 77.4394 72.21 77.4394 72.5255 77.4394C74.2604 77.4394 76.153 76.9662 77.7302 76.3354C78.0456 76.1776 78.5187 76.0199 78.8342 75.8622C78.9919 75.7045 79.1496 75.5468 79.465 75.389C79.7805 75.0736 80.0959 74.7582 80.2536 74.285C80.5691 73.6541 80.7268 73.181 80.7268 72.3924C80.7268 72.077 80.5691 71.9193 80.4114 71.6038C80.4114 71.4461 80.2536 71.2884 80.2536 70.9729Z" fill="#FFFF0E"/>
<path fill-rule="evenodd" clip-rule="evenodd" d="M67.9517 76.3355C67.6362 76.1778 67.1631 75.8623 66.6899 75.8623C66.5322 75.8623 66.3745 75.8623 66.2168 75.8623C65.9013 75.8623 65.4282 76.0201 65.1128 76.1778C64.7973 76.4932 65.5859 76.8086 65.9014 76.9664C66.2168 77.1241 66.8476 77.1241 67.1631 76.9664C67.4785 76.9664 67.9517 76.6509 67.9517 76.3355C68.1094 76.3355 68.1094 76.3355 68.1094 76.3355H67.9517Z" fill="#FFFF0E"/>
<path fill-rule="evenodd" clip-rule="evenodd" d="M90.8205 71.4461C92.3977 70.973 93.9749 70.3421 95.3944 69.5535C96.0252 69.2381 96.4983 68.9226 97.1292 68.6072C97.4447 68.4495 97.9178 68.134 98.2333 67.9763C98.391 67.9763 99.3373 67.3454 99.495 67.6609C99.6527 67.9763 98.7064 68.6072 98.5487 68.7649C98.2333 69.0803 97.7601 69.3958 97.2869 69.7112C96.9715 70.0266 96.4984 70.0266 96.183 70.3421C95.7098 70.6575 95.2366 70.8152 94.6058 71.1307C94.2903 71.2884 93.8172 71.4461 93.5017 71.6038C93.1863 71.7615 92.8708 71.7615 92.5554 71.9193C92.3976 71.9193 92.0823 71.9193 91.9246 71.9193C91.6091 71.7615 90.9782 71.9193 90.8205 71.4461Z" fill="#FFFF0E"/>
<path fill-rule="evenodd" clip-rule="evenodd" d="M125.991 80.1207C126.78 80.1207 127.726 80.2784 128.515 80.1207C129.146 79.9629 129.619 79.9629 130.25 79.8052C131.354 79.6475 132.616 79.3321 133.72 79.3321C134.193 79.3321 134.666 79.3321 135.139 79.3321C135.454 79.3321 135.77 79.3321 135.928 79.3321C136.085 79.3321 136.401 79.4898 136.401 79.6475C136.716 79.9629 136.401 79.9629 136.243 79.9629C135.77 80.1207 135.454 80.4361 134.981 80.4361C134.193 80.5938 133.562 80.7515 132.773 80.9092C132.3 80.9092 131.827 80.9092 131.196 80.9092C130.565 81.067 129.934 81.067 129.146 81.067C128.515 81.067 128.042 81.067 127.411 81.067C126.938 81.067 126.622 80.9092 126.149 80.9092C125.834 80.9092 125.518 80.9092 125.361 80.7515C125.518 80.9092 125.203 80.5938 125.991 80.1207Z" fill="#FFFF0E"/>
<path fill-rule="evenodd" clip-rule="evenodd" d="M144.918 80.9091C145.864 81.0668 146.495 81.0668 147.442 80.9091C148.073 80.7514 148.703 80.7514 149.177 80.5937C149.965 80.436 150.911 80.1205 151.7 79.6474C152.173 79.3319 152.962 78.8588 153.435 79.0165C153.908 79.1742 154.381 79.6474 154.381 80.1205C154.381 80.7514 153.75 81.0668 153.435 81.3823C152.804 81.8554 151.7 82.1708 150.911 82.1708C149.965 82.1708 148.861 82.0131 147.915 81.8554C147.599 81.8554 147.284 81.6977 146.968 81.6977C146.653 81.54 146.022 81.54 144.918 80.9091Z" fill="#FFFF0E"/>
<path fill-rule="evenodd" clip-rule="evenodd" d="M147.126 44.0034C147.126 44.6343 146.653 46.3692 147.441 46.8424C147.914 47.1578 148.072 46.3692 148.072 46.0538C148.23 45.5806 147.914 44.3189 147.126 44.0034Z" fill="#FFFF0E"/>
<path fill-rule="evenodd" clip-rule="evenodd" d="M6.28396 59.4595C7.07255 60.4058 7.54569 61.3521 8.492 61.8252C9.12287 62.1407 9.59603 62.6138 10.2269 62.7715C10.8578 62.9293 11.6464 63.087 12.2773 63.087C12.5927 63.087 12.7504 63.087 12.7504 62.6138C12.7504 62.4561 12.5927 62.1407 12.4349 61.983C12.2772 61.6675 11.9618 61.5098 11.6464 61.1944C11.3309 60.8789 11.1732 60.5635 10.8578 60.2481C9.75374 59.3018 8.64974 58.6709 7.23028 58.1977C6.75713 58.04 6.75712 58.04 6.28396 58.1977C5.96853 58.3554 5.96855 58.3554 5.81083 58.6709C5.81083 59.144 6.12625 59.6172 6.44169 60.0903L6.28396 59.4595Z" fill="#FFFF0E"/>
<path fill-rule="evenodd" clip-rule="evenodd" d="M6.91515 74.1276C8.01917 76.0202 9.43863 77.5974 10.8581 79.3323C11.8044 80.4363 12.4353 82.0135 13.5393 83.1175C13.697 83.2752 15.7473 85.0101 15.7473 84.0638C15.7473 83.9061 15.1165 82.9598 15.1165 82.8021C14.8011 82.3289 14.4856 81.698 14.0124 81.2249C13.697 80.7517 13.2239 80.4363 13.0662 79.9632C12.7507 79.49 12.4353 79.1746 12.1199 78.7014C11.6467 78.2283 11.3313 77.4397 11.0158 76.9665C10.7004 76.4934 10.2273 75.8625 9.91182 75.3893C9.43867 74.6008 8.80778 73.8122 8.01919 73.4967C7.86147 73.339 7.54604 73.1813 7.2306 73.339C6.44201 73.8122 6.75743 74.7585 6.91515 74.1276Z" fill="#FFFF0E"/>
<path fill-rule="evenodd" clip-rule="evenodd" d="M78.8339 109.299C80.5688 108.983 81.8305 108.668 83.5654 109.141C84.354 109.299 85.1426 109.614 85.9312 109.772C86.4043 109.929 87.1929 110.087 87.5084 110.403C87.8238 110.876 87.8238 111.507 87.3506 111.822C86.8775 112.295 85.7735 112.137 85.1426 112.137C83.8809 111.98 82.7769 111.822 81.5151 111.507C80.8842 111.349 79.938 111.033 79.3071 110.56C79.1494 110.403 78.5185 109.772 78.8339 109.299Z" fill="#FFFF0E"/>
<path fill-rule="evenodd" clip-rule="evenodd" d="M101.703 118.131C100.914 117.973 100.757 116.396 101.072 115.765C101.23 115.45 101.387 114.819 101.861 114.661C102.176 114.503 102.334 114.819 102.649 114.819C102.334 115.607 101.861 116.238 101.387 116.869L101.703 118.131Z" fill="#FFFF0E"/>
<path fill-rule="evenodd" clip-rule="evenodd" d="M133.089 117.658C134.193 116.869 134.982 116.396 136.244 116.08C136.875 115.923 137.505 115.765 138.136 115.607C138.925 115.449 139.556 114.976 140.344 114.976C140.66 114.976 140.818 114.976 141.133 114.819C141.448 114.819 141.291 114.661 141.606 114.819C142.237 115.134 141.922 115.607 141.606 115.923C140.818 116.553 140.187 116.869 139.24 117.027C138.609 117.184 138.294 117.5 137.663 117.658C137.348 117.815 137.032 117.815 136.717 117.973C135.297 118.288 133.878 117.973 133.089 117.658Z" fill="#FFFF0E"/>
<path fill-rule="evenodd" clip-rule="evenodd" d="M32.7804 114.976C33.4113 116.396 34.0422 117.815 34.9885 119.077C35.4616 119.708 35.777 120.181 36.4079 120.496C36.8811 120.654 37.3542 120.812 37.3542 120.023C37.3542 119.708 37.0388 119.077 36.8811 118.761C36.2502 117.657 35.4616 116.869 34.8307 115.922C34.5153 115.607 34.1999 114.976 33.8844 114.818C33.4113 114.661 32.6227 114.345 32.7804 114.976Z" fill="#FFFF0E"/>
<path fill-rule="evenodd" clip-rule="evenodd" d="M61.9585 146.835C63.6934 146.52 65.1128 145.889 66.69 145.416C67.3209 145.1 67.9517 145.1 68.7403 145.1L68.898 144.942C69.0558 144.942 69.3712 144.942 69.5289 144.942C69.6866 144.942 70.4752 144.785 70.633 144.942C71.2638 145.416 70.0021 146.677 69.6866 146.835C68.5826 147.939 66.8477 148.57 65.1128 148.412C64.3242 148.255 63.5357 147.939 62.7471 147.781C62.2739 147.781 61.1699 147.466 61.1699 146.835C61.3276 146.993 61.3276 146.835 61.9585 146.835Z" fill="#FFFF0E"/>
<path fill-rule="evenodd" clip-rule="evenodd" d="M90.9788 129.96C89.5593 130.906 87.8244 131.852 86.7204 133.429C85.9318 134.533 87.3513 134.218 87.9821 134.06C88.4553 133.903 88.9284 133.745 89.2438 133.429C89.5593 133.114 89.8747 132.956 90.1902 132.483C90.5056 132.168 90.6633 132.01 90.9788 131.852C91.1365 131.537 91.2942 131.064 91.6096 130.906C91.6096 130.748 91.4519 130.748 91.4519 130.591L90.9788 129.96Z" fill="#FFFF0E"/>
<path fill-rule="evenodd" clip-rule="evenodd" d="M50.2872 107.09C51.3912 106.617 52.4953 106.302 53.4416 105.671C54.3879 105.198 55.3342 104.567 56.2805 104.094C57.5423 103.463 58.804 102.674 60.2235 102.517C60.6966 102.517 61.1698 102.201 61.6429 102.517C62.1161 102.674 62.2738 102.832 62.5892 103.147C63.3778 104.251 61.8006 105.198 61.0121 105.671C60.3812 106.144 59.908 106.617 59.1194 106.933C58.3308 107.248 57.5422 107.406 56.7537 107.721C55.4919 108.194 54.0724 108.825 52.653 108.983C51.8644 109.141 51.2335 108.825 50.6027 108.352C50.2872 108.194 49.9718 107.879 49.8141 107.564C49.6564 107.406 49.4986 107.09 50.2872 107.09Z" fill="#FFFF0E"/>
<defs>
<radialGradient id="paint0_radial_4_1433" cx="0" cy="0" r="1" gradientUnits="userSpaceOnUse" gradientTransform="translate(32.415 39.5084) scale(120.026)">
<stop offset="0.00558659" stop-color="#9D9D94"/>
<stop offset="0.2018" stop-color="#DFD2C1"/>
<stop offset="0.3542" stop-color="#C2B5A2"/>
<stop offset="0.4919" stop-color="#D5C8B5"/>
<stop offset="0.6209" stop-color="#A09277"/>
<stop offset="0.7437" stop-color="#847B60"/>
<stop offset="0.8606" stop-color="#736950"/>
<stop offset="0.942708" stop-color="#A09277"/>
</radialGradient>
<linearGradient id="paint1_linear_4_1433" x1="3.96963" y1="53.9583" x2="111.454" y2="53.9583" gradientUnits="userSpaceOnUse">
<stop offset="0.0111732" stop-color="#D7CAB7"/>
<stop offset="0.2983" stop-color="#E1DAC0"/>
<stop offset="0.695" stop-color="#EDE0CE"/>
<stop offset="0.8659" stop-color="#C3B6A2"/>
<stop offset="1" stop-color="#9A968B"/>
</linearGradient>
<linearGradient id="paint2_linear_4_1433" x1="3.62775" y1="42.2877" x2="135.634" y2="42.2877" gradientUnits="userSpaceOnUse">
<stop offset="0.00558659" stop-color="#FFB80B"/>
<stop offset="0.388" stop-color="#FFB60C"/>
<stop offset="0.5789" stop-color="#FEAE10"/>
<stop offset="0.7274" stop-color="#FCA117"/>
<stop offset="0.8539" stop-color="#FA8E21"/>
<stop offset="0.9655" stop-color="#F7762E"/>
<stop offset="1" stop-color="#F66D33"/>
</linearGradient>
<radialGradient id="paint3_radial_4_1433" cx="0" cy="0" r="1" gradientUnits="userSpaceOnUse" gradientTransform="translate(15.2166 109.42) scale(37.951)">
<stop offset="0.00558659" stop-color="#FFB80B"/>
<stop offset="0.388" stop-color="#FFB60C"/>
<stop offset="0.5789" stop-color="#FEAE10"/>
<stop offset="0.7274" stop-color="#FCA117"/>
<stop offset="0.8539" stop-color="#FA8E21"/>
<stop offset="0.9655" stop-color="#F7762E"/>
<stop offset="1" stop-color="#F66D33"/>
</radialGradient>
<linearGradient id="paint4_linear_4_1433" x1="1.08362" y1="96.7616" x2="155.861" y2="96.7616" gradientUnits="userSpaceOnUse">
<stop offset="0.00558659" stop-color="#FFB80B"/>
<stop offset="0.388" stop-color="#FFB60C"/>
<stop offset="0.5789" stop-color="#FEAE10"/>
<stop offset="0.7274" stop-color="#FCA117"/>
<stop offset="0.8539" stop-color="#FA8E21"/>
<stop offset="0.9655" stop-color="#F7762E"/>
<stop offset="1" stop-color="#F66D33"/>
</linearGradient>
</defs>
</svg>
