<svg width="151" height="150" viewBox="0 0 151 150" fill="none" xmlns="http://www.w3.org/2000/svg">
<path fill-rule="evenodd" clip-rule="evenodd" d="M150.112 74.7582C150.112 96.3655 140.965 115.765 126.297 129.486C119.357 135.953 110.998 141.157 102.008 144.627C93.8071 147.782 84.8172 149.516 75.5119 149.516C72.1998 149.516 68.8877 149.359 65.7334 148.886C62.7367 148.57 59.8978 147.939 57.0589 147.151C50.277 145.416 43.9683 142.735 38.1328 139.422C34.3475 137.214 30.8777 134.849 27.5657 132.01C19.8375 125.543 13.3711 117.5 8.79726 108.51C5.95834 102.832 3.7503 96.681 2.33084 90.2146C1.22682 85.1676 0.753662 80.1206 0.753662 74.7582C0.753662 59.9327 5.01204 46.2113 12.4248 34.6979C15.5791 29.8086 19.2066 25.2348 23.465 21.1342C36.871 8.04359 55.324 0 75.5119 0C77.089 0 78.8239 9.62398e-06 80.4011 0.157727C88.9179 0.788598 96.9615 2.6812 104.374 5.83555C105.636 6.3087 106.898 6.93958 108.159 7.57046C113.522 10.2517 118.569 13.5637 123.3 17.3489C124.877 18.6107 126.297 20.0302 127.716 21.4496C128.19 21.9228 128.82 22.3959 129.294 23.0268C142.226 36.4328 150.112 54.728 150.112 74.7582Z" fill="url(#paint0_radial_4_1508)"/>
<path opacity="0.5" fill-rule="evenodd" clip-rule="evenodd" d="M1.54227 85.8991L3.83272 97.5898C3.83272 97.5898 16.4302 105.805 45.7766 102.803C75.1231 99.8016 81.9944 84.0033 93.4467 74.8402C104.899 65.6772 127.088 58.4099 132.814 51.1427C138.54 44.0334 133.673 29.6569 133.673 29.6569L131.382 26.1813C131.382 26.1813 135.534 38.504 130.523 47.5091C125.656 56.5142 103.754 60.7797 91.872 72.3125C79.9903 83.8453 55.7974 92.6923 35.0401 92.8503C14.7124 93.0083 1.54227 85.8991 1.54227 85.8991Z" fill="#4E79A6"/>
<path opacity="0.5" fill-rule="evenodd" clip-rule="evenodd" d="M14.1597 116.651L18.7556 124.094C18.7556 124.094 39.8682 130.904 71.6089 124.094C103.35 117.284 127.335 97.4882 138.394 86.2441C149.596 75 148.16 59.3215 148.16 59.3215L147.155 54.5705C147.155 54.5705 145.144 70.8824 132.792 86.2441C120.441 101.606 99.7589 115.542 70.029 121.243C40.4427 127.103 14.1597 116.651 14.1597 116.651Z" fill="#386293"/>
<path opacity="0.5" fill-rule="evenodd" clip-rule="evenodd" d="M6.27377 45.8081C6.27377 45.8081 46.777 61.2537 78.0304 54.389C109.284 47.6803 117.693 25.214 118.253 13.6689L112.507 8.8324C112.507 8.8324 112.647 31.9227 92.8863 45.9641C73.1252 59.8495 22.391 51.5807 8.79647 39.5675L6.27377 45.8081Z" fill="#2A3D67"/>
<defs>
<radialGradient id="paint0_radial_4_1508" cx="0" cy="0" r="1" gradientUnits="userSpaceOnUse" gradientTransform="translate(54.2643 53.5833) scale(109.603)">
<stop offset="0.00558659" stop-color="#48719F"/>
<stop offset="0.348958" stop-color="#386294"/>
<stop offset="0.692708" stop-color="#264063"/>
<stop offset="1" stop-color="#19344F"/>
</radialGradient>
</defs>
</svg>
