<svg width="151" height="151" viewBox="0 0 151 151" fill="none" xmlns="http://www.w3.org/2000/svg">
<path fill-rule="evenodd" clip-rule="evenodd" d="M150.033 75.3353C150.033 96.9427 140.885 116.342 126.217 130.063C119.278 136.53 110.919 141.734 101.771 145.204C93.5699 148.359 84.58 150.094 75.2746 150.094C71.9625 150.094 68.6505 149.936 65.4961 149.463C51.1438 147.57 37.8955 141.577 27.3284 132.587C19.6003 126.12 13.1338 118.077 8.56002 109.087C5.7211 103.409 3.51305 97.2581 2.0936 90.7917C0.989572 85.7447 0.516418 80.6977 0.516418 75.3353C0.516418 60.5099 4.77479 46.7884 12.1875 35.275C15.3419 30.3858 18.9694 25.812 23.2278 21.869C36.6338 8.77846 55.0867 0.734863 75.2746 0.734863C76.8518 0.734863 78.5867 0.734867 80.1639 0.892585C88.6806 1.36574 96.7242 3.41607 104.295 6.57042C105.556 7.04357 106.818 7.67444 108.08 8.30531C115.335 11.7751 121.959 16.5066 127.637 22.1845C141.516 35.5905 150.033 54.5166 150.033 75.3353Z" fill="url(#paint0_radial_4_1617)"/>
<path fill-rule="evenodd" clip-rule="evenodd" d="M35.8452 124.859C29.5365 124.859 18.0231 115.711 12.503 104.04C5.7211 89.3723 5.56338 73.9159 8.87546 71.077C9.82176 70.2884 11.0835 69.8153 12.6607 69.8153C13.607 69.8153 14.8687 69.973 15.9728 70.2884C23.8586 72.6542 34.8989 83.5367 39.6304 94.577C44.2042 105.302 42.9425 113.819 41.523 119.023C40.5767 123.912 37.8955 124.859 35.8452 124.859Z" fill="url(#paint1_linear_4_1617)"/>
<path fill-rule="evenodd" clip-rule="evenodd" d="M14.711 64.9261C13.9224 64.9261 13.1338 64.6107 12.6607 63.9798C10.6104 61.614 13.607 53.255 14.8687 50.2583C16.9191 45.5268 19.1271 43.0033 21.0197 43.0033C21.8083 43.0033 22.4392 43.3188 23.0701 43.7919L23.3855 44.1074C25.5935 46.3154 26.6976 51.5201 24.6472 55.6207C23.0701 58.6174 18.4962 63.8221 15.3419 64.6107C15.3419 64.9261 15.0265 64.9261 14.711 64.9261Z" fill="url(#paint2_linear_4_1617)"/>
<path fill-rule="evenodd" clip-rule="evenodd" d="M24.1741 55.3053C22.7546 58.1442 18.0231 63.3489 15.1842 64.1375C14.3956 64.2952 13.7647 64.2952 13.4493 63.822C11.3989 61.2985 17.3922 44.1073 21.4929 43.9496C22.1237 43.9496 22.7546 44.265 23.2278 44.7382C24.9627 46.4731 26.0667 51.3623 24.1741 55.3053Z" fill="url(#paint3_linear_4_1617)"/>
<path fill-rule="evenodd" clip-rule="evenodd" d="M24.1741 55.3053C22.7546 58.1442 18.0231 63.3489 15.1842 64.1374C15.3419 63.0334 17.5499 49.6274 23.0701 44.7382C24.9627 46.4731 26.0667 51.3623 24.1741 55.3053Z" fill="#FFFF45"/>
<path opacity="0.3" fill-rule="evenodd" clip-rule="evenodd" d="M110.682 82.8483C110.019 83.8582 109.371 84.7694 108.525 85.6497C107.825 86.2491 107.041 86.7342 106.522 87.4631C104.609 89.999 104.413 93.207 103.176 95.9494C102.436 97.4534 101.05 98.5532 100.31 100.057C100.005 100.718 99.996 101.425 99.8729 102.216C99.7344 103.105 99.148 103.621 98.5463 104.236C97.8303 104.934 96.9629 105.305 96.0121 105.561C95.2742 105.75 94.4991 105.528 93.7087 105.405C92.0289 105.143 90.4788 104.7 88.8759 103.944C87.4554 103.318 86.1798 102.411 84.7746 101.686C83.8326 101.236 83.0268 101.211 82.0079 101.255C81.0879 101.314 80.1152 101.062 79.2259 100.923C77.6449 100.677 76.0243 101.335 74.5333 101.812C73.4682 102.152 72.6842 102.637 72.1197 103.662C71.4256 104.87 71.241 106.055 69.6819 106.319C68.7465 106.477 67.7057 106.011 66.8472 105.675C66.0875 105.354 65.1829 105.314 64.3924 105.191C62.8114 104.945 61.4063 104.22 60.0318 103.298C58.4906 102.147 57.2085 100.632 56.124 99.147C55.5401 98.3476 54.6135 97.7985 54.0296 96.9991C53.18 95.9559 52.2316 94.8974 51.4808 93.8696C50.2295 92.1567 48.8794 90.4283 47.5139 88.7988C46.4666 87.7248 45.6632 86.3852 44.8444 85.1445C44.1924 84.1321 43.8984 82.7706 43.4748 81.5914C42.6123 79.3318 41.9935 76.8065 41.77 74.3427C41.4938 71.5672 41.1496 68.5786 41.6792 65.8273C42.0485 63.4559 42.0907 61.236 42.46 58.8645C41.5699 63.2802 41.1981 66.9669 41.1536 70.5021C40.9544 67.2325 41.1504 64.0245 41.6736 60.665C43.12 51.3769 47.1266 43.196 52.894 36.7062C55.3472 33.9509 58.0661 31.4394 61.1186 29.3846C70.7946 22.4915 83.14 19.2526 95.7876 21.2223C96.7756 21.3762 97.8625 21.5454 98.8352 21.7981C104.125 22.9255 108.964 24.9948 113.399 27.7096C114.385 29.1788 115.34 30.8456 115.998 32.4662C116.301 33.1206 116.391 33.8431 116.694 34.4975C116.898 35.1365 117.262 35.3957 117.056 36.0719C116.895 36.4518 116.621 36.9151 116.362 37.2795C115.668 38.4871 114.047 39.1456 112.852 39.668C111.118 40.4098 109.277 40.5281 107.459 41.1558C106.28 41.5793 105.907 42.0272 104.978 42.7934C104.505 43.2259 103.965 43.4454 103.592 43.8933C102.487 45.1381 101.685 47.0373 101.538 48.6337C101.144 51.8109 103.261 54.4682 103.392 57.5248C103.486 60.1708 102.66 62.8759 103.164 65.4846C103.607 68.4886 105.724 71.1459 107.833 73.195C108.714 74.0405 109.511 74.7718 110.277 75.7008C110.944 76.6144 111.97 77.1789 112.409 78.2593C112.656 79.9172 111.506 81.4585 110.682 82.8483Z" fill="url(#paint4_linear_4_1617)"/>
<path fill-rule="evenodd" clip-rule="evenodd" d="M108.08 8.14764C107.764 8.14764 107.607 8.14764 107.291 8.30536C106.503 8.46308 105.714 8.30536 104.926 8.14764C104.295 7.98993 103.979 7.67449 103.191 7.67449C102.244 7.51677 101.456 7.20134 100.509 7.04362C99.5632 6.8859 98.7746 6.57047 97.8283 6.25503C97.0397 5.93959 96.7242 6.09731 96.0934 6.25503C95.4625 6.41275 94.9894 6.09731 94.3585 5.93959C93.7276 5.62416 92.939 5.62416 92.3082 5.46644C90.4155 5.15101 88.5229 4.52014 86.6303 4.04699C85.5263 3.73155 84.4223 3.73155 83.1605 3.73155C82.2142 3.73155 81.4256 4.04699 80.4793 4.04699C79.8484 4.04699 79.3753 3.88926 78.7444 3.88926C78.1136 3.73155 77.4827 3.88926 76.8518 3.88926C75.9055 3.73155 75.4324 3.57383 74.4861 3.88926C73.6975 4.04698 73.2243 4.04698 72.4357 4.2047C71.6471 4.2047 70.7008 4.52014 69.9122 4.67785C68.4928 4.99329 66.9156 5.30873 65.4961 5.30873C64.5498 5.30873 63.2881 4.99329 62.4995 5.30873C62.0263 5.46644 61.7109 6.09732 61.2378 6.41275C60.4492 7.20134 59.6606 7.83221 59.0297 8.6208C58.3988 9.40938 57.768 10.3557 57.768 11.4597C57.768 12.406 58.2411 13.51 58.7143 14.2986C59.1874 15.2449 59.3451 16.0335 58.3988 16.6644C57.2948 17.453 55.8754 18.0839 54.6136 18.557C53.6673 18.8724 52.8787 19.0302 52.2478 18.3993C51.9324 18.2416 51.7747 17.7684 51.4593 17.453C51.1438 17.2953 50.6707 17.453 50.3552 17.6107C49.4089 17.9261 48.4626 18.2416 47.5163 18.3993C46.8854 18.557 46.4123 18.8725 45.7814 18.8725C45.1506 19.0302 44.6774 18.557 43.8888 18.7147C42.9425 18.8724 41.8385 19.3456 40.8922 19.3456C40.1036 19.3456 39.1573 19.0302 38.5264 18.7147C38.211 18.557 38.0533 18.2416 37.5801 18.3993C37.2647 18.3993 36.7915 18.8724 36.6338 19.1879C36.3184 19.5033 36.3184 19.9765 36.0029 20.2919C35.6875 20.7651 35.5298 21.0805 35.2143 21.5536C34.7412 22.3422 34.268 23.1308 33.7949 23.9194C33.4794 24.3926 33.164 25.1812 32.6909 25.6543C32.5331 25.9697 32.06 26.1275 31.7445 26.2852C30.956 26.7583 30.1674 27.3892 29.3788 27.8624C27.9593 28.9664 26.5399 30.2281 25.1204 31.3321C24.0164 32.1207 22.4392 32.5939 21.1775 33.2248C20.3889 33.5402 19.6003 33.8556 18.8117 34.1711C18.4963 34.3288 18.0231 34.3288 17.8654 34.6442C17.55 34.9597 17.3922 35.2751 17.2345 35.7482C16.6037 36.5368 15.8151 37.4831 15.3419 38.4294C15.0265 39.0603 14.8688 39.5335 14.5533 40.1643C14.2379 40.9529 13.7647 41.7415 13.607 42.6878C12.9761 44.4227 12.9761 46.3153 12.1876 48.0502C11.8721 48.9965 11.2413 49.9428 10.7681 50.8891C9.97951 52.4663 9.82179 54.3589 9.66407 56.0938C9.50636 57.0401 9.66407 58.3019 9.82179 59.2482C9.97951 60.3522 9.97951 61.4562 9.97951 62.5603C9.97951 63.6643 9.19092 64.926 8.56005 65.7146C7.92918 66.5032 6.82516 66.8186 6.03657 67.6072C5.4057 68.2381 4.61711 68.869 4.30167 69.8153C4.14395 70.1307 4.30167 70.6039 4.30167 71.077C4.14395 72.0233 3.82852 72.8119 3.82852 73.7582C3.6708 74.8622 3.6708 75.9663 3.6708 77.228C3.6708 77.8589 3.6708 78.332 3.6708 78.9629C3.6708 79.5938 3.82852 80.0669 3.98623 80.5401C3.98623 80.8555 3.98623 81.3287 3.98623 81.6441C3.98623 82.1172 4.30167 82.5904 4.30167 82.9058C4.61711 84.0099 4.77483 84.9562 4.93254 86.0602C5.09026 87.0065 5.56341 87.9528 5.72113 88.8991C6.19428 90.1608 6.352 91.4226 6.66744 92.842C6.82515 93.7884 6.82515 94.8924 6.98287 95.8387C7.14059 96.6273 7.29831 97.4159 7.29831 98.2045C7.29831 99.4662 6.98287 100.57 6.98287 101.832C6.98287 103.882 7.77146 105.933 8.24461 107.983C8.40233 108.614 8.56005 109.087 8.71776 109.718C3.51308 99.6239 0.674164 88.1105 0.674164 75.9663C0.674164 61.1408 4.93254 47.4193 12.3453 35.906C15.4996 31.0167 19.1271 26.4429 23.3855 22.5C36.7915 9.40938 55.2445 1.36578 75.4324 1.36578C77.0095 1.36578 78.7444 1.36578 80.3216 1.5235C90.1001 1.5235 99.5632 4.04698 108.08 8.14764Z" fill="url(#paint5_linear_4_1617)"/>
<path opacity="0.3" fill-rule="evenodd" clip-rule="evenodd" d="M101.613 132.271C103.033 131.325 104.452 130.537 106.03 129.59C107.607 128.644 109.184 128.171 110.919 127.382C112.181 126.909 112.338 126.909 113.285 127.698C114.231 128.486 115.335 128.644 116.439 128.644C118.016 128.644 119.751 128.802 119.909 130.852C120.066 133.691 115.966 136.057 113.915 137.161C112.338 138.107 110.603 138.738 108.868 139.526C107.449 140.157 105.872 140.946 104.295 141.104C102.875 141.261 102.087 140.63 101.14 139.684C100.036 138.422 100.194 137.318 100.194 135.899C100.194 134.006 100.194 132.745 101.613 132.271Z" fill="url(#paint6_linear_4_1617)"/>
<path opacity="0.3" fill-rule="evenodd" clip-rule="evenodd" d="M123.852 27.7047C124.956 29.9127 125.744 32.9094 127.479 34.802C128.425 35.7483 129.056 35.906 130.318 35.906C130.949 35.906 132.053 36.0637 132.684 35.906C133.472 35.5905 133.472 34.6442 133.472 33.8557C133.315 30.859 131.422 28.1778 129.529 26.1275C128.268 24.708 126.375 23.1308 124.325 23.4463C123.694 24.8657 123.536 26.2852 123.852 27.7047Z" fill="url(#paint7_linear_4_1617)"/>
<path fill-rule="evenodd" clip-rule="evenodd" d="M33.7948 19.9765C33.0062 20.2919 32.6908 20.2919 31.9022 20.9228C31.2714 21.396 30.6405 21.8691 30.0096 22.5C29.221 23.2886 28.9056 24.0772 28.7479 24.8657C28.4324 25.6543 28.2747 26.6006 28.5901 27.0738C28.7479 27.2315 29.221 27.2315 29.6942 27.2315C30.3251 27.0738 30.9559 26.6006 31.5868 26.2852C32.3754 25.8121 33.0063 25.0235 33.6371 24.2349C34.1103 23.604 34.268 22.9731 34.5834 22.3423C34.7411 21.8691 34.8989 21.5537 35.0566 21.2382C35.2143 20.9228 35.2143 20.6074 35.0566 20.4497C34.8989 19.9765 34.7411 19.9765 33.7948 19.9765Z" fill="#FFFF45"/>
<path fill-rule="evenodd" clip-rule="evenodd" d="M42.6271 18.5569C42.3116 18.8723 41.6808 19.3455 42.1539 19.6609C42.3117 19.8187 42.4694 19.6609 42.6271 19.8187C42.7848 19.8187 42.7848 19.9764 42.9425 19.8187C43.4157 19.8187 43.258 18.3992 42.6271 18.5569Z" fill="#FFFF45"/>
<path fill-rule="evenodd" clip-rule="evenodd" d="M44.9928 23.2885C45.1505 23.1308 45.466 23.1308 45.6237 23.1308C45.6237 23.4462 45.9391 23.9194 45.466 24.2348C45.1506 24.3925 45.3083 23.7617 45.1505 23.7617L44.9928 23.2885Z" fill="#FFFF45"/>
<path fill-rule="evenodd" clip-rule="evenodd" d="M49.5666 23.2885C50.0398 23.4463 50.3552 23.604 50.8284 23.7617C50.9861 23.604 51.1438 23.604 51.3015 23.604C51.4592 23.4463 51.617 23.1308 51.7747 22.9731C51.9324 22.6577 51.7747 22.3422 51.617 22.0268C51.4593 21.8691 51.4592 21.5537 51.3015 21.3959C51.1438 21.2382 50.6707 21.2382 50.5129 21.3959C50.1975 21.5537 50.0398 21.7114 49.8821 22.0268C49.7243 22.1845 49.5666 22.6577 49.5666 22.8154C49.5666 23.1308 49.7244 23.4463 50.0398 23.604L49.5666 23.2885Z" fill="#FFFF45"/>
<path fill-rule="evenodd" clip-rule="evenodd" d="M53.3519 109.718C53.825 109.876 54.1404 110.033 54.6136 110.191C54.7713 110.033 54.929 110.033 55.0868 110.033C55.2445 109.875 55.4022 109.56 55.5599 109.402C55.7176 109.087 55.5599 108.771 55.4022 108.456C55.2445 108.298 55.2445 107.983 55.0868 107.825C54.929 107.667 54.4559 107.667 54.2982 107.825C53.9827 107.983 53.825 108.141 53.6673 108.456C53.5096 108.614 53.3519 109.087 53.3519 109.245C53.3519 109.56 53.5096 109.875 53.825 110.033L53.3519 109.718Z" fill="#FFFF45"/>
<path fill-rule="evenodd" clip-rule="evenodd" d="M37.4224 27.3891C37.2647 27.5468 37.1069 27.7045 36.9492 27.8623C37.1069 28.02 37.2647 28.3354 37.5801 28.3354C37.7378 28.3354 37.8955 28.3354 37.8955 28.3354C38.0532 28.1777 37.8955 28.02 38.0532 28.02C38.211 27.7045 38.211 27.7045 38.0532 27.3891C37.8955 27.2314 37.8955 27.2314 37.7378 27.2314C37.5801 27.2314 37.4224 27.2314 37.2646 27.3891H37.4224Z" fill="#FFFF45"/>
<path fill-rule="evenodd" clip-rule="evenodd" d="M38.3687 34.171C38.3687 34.171 38.0532 35.1173 38.3687 34.8019C38.6841 34.6441 38.6841 34.3287 38.3687 34.171C38.5264 34.171 38.5264 34.171 38.3687 34.171Z" fill="#FFFF45"/>
<path fill-rule="evenodd" clip-rule="evenodd" d="M32.2177 45.5267C31.9023 45.8422 31.9023 45.9999 31.7445 46.473C31.9023 46.6307 32.06 46.6307 32.2177 46.6307C32.5331 46.6307 32.5331 46.473 32.5331 46.3153C32.5331 46.1576 32.6908 45.9999 32.5331 45.8422C32.5331 45.5267 32.3754 45.369 32.2177 45.5267Z" fill="#FFFF45"/>
<path fill-rule="evenodd" clip-rule="evenodd" d="M41.6807 28.1777C41.8385 28.3355 41.9962 28.4932 41.9962 28.6509C41.8385 28.6509 41.6807 28.4932 41.6807 28.3355C41.6807 28.02 41.6807 28.1777 41.8385 27.8623L41.6807 28.1777Z" fill="#FFFF45"/>
<path fill-rule="evenodd" clip-rule="evenodd" d="M39.4727 19.3456C39.315 19.5033 39.1573 19.661 38.9996 19.8188C39.1573 19.9765 38.9996 20.1342 39.315 20.1342C39.4727 20.1342 39.6304 19.9765 39.7881 19.8188C39.9459 19.661 39.9459 19.5033 39.9459 19.3456C39.9459 19.1879 39.9459 18.8725 39.7881 19.1879L39.4727 19.3456Z" fill="#FFFF45"/>
<path fill-rule="evenodd" clip-rule="evenodd" d="M68.1773 14.7717C68.1773 14.614 68.335 14.2986 68.335 14.1409L68.4928 13.9832C68.6505 13.8254 68.6505 13.8254 68.8082 13.8254C68.9659 13.8254 69.1236 13.8254 69.4391 13.9832C70.0699 14.4563 68.4928 14.9295 68.335 14.4563L68.1773 14.7717Z" fill="#FFFF45"/>
<path fill-rule="evenodd" clip-rule="evenodd" d="M73.5397 16.8221C73.382 17.1375 73.2243 17.6107 73.5397 17.9261C73.8552 18.0838 74.486 17.7684 74.6437 17.6107C75.1169 17.2953 75.59 16.5067 75.1169 16.0335C74.9592 15.7181 74.1706 15.5604 73.8552 15.5604C73.0666 15.5604 72.9088 16.5067 72.7511 17.2953L73.5397 16.8221Z" fill="#FFFF45"/>
<path fill-rule="evenodd" clip-rule="evenodd" d="M75.9055 9.40932C75.7478 8.77845 75.7478 8.14758 76.2209 7.83214C76.5364 7.67442 77.0095 7.51671 77.325 7.83214C77.4827 7.98986 77.6404 8.3053 77.7981 8.46301C77.9558 8.77845 77.9558 8.77845 77.7981 9.09388C77.6404 9.72475 77.4827 10.1979 76.6941 10.1979C75.7478 10.1979 75.7478 9.56704 75.7478 8.62073V9.40932H75.9055Z" fill="#FFFF45"/>
<path fill-rule="evenodd" clip-rule="evenodd" d="M83.9491 20.4496C84.4222 20.2919 84.8954 20.1341 85.2108 19.661C84.8954 19.5033 84.1068 19.0301 83.9491 19.661V20.4496Z" fill="#FFFF45"/>
<path fill-rule="evenodd" clip-rule="evenodd" d="M56.1908 119.812C56.6639 119.654 57.1371 119.496 57.4525 119.023C57.1371 118.865 56.3485 118.392 56.1908 119.023V119.812Z" fill="#FFC445"/>
<path fill-rule="evenodd" clip-rule="evenodd" d="M107.449 130.537C107.922 130.379 108.395 130.221 108.711 129.748C108.395 129.59 107.607 129.117 107.449 129.748V130.537Z" fill="#FFC445"/>
<path fill-rule="evenodd" clip-rule="evenodd" d="M90.1001 30.0703C90.5732 29.4395 91.2041 28.4932 92.1504 28.9663C92.6236 29.2818 92.7813 30.2281 92.3081 30.5435C91.835 30.8589 91.5196 31.0167 90.8887 31.1744C90.5732 31.3321 89.9424 31.0167 90.1001 30.3858V30.0703Z" fill="#FFFF45"/>
<path fill-rule="evenodd" clip-rule="evenodd" d="M56.8217 43.7918C57.2948 43.1609 57.9257 42.2146 58.872 42.6878C59.3451 43.0032 59.5029 43.9495 59.0297 44.265C58.5565 44.5804 58.2411 44.7381 57.6102 44.8958C57.2948 45.0536 56.6639 44.7381 56.8217 44.1072V43.7918Z" fill="#FFC445"/>
<path fill-rule="evenodd" clip-rule="evenodd" d="M112.023 19.3455C112.496 18.7147 113.127 17.7684 114.073 18.2415C114.546 18.557 114.704 19.5033 114.231 19.8187C113.758 20.1341 113.442 20.2919 112.811 20.4496C112.496 20.6073 111.865 20.2919 112.023 19.661V19.3455Z" fill="#FFC445"/>
<path fill-rule="evenodd" clip-rule="evenodd" d="M81.1102 70.2884C81.5833 69.6575 82.2142 68.7112 83.1605 69.1844C83.6337 69.4998 83.7914 70.4461 83.3182 70.7615C82.8451 71.077 82.5297 71.2347 81.8988 71.3924C81.5833 71.5501 80.9525 71.2347 81.1102 70.6038V70.2884Z" fill="#FFC445"/>
<path fill-rule="evenodd" clip-rule="evenodd" d="M54.1404 23.1308C53.5096 23.4462 52.5633 23.9194 52.4055 24.8657C52.4055 25.3388 52.5633 25.6542 53.0364 25.812C53.3518 25.9697 53.9827 25.9697 54.4559 25.812C55.0867 25.4965 55.7176 25.0234 55.8753 24.5502C56.0331 24.0771 56.0331 23.7616 55.8753 23.4462C55.7176 23.2885 55.5599 22.9731 55.2445 22.8153C54.4559 22.4999 53.9827 23.2885 53.3519 23.6039L54.1404 23.1308Z" fill="#FFFF45"/>
<path fill-rule="evenodd" clip-rule="evenodd" d="M56.0331 20.9227C56.3485 21.0804 56.6639 21.2381 56.8217 21.5535C56.5062 21.7113 56.1908 21.869 55.8753 21.869C55.4022 21.7113 55.4022 21.2381 55.4022 20.9227C55.4022 20.765 55.8753 20.2918 56.0331 20.4495C56.1908 20.4495 56.1908 20.6072 56.1908 20.765C56.3485 20.9227 56.3485 20.9227 56.1908 21.2381H56.0331V20.9227Z" fill="#FFFF45"/>
<path fill-rule="evenodd" clip-rule="evenodd" d="M22.7546 34.8019C22.1238 35.4328 21.4929 36.0637 21.1774 36.8523C21.0197 37.3254 21.3352 37.3254 21.6506 37.1677C22.4392 37.01 23.0701 36.8523 23.8586 36.6946C24.3318 36.5368 24.9627 36.3791 25.1204 36.0637C25.2781 35.7482 25.4358 35.2751 25.4358 34.9597C25.4358 34.4865 24.9627 34.3288 24.6472 34.1711C23.7009 33.8556 22.2815 34.4865 21.966 35.4328L22.7546 34.8019Z" fill="#FFFF45"/>
<path fill-rule="evenodd" clip-rule="evenodd" d="M23.2278 38.114C23.701 38.114 24.1741 38.2717 24.6472 38.4294C24.4895 38.5871 24.4895 38.7449 24.4895 38.9026C24.3318 39.218 24.1741 39.3757 23.8587 39.5334C23.3855 39.8489 22.7546 39.8489 22.2815 39.6912C20.862 39.218 23.0701 37.6408 23.3855 38.114H23.2278Z" fill="#FFFF45"/>
<path fill-rule="evenodd" clip-rule="evenodd" d="M65.9693 8.14766C66.4425 7.83222 66.9156 7.6745 67.3888 7.51679C68.0196 7.35907 68.6505 7.35907 69.2814 7.35907C69.5968 7.35907 70.3854 7.35907 70.07 7.83222C69.9122 8.46309 68.6505 8.93624 68.1773 9.09396C67.3888 9.4094 66.6002 9.88255 65.6539 10.0403C65.1807 10.0403 64.3921 10.198 64.0767 9.72484C63.919 9.25168 63.919 8.93625 64.2344 8.62081C64.3921 8.30537 64.7076 8.14766 65.1807 7.98994C65.3384 7.98994 66.4424 7.67451 66.4424 7.98994L65.9693 8.14766Z" fill="#FFFF45"/>
<path fill-rule="evenodd" clip-rule="evenodd" d="M57.6102 8.3053C57.4525 8.46302 55.7176 9.40932 56.5062 9.88247C56.9794 10.0402 57.7679 10.0402 58.2411 9.88247C58.5565 9.72476 59.0297 9.40932 58.7143 8.93617C58.2411 7.98986 56.9794 8.62074 56.3485 8.93617L57.6102 8.3053Z" fill="#FFFF45"/>
<path fill-rule="evenodd" clip-rule="evenodd" d="M34.1103 70.1307C34.268 70.7616 34.4257 71.5502 35.0566 72.0233C35.6875 72.4965 36.4761 72.3388 36.9492 71.8656C37.4224 71.5502 37.8955 71.2347 38.211 71.077C38.5264 70.9193 38.6841 70.9193 38.6841 70.4461C38.6841 69.973 38.3687 69.4998 38.0532 69.1844C37.7378 68.869 37.2647 68.3958 36.7915 68.2381C35.8452 67.9227 34.1103 68.2381 34.1103 69.4998V70.1307Z" fill="#FFD32F"/>
<path fill-rule="evenodd" clip-rule="evenodd" d="M87.7343 70.9193C87.892 71.5502 88.0498 72.3387 88.6806 72.8119C89.3115 73.2851 90.1001 73.1273 90.5732 72.6542C91.0464 72.3387 91.5195 72.0233 91.835 71.8656C92.1504 71.7079 92.3081 71.7079 92.3081 71.2347C92.3081 70.7616 91.9927 70.2884 91.6773 69.973C91.3618 69.6575 90.8887 69.1844 90.4155 69.0267C89.4692 68.7112 87.7343 69.0267 87.7343 70.2884V70.9193Z" fill="#FFBA00"/>
<path fill-rule="evenodd" clip-rule="evenodd" d="M11.3989 97.8891C11.3989 97.8891 10.7681 100.57 12.6607 104.04C14.5533 107.51 15.9728 107.194 15.9728 107.194C15.9728 107.194 14.2379 100.886 11.3989 97.8891Z" fill="#FFFF59"/>
<path fill-rule="evenodd" clip-rule="evenodd" d="M133.315 61.1408C133.315 61.1408 131.107 67.4495 130.791 68.3959C130.791 68.2381 134.261 67.2918 133.315 61.1408Z" fill="#FFFF59"/>
<path fill-rule="evenodd" clip-rule="evenodd" d="M145.144 63.0334C145.144 63.0334 143.566 64.1374 142.778 67.134C142.778 67.134 144.67 68.0804 145.144 63.0334Z" fill="#FFFF59"/>
<defs>
<radialGradient id="paint0_radial_4_1617" cx="0" cy="0" r="1" gradientUnits="userSpaceOnUse" gradientTransform="translate(29.0822 40.4406) scale(120.026)">
<stop offset="0.00558659" stop-color="#FFB80B"/>
<stop offset="0.258" stop-color="#FFB60C"/>
<stop offset="0.384" stop-color="#FEAE10"/>
<stop offset="0.4821" stop-color="#FCA117"/>
<stop offset="0.5656" stop-color="#FA8E21"/>
<stop offset="0.6392" stop-color="#F7762E"/>
<stop offset="0.662" stop-color="#F66D33"/>
<stop offset="0.7209" stop-color="#EF6836"/>
<stop offset="0.8061" stop-color="#DC593D"/>
<stop offset="0.9068" stop-color="#BD4049"/>
<stop offset="0.9832" stop-color="#A02A54"/>
</radialGradient>
<linearGradient id="paint1_linear_4_1617" x1="6.89673" y1="97.369" x2="43.0753" y2="97.369" gradientUnits="userSpaceOnUse">
<stop offset="0.0111732" stop-color="#FFA90B"/>
<stop offset="0.3713" stop-color="#FFA60E"/>
<stop offset="0.6354" stop-color="#FF9D16"/>
<stop offset="0.868" stop-color="#FF8D25"/>
<stop offset="1" stop-color="#FF8031"/>
</linearGradient>
<linearGradient id="paint2_linear_4_1617" x1="11.7986" y1="54.1939" x2="26.2035" y2="53.737" gradientUnits="userSpaceOnUse">
<stop offset="0.0111732" stop-color="#FFA90B"/>
<stop offset="0.3713" stop-color="#FFA60E"/>
<stop offset="0.6354" stop-color="#FF9D16"/>
<stop offset="0.868" stop-color="#FF8D25"/>
<stop offset="1" stop-color="#FF8031"/>
</linearGradient>
<linearGradient id="paint3_linear_4_1617" x1="12.6859" y1="54.1657" x2="25.2849" y2="53.7661" gradientUnits="userSpaceOnUse">
<stop offset="0.0111732" stop-color="#FFE00B"/>
<stop offset="0.3061" stop-color="#FFDD0D"/>
<stop offset="0.5224" stop-color="#FFD412"/>
<stop offset="0.7136" stop-color="#FFC41B"/>
<stop offset="0.8891" stop-color="#FFAD27"/>
<stop offset="1" stop-color="#FF9B31"/>
</linearGradient>
<linearGradient id="paint4_linear_4_1617" x1="41.8428" y1="57.4884" x2="113.839" y2="68.7008" gradientUnits="userSpaceOnUse">
<stop offset="0.0111732" stop-color="#FFE00B"/>
<stop offset="0.3061" stop-color="#FFDD0D"/>
<stop offset="0.5224" stop-color="#FFD412"/>
<stop offset="0.7136" stop-color="#F67C27"/>
<stop offset="0.8891" stop-color="#ED6930"/>
<stop offset="1" stop-color="#E76332"/>
</linearGradient>
<linearGradient id="paint5_linear_4_1617" x1="0.640097" y1="54.887" x2="108.124" y2="54.887" gradientUnits="userSpaceOnUse">
<stop offset="0.0111732" stop-color="#FFE00B"/>
<stop offset="0.3061" stop-color="#FFDD0D"/>
<stop offset="0.5224" stop-color="#FFD412"/>
<stop offset="0.7136" stop-color="#FFC41B"/>
<stop offset="0.8891" stop-color="#FFAD27"/>
<stop offset="1" stop-color="#FF9B31"/>
</linearGradient>
<linearGradient id="paint6_linear_4_1617" x1="100.247" y1="134.078" x2="119.956" y2="134.078" gradientUnits="userSpaceOnUse">
<stop offset="0.0111732" stop-color="#FFE00B"/>
<stop offset="0.3061" stop-color="#FFDD0D"/>
<stop offset="0.5224" stop-color="#FFD412"/>
<stop offset="0.7136" stop-color="#FFC41B"/>
<stop offset="0.8891" stop-color="#FFAD27"/>
<stop offset="1" stop-color="#FF9B31"/>
</linearGradient>
<linearGradient id="paint7_linear_4_1617" x1="123.649" y1="29.758" x2="133.349" y2="29.758" gradientUnits="userSpaceOnUse">
<stop offset="0.0111732" stop-color="#FFE00B"/>
<stop offset="0.3061" stop-color="#FFDD0D"/>
<stop offset="0.5224" stop-color="#FFD412"/>
<stop offset="0.7136" stop-color="#FFC41B"/>
<stop offset="0.8891" stop-color="#FFAD27"/>
<stop offset="1" stop-color="#FF9B31"/>
</linearGradient>
</defs>
</svg>
