<svg width="150" height="150" viewBox="0 0 150 150" fill="none" xmlns="http://www.w3.org/2000/svg">
<path fill-rule="evenodd" clip-rule="evenodd" d="M149.442 74.7579C149.442 81.8552 148.495 88.9525 146.603 95.419C142.817 108.667 135.405 120.338 125.626 129.486C118.687 135.952 110.328 141.157 101.18 144.627C92.9786 147.781 83.9887 149.516 74.6833 149.516C73.4216 149.516 72.0021 149.516 70.7404 149.358C68.8478 149.201 66.7974 149.043 64.9048 148.885C50.5525 146.993 37.3043 140.999 26.7372 132.009C22.7942 128.697 19.1667 124.912 15.8547 120.811C13.4889 117.657 11.2808 114.503 9.38822 111.033C8.91507 110.244 8.44192 109.298 7.96877 108.51C7.96877 108.51 7.96877 108.51 7.96877 108.352C7.49562 107.406 7.02244 106.617 6.707 105.671C5.44526 102.832 4.34123 99.835 3.39492 96.8384C2.76405 94.6304 2.13322 92.4223 1.66006 90.2143C1.34463 88.6371 1.02919 87.0599 0.871474 85.325C0.398321 81.8552 0.0828857 78.3854 0.0828857 74.7579C0.0828857 72.7076 0.0828569 70.6573 0.398292 68.6069C0.55601 67.3452 0.713757 66.0835 0.871474 64.8217C1.81778 57.409 3.86809 50.4694 6.86473 44.003C8.28419 40.8486 10.0191 37.6943 11.9117 34.8554C15.0661 29.9661 18.6936 25.3923 22.952 21.2916C36.358 8.20107 54.8109 0.157463 74.9988 0.157463C75.7874 0.157463 76.576 0.157463 77.3646 0.157463C78.1532 0.157463 79.0994 0.157461 79.888 0.315178C84.1464 0.630614 88.4048 1.26149 92.5054 2.20779C94.8712 2.83866 97.237 3.46953 99.445 4.25812C101.022 4.73127 102.442 5.36214 104.019 5.99301C105.123 6.46617 106.227 6.93932 107.331 7.41248C107.489 7.57019 107.646 7.57019 107.962 7.72791C115.217 11.1977 121.841 15.9292 127.519 21.6071C128.307 22.3957 129.096 23.1842 129.885 24.1305C130.358 24.7614 130.989 25.2346 131.462 25.8654C132.408 26.8117 133.197 27.9158 133.985 28.8621C136.982 32.6473 139.505 36.748 141.713 41.0064C144.237 46.0533 146.287 51.4157 147.707 56.9358C148.653 62.456 149.442 68.4492 149.442 74.7579Z" fill="url(#paint0_radial_4_1258)"/>
<path fill-rule="evenodd" clip-rule="evenodd" d="M107.489 7.57043C107.173 7.57043 107.015 7.57043 106.7 7.72815C105.911 7.88587 105.123 7.72814 104.334 7.57043C103.703 7.41271 103.388 7.09727 102.599 7.09727C101.653 6.93956 100.864 6.62413 99.9182 6.46641C98.9719 6.30869 98.1833 5.99325 97.237 5.67782C96.4484 5.36238 96.133 5.5201 95.5021 5.67782C94.8712 5.83554 94.3981 5.5201 93.7672 5.36238C93.1363 5.04695 92.3477 5.04695 91.7168 4.88923C89.8242 4.5738 87.9317 3.94292 86.039 3.46977C84.935 3.15433 83.831 3.15433 82.5692 3.15433C81.6229 3.15433 80.8343 3.46977 79.888 3.46977C79.2571 3.46977 78.784 3.31205 78.1532 3.31205C77.5223 3.15434 76.8914 3.31205 76.2605 3.31205C75.3142 3.15434 74.8411 2.99662 73.8948 3.31205C73.1062 3.46977 72.633 3.46977 71.8444 3.62748C71.0559 3.62748 70.1095 3.94292 69.321 4.10064C67.9015 4.41608 66.3243 4.73151 64.9048 4.73151C63.9585 4.73151 62.6968 4.41607 61.9082 4.73151C61.435 4.88923 61.1196 5.5201 60.6465 5.83553C59.8579 6.62412 59.0693 7.255 58.4384 8.04358C57.8076 8.83217 57.1767 9.77848 57.1767 10.8825C57.1767 11.8288 57.6498 12.9328 58.123 13.7214C58.5961 14.6677 58.7538 15.4563 57.8075 16.0872C56.7035 16.8758 55.2841 17.5066 54.0223 17.9798C53.076 18.2952 52.2874 18.4529 51.6566 17.8221C51.3411 17.6644 51.1834 17.1912 50.868 16.8758C50.5525 16.7181 50.0794 16.8758 49.764 17.0335C48.8177 17.3489 47.8713 17.6644 46.925 17.8221C46.2941 17.9798 45.821 18.2952 45.1901 18.2952C44.5592 18.453 44.0861 17.9798 43.2975 18.1375C42.3512 18.2952 41.2472 18.7684 40.3009 18.7684C39.5123 18.7684 38.566 18.4529 37.9351 18.1375C37.6197 17.9798 37.462 17.6644 36.9888 17.8221C36.6734 17.8221 36.2002 18.2952 36.0425 18.6107C35.7271 18.9261 35.7271 19.3993 35.4116 19.7147C35.0962 20.1879 34.9385 20.5033 34.6231 20.9764C34.1499 21.765 33.6768 22.5536 33.2036 23.3422C32.8882 23.8153 32.5727 24.6039 32.0996 25.0771C31.9418 25.3925 31.4687 25.5502 31.1532 25.708C30.3647 26.1811 29.5761 26.812 28.7875 27.2851C27.368 28.3892 25.9486 29.6509 24.5291 30.7549C23.4251 31.5435 21.8479 32.0167 20.5862 32.6475C19.7976 32.963 19.009 33.2784 18.2204 33.5938C17.905 33.7516 17.4318 33.7516 17.2741 34.067C16.9587 34.3824 16.801 34.6979 16.6432 35.171C16.0124 35.9596 15.2238 36.9059 14.7506 37.8522C14.4352 38.4831 14.2775 38.9563 13.962 39.5871C13.6466 40.3757 13.1734 41.1643 13.0157 42.1106C12.3848 43.8455 12.3848 45.7381 11.5963 47.473C11.2808 48.4193 10.65 49.3656 10.1768 50.3119C9.38822 51.8891 9.23048 53.7817 9.07277 55.5166C8.91505 56.4629 9.07278 57.7247 9.23049 58.671C9.38821 59.775 9.38822 60.879 9.38822 61.983C9.38822 63.0871 8.59964 64.3488 7.96877 65.1374C7.3379 65.926 6.23387 66.2414 5.44528 67.03C4.81441 67.6609 4.02581 68.2917 3.71037 69.238C3.55266 69.5535 3.71037 70.0266 3.71037 70.4998C3.55266 71.4461 3.23724 72.2347 3.23724 73.181C3.07952 74.285 3.07951 75.389 3.07951 76.6508C3.07951 77.2817 3.07951 77.7548 3.07951 78.3857C3.07951 79.0165 3.2372 79.4897 3.39492 79.9629C3.39492 80.2783 3.39492 80.7514 3.39492 81.0669C3.39492 81.54 3.71037 82.0132 3.71037 82.3286C4.02581 83.4326 4.18352 84.379 4.34124 85.483C4.49895 86.4293 4.97211 87.3756 5.12982 88.3219C5.60298 89.5836 5.7607 90.8454 6.07614 92.2648C6.23386 93.2112 6.23388 94.3152 6.39159 95.2615C6.54931 96.0501 6.707 96.8386 6.707 97.6272C6.707 98.889 6.39159 99.993 6.39159 101.255C6.39159 103.305 7.18016 105.355 7.65332 107.406C7.81103 108.037 7.96873 108.51 8.12645 109.141C2.92177 99.0467 0.0828857 87.5333 0.0828857 75.389C0.0828857 60.5636 4.34125 46.8421 11.754 35.3287C14.9083 30.4395 18.5358 25.8657 22.7942 21.9227C36.2002 8.83217 54.6532 0.788567 74.8411 0.788567C76.4183 0.788567 78.1532 0.78857 79.7303 0.946288C89.5088 0.78857 98.9719 3.31205 107.489 7.57043Z" fill="url(#paint1_linear_4_1258)"/>
<path opacity="0.1" fill-rule="evenodd" clip-rule="evenodd" d="M79.4153 109.772C79.4153 109.772 86.3549 120.023 95.6602 128.382C104.966 136.741 106.227 142.419 106.227 142.419C106.227 142.419 123.734 135.164 136.194 117.815C148.653 100.624 79.4153 109.772 79.4153 109.772Z" fill="black" fill-opacity="0.5"/>
<path opacity="0.4" fill-rule="evenodd" clip-rule="evenodd" d="M92.0326 2.05033C87.932 1.10402 83.8313 0.473157 79.4152 0.157721C78.6266 0.157721 77.6803 0 76.8917 0C78.6266 0.946306 80.3615 2.6812 80.6769 4.57382C81.3078 7.72817 82.4119 10.5671 82.885 13.5637C83.5159 16.5604 83.3582 20.3456 81.9387 23.0268C81.1501 24.7617 80.0461 26.1811 78.6266 27.6006C77.6803 28.5469 76.734 29.1778 76.1031 30.4395C75.4723 31.7013 74.6837 32.8053 73.8951 33.9093C72.7911 35.6442 71.5293 37.3791 70.1099 38.9563C69.6367 39.5871 69.1636 39.9026 68.6904 40.5335C68.2173 41.322 67.9018 42.1106 67.2709 42.7415C65.8515 44.161 63.8012 45.1073 62.0663 45.7381C59.7005 46.6844 57.6502 47.6308 55.4421 48.8925C52.2878 50.6274 49.6065 52.6777 45.979 52.8354C44.7173 52.8354 43.4556 52.6777 42.1938 52.8354C40.6166 52.9932 39.1972 53.624 37.7778 53.9395C36.516 54.2549 35.0965 54.4126 33.8348 54.728C31.6268 55.0435 29.8918 55.8321 27.8415 56.3052C25.1603 56.9361 22.3214 56.7784 19.4825 57.2515C16.959 57.567 14.9087 57.8824 12.3852 57.2515C8.59997 56.3052 6.54962 54.5703 7.33821 50.4697C7.81136 47.7885 7.65368 45.7381 6.39194 43.8455C3.3953 50.3119 1.34494 57.4093 0.398636 64.6643C2.13353 65.4529 4.18386 65.7683 5.91876 65.926C11.4389 66.5569 17.4321 64.0334 22.4791 62.1408C25.0026 61.1945 27.6838 59.775 30.5227 59.4596C33.5194 59.1441 36.0428 59.4596 39.0395 58.8287C49.1334 56.3052 59.0696 52.8354 68.2172 47.473C72.0025 45.265 73.5797 42.1106 76.2609 38.9563C78.4689 36.1174 81.1501 33.9093 83.8313 31.5435C86.5125 29.1778 88.8783 26.9697 90.4555 23.8154C92.1904 20.5033 93.6098 16.7181 94.3984 13.0906C95.187 8.98991 94.083 5.20468 92.0326 2.05033ZM91.5595 12.1443C91.4018 12.9329 91.244 13.8792 91.0863 14.6677C90.4554 16.7181 89.1937 18.7684 87.3011 19.7147C86.5125 20.1879 85.2508 19.8724 84.7776 19.0838C84.4622 18.6107 84.4622 17.9798 84.4622 17.5067C84.3045 16.4026 84.1467 15.4563 84.1467 14.3523C84.1467 11.8288 84.1467 9.30534 83.8313 6.78186C84.1467 8.20132 83.8313 4.57381 86.0394 3.62751C87.1434 3.15435 88.7206 3.62751 89.5091 4.41609C90.4554 5.52012 90.7709 7.25502 91.0863 8.51676C91.4017 9.93622 91.7172 10.8825 91.5595 12.1443Z" fill="url(#paint2_linear_4_1258)" fill-opacity="0.5"/>
<path opacity="0.4" fill-rule="evenodd" clip-rule="evenodd" d="M80.6766 131.536C80.5189 131.536 80.2035 131.694 80.0458 131.694L81.4652 131.852C81.4652 131.694 81.1498 131.536 80.6766 131.536ZM80.6766 131.536C80.5189 131.536 80.2035 131.694 80.0458 131.694L81.4652 131.852C81.4652 131.694 81.1498 131.536 80.6766 131.536ZM147.234 56.6205C147.234 58.5131 146.603 60.5634 146.603 62.456C146.603 65.1372 146.129 67.1876 145.499 69.711C145.025 71.4459 144.079 72.7077 143.606 74.4426C142.975 76.3352 142.029 78.0701 141.083 79.805C139.19 83.2748 137.14 86.9023 136.351 90.8452C135.562 94.4727 135.405 97.4694 133.67 100.781C131.935 103.936 129.411 106.617 127.519 109.771C126.73 111.191 126.099 111.191 124.68 112.137C123.26 113.241 121.841 114.818 120.421 115.922C117.425 118.288 114.586 120.023 110.801 121.442C108.435 122.389 106.227 123.02 103.703 123.335C102.126 123.651 100.549 123.335 98.9719 123.651C96.4484 124.124 94.0827 124.755 91.5592 125.543C87.6162 126.805 83.5156 127.593 79.5726 128.855C76.7337 129.644 74.0525 130.275 71.2136 130.748C69.4787 131.063 68.0592 132.01 66.3243 131.694C64.5894 131.379 62.8545 130.748 61.1196 130.117C58.9116 129.486 57.019 129.328 54.6532 129.328C51.4988 129.328 47.7136 129.801 44.4015 129.171C40.774 128.54 37.3043 127.436 33.6768 126.805C31.4687 126.332 29.8915 125.385 27.8412 124.597C25.9486 123.651 24.056 123.493 22.0057 122.862C19.9553 122.231 17.905 121.285 15.8547 120.812C19.009 124.912 22.6365 128.697 26.7372 132.01C37.3043 140.999 50.3948 146.993 64.9048 148.885C66.7975 149.043 68.6901 149.358 70.7404 149.358C74.9988 148.412 79.0995 147.15 83.3578 145.889C90.4551 143.681 96.6061 139.422 103.703 137.372C106.385 136.583 108.75 135.795 111.116 134.533C113.009 133.587 114.901 133.429 116.636 132.64C123.26 129.801 128.15 123.493 131.146 117.184C132.408 114.345 133.67 111.191 136.193 108.983C137.14 108.036 138.401 107.406 139.19 106.302C140.136 105.198 140.767 103.936 141.713 102.674C143.291 100.624 144.71 98.4157 146.129 96.3653C146.287 96.0499 146.445 95.8922 146.603 95.5768C148.495 88.9526 149.442 82.013 149.442 74.9157C149.442 68.4493 148.653 62.456 147.234 56.6205ZM78.6263 132.01C78.9417 131.852 79.2572 131.536 79.5726 131.379C79.8881 131.221 80.3612 131.379 80.6766 131.536C81.3075 131.379 81.7806 131.379 82.2538 131.694C82.5692 131.852 83.0424 132.167 83.2001 132.483C83.3578 132.798 83.2001 132.956 82.8847 133.271C82.5693 133.587 82.4115 133.587 81.9384 133.587C81.1498 133.744 80.3612 133.902 79.4149 133.744C78.9417 133.744 78.1531 133.587 77.8377 133.271C77.8377 132.64 78.3109 132.325 78.6263 132.01ZM83.5156 141.788C83.0424 142.419 82.5693 143.05 81.9384 143.365C81.3075 143.838 80.6766 143.996 80.2035 144.469C78.6263 145.258 77.0491 146.204 75.4719 146.677C74.8411 146.835 74.0525 146.835 73.4216 146.835C72.633 146.993 71.6867 146.993 70.8981 146.993C69.9518 146.993 68.8478 147.15 67.9015 147.308C66.9552 147.308 65.8512 147.466 64.9048 147.466C63.1699 147.624 61.7505 147.308 60.1733 146.677C58.7539 146.204 57.3344 145.416 56.0727 144.627C55.1264 143.996 54.3378 143.208 53.7069 142.419C52.9183 141.788 52.4452 140.999 51.972 140.053C51.8143 139.738 51.6566 139.422 51.8143 138.949C51.8143 138.791 51.972 138.634 51.972 138.634C52.2875 138.476 52.6029 138.161 52.7606 138.161C53.2338 137.845 53.8646 137.845 54.4955 137.687C55.915 137.53 57.3344 137.687 58.7539 137.845C59.5424 137.845 60.331 138.003 61.1196 137.845C62.2237 137.687 63.3277 137.372 64.274 137.057C66.7975 136.426 69.321 135.795 71.8445 135.637C74.3679 135.322 77.2069 135.006 79.7303 135.479C80.6767 135.637 81.9384 135.952 82.727 136.426C83.3578 136.899 83.831 137.53 84.1464 138.161C84.6196 139.422 84.3041 140.684 83.5156 141.788ZM103.388 135.322C102.915 135.795 102.284 136.11 101.653 136.583C100.865 137.214 100.076 137.53 99.2873 138.003C98.6565 138.476 97.8678 138.791 97.237 139.107C96.4484 139.422 95.8175 139.738 95.0289 140.211C94.2403 140.526 93.4518 140.842 92.6632 141.157C92.0323 141.315 91.4015 141.63 90.7706 141.473C90.2974 141.315 89.6665 141.157 89.3511 140.842C88.7202 140.211 88.878 139.58 89.0357 139.265C89.0357 138.791 88.878 138.003 89.0357 137.372C89.1934 137.056 89.5088 136.583 89.6665 136.268C90.2974 135.006 91.2437 134.218 92.19 133.271C92.9786 132.483 93.9249 131.852 95.0289 131.379C96.2907 130.906 97.8679 130.748 99.1296 130.59C100.549 130.432 103.073 130.275 103.861 132.01C104.334 133.114 104.177 134.218 103.388 135.322ZM81.6229 131.694C81.4652 131.694 81.1498 131.536 80.8343 131.379C80.6766 131.379 80.3612 131.536 80.2035 131.536L81.6229 131.694Z" fill="url(#paint3_linear_4_1258)" fill-opacity="0.5"/>
<path opacity="0.4" fill-rule="evenodd" clip-rule="evenodd" d="M141.241 40.6909V41.0064C141.083 43.0567 140.295 44.4761 139.506 46.3687C138.875 47.9459 138.244 49.2077 137.456 50.6271C136.194 52.9929 135.563 55.2009 134.617 57.8821C133.04 61.8251 132.409 66.0835 130.043 69.711C127.993 73.023 127.362 76.966 125.785 80.4358C123.892 84.3787 120.895 87.0599 117.741 89.8988C116.321 91.1606 115.06 92.7378 113.798 94.1572C112.379 95.5767 111.432 97.4693 109.697 98.731C106.228 101.255 102.285 103.463 98.8148 106.144C96.7645 107.721 95.345 109.929 92.9792 111.191C90.7712 112.61 88.2477 113.556 86.0397 114.818C83.9893 116.08 81.939 117.342 79.731 118.288C77.2075 119.234 75.1572 118.919 72.476 119.077C69.637 119.234 66.6404 120.023 63.9592 120.969C61.7512 121.758 59.8585 122.546 57.4928 121.758C55.9156 121.285 54.6538 120.181 53.0766 119.865C49.2914 119.077 45.1908 119.865 41.4055 119.707C38.4089 119.55 35.2546 118.919 32.2579 118.288C29.419 117.815 27.0533 115.765 24.3721 114.976C20.9023 114.03 16.9593 114.818 13.8049 113.557C12.3855 113.083 11.1238 111.979 10.0197 111.191C9.70429 111.033 9.54658 110.875 9.23114 110.718C8.75799 109.929 8.28484 108.983 7.81169 108.194C8.60028 108.51 9.38887 108.825 10.1775 109.298C14.4358 111.348 19.7982 111.033 24.3721 111.822C29.5767 112.768 34.7814 114.03 39.9861 114.661C42.1941 114.976 44.2445 114.818 46.4525 114.661C49.4492 114.345 52.4458 114.345 55.4424 113.872C60.4894 112.926 65.5364 110.56 70.741 111.191C71.6874 111.348 72.7914 111.822 73.7377 111.822C75.1571 111.822 76.2612 110.56 77.3652 109.771C79.4155 108.51 81.6236 108.667 83.5162 106.932C85.2511 105.197 87.3014 104.093 89.5094 102.989C95.1873 100.15 99.7611 95.419 104.335 90.8451C108.12 87.0599 111.748 83.117 114.271 78.5432C116.795 73.9693 116.321 68.4492 118.214 63.7177C119.634 60.2479 120.738 57.0936 122.946 54.0969C124.05 52.6775 125.311 51.4157 126.415 49.9963C127.677 48.5768 128.308 46.9996 129.254 45.2647C130.201 43.3721 131.62 41.7949 132.409 39.7446C133.197 37.852 133.04 36.2748 133.04 34.2245C133.04 32.1742 133.04 29.9661 133.04 27.7581C136.352 32.3319 139.033 36.4325 141.241 40.6909Z" fill="url(#paint4_linear_4_1258)" fill-opacity="0.5"/>
<path opacity="0.4" fill-rule="evenodd" clip-rule="evenodd" d="M129.411 23.8154C128.623 23.0268 127.834 22.0805 127.046 21.2919C121.368 15.6141 114.744 11.0403 107.489 7.41277C107.331 7.25505 107.173 7.25505 106.858 7.09733C105.754 6.62418 104.65 6.15103 103.546 5.67788C101.968 5.04701 100.549 4.41613 98.9718 3.94298C99.445 4.25841 100.076 4.57385 100.234 4.57385C101.18 5.047 101.969 5.36244 102.599 6.15103C103.23 6.93962 103.546 7.57049 103.546 8.67451C103.546 9.62082 103.703 10.7248 103.861 11.6711C104.019 12.6175 104.492 13.406 104.65 14.3524C104.807 14.8255 104.807 15.2987 104.965 15.9295C105.281 17.1913 105.754 18.453 106.069 19.7148C106.542 22.0805 105.281 23.9731 104.492 26.0235C103.23 29.3355 102.442 32.6476 101.338 36.1174C100.549 38.7986 99.1296 41.4798 97.0793 43.5301C95.0289 45.4227 92.0323 45.8959 90.2974 47.9462C88.7202 49.8388 86.8276 51.5737 84.6195 52.52C82.096 53.7818 79.2572 54.7281 76.576 55.5167C74.6834 56.1475 72.633 56.1475 70.5827 56.6207C68.0592 57.2516 65.8511 58.5133 63.6431 59.4596C61.1196 60.5636 58.9116 61.8254 56.3881 62.9294C53.8646 64.0334 51.6565 65.4529 49.133 66.3992C47.8713 66.8723 46.6096 67.1878 45.5056 67.5032C42.9821 68.4495 40.6163 70.0267 37.9351 70.3421C36.9888 70.4999 36.0425 70.6576 35.0962 70.6576C34.3076 70.6576 33.6767 70.8153 33.0459 70.973C30.6801 71.9193 29.2606 74.4428 26.5794 74.6005C24.056 74.6005 21.6902 74.4428 19.3244 74.7582C18.0627 74.9159 16.9587 74.7582 15.8547 74.916C15.5392 74.916 15.066 75.0737 14.7506 74.916C14.4352 74.7582 13.962 74.4428 13.4889 74.1274C12.5426 73.6542 11.754 73.0233 10.9654 72.3925C9.38822 71.1307 7.3379 71.9193 5.603 71.4462C5.12985 71.2884 4.34125 71.4462 3.8681 71.1307C2.76408 70.4999 1.3446 69.0804 0.398292 68.2918C0.240575 70.3421 0.0828857 72.3925 0.0828857 74.4428C0.0828857 78.0703 0.398321 81.5401 0.871474 85.0099C1.02919 86.5871 1.34463 88.1642 1.66006 89.8991C2.13322 92.1072 2.76405 94.4729 3.39492 96.5233C4.34123 99.5199 5.44526 102.517 6.707 105.355C8.75733 105.671 10.8077 105.986 12.858 105.671C15.8546 105.198 18.6935 104.725 21.6902 104.882C24.5291 105.04 27.0526 105.986 29.7338 106.459C32.7304 106.933 35.8848 107.406 39.0391 107.564C41.878 107.721 44.717 108.037 47.3982 108.352C49.4485 108.668 51.6566 108.983 53.7069 109.141C59.227 109.456 64.5894 108.037 69.9518 107.564C72.633 107.248 75.3142 106.617 77.9954 105.986C79.5726 105.671 81.1498 105.198 82.5692 104.251C84.4618 102.99 85.7236 101.255 87.3008 99.8353C89.1934 98.2582 91.086 96.681 92.9786 95.2615C94.5558 93.9998 96.133 92.5803 97.8679 91.4763C99.1296 90.6877 100.549 89.7414 101.811 88.7951C104.177 86.9025 106.227 84.6944 108.277 82.3287C111.116 79.0166 112.22 74.4428 113.324 70.3421C114.428 66.5569 115.059 62.9294 117.109 59.4596C118.056 57.8824 118.844 55.9898 119.317 54.0972C119.633 52.9932 119.791 51.5737 120.264 50.4697C121.052 48.7348 122.787 47.3154 123.734 45.7382C124.522 44.4764 125.468 43.2147 125.942 41.6375C127.046 38.7986 127.834 35.9597 128.307 32.8053C128.623 30.5973 129.411 28.3892 130.042 26.1812C130.2 25.8657 130.2 25.3926 130.358 25.0771C130.358 24.9194 129.885 24.2886 129.411 23.8154ZM32.0996 74.916C32.2573 74.6005 35.0962 73.4965 35.4116 73.3388C35.4116 73.3388 35.4116 73.3388 35.2539 73.3388L33.3613 74.1274C35.4116 73.4965 39.0391 75.5468 37.3042 77.7549C36.8311 78.3857 35.4116 78.7012 34.6231 78.8589C33.8345 79.0166 33.3613 78.7012 32.8881 78.0703C32.415 77.4394 32.0996 76.4931 32.0996 75.7045C32.0996 75.5468 32.0996 75.0737 32.0996 74.916ZM9.86135 94.9461C7.65331 94.3152 6.23384 93.5266 4.9721 91.634C4.02579 90.3723 3.39495 89.2683 3.07951 87.8488C2.92179 86.5871 2.44862 85.6408 2.76406 84.379C2.92178 83.4327 3.39495 82.3287 3.8681 81.5401C4.34125 80.5938 5.12982 79.4898 5.12982 79.1743C7.33787 79.0166 9.3882 78.8589 11.4385 78.8589C13.8043 78.8589 16.3278 79.1743 18.6936 79.1743C19.7976 79.1743 20.9016 79.1743 22.0056 79.0166C23.1097 78.8589 24.056 78.5435 25.16 78.3857C27.0526 78.0703 28.7875 77.9126 30.5224 78.7012C31.7841 79.332 32.415 80.9092 33.0459 82.171C33.3613 82.9595 33.6767 83.4327 33.6767 84.379C33.6767 85.483 33.6767 86.4293 33.519 87.3756C33.519 87.6911 33.3613 88.1642 33.3613 88.4797C31.7841 91.7917 27.6835 92.8958 24.5291 94.1575C19.7976 96.0501 14.5929 96.2078 9.86135 94.9461ZM43.4552 102.201C42.5089 104.725 38.4083 105.513 36.0425 105.671C34.9385 105.671 33.519 105.513 32.415 104.882C31.7841 104.567 31.311 103.936 30.8378 103.305C30.5224 102.832 30.0492 102.043 28.7875 102.359C29.1029 100.939 29.4184 99.6776 30.0492 98.4159C30.5224 97.785 31.1532 97.3119 31.7841 96.681C32.8881 95.7347 34.1499 94.7884 35.4116 94.1575C37.462 93.0535 39.67 93.8421 41.5626 94.7884C42.9821 95.4193 43.9284 96.3656 44.2438 97.785C44.717 99.5199 44.0861 100.624 43.4552 102.201ZM71.2135 101.728C70.4249 103.463 69.3209 103.936 67.7438 104.882C65.8512 105.829 63.3277 106.617 61.2773 106.617C60.1733 106.617 59.0693 106.144 58.123 105.671C57.4921 105.355 56.7035 105.198 56.2303 104.725C54.8109 103.305 54.4955 101.413 55.4418 101.728C54.8109 100.466 54.4955 99.2045 54.3378 97.9427C54.6532 97.785 54.8109 97.4696 54.8109 97.1541C55.5995 95.7347 57.0189 94.4729 58.5961 93.6843C61.1196 92.2649 64.4317 91.9495 67.2706 93.2112C68.5323 93.6844 69.3209 94.3152 70.1095 95.2615C70.5827 95.7347 71.0558 96.0501 71.529 96.681C72.0021 97.9427 71.6867 100.309 71.2135 101.728ZM79.5726 101.413C79.0994 101.728 78.3108 102.359 77.8377 102.359C77.3645 102.201 76.576 101.413 76.576 100.782L76.2605 100.466C76.8914 99.3622 77.5223 98.4159 78.1531 97.3119C79.0994 97.785 80.0457 97.6273 80.6766 98.7313C81.4652 99.8353 80.3612 100.782 79.5726 101.413ZM100.864 51.7314C100.076 52.8355 98.9719 53.9395 97.7101 54.4127C96.1329 55.0435 93.9249 55.6744 93.7672 53.1509C93.7672 51.7314 93.9249 50.6274 94.5558 49.3657C95.5021 47.4731 96.2906 46.9999 98.1833 46.0536C98.8141 46.0536 99.6027 46.369 100.076 46.5268C101.022 46.8422 101.968 47.7885 102.126 48.8925C102.284 49.9966 101.495 50.9429 100.864 51.7314ZM120.579 41.1644C119.791 43.6878 118.687 46.0536 117.583 48.2617C116.321 51.1006 116.163 54.0972 115.374 57.0938C115.059 58.8287 114.113 60.7213 112.536 61.3522C111.747 61.6677 111.116 61.5099 110.328 61.5099C109.539 61.5099 108.277 61.8254 108.277 62.4562C107.804 61.1945 107.173 59.6173 106.858 58.3556C106.542 56.9361 106.385 55.359 106.227 53.7818C105.911 52.2046 105.911 50.6274 105.754 49.0502C105.596 47.6308 105.281 46.0536 105.281 44.6341C105.281 39.7449 108.119 33.5939 112.693 31.3859C114.113 30.755 115.532 30.4395 117.109 30.5973C118.844 30.9127 119.948 31.3859 120.737 33.1208C121.683 35.4865 121.21 38.6409 120.579 41.1644Z" fill="url(#paint5_linear_4_1258)" fill-opacity="0.5"/>
<path opacity="0.4" fill-rule="evenodd" clip-rule="evenodd" d="M98.8141 45.7381C98.6564 45.8958 98.341 45.8958 98.1832 46.0535C97.7101 46.0535 97.3947 45.8958 97.0793 46.0535L98.8141 45.7381Z" fill="url(#paint6_linear_4_1258)" fill-opacity="0.5"/>
<path opacity="0.4" fill-rule="evenodd" clip-rule="evenodd" d="M4.97272 79.1743C4.81501 79.1743 4.65732 79.1743 4.65732 79.1743C4.97275 79.0166 4.97272 79.0166 4.97272 79.1743Z" fill="url(#paint7_linear_4_1258)" fill-opacity="0.5"/>
<path opacity="0.3" fill-rule="evenodd" clip-rule="evenodd" d="M32.1001 136.268C32.1001 136.268 38.8819 138.792 43.7712 137.372C43.7712 137.372 45.6638 121.443 39.6705 111.191C33.6772 100.939 23.4256 116.396 23.4256 116.396L21.0598 126.174C21.0598 126.174 26.7377 132.956 32.1001 136.268Z" fill="black" fill-opacity="0.5"/>
<path fill-rule="evenodd" clip-rule="evenodd" d="M15.5397 139.738C15.6974 139.896 15.8551 140.054 15.8551 140.369C15.5397 140.369 15.5397 140.211 15.5397 139.896C15.5397 139.58 15.6974 139.738 15.8551 139.423C15.8551 139.423 15.8551 139.423 16.0128 139.423L15.5397 139.738Z" fill="#0EDBFF"/>
<defs>
<radialGradient id="paint0_radial_4_1258" cx="0" cy="0" r="1" gradientUnits="userSpaceOnUse" gradientTransform="translate(28.3891 39.7541) scale(120.026)">
<stop offset="0.00558659" stop-color="#60DBFF"/>
<stop offset="0.0937306" stop-color="#60D5FF"/>
<stop offset="0.211" stop-color="#5FC4FF"/>
<stop offset="0.3446" stop-color="#5DA9FF"/>
<stop offset="0.4903" stop-color="#5A82FF"/>
<stop offset="0.6442" stop-color="#5751FF"/>
<stop offset="0.6844" stop-color="#5643FF"/>
<stop offset="0.7432" stop-color="#563DF8"/>
<stop offset="0.8282" stop-color="#552EE5"/>
<stop offset="0.9287" stop-color="#5315C6"/>
<stop offset="1" stop-color="#5200AB"/>
</radialGradient>
<linearGradient id="paint1_linear_4_1258" x1="-0.0562212" y1="54.2041" x2="107.428" y2="54.2041" gradientUnits="userSpaceOnUse">
<stop offset="0.0111732" stop-color="#81E0FF"/>
<stop offset="0.3224" stop-color="#82DDFF"/>
<stop offset="0.5506" stop-color="#86D4FF"/>
<stop offset="0.7523" stop-color="#8BC4FF"/>
<stop offset="0.9375" stop-color="#94ADFF"/>
<stop offset="1" stop-color="#97A4FF"/>
</linearGradient>
<linearGradient id="paint2_linear_4_1258" x1="0.625592" y1="33.0546" x2="94.5951" y2="33.0546" gradientUnits="userSpaceOnUse">
<stop stop-color="#B8C2FF"/>
<stop offset="1" stop-color="#7D72B3"/>
</linearGradient>
<linearGradient id="paint3_linear_4_1258" x1="15.8766" y1="103" x2="149.385" y2="103" gradientUnits="userSpaceOnUse">
<stop stop-color="#B8C2FF"/>
<stop offset="1" stop-color="#7D72B3"/>
</linearGradient>
<linearGradient id="paint4_linear_4_1258" x1="7.99133" y1="75.385" x2="141.231" y2="75.385" gradientUnits="userSpaceOnUse">
<stop stop-color="#B8C2FF"/>
<stop offset="1" stop-color="#7D72B3"/>
</linearGradient>
<linearGradient id="paint5_linear_4_1258" x1="-0.0529092" y1="56.7655" x2="130.916" y2="56.7655" gradientUnits="userSpaceOnUse">
<stop stop-color="#B8C2FF"/>
<stop offset="1" stop-color="#7D72B3"/>
</linearGradient>
<linearGradient id="paint6_linear_4_1258" x1="96.9752" y1="45.9698" x2="98.7729" y2="45.9698" gradientUnits="userSpaceOnUse">
<stop stop-color="#E8DDFF"/>
<stop offset="1" stop-color="#AA8AD8"/>
</linearGradient>
<linearGradient id="paint7_linear_4_1258" x1="4.63193" y1="79.191" x2="5.00521" y2="79.191" gradientUnits="userSpaceOnUse">
<stop stop-color="#E8DDFF"/>
<stop offset="1" stop-color="#AA8AD8"/>
</linearGradient>
</defs>
</svg>
