<svg width="150" height="150" viewBox="0 0 150 150" fill="none" xmlns="http://www.w3.org/2000/svg">
<path fill-rule="evenodd" clip-rule="evenodd" d="M149.359 74.4428C149.359 81.6978 148.412 88.6374 146.52 95.1038C142.735 108.352 135.479 120.023 125.543 129.171C118.604 135.637 110.245 140.842 101.097 144.312C92.8957 147.466 83.9058 149.201 74.6005 149.201C73.3387 149.201 71.9193 149.201 70.6575 149.043C68.7649 148.886 66.7146 148.728 64.822 148.57C50.4697 146.677 37.2214 140.684 26.6543 131.694C22.7113 128.382 19.0838 124.597 15.7718 120.496C13.406 117.5 11.1979 114.188 9.30534 110.718C8.83218 109.929 8.35904 108.983 7.88589 108.194C7.41273 107.248 6.9396 106.459 6.62416 105.513C5.36242 102.674 4.25839 99.6776 3.31208 96.681C2.68121 94.4729 2.05033 92.2649 1.57718 90.0568C1.26174 88.4796 0.946306 86.9025 0.788589 85.1676C0.315435 81.6978 0 78.228 0 74.6005C0 72.5501 1.92479e-05 70.4998 0.315455 68.4495C0.473172 67.1877 0.473153 65.926 0.788589 64.6643C1.73489 57.2515 3.78521 50.312 6.78184 43.8455C8.2013 40.6912 9.93622 37.5368 11.8288 34.6979C14.9832 29.8086 18.6107 25.2348 22.8691 21.1342C36.2751 8.0436 54.728 0 74.9159 0C75.7045 0 76.4931 0 77.2817 0C78.0703 0 79.0166 3.60752e-06 79.8052 0.157721C84.0635 0.473157 88.3219 1.10403 92.2649 2.05033C94.6306 2.68121 96.9964 3.31208 99.2045 4.10066C100.782 4.57382 102.201 5.20469 103.778 5.83556C104.882 6.30871 105.986 6.78187 107.09 7.25502C107.248 7.41274 107.406 7.41274 107.721 7.57045C114.976 11.0402 121.6 15.7718 127.278 21.4496C128.067 22.2382 128.855 23.0268 129.644 23.8154C130.117 24.4462 130.748 24.9194 131.221 25.5503C132.167 26.4966 132.956 27.6006 133.745 28.5469C136.741 32.3321 139.265 36.4328 141.473 40.6912C143.996 45.7381 146.047 51.1005 147.466 56.6207C148.57 62.2985 149.359 68.2918 149.359 74.4428Z" fill="url(#paint0_radial_4_1475)"/>
<path fill-rule="evenodd" clip-rule="evenodd" d="M107.406 7.25473C107.09 7.25473 106.933 7.25473 106.617 7.41245C105.829 7.57016 105.04 7.41245 104.251 7.25473C103.62 7.09701 103.305 6.78158 102.517 6.78158C101.57 6.62386 100.782 6.30842 99.8353 6.1507C98.889 5.99299 98.1004 5.67755 97.1541 5.36212C96.3655 5.04668 96.0501 5.2044 95.4192 5.36212C94.7883 5.51983 94.3152 5.2044 93.6844 5.04668C93.0535 4.73124 92.2648 4.73125 91.634 4.57353C89.7413 4.25809 87.8488 3.62722 85.9562 3.15407C84.8521 2.83863 83.7481 2.83864 82.4863 2.83864C81.54 2.83864 80.7515 3.15407 79.8052 3.15407C79.1743 3.15407 78.7011 2.99635 78.0703 2.99635C77.4394 2.83863 76.8085 2.99635 76.1776 2.99635C75.2313 2.83863 74.7582 2.68092 73.8119 2.99635C73.0233 3.15407 72.5501 3.15407 71.7616 3.31179C70.973 3.31179 70.0267 3.62722 69.2381 3.78494C67.8186 4.10037 66.2414 4.41581 64.822 4.41581C63.8757 4.41581 62.614 4.10038 61.8254 4.41581C61.3522 4.57353 61.0367 5.2044 60.5636 5.51983C59.775 6.30842 58.9864 6.93929 58.3556 7.72788C57.7247 8.51647 57.0938 9.46278 57.0938 10.5668C57.0938 11.5131 57.5669 12.6171 58.0401 13.4057C58.5133 14.352 58.671 15.1406 57.7247 15.7715C56.6207 16.5601 55.2012 17.1909 53.9395 17.6641C52.9932 17.9795 52.2046 18.1373 51.5737 17.5064C51.2583 17.3487 51.1006 16.8755 50.7851 16.5601C50.4697 16.4024 49.9965 16.5601 49.6811 16.7178C48.7348 17.0332 47.7885 17.3487 46.8422 17.5064C46.2113 17.6641 45.7381 17.9795 45.1073 17.9795C44.4764 18.1373 44.0032 17.6641 43.2146 17.8218C42.2683 17.9795 41.1643 18.4527 40.218 18.4527C39.4294 18.4527 38.4831 18.1373 37.8523 17.8218C37.5368 17.6641 37.3791 17.3487 36.9059 17.5064C36.5905 17.5064 36.1173 17.9795 35.9596 18.295C35.6442 18.6104 35.6442 19.0836 35.3288 19.399C35.0133 19.8721 34.8556 20.1876 34.5402 20.6607C34.067 21.4493 33.5939 22.2379 33.1207 23.0265C32.8053 23.4996 32.4898 24.2882 32.0167 24.7614C31.859 25.0768 31.3858 25.2345 31.0704 25.3923C30.2818 25.8654 29.4932 26.4963 28.7046 26.9694C27.2852 28.0735 25.8657 29.3352 24.4462 30.4392C23.3422 31.2278 21.765 31.701 20.5033 32.3318C19.7147 32.6473 18.9261 32.9627 18.1375 33.2781C17.8221 33.4359 17.3489 33.4359 17.1912 33.7513C16.8758 34.0667 16.7181 34.3822 16.5604 34.8553C15.9295 35.6439 15.1409 36.5902 14.6677 37.5365C14.3523 38.1674 14.1946 38.6406 13.8791 39.2714C13.5637 40.06 13.0906 40.8486 12.9329 41.7949C12.302 43.5298 12.302 45.4224 11.5134 47.1573C11.1979 48.1036 10.5671 49.0499 10.0939 49.9962C9.30534 51.5734 9.14765 53.466 8.98993 55.2009C8.83221 56.1472 8.98989 57.409 9.14761 58.3553C9.30533 59.4593 9.30534 60.5633 9.30534 61.6673C9.30534 62.7714 8.51676 64.0331 7.88589 64.8217C7.25501 65.6103 6.15098 65.9257 5.36239 66.7143C4.73152 67.3452 3.94292 67.9761 3.62749 68.9224C3.46977 69.2378 3.62749 69.7109 3.62749 70.1841C3.46977 71.1304 3.15435 71.919 3.15435 72.8653C2.99664 73.9693 2.99663 75.0733 2.99663 76.3351C2.99663 76.966 2.99663 77.4391 2.99663 78.07C2.99663 78.7008 3.15436 79.174 3.31208 79.6472C3.31208 79.9626 3.31208 80.4357 3.31208 80.7512C3.31208 81.2243 3.62749 81.6975 3.62749 82.0129C3.94292 83.1169 4.10068 84.0632 4.2584 85.1673C4.41612 86.1136 4.88927 87.0599 5.04699 88.0062C5.52014 89.2679 5.67782 90.5297 5.99325 91.9491C6.15097 92.8954 6.15099 93.9995 6.30871 94.9458C6.46643 95.7344 6.62416 96.523 6.62416 97.3115C6.62416 98.5733 6.30871 99.6773 6.30871 100.939C6.30871 102.989 7.09728 105.04 7.57043 107.09C7.72815 107.721 7.8859 108.194 8.04361 108.825C2.83893 98.731 0 87.2176 0 75.0733C0 60.2479 4.25837 46.5264 11.6711 35.0131C14.8255 30.1238 18.453 25.55 22.7113 21.607C36.1173 8.51647 54.5703 0.47287 74.7582 0.47287C76.3354 0.47287 78.0703 0.472867 79.6474 0.630585C89.4259 0.472867 98.889 3.15407 107.406 7.25473Z" fill="url(#paint1_linear_4_1475)"/>
<path fill-rule="evenodd" clip-rule="evenodd" d="M48.2625 63.5599C47.3162 65.2948 44.7927 68.2915 45.5813 70.8149C45.8967 71.919 46.6853 72.8653 47.1585 73.9693C48.4202 76.6505 50.9437 79.3317 54.098 77.4391C57.7255 75.231 56.1484 71.2881 54.5712 68.4492C53.9403 67.3452 53.1517 66.0834 52.0477 65.4525C51.4168 65.1371 50.4705 64.8217 49.8397 64.664C48.5779 64.1908 49.3665 63.5599 48.2625 63.5599Z" fill="#FF9F84"/>
<path fill-rule="evenodd" clip-rule="evenodd" d="M56.3056 89.8989C56.4633 89.4257 56.621 87.8486 57.0942 87.2177C57.4096 86.7445 58.1981 86.4291 58.829 86.1137C60.0908 85.6405 61.5102 85.7982 62.4566 86.7445C64.3492 88.3217 64.1914 90.8452 62.4566 92.5801C61.668 93.3687 60.564 94.1573 59.4599 94.1573C58.8291 94.1573 58.1982 94.315 57.725 93.9995C57.0942 93.6841 56.621 93.0532 56.4633 92.4224C56.1478 91.3183 56.3056 90.5298 56.9364 89.5834L56.3056 89.8989Z" fill="#FF9F84"/>
<path fill-rule="evenodd" clip-rule="evenodd" d="M42.5844 89.1102C42.5844 89.8988 42.1113 91.9491 43.373 92.2646C44.0039 92.4223 44.6347 91.6337 44.6347 91.1606C44.7925 90.6874 44.6348 89.8988 44.4771 89.4257C44.1616 88.7948 43.5307 88.3216 43.0576 88.9525H42.5844V89.1102Z" fill="#FF9F84"/>
<path fill-rule="evenodd" clip-rule="evenodd" d="M10.7253 74.6002C10.883 75.8619 10.883 77.9123 11.6716 79.0163C11.987 79.4894 12.3025 79.9626 12.9334 80.1203C13.5642 80.278 13.8797 79.9626 14.1951 79.4894C14.826 78.7008 14.826 78.2277 14.826 77.2814C14.826 76.4928 14.5105 75.5465 14.1951 74.7579C13.8797 74.2847 13.4065 73.8116 13.091 73.4962C12.7756 73.1807 12.4602 73.023 11.8293 73.023C11.0407 73.023 11.1985 73.9693 11.0407 74.6002H10.7253Z" fill="#FF9F84"/>
<path fill-rule="evenodd" clip-rule="evenodd" d="M121.443 68.4492C121.443 68.2915 121.601 66.0834 122.074 65.6103C122.232 65.4525 122.705 65.2948 122.863 65.1371C123.494 64.8217 124.282 64.664 125.071 64.9794C126.017 65.4526 126.963 66.872 126.648 67.976C126.333 69.3955 124.755 70.3418 123.494 70.3418C122.074 70.3418 120.97 68.6069 121.759 67.3452L121.443 68.4492Z" fill="#FF9F84"/>
<path fill-rule="evenodd" clip-rule="evenodd" d="M44.6346 86.1137C44.6346 86.1137 44.7923 85.0097 44.95 84.6943C45.1078 84.5365 45.2655 84.5365 45.4232 84.5365C45.7386 84.3788 46.2118 84.3788 46.5272 84.5365C47.0004 84.852 47.4735 85.4828 47.3158 86.1137C47.1581 86.7446 46.3695 87.3755 45.7386 87.3755C45.1078 87.3755 44.4769 86.4291 44.7923 85.7983L44.6346 86.1137Z" fill="#FF9F84"/>
<path fill-rule="evenodd" clip-rule="evenodd" d="M78.7018 99.8347C78.7018 99.8347 78.8595 98.7307 79.0172 98.4152C79.1749 98.2575 79.3326 98.2575 79.4903 98.2575C79.8058 98.0998 80.2789 98.0998 80.5944 98.2575C81.0675 98.5729 81.5407 99.2038 81.383 99.8347C81.2253 100.466 80.4367 101.096 79.8058 101.096C79.1749 101.096 78.544 100.15 78.8595 99.5192L78.7018 99.8347Z" fill="#FF9F84"/>
<path fill-rule="evenodd" clip-rule="evenodd" d="M101.729 39.587C101.729 39.587 101.886 38.483 102.044 38.1676C102.202 38.0098 102.36 38.0098 102.517 38.0098C102.833 37.8521 103.306 37.8521 103.621 38.0098C104.094 38.3253 104.568 38.9561 104.41 39.587C104.252 40.2179 103.464 40.8488 102.833 40.8488C102.202 40.8488 101.571 39.9024 101.886 39.2716L101.729 39.587Z" fill="#FF9F84"/>
<path fill-rule="evenodd" clip-rule="evenodd" d="M54.8862 126.962C54.8862 126.962 55.044 125.858 55.2017 125.543C55.3594 125.385 55.5171 125.385 55.6748 125.385C55.9903 125.228 56.4634 125.228 56.7789 125.385C57.252 125.701 57.7252 126.332 57.5675 126.962C57.4097 127.593 56.6211 128.224 55.9903 128.224C55.3594 128.224 54.7285 127.278 55.044 126.647L54.8862 126.962Z" fill="#FF9F84"/>
<path fill-rule="evenodd" clip-rule="evenodd" d="M116.554 87.0597C115.45 87.8483 114.662 88.1637 114.031 89.11C113.558 89.8986 112.927 90.5295 112.611 91.4758C112.296 92.1067 111.98 93.2107 111.98 93.8415C112.138 95.7342 114.504 94.157 115.292 93.5261C116.239 92.7375 117.185 91.6335 117.185 90.3718C117.185 89.8986 117.185 89.2677 117.027 88.7946C116.87 88.6369 116.87 88.3214 116.712 88.1637C116.396 87.8483 116.239 87.8483 116.554 87.0597Z" fill="#FF9F84"/>
<path fill-rule="evenodd" clip-rule="evenodd" d="M140.369 95.7345C140.527 94.9459 140.054 97.9425 140.212 98.1002C140.527 98.1002 140.842 98.1002 141.158 98.1002C141.473 98.1002 141.631 97.7848 141.946 97.6271C142.577 97.1539 143.05 96.8385 143.05 96.0499C143.05 95.419 142.893 94.9459 142.262 94.6304C141.946 94.4727 141.789 94.4727 141.473 94.4727C140.842 94.6304 140.369 95.2613 140.054 95.8922L140.369 95.7345Z" fill="#FF9F84"/>
<path fill-rule="evenodd" clip-rule="evenodd" d="M74.7588 128.224C75.3897 128.224 73.1816 128.224 73.1816 128.224C73.1816 128.382 73.1816 128.697 73.1816 128.855C73.1816 129.17 73.3394 129.17 73.4971 129.328C73.8125 129.644 74.1279 129.959 74.6011 129.959C75.0742 129.959 75.3897 129.801 75.3897 129.328C75.3897 129.17 75.5474 129.013 75.3897 128.855C75.232 128.382 74.7588 128.066 74.4434 128.066L74.7588 128.224Z" fill="#FFEF84"/>
<path fill-rule="evenodd" clip-rule="evenodd" d="M73.655 121.758C73.8127 120.969 73.3395 123.966 73.4972 124.124C73.8127 124.124 74.1281 124.124 74.4436 124.124C74.759 124.124 74.9167 123.808 75.2321 123.651C75.863 123.177 76.3361 122.862 76.3361 122.073C76.3361 121.442 76.1784 120.969 75.5475 120.654C75.2321 120.496 75.0744 120.496 74.759 120.496C74.1281 120.654 73.6549 121.285 73.3395 121.916L73.655 121.758Z" fill="#FF9F84"/>
<g opacity="0.25">
<path opacity="0.4" fill-rule="evenodd" clip-rule="evenodd" d="M20.0619 29.0594C17.8538 31.7406 15.9612 34.2641 14.5418 37.4184C13.28 40.0997 12.8069 43.254 12.3337 46.2506C12.0183 47.9855 11.8606 49.7204 11.5451 51.613C11.3874 53.1902 10.9143 54.7674 11.072 56.3446C11.3874 58.5526 11.5451 60.9184 12.6492 62.811C13.7532 64.8613 14.8572 66.7539 16.2767 68.6465C17.6961 70.3814 19.431 71.3277 21.7968 71.4855C23.0585 71.6432 24.3203 71.3277 25.582 71.4855C27.3169 71.6432 29.0518 71.9586 30.7867 72.2741C34.2565 72.9049 38.1994 72.9049 40.7229 70.066C42.7732 67.7002 43.7196 64.8613 44.9813 62.0224C46.4008 59.0258 48.1356 56.66 50.6591 54.6097C52.5517 53.1902 54.2866 51.4553 56.0215 49.8781C56.8101 49.2473 57.2833 48.4587 58.2296 47.8278C59.1759 47.3547 59.649 46.7238 60.4376 45.9352C61.2262 45.3043 62.0148 44.8312 62.6457 44.0426C63.7497 42.7808 64.5383 41.2037 65.0114 39.7842C65.6423 38.207 65.8 36.6299 66.1155 34.895C66.2732 33.3178 65.8 31.7406 65.3269 30.1634C64.3806 27.3245 61.8571 25.4319 59.649 23.697C56.8101 21.489 53.3403 20.5426 49.8705 19.7541C46.7162 19.1232 42.7733 18.9655 39.4612 19.5963C35.9914 20.2272 32.5216 20.7004 29.3672 22.1198C27.0014 23.2239 25.582 24.6433 23.6894 26.3782C22.7431 27.1668 21.639 27.7977 20.6927 28.744C19.5887 30.0057 18.4847 31.4252 20.0619 29.0594Z" fill="black"/>
<path opacity="0.4" fill-rule="evenodd" clip-rule="evenodd" d="M53.8135 15.1803C54.2866 14.3917 54.7598 13.13 55.3907 12.4991C55.7061 12.0259 56.1793 11.7105 56.6524 11.3951C57.9142 10.291 59.3336 9.50245 60.9108 9.0293C61.8571 8.71387 62.8034 8.71387 63.592 9.0293C64.5383 9.18702 66.1155 9.81789 66.7463 10.4488C68.0081 11.7105 67.2195 13.7608 66.7463 15.1803C66.4309 16.5998 65.9578 18.0192 64.696 18.8078C63.9074 19.4387 62.8034 19.9118 61.8571 20.0695C61.3839 20.2273 60.7531 20.2273 60.1222 20.2273C59.649 20.2273 59.1759 20.385 58.8605 20.385C57.7564 20.385 56.1793 19.5964 55.8638 18.6501C55.7061 18.1769 55.5484 17.5461 55.233 17.0729C55.0753 16.5998 54.9175 16.2843 54.7598 15.8112C54.4444 15.0226 54.2866 14.234 53.8135 15.1803Z" fill="black"/>
<path opacity="0.4" fill-rule="evenodd" clip-rule="evenodd" d="M66.2732 23.0662C65.9578 23.8548 65.8 24.8011 65.8 25.5897C66.1155 25.7474 66.2732 26.2206 66.7463 26.536C67.0618 26.6937 67.5349 26.6937 68.0081 26.6937C68.7966 26.6937 69.4275 26.6937 69.5852 25.7474C69.743 24.9588 68.9544 24.3279 68.3235 23.8548C67.8504 23.5393 67.0618 22.7508 66.5886 23.3816L66.2732 23.0662Z" fill="black"/>
<path opacity="0.4" fill-rule="evenodd" clip-rule="evenodd" d="M76.5248 35.2105C75.5785 35.8413 74.4744 36.4722 73.5281 37.2608C72.4241 38.2071 71.4778 39.3111 70.5315 40.5729C69.4275 41.9923 68.008 43.5695 68.3235 45.6198C68.6389 47.5124 69.2698 49.2473 70.6892 50.5091C72.4241 52.0863 75.1053 52.0862 77.1557 53.0326C78.8906 53.8211 79.9946 55.556 80.7832 57.2909C82.0449 59.8144 84.8838 60.2876 87.4073 60.7607C88.9845 61.0762 90.7194 61.2339 92.2966 61.5493C94.5046 61.8647 96.7127 62.1802 98.9207 62.4956C103.021 62.8111 107.122 63.7574 111.223 63.4419C115.639 63.1265 119.582 61.5493 123.052 59.0258C126.048 56.9755 128.887 53.1903 129.676 49.5628C130.464 45.7775 129.203 41.5192 127.468 38.0494C125.102 33.6333 122.263 29.6903 119.109 25.7474C117.374 23.5394 115.481 21.6467 113.588 19.5964C112.011 17.7038 110.434 16.1266 108.699 14.5494C104.599 11.0796 99.5516 8.24073 94.1892 7.92529C92.1389 7.76758 90.0885 8.08301 88.0382 8.8716C86.3033 9.50247 85.0415 10.4488 83.7798 11.8682C80.6254 15.1803 78.8905 19.4387 77.4711 23.6971C76.8402 25.7474 76.2094 27.9554 76.5248 30.0058C76.5248 30.6366 76.9979 31.1098 76.9979 31.7407C76.9979 32.3715 76.9979 32.8447 76.9979 33.4756C76.9979 33.791 76.9979 34.1064 76.8402 34.4219C76.6825 34.7373 76.2094 35.2105 76.5248 35.2105Z" fill="black"/>
<path opacity="0.4" fill-rule="evenodd" clip-rule="evenodd" d="M59.4913 50.0359C57.441 51.2976 55.2329 52.2439 53.6558 54.1365C53.3403 54.452 53.0249 54.9251 53.1826 55.3983C53.3403 55.8714 53.9712 56.1869 54.4443 56.3446C56.0215 56.9755 57.9141 57.2909 59.649 56.9755C61.2262 56.66 63.1188 55.7137 63.9074 54.2943C65.0114 52.5594 63.7497 49.7204 61.5416 49.8782C61.2262 49.8782 60.9108 50.0359 60.5953 50.0359C60.2799 50.0359 60.1222 50.0359 59.8067 50.0359C59.4913 50.0359 59.4913 50.0359 59.1759 50.1936C58.8604 50.509 58.545 50.8245 59.4913 50.0359Z" fill="black"/>
<path opacity="0.4" fill-rule="evenodd" clip-rule="evenodd" d="M16.2767 78.8982C15.4881 79.6868 14.5418 80.3177 14.0686 81.264C13.5955 82.2103 13.28 83.1566 13.1223 84.2606C12.9646 85.2069 12.6492 86.1532 12.9646 87.0995C13.1223 87.8881 13.5955 88.6767 13.9109 89.623C14.2263 90.727 14.6995 91.6734 14.8572 92.7774C15.1727 94.1968 15.6458 95.3009 16.2767 96.5626C16.9075 97.8243 17.5384 98.9284 18.327 100.032C19.1156 101.294 19.9042 102.083 20.8505 103.187C24.3203 106.657 28.4209 110.442 33.4679 111.073C35.9914 111.388 38.6726 110.757 40.5652 108.865C42.6155 106.814 43.8772 103.975 44.3504 101.136C44.6658 98.7706 44.5081 96.2472 43.2464 94.1968C42.1424 92.4619 41.0383 90.727 39.7766 89.3076C38.8303 88.3613 37.884 87.5727 36.78 86.6264C35.8337 85.6801 34.8874 84.7338 33.7833 84.1029C31.8907 82.6834 30.1558 81.264 28.2632 80.0022C26.5283 78.7405 24.6357 77.4788 22.5854 77.0056C21.1659 76.6902 19.5888 76.3747 18.1693 77.0056C17.5384 77.321 17.0652 77.4788 16.7498 77.9519C16.5921 78.2673 16.2767 78.7405 16.2767 79.0559C15.9612 78.7405 15.8035 78.7405 16.2767 78.8982Z" fill="black"/>
<path opacity="0.4" fill-rule="evenodd" clip-rule="evenodd" d="M29.5249 75.5862C29.5249 76.217 29.6827 76.8479 29.6827 77.3211C29.6827 77.4788 29.8404 77.6365 29.8404 77.9519C29.9981 78.1097 30.4713 78.1097 30.629 78.1097C31.2599 78.1097 31.8907 77.7942 32.3639 77.4788C33.1525 76.8479 33.4679 75.5862 32.6793 74.9553C32.2061 74.4821 31.4176 74.1667 30.629 74.3244C30.3135 74.4821 28.5787 75.2707 29.2095 75.9016L29.5249 75.5862Z" fill="black"/>
<path opacity="0.4" fill-rule="evenodd" clip-rule="evenodd" d="M129.518 59.1836C129.833 57.9218 129.833 56.9755 130.622 56.0292C131.411 55.2406 132.199 54.2943 132.83 53.5057C134.092 51.9286 134.88 49.8782 135.354 47.9856C135.827 46.2507 135.354 44.5158 136.142 42.7809C136.3 42.3078 136.615 41.6769 136.931 41.3615C137.246 41.2038 138.192 41.3615 138.508 41.5192C138.823 41.6769 139.296 42.1501 139.612 42.4655C140.085 42.9386 140.558 43.4118 141.189 44.0427C143.713 46.7239 145.132 50.8245 144.974 54.452C144.974 56.6601 144.659 58.5527 144.028 60.603C143.713 61.3916 143.397 62.1802 142.924 62.9688C142.451 63.9151 141.662 64.3883 140.874 65.0191C138.35 66.5963 134.565 66.1231 132.357 64.0728C131.568 63.2842 131.253 62.3379 130.622 61.3916C130.149 60.7607 129.833 60.1299 129.676 59.1836C129.676 59.0258 129.676 59.0258 129.518 59.1836Z" fill="black"/>
<path opacity="0.4" fill-rule="evenodd" clip-rule="evenodd" d="M129.518 31.1098C129.991 32.5293 130.149 34.1064 131.726 34.895C132.041 35.0527 132.515 35.2105 132.83 35.2105C133.146 35.2105 133.461 35.0527 133.776 34.7373C135.354 33.6333 134.407 30.9521 133.461 29.6903C132.83 29.0595 132.041 28.744 131.253 28.4286C130.937 28.2709 130.937 28.2709 130.622 28.4286C130.307 28.5863 130.149 28.5863 129.991 28.9017C129.833 29.0595 129.833 29.5326 129.833 29.6903C129.833 30.0058 129.676 30.1635 129.676 30.3212C129.518 30.7944 129.676 31.2675 129.833 31.7407L129.518 31.1098Z" fill="black"/>
<path opacity="0.4" fill-rule="evenodd" clip-rule="evenodd" d="M117.847 91.8311C117.531 92.7774 117.216 93.8814 116.743 94.8277C116.27 95.9317 115.796 96.878 115.323 97.9821C114.219 100.663 113.588 103.66 112.8 106.499C112.011 109.495 111.538 112.65 111.223 115.646C111.065 117.224 110.75 118.801 110.907 120.378C110.907 121.482 110.907 122.901 111.38 124.005C111.696 124.636 112.327 125.74 112.958 126.056C113.904 126.529 115.008 125.74 115.796 125.267C118.793 123.69 121.474 121.482 123.84 119.116C126.206 116.75 128.572 114.542 130.622 111.861C131.568 110.599 132.515 109.495 133.303 108.076C133.934 106.972 134.407 105.71 134.88 104.606C135.354 103.502 135.827 102.398 136.3 101.294C136.931 100.032 137.404 98.6129 137.877 97.1935C138.666 94.5123 139.454 91.8311 138.508 89.1499C137.719 86.7841 135.827 85.0492 133.303 84.5761C132.041 84.2606 130.464 83.9452 129.202 83.9452C127.941 84.1029 126.521 84.4184 125.26 84.8915C124.155 85.3647 123.051 85.8378 122.105 86.4687C121.632 86.7841 121.159 87.2573 120.686 87.7304C119.897 88.519 119.266 89.3076 118.635 90.2539C118.32 90.7271 118.162 91.0425 117.689 91.3579C117.531 92.1465 117.216 92.9351 117.847 91.8311Z" fill="black"/>
<path opacity="0.4" fill-rule="evenodd" clip-rule="evenodd" d="M106.018 126.371C104.441 127.002 103.179 127.475 101.76 128.579C100.182 129.841 98.6053 130.945 97.5013 132.68C97.0281 133.311 96.2395 134.257 96.8704 135.046C97.3435 135.677 98.2899 135.677 99.0785 135.677C100.182 135.677 101.287 135.519 102.233 135.046C103.179 134.73 103.968 134.099 104.914 133.784C105.86 133.469 107.122 132.838 107.753 132.049C108.068 131.576 108.384 130.945 108.699 130.472C109.015 129.999 109.015 129.841 109.015 129.21C109.015 128.579 108.541 127.791 108.226 127.475C107.911 127.16 107.122 126.687 106.649 126.844C106.333 126.844 106.018 127.002 105.703 127.16C105.072 127.16 104.599 127.948 106.018 126.371Z" fill="black"/>
<path opacity="0.4" fill-rule="evenodd" clip-rule="evenodd" d="M104.125 117.224C103.81 115.962 103.495 115.173 103.495 113.912C103.652 112.808 103.652 111.861 104.125 110.915C104.441 110.442 105.072 109.18 105.545 109.022C105.703 109.022 106.176 109.022 106.333 109.022C107.122 109.18 107.595 110.126 107.753 110.915C108.068 112.019 107.753 113.281 107.911 114.542C107.911 115.489 107.753 116.277 107.437 117.066C107.122 117.697 106.649 117.697 106.018 117.697C105.387 117.697 105.072 117.539 104.599 117.066C104.441 116.908 104.125 116.908 103.968 116.751C103.652 116.435 103.652 116.12 104.125 117.224Z" fill="black"/>
<path opacity="0.4" fill-rule="evenodd" clip-rule="evenodd" d="M102.706 69.9083C102.548 70.6969 102.548 71.6432 102.548 72.4318C102.864 72.4318 103.179 73.0626 103.495 73.0626C104.125 73.2204 104.599 72.9049 105.072 72.5895C106.018 71.8009 106.334 70.3814 106.018 69.2774C105.86 68.1734 104.599 68.0157 103.652 68.1734C103.337 68.1734 102.864 68.3311 102.706 68.4888C102.075 68.962 102.075 69.5928 102.075 70.2237L102.706 69.9083Z" fill="black"/>
<path opacity="0.4" fill-rule="evenodd" clip-rule="evenodd" d="M31.4176 121.324C31.8907 120.378 32.3639 119.432 32.9947 118.643C33.7833 117.697 34.5719 116.908 35.3605 116.12C36.4645 115.173 37.5686 114.227 38.6726 113.438C39.7766 112.65 40.7229 111.861 41.8269 111.073C43.7195 109.811 45.7699 109.022 47.9779 108.234C49.7128 107.603 51.6054 107.445 53.498 107.761C55.3906 108.076 57.2832 109.18 58.545 110.442C59.8067 111.703 61.2262 113.281 62.0148 114.858C63.7497 118.17 62.9611 121.955 61.8571 125.267C61.3839 126.844 60.2799 128.579 59.0182 129.683C58.2296 130.314 57.441 130.63 56.4947 130.787C55.5484 130.945 54.2866 131.418 53.3403 131.418C48.7665 132.049 44.1927 131.734 39.9343 130.156C38.1994 129.526 36.6222 128.737 34.8873 127.948C33.6256 127.318 32.5216 126.529 31.733 125.425C31.1021 124.636 30.629 123.532 30.629 122.428C30.629 121.955 30.7867 121.482 30.9444 121.009C31.2598 121.324 31.4176 121.167 31.4176 121.324Z" fill="black"/>
<path opacity="0.4" fill-rule="evenodd" clip-rule="evenodd" d="M65.1691 123.375C64.8537 124.163 64.696 125.109 64.5383 125.898C64.8537 126.056 64.8537 126.529 65.0114 126.844C65.3268 127.16 65.4846 127.318 65.9577 127.318C66.4309 127.318 66.904 127.318 67.2194 127.318C67.8503 127.16 68.008 127.002 68.3235 126.529C68.6389 126.056 68.7966 125.74 68.7966 125.109C68.7966 124.636 68.6389 124.163 68.3235 123.848C68.1658 123.532 67.8503 123.217 67.5349 123.059C66.904 122.586 66.4309 122.901 65.9577 123.217L65.1691 123.375Z" fill="black"/>
<path opacity="0.4" fill-rule="evenodd" clip-rule="evenodd" d="M138.981 84.4184C138.35 83.9452 137.719 83.3144 137.246 82.5258C137.246 82.2103 137.246 81.8949 137.246 81.5795C137.088 80.7909 136.931 80.16 137.088 79.3714C137.404 77.4788 138.981 76.2171 140.874 76.0593C142.135 75.9016 143.87 76.8479 144.501 77.952C145.132 79.056 145.447 80.3177 145.447 81.5795C145.447 82.5258 145.29 83.7875 144.659 84.5761C144.186 85.207 143.397 85.207 142.766 85.207C141.978 85.207 141.189 85.0493 140.558 84.8915C139.927 84.7338 139.296 84.4184 138.981 84.4184Z" fill="black"/>
</g>
<defs>
<radialGradient id="paint0_radial_4_1475" cx="0" cy="0" r="1" gradientUnits="userSpaceOnUse" gradientTransform="translate(28.3392 39.5084) scale(120.026)">
<stop offset="0.00558659" stop-color="#DE6863"/>
<stop offset="0.2018" stop-color="#DB6563"/>
<stop offset="0.3542" stop-color="#D15D62"/>
<stop offset="0.4919" stop-color="#C14F60"/>
<stop offset="0.6209" stop-color="#A93B5E"/>
<stop offset="0.7437" stop-color="#8B225B"/>
<stop offset="0.8606" stop-color="#670357"/>
<stop offset="0.8715" stop-color="#630057"/>
</radialGradient>
<linearGradient id="paint1_linear_4_1475" x1="-0.106144" y1="53.9579" x2="107.378" y2="53.9579" gradientUnits="userSpaceOnUse">
<stop offset="0.0111732" stop-color="#FF7D85"/>
<stop offset="0.2983" stop-color="#FC7B84"/>
<stop offset="0.5089" stop-color="#F3757F"/>
<stop offset="0.695" stop-color="#E36B77"/>
<stop offset="0.8659" stop-color="#CC5C6C"/>
<stop offset="1" stop-color="#B54D61"/>
</linearGradient>
</defs>
</svg>
