<svg width="150" height="150" viewBox="0 0 150 150" fill="none" xmlns="http://www.w3.org/2000/svg">
<path fill-rule="evenodd" clip-rule="evenodd" d="M149.516 74.7581C149.516 81.8554 148.57 88.9528 146.52 95.4192C142.735 108.667 135.48 120.339 125.543 129.486C118.604 135.953 110.245 141.157 101.097 144.627C92.8957 147.781 83.9058 149.516 74.6005 149.516C73.3388 149.516 71.9193 149.516 70.6576 149.359C68.7649 149.201 66.7146 149.043 64.822 148.885C50.4697 146.993 37.2214 141 26.6543 132.01C22.7113 128.698 19.0838 124.912 15.7718 120.812C13.406 117.657 11.198 114.503 9.14766 111.033C8.6745 110.245 8.20132 109.456 7.88589 108.51C7.41273 107.563 6.9396 106.775 6.62416 105.829C5.36242 102.99 4.25839 99.993 3.31208 96.9964C2.68121 94.7883 2.05033 92.5802 1.57718 90.3722C1.26174 88.795 0.946306 87.2178 0.788589 85.4829C0.315435 82.0131 0 78.5434 0 74.9159C0 72.8655 1.92479e-05 70.8152 0.315455 68.7648C0.473172 67.5031 0.630871 66.2414 0.788589 64.9796C1.73489 57.5669 3.78525 50.6273 6.78189 44.1609C8.20135 41.0066 9.93622 37.8522 11.8288 34.8555C14.9832 29.9663 18.6107 25.3925 22.8691 21.4495C36.2751 8.35896 54.728 0.315369 74.9159 0.315369C75.7045 0.315369 76.4931 0.315369 77.2817 0.315369C78.0703 0.315369 79.0166 0.315378 79.8052 0.473096C84.0635 0.788531 88.322 1.4194 92.2649 2.3657C94.6307 2.99657 96.9964 3.62745 99.2044 4.41604C100.782 4.88919 102.201 5.52007 103.778 6.15094C104.882 6.6241 105.986 7.09724 107.09 7.57039C107.248 7.72811 107.406 7.72813 107.721 7.88585C114.976 11.3556 121.6 16.0871 127.278 21.765C128.067 22.5536 128.855 23.3422 129.644 24.2885C130.117 24.9193 130.748 25.3925 131.221 26.0234C132.01 26.9697 132.956 28.0737 133.745 29.02C136.741 32.8052 139.265 36.9059 141.473 41.1642C143.996 46.2112 146.047 51.5736 147.466 57.0937C148.728 62.4561 149.516 68.6072 149.516 74.7581Z" fill="url(#paint0_radial_4_1659)"/>
<path fill-rule="evenodd" clip-rule="evenodd" d="M107.406 7.57044C107.09 7.57044 106.933 7.57045 106.617 7.72817C105.829 7.88589 105.04 7.72816 104.251 7.57044C103.621 7.41272 103.305 7.09731 102.517 7.09731C101.57 6.93959 100.782 6.62411 99.8353 6.4664C98.889 6.30868 98.1004 5.99324 97.1541 5.67781C96.3655 5.36237 96.0501 5.52009 95.4193 5.67781C94.7884 5.83553 94.3152 5.52012 93.6843 5.3624C93.0534 5.04697 92.2649 5.04696 91.634 4.88924C89.7414 4.57381 87.8488 3.94292 85.9561 3.46977C84.8521 3.15434 83.7481 3.15434 82.4864 3.15434C81.5401 3.15434 80.7515 3.46977 79.8052 3.46977C79.1743 3.46977 78.7011 3.31207 78.0703 3.31207C77.4394 3.15435 76.8085 3.31207 76.1777 3.31207C75.2314 3.15435 74.7582 2.99663 73.8119 3.31207C73.0233 3.46978 72.5501 3.46978 71.7616 3.6275C70.973 3.6275 70.0266 3.94294 69.2381 4.10066C67.8186 4.41609 66.2414 4.73152 64.822 4.73152C63.8757 4.73152 62.6139 4.41608 61.8254 4.73152C61.3522 4.88923 61.0367 5.5201 60.5636 5.83554C59.775 6.62412 58.9864 7.25499 58.3556 8.04357C57.7247 8.83216 57.0938 9.7785 57.0938 10.8825C57.0938 11.8288 57.567 12.9328 58.0401 13.7214C58.5133 14.6677 58.671 15.4563 57.7247 16.0872C56.6207 16.8758 55.2012 17.5067 53.9395 17.9798C52.9932 18.2953 52.2046 18.453 51.5737 17.8221C51.2583 17.6644 51.1006 17.1912 50.7851 16.8758C50.4697 16.7181 49.9965 16.8758 49.6811 17.0335C48.7348 17.3489 47.7885 17.6644 46.8422 17.8221C46.2113 17.9798 45.7381 18.2952 45.1073 18.2952C44.4764 18.4529 44.0032 17.9798 43.2146 18.1375C42.2683 18.2953 41.1643 18.7684 40.218 18.7684C39.4294 18.7684 38.4831 18.453 37.8522 18.1375C37.5368 17.9798 37.3791 17.6644 36.9059 17.8221C36.5905 17.8221 36.1174 18.2952 35.9597 18.6107C35.6442 18.9261 35.6442 19.3993 35.3288 19.7147C35.0133 20.1879 34.8556 20.5033 34.5402 20.9764C34.067 21.765 33.5939 22.5536 33.1207 23.3422C32.8053 23.8154 32.4899 24.604 32.0167 25.0771C31.859 25.3926 31.3858 25.5503 31.0704 25.708C30.2818 26.1811 29.4932 26.812 28.7046 27.2852C27.2852 28.3892 25.8657 29.6509 24.4462 30.755C23.3422 31.5436 21.765 32.0167 20.5033 32.6475C19.7147 32.963 18.9261 33.2784 18.1375 33.5939C17.8221 33.7516 17.3489 33.7516 17.1912 34.067C16.8758 34.3824 16.7181 34.6979 16.5604 35.171C15.9295 35.9596 15.1409 36.906 14.6678 37.8523C14.3523 38.4831 14.1946 38.9562 13.8792 39.5871C13.5638 40.3757 13.0906 41.1643 12.9329 42.1106C12.302 43.8455 12.302 45.7381 11.5134 47.473C11.198 48.4193 10.5671 49.3656 10.0939 50.3119C9.30534 51.8891 9.14765 53.7817 8.98993 55.5166C8.83221 56.4629 8.98994 57.7247 9.14766 58.671C9.30537 59.775 9.30534 60.879 9.30534 61.983C9.30534 63.0871 8.51676 64.3488 7.88589 65.1374C7.25501 65.926 6.15098 66.2414 5.36239 67.03C4.73152 67.6609 3.94297 68.2918 3.62754 69.2381C3.46982 69.5535 3.62754 70.0266 3.62754 70.4998C3.46982 71.4461 3.15435 72.2347 3.15435 73.181C2.99664 74.285 2.99663 75.389 2.99663 76.6508C2.99663 77.2816 2.99663 77.7548 2.99663 78.3857C2.99663 79.0165 3.15436 79.4897 3.31208 79.9629C3.31208 80.2783 3.31208 80.7515 3.31208 81.0669C3.31208 81.5401 3.62754 82.0132 3.62754 82.3286C3.94297 83.4326 4.10068 84.379 4.2584 85.483C4.41611 86.4293 4.88927 87.3756 5.04699 88.3219C5.52014 89.5837 5.67787 90.8454 5.9933 92.2649C6.15102 93.2112 6.15099 94.3152 6.30871 95.2615C6.46643 96.0501 6.62416 96.8387 6.62416 97.6273C6.62416 98.889 6.30871 99.993 6.30871 101.255C6.30871 103.305 7.09733 105.355 7.57048 107.406C7.7282 108.037 7.88589 108.51 8.04361 109.141C2.83893 99.0467 0 87.5333 0 75.3891C0 60.5636 4.25837 46.8422 11.6711 35.3288C14.8255 30.4395 18.453 25.8657 22.7113 21.9228C36.1173 8.83219 54.5703 0.788574 74.7582 0.788574C76.3354 0.788574 78.0703 0.788584 79.6474 0.946302C89.5837 0.788584 98.889 3.46978 107.406 7.57044Z" fill="url(#paint1_linear_4_1659)"/>
<path fill-rule="evenodd" clip-rule="evenodd" d="M44.161 101.413C43.057 97.6274 41.7952 93.2113 40.5335 88.6375C41.6375 93.0535 42.8993 97.3119 44.161 101.413Z" fill="url(#paint2_linear_4_1659)"/>
<path fill-rule="evenodd" clip-rule="evenodd" d="M41.9529 142.104C41.9529 142.104 44.9495 119.235 47.1576 119.235C48.8925 119.235 51.8892 122.704 57.8824 127.278C59.6173 128.54 61.5099 129.959 63.718 131.379C65.6106 132.641 67.9764 133.902 70.6576 135.164C75.0737 137.214 80.2784 139.423 84.8522 141.157C92.2649 143.996 98.2582 145.889 98.2582 145.889L99.3622 145.1C99.3622 145.1 94.1575 143.996 87.2179 141.631C87.2179 141.631 94.4729 129.802 103.778 119.077C113.084 108.352 148.886 83.1173 148.886 83.1173L149.201 79.4898C149.201 79.4898 138.949 88.0066 127.594 96.9965C127.594 96.9965 135.164 44.9496 137.53 36.5906L135.164 35.6443C135.164 35.6443 129.486 86.9025 123.335 100.466C112.61 108.983 101.728 117.027 98.7313 117.973C91.9494 120.181 67.03 100.151 66.8723 100.151C66.2414 79.4898 66.7146 56.4631 68.4495 50.4698C93.842 26.339 118.288 14.3524 118.288 14.3524L117.184 13.2484C117.184 13.2484 92.8957 30.2819 92.1071 27.1275C91.3186 23.8155 107.406 7.41282 107.406 7.41282L105.513 7.09741C105.513 7.09741 87.6911 29.9665 63.0871 54.0973C45.7381 71.1308 39.9026 76.3355 38.01 77.9127C34.8556 60.0906 34.6979 41.3222 39.9026 29.1779C49.6811 6.46655 63.4025 1.26184 63.4025 1.26184C61.1945 1.26184 56.463 2.36586 56.463 2.36586C56.463 2.36586 49.6811 10.4094 46.6845 15.141C43.8455 19.8725 39.9026 29.0202 37.5369 27.6007C35.1711 26.1813 28.0738 16.245 28.0738 16.245L27.2852 17.0336C27.2852 17.0336 34.067 23.5001 35.3288 28.3893C36.5905 33.2786 35.4865 63.8758 32.3321 62.614C29.1778 61.51 7.0973 42.5839 7.0973 42.5839L6.30872 44.1611C6.30872 44.1611 29.4932 59.9328 32.3321 65.6106C33.7516 68.2918 37.2214 78.5435 40.218 88.6374C39.9026 87.218 38.7986 82.171 39.2717 80.1207C46.9999 68.6073 55.8321 62.7717 64.5065 54.0973C66.3992 64.8221 66.3992 102.517 66.2414 121.127L57.567 125.386C55.0435 123.02 52.8354 120.496 51.1005 117.657C48.5771 113.399 46.0536 107.721 43.8456 101.413C45.1073 106.302 46.0536 109.929 46.0536 111.033C46.0536 114.819 40.3758 141.631 40.3758 141.631L41.9529 142.104ZM127.594 97.1542C126.332 98.2582 124.912 99.2045 123.651 100.309L127.594 97.1542ZM67.03 100.939V102.517C67.03 101.886 67.03 101.413 67.03 100.939ZM67.03 102.517C67.03 102.517 91.0031 117.342 94.946 120.181C98.5735 122.704 86.9025 138.476 85.1676 140.842C80.5938 139.107 75.3891 137.057 70.3421 134.218C68.7649 129.802 67.6609 117.027 67.03 102.517ZM66.3992 122.547C66.3992 128.225 66.2414 131.852 66.2414 131.852C63.718 130.275 61.1945 128.382 58.9864 126.49C60.5636 125.07 63.718 122.862 66.3992 122.547Z" fill="url(#paint3_linear_4_1659)"/>
<path fill-rule="evenodd" clip-rule="evenodd" d="M23.5 95.2617C20.0302 90.2147 3.05176e-05 72.2349 3.05176e-05 72.2349V76.9664C3.05176e-05 76.9664 18.1376 87.6912 23.0268 96.5234C27.9161 105.356 22.7114 128.698 22.7114 128.698L24.604 130.59C24.7617 130.59 28.5469 102.674 23.5 95.2617Z" fill="url(#paint4_linear_4_1659)"/>
<path opacity="0.3" fill-rule="evenodd" clip-rule="evenodd" d="M58.1985 1.89261C58.1985 1.89261 64.5072 69.7112 66.3998 75.3891C68.2924 81.2246 85.1682 91.7917 92.1078 93.0535C99.0473 94.3152 116.554 100.782 121.128 100.466C125.702 100.308 145.574 98.5736 145.574 98.5736L148.255 87.8488C148.255 87.8488 111.192 59.1442 98.101 32.963C85.0104 6.78188 85.3259 0.630885 85.3259 0.630885L79.6481 0C79.6481 0 93.8426 27.4429 98.101 40.6912C102.202 54.0972 119.866 67.1878 127.752 74.9159C135.638 82.6441 133.272 96.0501 123.809 95.4192C114.188 94.7884 81.5407 96.6809 73.4971 71.9193C70.0273 61.1945 66.8729 50.7851 64.5072 32.8053C61.826 15.2986 58.1985 1.89261 58.1985 1.89261Z" fill="url(#paint5_radial_4_1659)"/>
<path opacity="0.3" fill-rule="evenodd" clip-rule="evenodd" d="M2.99535 53.7819C2.99535 53.7819 28.5457 63.5604 38.3242 70.1846C48.1026 76.8087 74.4415 84.3791 79.9616 90.2147C85.4817 96.0502 94.9447 106.775 94.1562 111.98C93.3676 117.027 60.2469 113.399 46.9986 108.51C33.7503 103.621 11.6698 93.5268 8.6732 88.6375C5.67656 83.906 0.314178 80.9094 0.314178 80.9094L1.10277 87.6912C1.10277 87.6912 34.0657 109.456 38.4818 111.191C42.8979 112.926 88.0052 121.443 100.623 119.077C100.623 119.077 106.616 114.03 84.6931 92.265C75.861 83.5906 60.0892 76.4933 45.4214 69.8691C23.6564 59.9329 3.46853 52.2047 3.46853 52.2047L2.99535 53.7819Z" fill="url(#paint6_radial_4_1659)"/>
<path opacity="0.3" fill-rule="evenodd" clip-rule="evenodd" d="M93.6843 2.52348C93.6843 2.52348 95.4193 21.9228 101.728 37.8523C108.037 53.7817 120.339 56.4629 125.543 62.4562C130.906 68.2917 144.785 76.1776 149.359 73.0233L149.043 85.3252C149.043 85.3252 99.0467 65.4528 85.1676 0.788574L93.6843 2.52348Z" fill="url(#paint7_radial_4_1659)"/>
<path opacity="0.3" fill-rule="evenodd" clip-rule="evenodd" d="M14.8251 119.392C14.8251 119.392 36.117 113.557 61.9827 117.5C95.5766 122.547 102.674 125.07 105.671 128.698C108.667 132.325 109.771 140.842 109.771 140.842L113.399 138.792C113.399 138.792 111.506 122.231 107.563 119.55C103.62 116.869 71.9189 122.389 38.6405 111.191L10.7245 113.241L14.8251 119.392Z" fill="url(#paint8_radial_4_1659)"/>
<path opacity="0.3" fill-rule="evenodd" clip-rule="evenodd" d="M114.187 99.2046C112.768 95.4194 91.9492 90.2147 88.4794 93.0537C85.6405 95.4194 104.251 116.869 108.825 117.5C113.399 118.131 115.607 102.99 114.187 99.2046ZM106.617 111.033C101.255 110.087 88.9525 97.4697 91.6337 94.9462C93.8418 92.8959 110.56 98.2583 111.822 101.413C112.926 104.567 111.979 112.137 106.617 111.033Z" fill="url(#paint9_radial_4_1659)"/>
<path fill-rule="evenodd" clip-rule="evenodd" d="M68.4488 76.493C66.8717 70.8152 58.1972 1.89252 58.1972 1.89252L56.62 2.20797C56.62 2.20797 70.1838 69.7112 58.8281 71.6038C49.8382 73.1809 3.94231 50.6273 3.94231 50.6273L2.83831 53.9394C2.83831 53.9394 59.9321 71.7615 81.224 90.3722C88.479 96.6809 94.63 103.936 99.6769 111.033C102.043 114.345 99.6769 118.761 95.734 118.919C37.063 119.392 0.945679 87.8487 0.945679 87.8487L1.41881 90.3722C1.41881 90.3722 37.2208 109.298 33.5933 111.349C29.9658 113.399 9.14702 111.349 9.14702 111.349L10.4087 113.557C10.4087 113.557 27.1268 112.137 48.7341 115.134C67.0294 117.657 97.7844 121.443 106.932 122.547C111.664 131.063 114.029 137.53 113.241 138.949L116.868 136.741C111.033 120.339 112.294 101.886 120.969 100.782C129.643 99.8352 143.996 102.832 143.996 102.832L145.415 98.8889C97.6266 100.939 70.1837 82.1709 68.4488 76.493ZM66.2408 78.7011C64.8213 78.7011 59.4589 74.7581 60.0898 74.1273C60.7207 73.4964 64.0328 66.0836 65.1368 67.03C66.2408 68.134 67.5025 78.5433 66.2408 78.7011ZM35.8013 111.033C35.8013 111.033 36.1167 109.929 36.5899 109.771C37.063 109.614 46.8415 112.926 46.2107 113.399C45.7375 113.872 35.8013 112.295 35.8013 111.033ZM110.086 115.292C106.459 114.976 84.8515 94.7883 88.479 93.0534C91.1602 91.7916 110.717 96.3654 112.452 100.151C114.029 103.936 113.556 115.607 110.086 115.292Z" fill="url(#paint10_linear_4_1659)"/>
<path fill-rule="evenodd" clip-rule="evenodd" d="M83.2747 1.26167C83.2747 1.26167 88.4794 23.4999 108.825 51.1005C129.171 78.7011 148.254 88.0064 148.254 88.0064L149.043 83.1171C149.043 83.1171 131.536 80.2782 111.033 52.9931C87.0598 21.1341 87.2176 1.10394 87.2176 1.10394L83.2747 1.26167Z" fill="url(#paint11_linear_4_1659)"/>
<defs>
<radialGradient id="paint0_radial_4_1659" cx="0" cy="0" r="1" gradientUnits="userSpaceOnUse" gradientTransform="translate(28.4427 39.8088) scale(132.07)">
<stop offset="0.00558659" stop-color="#FF7263"/>
<stop offset="0.2092" stop-color="#FC6F63"/>
<stop offset="0.3674" stop-color="#F46562"/>
<stop offset="0.5102" stop-color="#E55560"/>
<stop offset="0.6441" stop-color="#D03D5D"/>
<stop offset="0.7704" stop-color="#B6205A"/>
<stop offset="0.8771" stop-color="#9A0057"/>
<stop offset="0.986" stop-color="#9A00AE"/>
</radialGradient>
<linearGradient id="paint1_linear_4_1659" x1="-0.00283892" y1="54.2587" x2="107.481" y2="54.2587" gradientUnits="userSpaceOnUse">
<stop offset="0.0111732" stop-color="#FF9D85"/>
<stop offset="0.2899" stop-color="#FF9A84"/>
<stop offset="0.4943" stop-color="#FF917F"/>
<stop offset="0.6749" stop-color="#FF8178"/>
<stop offset="0.8407" stop-color="#FF6A6E"/>
<stop offset="0.9968" stop-color="#FF4E61"/>
<stop offset="1" stop-color="#FF4D61"/>
</linearGradient>
<linearGradient id="paint2_linear_4_1659" x1="44.6101" y1="92.7342" x2="40.1073" y2="97.2369" gradientUnits="userSpaceOnUse">
<stop offset="0.0111732" stop-color="#FF9D85"/>
<stop offset="0.2899" stop-color="#FF9A84"/>
<stop offset="0.4943" stop-color="#FF917F"/>
<stop offset="0.6749" stop-color="#FF8178"/>
<stop offset="0.8407" stop-color="#FF6A6E"/>
<stop offset="0.9968" stop-color="#FF4E61"/>
<stop offset="1" stop-color="#FF4D61"/>
</linearGradient>
<linearGradient id="paint3_linear_4_1659" x1="124.343" y1="20.2319" x2="21.9235" y2="122.651" gradientUnits="userSpaceOnUse">
<stop offset="0.0111732" stop-color="#FF9D85"/>
<stop offset="0.2899" stop-color="#FF9A84"/>
<stop offset="0.4943" stop-color="#FF917F"/>
<stop offset="0.6749" stop-color="#FF8178"/>
<stop offset="0.8407" stop-color="#FF6A6E"/>
<stop offset="0.9968" stop-color="#FF4E61"/>
<stop offset="1" stop-color="#FF4D61"/>
</linearGradient>
<linearGradient id="paint4_linear_4_1659" x1="21.376" y1="92.5161" x2="4.02233" y2="109.87" gradientUnits="userSpaceOnUse">
<stop offset="0.0111732" stop-color="#FF9D85"/>
<stop offset="0.2899" stop-color="#FF9A84"/>
<stop offset="0.4943" stop-color="#FF917F"/>
<stop offset="0.6749" stop-color="#FF8178"/>
<stop offset="0.8407" stop-color="#FF6A6E"/>
<stop offset="0.9968" stop-color="#FF4E61"/>
<stop offset="1" stop-color="#FF4D61"/>
</linearGradient>
<radialGradient id="paint5_radial_4_1659" cx="0" cy="0" r="1" gradientUnits="userSpaceOnUse" gradientTransform="translate(107.844 75.8368) scale(54.069)">
<stop stop-color="white"/>
<stop offset="1" stop-color="#623964"/>
</radialGradient>
<radialGradient id="paint6_radial_4_1659" cx="0" cy="0" r="1" gradientUnits="userSpaceOnUse" gradientTransform="translate(76.9073 106.658) scale(55.2209)">
<stop stop-color="white"/>
<stop offset="1" stop-color="#623964"/>
</radialGradient>
<radialGradient id="paint7_radial_4_1659" cx="0" cy="0" r="1" gradientUnits="userSpaceOnUse" gradientTransform="translate(120.594 64.4687) scale(40.5856)">
<stop stop-color="white"/>
<stop offset="1" stop-color="#623964"/>
</radialGradient>
<radialGradient id="paint8_radial_4_1659" cx="0" cy="0" r="1" gradientUnits="userSpaceOnUse" gradientTransform="translate(67.2372 133.487) scale(53.371)">
<stop stop-color="white"/>
<stop offset="1" stop-color="#623964"/>
</radialGradient>
<radialGradient id="paint9_radial_4_1659" cx="0" cy="0" r="1" gradientUnits="userSpaceOnUse" gradientTransform="translate(108.249 112.733) scale(15.9888)">
<stop stop-color="white"/>
<stop offset="1" stop-color="#623964"/>
</radialGradient>
<linearGradient id="paint10_linear_4_1659" x1="1.10008" y1="70.2497" x2="145.522" y2="70.2497" gradientUnits="userSpaceOnUse">
<stop offset="0.0111732" stop-color="#FFBB85"/>
<stop offset="0.2124" stop-color="#FEB887"/>
<stop offset="0.36" stop-color="#F9AF8C"/>
<stop offset="0.4905" stop-color="#F19F95"/>
<stop offset="0.6111" stop-color="#E588A2"/>
<stop offset="0.7249" stop-color="#D76BB2"/>
<stop offset="0.8337" stop-color="#C547C7"/>
<stop offset="0.9364" stop-color="#B01EDE"/>
<stop offset="1" stop-color="#A100EF"/>
</linearGradient>
<linearGradient id="paint11_linear_4_1659" x1="83.2223" y1="44.5356" x2="149.046" y2="44.5356" gradientUnits="userSpaceOnUse">
<stop offset="0.0111732" stop-color="#FF9D85"/>
<stop offset="0.2264" stop-color="#FD9A87"/>
<stop offset="0.3842" stop-color="#F8918D"/>
<stop offset="0.5237" stop-color="#EE8198"/>
<stop offset="0.6527" stop-color="#E16AA7"/>
<stop offset="0.7744" stop-color="#CF4DBB"/>
<stop offset="0.889" stop-color="#BA2AD3"/>
<stop offset="0.999" stop-color="#A100EF"/>
<stop offset="1" stop-color="#A100EF"/>
</linearGradient>
</defs>
</svg>
