<svg width="157" height="155" viewBox="0 0 157 155" fill="none" xmlns="http://www.w3.org/2000/svg">
<path fill-rule="evenodd" clip-rule="evenodd" d="M156.646 94.9458L156.016 96.9962C156.016 97.1539 156.016 97.1539 155.858 97.3116C154.281 102.674 152.23 107.721 149.707 112.453C145.606 120.181 140.086 127.278 133.777 133.271C126.365 140.211 117.532 145.731 107.754 149.358C98.9218 152.671 89.4587 154.563 79.5225 154.563C78.103 154.563 76.6835 154.563 75.2641 154.405C73.2138 154.248 71.1634 154.09 69.1131 153.775C55.7071 152.04 43.4051 146.993 32.9958 139.422C32.0495 138.634 31.1032 138.003 30.1569 137.214C32.0495 135.637 35.8347 135.479 35.8347 135.479L30.4723 131.221L17.0663 123.966C14.5428 120.654 12.177 117.184 10.1267 113.557C9.65355 112.61 9.1804 111.822 8.70725 110.875C8.70725 110.875 8.70725 110.875 8.70725 110.718C8.2341 109.771 7.76095 108.825 7.2878 107.879C5.86834 104.882 4.76429 101.728 3.66026 98.4156C2.87168 96.0498 2.24083 93.6841 1.76768 91.3183C1.45224 89.5834 1.1368 87.8485 0.821364 86.1136C0.348211 82.4861 0.0327759 78.7009 0.0327759 74.9157C0.0327759 73.9694 0.0327759 73.1808 0.0327759 72.2345C0.0327759 70.9728 0.190503 69.5533 0.190503 68.2916C0.348221 67.0298 0.50591 65.768 0.50591 64.5063C0.50591 64.3486 0.50591 64.3486 0.50591 64.1909C0.821345 62.456 0.979072 60.7211 1.45223 58.9862C1.92538 56.4627 2.55627 54.097 3.34486 51.7312C4.29116 48.4191 5.55289 45.107 6.97235 42.1104C8.3918 39.1138 9.96898 36.1171 11.7039 33.2782C17.0663 30.4393 20.5361 28.8621 20.5361 28.8621C20.5361 28.8621 113.116 10.5669 114.536 8.98969C115.955 7.41252 122.895 8.35881 122.895 8.35881C127.311 11.1977 131.254 14.5098 135.039 18.1373C135.985 18.9259 136.774 19.8722 137.563 20.6608C138.036 21.2917 138.667 21.9226 139.14 22.5534C140.086 23.6574 140.875 24.6038 141.821 25.7078C144.975 29.8084 147.814 34.0668 150.18 38.6406C151.126 40.3755 151.915 42.2681 152.703 44.003C159.801 71.919 150.969 95.7344 150.969 95.7344C153.334 95.2613 155.227 95.1036 156.646 94.9458Z" fill="url(#paint0_radial_4_1584)"/>
<path fill-rule="evenodd" clip-rule="evenodd" d="M156.646 94.9458L156.016 96.9962C156.016 97.1539 156.016 97.1539 155.858 97.3116C154.281 102.674 152.23 107.721 149.707 112.453C145.606 120.181 140.086 127.278 133.777 133.271C126.365 140.211 117.532 145.731 107.754 149.358C98.9218 152.671 89.4587 154.563 79.5225 154.563C78.103 154.563 76.6835 154.563 75.2641 154.405C73.2138 154.248 71.1634 154.09 69.1131 153.775C55.7071 152.04 43.4051 146.993 32.9958 139.422C32.0495 138.634 31.1032 138.003 30.1569 137.214C32.0495 135.637 35.8347 135.479 35.8347 135.479L30.4723 131.221L17.0663 123.966C14.5428 120.654 12.177 117.184 10.1267 113.557C9.65355 112.61 9.1804 111.822 8.70725 110.875C8.70725 110.875 8.70725 110.875 8.70725 110.718C8.2341 109.771 7.76095 108.825 7.2878 107.879C5.86834 104.882 4.76429 101.728 3.66026 98.4156C2.87168 96.0498 2.24083 93.6841 1.76768 91.3183C1.45224 89.5834 1.1368 87.8485 0.821364 86.1136C0.348211 82.4861 0.0327759 78.7009 0.0327759 74.9157C0.0327759 73.9694 0.0327759 73.1808 0.0327759 72.2345C0.0327759 70.9728 0.190503 69.5533 0.190503 68.2916C0.348221 67.0298 0.50591 65.768 0.50591 64.5063C0.50591 64.3486 0.50591 64.3486 0.50591 64.1909C0.821345 62.456 0.979072 60.7211 1.45223 58.9862C1.92538 56.4627 2.55627 54.097 3.34486 51.7312C4.29116 48.4191 5.55289 45.107 6.97235 42.1104C8.3918 39.1138 9.96898 36.1171 11.7039 33.2782C17.0663 30.4393 20.5361 28.8621 20.5361 28.8621C20.5361 28.8621 113.116 10.5669 114.536 8.98969C115.955 7.41252 122.895 8.35881 122.895 8.35881C127.311 11.1977 131.254 14.5098 135.039 18.1373C135.985 18.9259 136.774 19.8722 137.563 20.6608C138.036 21.2917 138.667 21.9226 139.14 22.5534C140.086 23.6574 140.875 24.6038 141.821 25.7078C144.975 29.8084 147.814 34.0668 150.18 38.6406C151.126 40.3755 151.915 42.2681 152.703 44.003C159.801 71.919 150.969 95.7344 150.969 95.7344C153.334 95.2613 155.227 95.1036 156.646 94.9458Z" fill="url(#paint1_radial_4_1584)"/>
<path fill-rule="evenodd" clip-rule="evenodd" d="M154.439 75.0736C154.439 77.9126 154.281 80.7515 153.966 83.4327C153.493 87.691 152.704 91.7917 151.6 95.7347C151.6 95.8924 151.6 95.8924 151.6 96.0501C150.181 101.097 148.13 105.829 145.765 110.245C141.822 117.5 136.775 124.124 130.781 129.802C123.842 136.268 115.483 141.473 106.335 144.943C98.1338 148.097 89.1439 149.832 79.8386 149.832C78.5768 149.832 77.1574 149.832 75.8956 149.674C74.003 149.516 71.9527 149.359 70.0601 149.201C57.4426 147.624 45.9292 142.735 36.1507 135.637C34.7313 134.533 33.3118 133.429 31.8923 132.325C31.5769 132.01 31.1038 131.694 30.7884 131.379C27.3186 128.225 24.0065 124.912 21.1676 121.127C18.8018 118.131 16.5937 114.818 14.5434 111.349C14.0702 110.56 13.5971 109.772 13.2817 108.825C13.2817 108.825 13.2817 108.825 13.2817 108.667C12.8085 107.721 12.3354 106.933 12.02 105.986C10.7582 103.147 9.65418 100.151 8.70787 97.1541C8.077 94.9461 7.44612 92.738 6.97297 90.53C6.65753 88.9528 6.3421 87.3756 6.18438 85.6407C5.71123 82.171 5.39579 78.7011 5.39579 75.0736C5.39579 74.285 5.39579 73.3387 5.39579 72.5501C5.39579 71.2884 5.55352 70.0267 5.55352 68.9227C5.71124 67.6609 5.71121 66.5569 5.86892 65.2951C5.86892 65.1374 5.86892 65.1374 5.86892 64.9797C6.02664 63.4025 6.34208 61.6676 6.65751 60.0905C7.13067 57.7247 7.76155 55.5167 8.39242 53.1509C9.33872 49.9965 10.4428 46.9999 11.8622 44.0032C13.2817 40.8489 15.0166 37.6945 16.9092 34.6979C18.1709 32.6476 19.5904 30.5973 21.1676 28.7046C23.2179 26.0234 25.5836 23.4999 27.9494 21.1342C41.3554 8.04359 59.8084 0 79.9962 0C80.7848 0 81.5734 0 82.362 0C83.1506 0 84.0969 9.62397e-06 84.8855 0.157727C87.2513 0.315445 89.4593 0.63088 91.8251 0.946316C91.8251 0.946316 91.8251 0.946316 91.9828 0.946316C93.8754 1.26175 95.768 1.57718 97.5029 2.05033C99.8687 2.68121 102.234 3.31208 104.442 4.10067C106.02 4.57382 107.439 5.2047 109.016 5.83557C110.12 6.30873 111.224 6.78187 112.328 7.25502C112.486 7.41274 112.644 7.41274 112.959 7.57045C120.214 11.0402 126.838 15.7718 132.516 21.4496C133.305 22.2382 134.093 23.0268 134.882 23.8154C135.355 24.4463 135.986 24.9194 136.459 25.5503C137.248 26.4966 138.194 27.6006 138.983 28.5469C141.979 32.3321 144.503 36.4328 146.711 40.6912C149.234 45.7382 151.285 51.1005 152.704 56.6206C153.65 60.0904 154.124 63.718 154.597 67.5032C154.281 70.1844 154.439 72.5502 154.439 75.0736Z" fill="url(#paint2_radial_4_1584)"/>
<path fill-rule="evenodd" clip-rule="evenodd" d="M43.247 45.2649C43.247 45.2649 41.1967 49.681 42.9316 54.0971C44.5088 58.5132 49.2403 55.6743 54.7604 54.0971C60.2805 52.5199 65.9584 46.842 69.5859 43.2145C73.2134 39.587 76.6832 34.6978 76.3678 29.9663C76.0523 25.2347 71.0054 22.0804 71.0054 22.0804C71.0054 22.0804 72.8979 19.7146 71.3208 29.1777C69.7436 38.483 67.6933 41.9528 65.643 43.3723C63.5926 44.7917 57.5993 48.4192 54.2873 50.4696C50.9752 52.5199 47.19 54.5702 44.9819 54.0971C42.6162 53.3085 41.5121 48.4192 43.247 45.2649Z" fill="url(#paint3_radial_4_1584)"/>
<path fill-rule="evenodd" clip-rule="evenodd" d="M53.3411 41.9528C53.3411 41.9528 50.5022 44.4763 51.2908 46.5266C52.0794 48.5769 57.4418 47.3152 60.9116 42.8991C64.3814 38.483 61.7002 35.0132 61.7002 35.0132C61.7002 35.0132 60.4384 42.2682 57.1263 43.53C53.8143 44.7917 52.7103 44.3185 52.7103 44.3185C52.7103 44.3185 51.9217 43.6877 53.3411 41.9528Z" fill="url(#paint4_radial_4_1584)"/>
<path fill-rule="evenodd" clip-rule="evenodd" d="M44.8252 45.1071C44.8252 45.1071 47.5064 41.9528 50.6608 39.1139C53.8151 36.1172 59.1775 35.0132 59.1775 35.0132C59.1775 35.0132 56.0232 33.2783 51.9225 35.6441C47.9796 38.1676 44.8252 45.1071 44.8252 45.1071Z" fill="url(#paint5_radial_4_1584)"/>
<path fill-rule="evenodd" clip-rule="evenodd" d="M33.4692 45.2647C33.4692 45.2647 39.9357 38.1674 47.6638 35.1707C55.392 32.1741 58.0732 31.2278 61.543 28.3889C65.0128 25.5499 68.798 23.3419 68.798 23.3419C68.798 23.3419 61.2276 23.6573 49.7142 31.0701C38.2008 38.1674 33.4692 42.8989 33.4692 45.2647Z" fill="url(#paint6_radial_4_1584)"/>
<path fill-rule="evenodd" clip-rule="evenodd" d="M17.8561 43.8453C17.8561 43.8453 28.8963 32.805 37.5708 28.3889C46.2453 23.9728 52.0809 21.2917 59.809 19.2413C67.5372 17.3487 79.5237 13.8789 79.5237 13.8789L81.7318 12.7749C81.7318 12.7749 56.9701 13.2481 40.8829 23.0266C24.7957 32.805 17.8561 43.8453 17.8561 43.8453Z" fill="url(#paint7_radial_4_1584)"/>
<path fill-rule="evenodd" clip-rule="evenodd" d="M31.2611 56.6207C31.2611 56.6207 33.1537 71.9193 35.8349 72.5502C38.5161 73.1811 47.9792 73.1811 62.1738 65.9261C76.3684 58.6711 79.2073 60.4059 87.0932 52.3623C94.9791 44.3187 98.2912 35.1711 100.657 29.1778C103.18 23.1846 103.811 16.245 103.023 14.1946C103.023 14.1946 105.704 15.7718 105.704 21.7651C105.704 27.7584 103.969 37.8523 101.446 43.5301C98.922 49.3657 92.2979 58.5133 84.412 62.9294C76.5261 67.3455 60.5967 76.02 45.1403 75.8623C29.5263 75.7046 32.0497 74.6006 30.4725 71.4462C28.7377 68.2918 31.2611 56.6207 31.2611 56.6207Z" fill="url(#paint8_radial_4_1584)"/>
<path opacity="0.5" fill-rule="evenodd" clip-rule="evenodd" d="M6.97297 69.5535C6.97297 69.5535 9.81191 75.7045 11.2314 81.3823C12.8085 87.0602 12.4931 96.5232 18.9595 98.1004C25.4259 99.5199 34.4158 103.778 37.7279 102.674C41.1977 101.57 53.8151 99.3621 60.9124 100.782C68.0097 102.201 80.7849 101.412 85.201 99.2044C89.6171 96.9964 99.3955 91.1608 103.969 89.4259C108.543 87.691 114.852 82.644 120.372 77.1239C125.892 71.6038 125.734 65.2951 127.154 62.1407C128.573 58.9864 131.255 46.5267 130.939 40.8489C130.624 35.171 127.154 24.604 127.154 24.604L124 21.2919C124 21.2919 127.942 35.8019 126.208 46.2113C124.473 56.4629 126.05 60.7213 118.953 70.4998C111.855 80.436 101.761 88.1642 90.5634 91.7917C79.3654 95.5769 72.1104 95.1038 60.597 96.2078C49.7145 97.1541 36.1508 96.5232 30.7884 95.1038C25.8991 93.842 19.4326 90.6877 14.5434 82.8018C9.33872 74.6005 6.97297 69.5535 6.97297 69.5535Z" fill="#7D72B3"/>
<path opacity="0.4" fill-rule="evenodd" clip-rule="evenodd" d="M31.7343 53.466C31.7343 53.466 32.8383 70.0264 34.8887 71.4459C36.939 72.8653 41.5128 73.4962 45.6135 72.0767C49.8718 70.6573 64.0664 65.9257 66.5899 64.5063C69.1134 63.0868 84.0966 55.5164 87.0932 53.1506C90.0898 50.9426 94.0328 42.899 95.4523 41.3218C96.8717 39.7446 100.499 29.8084 101.446 26.0231C102.55 22.2379 103.18 17.8218 103.18 17.8218C103.18 17.8218 103.496 15.7715 101.761 14.9829C100.026 14.352 99.7106 14.9829 99.7106 14.9829C99.7106 14.9829 99.3952 17.5064 97.818 24.6037C96.2409 31.701 75.1067 55.9895 64.3819 62.4559C53.657 68.7646 43.5631 69.0801 39.9356 68.6069C36.1504 68.1338 31.5766 56.3049 31.7343 53.466Z" fill="#7D72B3"/>
<path opacity="0.4" fill-rule="evenodd" clip-rule="evenodd" d="M31.2616 56.6205C31.2616 56.6205 31.7347 46.3689 34.4159 42.8991C37.0971 39.4293 46.0871 32.332 51.2917 29.6508C56.6541 26.9696 64.2246 23.1844 66.9058 22.5535C69.587 21.9226 71.4796 22.5535 71.4796 22.5535C71.4796 22.5535 68.3253 20.8186 60.9125 22.7112C53.4998 24.6038 45.1407 31.3857 41.0401 33.5937C36.9394 35.6441 30.7884 40.8487 29.2113 43.5299C27.7918 45.8957 31.2616 56.6205 31.2616 56.6205Z" fill="#7D72B3"/>
<path opacity="0.4" fill-rule="evenodd" clip-rule="evenodd" d="M12.9659 45.7379L35.835 25.7078L50.0296 19.2414C50.0296 19.2414 64.0665 14.5098 70.5329 12.9326C76.9993 11.3555 91.3517 11.04 91.3517 11.04L98.9221 11.8286C98.9221 11.8286 85.8316 4.73131 66.2746 9.936C46.8753 15.1407 33.9424 21.7648 28.2646 27.1272C22.7445 32.3319 14.07 43.0567 12.9659 45.7379Z" fill="#7D72B3"/>
<path fill-rule="evenodd" clip-rule="evenodd" d="M12.3353 46.5264C12.3353 46.5264 0.0333438 61.3519 6.02662 70.4995C12.0199 79.6471 14.7011 92.8954 16.436 95.892C18.1709 98.8887 38.0433 103.62 42.144 102.674C46.2446 101.728 56.1808 99.2041 62.6473 101.57C62.6473 101.57 74.1607 100.624 77.315 100.624C80.6271 100.624 86.6204 97.7846 88.0398 97.1538C89.4593 96.5229 97.1875 93.9994 101.13 92.4222C105.073 90.8451 111.54 85.7981 114.063 83.9055C116.587 81.8552 123.369 73.8116 124.788 71.2881C126.05 68.7646 129.993 54.2545 130.939 47.315C131.885 40.3754 129.046 27.1271 126.681 22.5533C124.315 17.9795 117.375 13.7211 117.375 13.7211L117.848 11.6708L123.369 8.3587C123.369 8.3587 132.989 20.8184 133.778 31.7009C134.251 38.0096 135.828 51.5733 134.093 57.4089C132.832 62.1404 128.258 75.7042 124.157 80.5934C120.214 85.4827 108.228 97.9424 101.919 100.466C95.6103 102.832 76.6842 106.144 65.6439 106.301C57.4426 106.459 39.4628 105.04 30.6306 104.724C21.7984 104.409 15.4897 98.8886 12.0199 96.0497C8.55013 93.2108 9.65413 85.6404 6.18434 79.4894C2.55684 73.4961 0.664224 65.4525 1.45281 61.0364C2.2414 56.9358 12.3353 46.5264 12.3353 46.5264Z" fill="url(#paint9_radial_4_1584)"/>
<path fill-rule="evenodd" clip-rule="evenodd" d="M33.9424 103.147C32.0498 102.674 30.3149 101.728 28.4223 101.254C27.3183 100.939 26.372 100.781 25.2679 100.466C24.1639 100.15 23.0599 99.9927 21.9559 99.9927C19.7478 99.835 17.5398 99.3618 16.1203 97.6269C14.8586 96.0498 14.07 94.3149 13.5968 92.2645C12.8083 89.5833 12.1774 86.9021 11.3888 84.3787C10.6002 81.8552 9.65387 79.8049 8.23441 77.5968C7.76125 76.8082 7.2881 75.8619 6.65723 75.0733C6.18408 74.2847 5.39553 73.6539 4.92237 72.7076C3.81835 70.4995 3.50288 68.1337 3.50288 65.6103C3.50288 64.3485 3.81835 63.0868 4.13379 61.825C4.44922 60.2479 4.92237 58.8284 5.71096 57.4089C6.49955 56.1472 7.13041 54.7277 7.919 53.466C9.6539 50.4693 11.3888 47.4727 13.4391 44.7915C16.1203 41.4794 19.117 38.1674 22.2713 35.1708C24.0062 33.4359 26.0565 31.8587 28.1068 30.2815C29.8417 29.0198 31.4189 27.6003 32.9961 26.3386C35.835 24.1305 39.1471 22.711 42.4592 21.1338C46.4021 19.2412 50.3451 17.3486 54.4457 15.9292C59.335 14.1943 64.2242 12.7748 69.2712 11.6708C75.1067 10.5668 81.1 10.2513 86.9356 10.2513C90.0899 10.2513 93.5597 9.9359 96.7141 11.0399C98.4489 11.6708 100.499 12.4594 101.919 13.4057C102.234 13.7211 102.392 13.7211 102.707 14.0365C102.865 14.1943 102.865 14.5097 103.023 14.6675C103.338 15.2983 103.496 16.0869 103.496 16.7178C103.496 17.3486 103.18 17.9795 103.18 18.6104C103.18 19.5567 102.865 20.503 102.865 21.4493C102.865 22.5533 102.55 23.3419 102.392 24.4459C102.076 26.3385 101.761 28.2312 100.972 30.1238C99.8684 32.805 99.0798 35.6439 97.9758 38.1674C97.6604 38.956 97.0295 39.5868 96.5563 40.3754C96.2409 41.164 95.9255 41.6371 95.4523 42.4257C94.6637 43.6875 94.0329 45.107 93.0866 46.211C91.1939 48.7345 89.4591 51.4156 86.9356 53.466C83.9389 55.8317 80.7846 57.8821 77.4725 59.617C75.2645 60.721 73.0564 61.6673 70.8484 62.7714C68.9557 63.7177 66.9054 64.8217 64.8551 65.768C59.8081 68.1338 54.288 69.8686 48.9256 71.6035C47.3484 72.0767 45.929 72.5498 44.3518 72.8653C42.9323 73.023 41.1974 73.4961 39.7779 73.4961C38.2008 73.4961 36.6236 73.023 35.0464 72.5498C32.5229 71.7612 32.2075 68.9223 32.0498 66.5566C31.8921 64.8217 31.7344 63.0868 31.4189 61.5096C31.1035 60.0901 31.1035 58.8284 30.7881 57.4089C30.4726 55.9895 30.3149 54.57 30.3149 53.1506C30.3149 51.258 30.9458 49.6808 31.4189 47.7882C31.7344 46.6842 31.7344 45.4224 32.3652 44.3184C32.9961 42.7412 34.2579 41.3217 35.6773 40.2177C36.9391 39.1137 38.3585 37.852 39.6203 36.7479C40.4089 35.9593 41.3551 35.4862 42.1437 34.8553C43.5632 33.7513 45.1404 32.805 46.8752 32.0164C48.137 31.3855 49.0833 30.2815 50.3451 29.4929C51.6068 28.7043 53.0263 27.9157 54.288 27.1271C55.392 26.4963 56.6537 26.1808 57.9155 25.7077C58.8618 25.3923 59.8081 24.7614 60.7544 24.4459C61.7007 24.1305 62.647 23.9728 63.5933 23.6573C64.5396 23.3419 65.3282 23.0265 66.2746 22.711C67.3786 22.3956 68.4826 22.0802 69.4289 22.0802C71.4792 22.0802 72.4255 23.0265 73.0564 25.0768C73.845 27.758 72.8987 30.1238 71.9524 32.6473C71.1638 34.6976 70.2175 36.5902 69.5866 38.6405C68.6403 41.3217 66.1168 42.7412 64.0665 44.6338C61.8585 46.5264 59.1772 48.419 56.6538 49.523C55.8652 49.8385 54.9189 50.1539 54.1303 50.4693C53.4994 50.7848 52.7108 51.258 52.08 51.5734C51.6068 51.8888 51.2913 52.2043 50.8182 52.5197C50.5028 52.8351 50.0296 52.8351 49.5565 53.1506C48.6102 53.7814 47.6639 54.4123 46.5598 54.8855C45.6135 55.3586 43.5632 55.674 42.9323 54.4123C42.6169 53.7814 42.6169 52.9929 42.4592 52.362C42.3015 51.5734 42.3014 50.7848 42.3014 49.9962C42.3014 49.2076 42.4592 48.5768 42.6169 47.7882C42.7746 46.9996 43.09 46.3687 43.4055 45.5801C44.1941 43.372 45.6135 41.7949 46.8752 40.06C47.6638 38.9559 48.4524 37.852 49.3987 36.7479C50.8182 35.1708 52.8685 34.5399 54.7611 33.909C56.496 33.4358 59.1773 32.9627 60.9122 33.909C62.3316 34.8553 61.3853 36.7479 60.9122 37.8519C60.5967 38.4828 60.439 39.1137 60.1236 39.7446C59.9659 40.2177 59.9658 40.8486 59.6504 41.3217C59.0195 42.268 57.9155 42.8989 56.9692 43.6875C56.6538 44.0029 56.0229 44.4761 55.5497 44.6338C54.9188 44.7915 54.288 44.7915 53.6571 44.9492C53.3417 44.9492 53.184 45.4224 52.8685 45.2647C52.5531 45.107 52.5531 44.7915 52.5531 44.4761C52.5531 44.1607 52.7108 43.8452 52.8685 43.5298C52.8685 43.5298 52.8685 43.372 52.8685 43.2143C53.184 42.268 54.288 41.164 54.7611 40.3754C55.5497 40.6909 55.0766 41.164 54.9189 41.6371C54.7611 41.9526 54.7611 42.268 54.7611 42.5835C54.7611 42.8989 54.288 43.3721 54.6035 43.6875C54.7612 43.8452 55.5497 43.5298 55.7074 43.5298C57.6001 42.8989 58.7041 40.8486 59.335 39.1137C59.6504 37.852 59.6504 35.9593 58.3887 35.3284C57.4424 35.013 56.1806 35.1708 55.2343 35.1708C51.6068 35.1708 49.3988 39.1137 47.3484 41.6371C46.0867 43.372 44.9827 45.2647 44.1941 47.315C43.7209 48.7345 43.4055 50.1539 43.09 51.5734C42.7746 52.6774 42.4592 54.2546 44.0363 54.0969C44.9827 53.9392 45.9289 53.466 46.8752 53.1506C47.6638 52.8351 48.2947 52.6774 49.0833 52.2043C50.1874 51.5734 51.6068 51.4157 52.7108 50.7848C53.6571 50.3116 54.6034 49.8385 55.5497 49.3654C57.9155 48.1036 60.439 45.7378 62.0162 43.6875C63.1202 42.268 64.8551 41.164 66.1168 39.9023C67.5363 38.6405 68.1671 36.9056 69.1134 35.3284C70.0598 33.5935 70.5329 32.0164 71.0061 30.2815C71.3215 28.7043 72.4255 26.8117 71.7947 25.0768C71.3215 23.3419 68.9557 23.3419 67.5363 23.4996C66.2745 23.6573 65.0128 23.9728 63.7511 24.2882C61.543 25.0768 59.4927 26.0231 57.4424 26.9694C54.1303 28.3889 51.2914 30.5969 48.2947 32.4895C46.7176 33.4358 44.9827 34.2244 43.5632 35.3284C42.4592 36.117 41.5129 37.2211 40.4089 38.0097C39.6203 38.6405 39.1471 39.4291 38.2008 39.9023C37.0967 40.6909 36.1505 41.4794 35.3619 42.4257C34.731 43.2143 33.9424 44.3184 33.627 45.2647C33.3115 46.0533 33.627 46.8419 33.627 47.6304C33.627 48.7345 33.3116 49.8385 33.3116 50.9425C33.3116 52.0466 33.3116 53.3083 33.3116 54.4123C33.3116 56.7781 32.9961 58.9861 32.9961 61.1942C32.9961 62.6136 33.3115 64.1908 33.627 65.4525C33.7847 66.5565 34.2578 67.5029 34.4156 68.6069C34.4156 69.3955 34.5733 70.3418 35.2041 70.8149C35.5196 70.9726 35.9928 71.1304 36.3082 71.2881C36.6236 71.4458 36.9391 71.6035 37.2545 71.6035C37.4122 71.6035 37.5699 71.7612 37.8854 71.7612C38.0431 71.7612 38.2008 72.0767 38.2008 72.0767C38.5162 72.2344 39.1471 72.0767 39.4625 72.0767C40.4088 71.919 41.3551 71.7613 42.1437 71.4458C44.5095 71.1304 46.7176 71.1304 48.9256 70.3418C51.4491 69.3955 53.8149 67.976 56.1806 67.0297C59.8081 65.4525 63.9088 64.3485 67.3785 62.4559C68.9557 61.6673 70.6906 60.721 72.2678 60.0901C76.2107 58.3552 80.3114 56.9358 83.6235 54.2546C84.8852 53.3083 85.9892 52.0466 87.0933 50.9425C87.7241 50.3117 88.355 49.6808 88.9859 48.8922C90.7208 46.6841 92.298 44.3184 93.5597 41.9526C94.1906 41.0063 94.506 39.7446 94.9791 38.7982C95.9255 37.2211 96.8718 35.8016 97.8181 34.2244C98.6067 32.6473 99.0798 31.0701 99.553 29.3352C99.8684 28.2312 100.184 27.4426 100.026 26.3386C100.026 24.1305 100.184 22.2379 101.13 20.1876C101.603 19.0836 102.392 17.5064 101.919 16.2446C101.761 15.6138 100.815 15.456 100.342 15.2983C99.0798 14.8252 97.8181 14.5097 96.5563 14.0365C95.4523 13.5634 94.6637 12.9325 93.402 12.7748C92.9288 12.6171 92.4557 12.6171 91.9825 12.6171C90.7208 12.6171 89.7745 13.5634 88.5128 13.4057C88.1973 13.4057 87.8819 13.248 87.4087 13.248C86.7778 13.0902 86.147 13.248 85.5161 13.248C84.0966 13.248 82.8349 12.9326 81.4155 12.9326C79.8383 12.9326 78.2611 13.0902 76.6839 13.248C75.1068 13.4057 73.6873 13.248 72.1101 13.248C71.1638 13.248 70.5329 13.7211 69.7443 14.0365C68.9557 14.352 68.1671 14.5097 67.3785 14.8251C66.59 15.1406 65.9591 15.2983 65.1705 15.456C64.0665 15.456 63.1202 15.2983 62.0162 15.6137C60.7544 15.9292 59.4927 16.4023 58.2309 16.8755C54.9189 18.295 51.6068 20.1875 48.137 21.2916C46.4021 21.7647 44.6672 22.0802 43.09 22.711C42.4592 23.0265 41.986 23.3419 41.3551 23.8151C40.2511 24.6037 39.1471 25.2345 38.0431 25.8654C35.5196 27.4426 33.1538 29.1775 30.6303 31.0701C27.7914 33.1204 25.1102 35.3285 22.7445 38.0097C18.6438 42.7412 14.3854 47.4727 10.7579 52.6774C9.02301 55.0432 7.13039 57.7244 6.02637 60.4056V60.5633C5.3955 62.1404 5.08006 63.7176 5.23778 65.4525C5.23778 65.4525 5.23778 65.4525 5.23778 65.6103C5.3955 67.0297 6.0264 68.6069 6.49955 69.8687C7.13042 71.1304 7.44582 72.3921 8.23441 73.6539C9.023 74.9156 10.127 76.0196 10.6002 77.4391C11.231 79.174 11.8619 81.0666 12.4928 82.9592C13.1237 85.1673 13.7545 87.533 14.07 89.8988C14.3854 91.3182 14.5431 92.8954 15.3317 94.1572C16.278 96.0498 18.3283 96.6806 20.0632 97.7847C21.0095 98.4155 21.4827 98.5732 22.5867 98.5732C24.0062 98.731 25.5834 99.0464 27.0029 99.5196C29.9995 100.466 33.1538 101.097 36.3082 101.097C38.2008 101.097 40.0934 100.624 41.8283 100.308C43.5632 100.15 45.2981 99.9927 47.033 99.6773C48.6101 99.3619 50.1873 99.0464 51.7645 99.0464C53.3417 99.0464 55.0766 99.3619 56.496 99.6773C59.1772 100.466 61.7007 100.939 64.3819 100.939C66.1168 100.939 67.694 100.466 69.4289 100.466C71.0061 100.308 72.4255 100.624 74.0027 100.781C76.6839 100.939 79.3651 100.308 81.8886 99.3618C83.6235 98.731 85.0429 97.9424 86.6201 96.9961C87.8819 96.2075 89.1436 96.0498 90.4053 95.7343C93.0865 94.9458 95.7677 93.9995 98.2912 92.58C101.446 90.6874 104.127 88.0062 107.281 86.1136C109.016 85.0095 111.066 84.221 112.801 83.1169C114.221 82.1706 115.64 81.0666 116.744 79.8048C118.164 78.3854 119.425 76.9659 120.845 75.5465C121.949 74.4424 122.422 73.023 122.895 71.7612C123.842 69.7109 124.157 67.6606 124.472 65.4525C124.788 63.2445 125.734 61.3519 126.68 59.4593C127.942 56.9358 128.888 54.57 129.046 51.7311C129.204 49.5231 129.519 47.4727 129.519 45.2647C129.519 43.8452 129.362 42.5835 129.046 41.164C128.888 39.9023 128.573 38.6405 128.415 37.3788C128.1 35.8016 128.1 34.2244 127.784 32.6473C127.469 31.3855 127.154 29.9661 126.838 28.5466C126.523 27.6003 126.207 26.654 125.892 25.7077C125.261 24.1305 124.315 22.5533 123.211 21.1338C122.738 20.503 122.107 20.3453 121.633 20.0299C121.16 19.7144 121.16 19.399 120.687 19.2413C120.056 18.9258 119.425 18.6104 118.795 18.2949C117.691 17.6641 116.586 17.5064 115.482 16.8755C114.536 16.4023 113.59 15.6137 112.644 14.9829C111.54 14.352 110.436 13.8789 109.489 12.9326C108.543 11.9862 107.912 10.8822 107.123 10.0936C106.177 9.14732 104.915 8.51645 103.969 7.72786C102.234 6.3084 100.026 6.15069 98.1335 5.3621C97.1872 4.88894 96.0832 4.88894 95.1369 4.57351C93.8751 4.25807 93.0865 3.62721 91.8248 3.46949C90.7208 3.31177 89.6168 3.31177 88.355 2.99633C87.7242 2.83861 87.0933 2.6809 86.3047 2.6809C85.0429 2.52318 83.6235 2.68089 82.3617 2.8386C81.2577 2.99632 79.996 2.8386 78.892 2.8386C77.9457 2.8386 76.8416 2.99632 75.8953 2.8386C73.0564 2.36545 70.0598 2.52318 67.2209 2.6809C64.5397 2.83862 61.8585 2.99632 59.335 3.94262C57.1269 4.73121 55.0766 5.3621 52.8685 6.15069C51.4491 6.78156 50.1873 7.57014 48.7679 8.35872C45.4558 10.2513 42.4592 12.4594 39.4625 14.5097C35.9928 16.8755 32.6807 19.3989 29.3686 21.9224C27.1606 23.4996 24.9525 25.2345 22.9022 26.8117C21.9559 27.6003 21.0096 28.3889 20.221 29.1775C22.2713 26.4963 24.6371 23.9728 27.0029 21.607C40.4089 8.51646 58.8618 0.472839 79.0497 0.472839C79.8383 0.472839 80.6269 0.472839 81.4155 0.472839C82.204 0.472839 83.1503 0.472849 83.9389 0.630567C86.3047 0.788284 88.5128 1.10372 90.8785 1.41916C90.8785 1.41916 90.8785 1.41916 91.0362 1.41916C93.5597 2.05003 96.0832 2.8386 98.7644 3.62719C100.972 4.25806 103.023 4.88893 105.073 5.5198C106.493 5.99295 107.754 6.62383 109.174 7.09698C110.435 7.57013 111.697 8.04328 112.801 8.67416C114.694 9.77818 116.429 11.0399 118.006 12.3017C119.11 13.0903 120.214 14.1943 121.16 15.1406C122.58 16.5601 123.841 18.1372 124.946 19.7144C127.469 23.6573 129.519 28.0735 130.466 32.805C131.254 36.7479 131.254 40.8486 131.097 44.7915C130.939 46.8418 130.623 49.2076 130.15 51.2579C129.677 53.6237 128.888 55.6741 128.573 58.0398C128.415 59.1438 128.573 60.4056 128.415 61.5096C128.258 62.4559 127.942 63.4022 127.784 64.3485C127.469 66.2411 126.838 68.2914 125.892 70.0263C124.63 72.5498 123.053 74.6002 121.16 76.6505C119.11 79.0163 117.06 81.382 114.852 83.5901C112.801 85.9558 110.278 87.8485 107.597 89.4256C105.546 90.6874 103.338 92.2645 101.13 93.0531C98.9221 93.8417 96.5563 95.1035 94.1906 95.4189C92.4557 95.5766 91.0362 96.2075 89.6168 97.3115C88.8282 97.9424 88.0396 98.731 87.251 99.5196C86.4624 100.15 85.6738 100.308 84.7275 100.624C82.6772 101.254 80.6268 101.097 78.4188 101.097C75.2644 101.097 72.2678 101.412 69.2712 101.728C67.694 101.885 66.1168 102.043 64.6974 101.885C63.2779 101.728 61.8584 101.412 60.5967 101.254C59.0195 101.097 57.6001 101.097 56.0229 100.781C54.7612 100.624 53.8148 100.624 52.7108 100.781C51.7645 100.939 50.8182 100.781 49.7142 100.781C48.7679 100.939 47.6639 101.097 46.7176 101.254C42.9323 102.201 38.674 104.251 33.9424 103.147Z" fill="#00C4FF"/>
<path fill-rule="evenodd" clip-rule="evenodd" d="M30.3149 137.372C30.3149 137.372 47.8216 140.369 55.7074 140.211C67.694 139.895 81.5732 141.315 92.298 141.63C103.023 141.946 121.791 133.114 125.261 131.536C128.731 129.959 136.932 125.228 144.187 117.184C151.442 109.141 154.281 96.0499 154.281 96.0499H151.284C151.284 96.0499 150.18 101.728 145.764 108.036C143.083 111.822 139.298 115.134 134.093 119.708C126.523 126.174 116.744 131.221 106.808 133.744C93.5597 137.057 81.8886 136.11 73.6872 137.372C62.0161 139.107 35.835 135.006 35.835 135.006L30.3149 137.372Z" fill="url(#paint10_radial_4_1584)"/>
<path fill-rule="evenodd" clip-rule="evenodd" d="M25.742 128.697C25.742 128.697 28.5809 135.952 30.3158 137.372C30.3158 137.372 34.101 137.53 35.9936 135.637L30.6313 131.379L25.742 128.697Z" fill="url(#paint11_radial_4_1584)"/>
<path fill-rule="evenodd" clip-rule="evenodd" d="M154.596 82.4861C154.596 82.4861 156.489 90.6874 156.646 95.1035C156.646 95.1035 153.65 96.9961 151.442 96.0498C151.442 96.0498 154.123 85.9559 154.596 82.4861Z" fill="url(#paint12_radial_4_1584)"/>
<path fill-rule="evenodd" clip-rule="evenodd" d="M103.969 4.41577C103.969 4.41577 119.583 5.99296 123.211 8.51644C123.211 8.51644 120.687 11.3553 117.691 11.8285C117.849 11.6708 105.231 4.73121 103.969 4.41577Z" fill="#EE8CFF"/>
<path fill-rule="evenodd" clip-rule="evenodd" d="M11.8616 33.4359L18.328 32.4896L20.8515 29.1775C20.8515 29.0198 16.2777 31.0701 11.8616 33.4359Z" fill="#FF61C7"/>
<path opacity="0.5" fill-rule="evenodd" clip-rule="evenodd" d="M17.0675 124.124C17.0675 124.124 47.3493 132.956 70.8493 133.429C94.5069 133.902 103.339 128.697 113.591 124.597C123.842 120.654 140.56 111.664 145.607 104.882C150.654 98.2578 154.597 82.4861 154.597 82.4861C154.597 82.4861 149.708 106.144 145.607 110.244C141.349 114.345 122.738 127.12 119.426 128.697C116.114 130.275 107.282 137.056 91.0371 135.164C91.0371 135.164 80.1546 136.741 76.2117 136.426C72.2687 136.11 66.1177 140.053 54.9198 136.426C54.9198 136.426 39.3057 135.637 35.9936 134.848C32.5239 134.217 17.0675 124.124 17.0675 124.124Z" fill="#54469B"/>
<path fill-rule="evenodd" clip-rule="evenodd" d="M24.479 92.2648C24.479 92.2648 49.5561 96.6809 67.6937 94.7883C85.8312 92.8957 95.6097 88.3218 100.814 85.0098C106.019 81.6977 116.113 70.8152 119.898 65.7682C123.683 60.879 125.576 48.4193 125.576 48.4193C125.576 48.4193 126.207 60.4058 123.21 65.7682C120.056 70.9729 109.489 80.9091 105.073 83.748C100.657 86.587 88.197 93.5265 81.7305 94.6306C75.2641 95.7346 64.5393 99.0466 56.6534 97.6272C49.083 96.3654 30.1569 96.6809 24.479 92.2648Z" fill="#B04FE2"/>
<path fill-rule="evenodd" clip-rule="evenodd" d="M59.1769 132.483C59.1769 132.483 85.2003 130.748 94.1902 128.697C103.18 126.647 115.009 121.916 123.21 118.761C131.412 115.765 137.72 109.771 142.294 106.459C146.868 103.147 152.703 89.268 152.703 89.268C152.703 89.268 148.918 102.989 143.24 107.406C137.563 111.822 122.895 120.023 106.492 127.436C88.0393 135.637 73.8447 133.271 59.1769 132.483Z" fill="#8B40E0"/>
<path fill-rule="evenodd" clip-rule="evenodd" d="M150.181 99.6775C150.654 98.4157 150.969 97.154 151.442 96.0499C150.023 101.097 147.973 105.828 145.607 110.245C144.976 110.875 144.03 111.506 143.399 112.137C142.768 112.926 142.137 113.557 141.506 114.345C138.036 117.657 134.251 120.654 130.151 123.177C126.05 125.859 121.949 128.382 117.375 130.432C113.906 132.01 110.278 133.271 106.651 134.218C103.654 135.006 100.5 135.322 97.5029 135.479C95.9257 135.637 94.5063 135.795 92.9291 135.953C91.0365 136.11 88.9862 136.11 87.2513 136.426C83.9392 137.057 80.6271 137.53 77.3151 137.687C74.4762 137.845 71.6372 138.318 68.7983 138.318C65.1708 138.318 61.5433 137.687 57.9158 137.687C54.446 137.687 50.8185 137.53 47.3487 137.214C45.2984 137.057 43.2481 136.583 41.1977 136.426C39.4628 136.268 37.7279 135.795 35.993 135.637C34.5736 134.533 33.1541 133.429 31.7347 132.325C31.4192 132.01 30.9461 131.694 30.6306 131.379C32.681 132.01 34.5736 132.64 36.6239 133.271C39.4628 134.218 42.6172 134.691 45.4561 135.006C47.8218 135.322 50.8185 135.479 53.1842 134.848C55.7077 134.218 57.4426 135.006 59.6507 135.953C60.7547 136.426 61.701 136.583 62.805 136.899C64.3822 137.372 65.4862 137.214 67.0634 137.057C68.4829 136.899 69.9024 136.583 71.1641 136.426C72.2681 136.11 73.5298 135.637 74.6339 135.479C76.6842 135.164 78.8922 134.849 80.9426 135.322C83.3083 135.795 85.6741 135.953 88.0399 135.637C90.5633 135.164 92.7714 135.006 95.2949 135.006C96.0835 135.006 96.8721 135.164 97.6606 135.164C98.607 135.322 99.3956 135.006 100.342 135.006C101.919 134.849 103.496 134.533 105.073 134.06C106.493 133.587 107.912 132.956 109.332 132.483C112.171 131.379 114.536 130.432 117.06 128.698C119.11 127.278 121.476 126.332 123.526 124.912C125.577 123.651 127.312 121.916 129.362 120.812C131.57 119.55 133.463 117.815 135.513 116.396C136.775 115.449 138.036 114.345 139.298 113.399C140.402 112.61 141.664 111.979 142.768 111.033C144.503 109.456 146.238 107.879 147.499 105.671C148.603 103.778 149.55 101.728 150.181 99.6775Z" fill="#00C4FF"/>
<path fill-rule="evenodd" clip-rule="evenodd" d="M70.0601 58.1977C70.0601 58.1977 88.0399 43.3722 95.6103 29.0199C95.7681 29.0199 74.6339 50.6272 70.0601 58.1977Z" fill="#FF77F4"/>
<path fill-rule="evenodd" clip-rule="evenodd" d="M51.1339 75.7045C51.1339 75.7045 62.4896 75.7045 75.107 70.4999C87.7245 65.2952 94.0332 54.4126 94.0332 54.4126C94.0332 54.4126 85.5164 62.614 76.211 67.1878C66.9057 71.7616 59.9661 72.8656 51.1339 75.7045Z" fill="#F9C6FF"/>
<path fill-rule="evenodd" clip-rule="evenodd" d="M96.0835 51.8889C96.0835 51.8889 97.3452 48.5768 99.711 42.899C102.077 37.2212 103.969 34.0668 103.969 34.0668C103.969 34.0668 103.338 42.899 96.0835 51.8889Z" fill="#EA9CF4"/>
<path fill-rule="evenodd" clip-rule="evenodd" d="M47.191 105.828C47.191 105.828 62.9628 109.614 83.6238 105.828C104.285 102.043 105.073 100.781 110.751 96.2076C116.429 91.7915 120.53 86.1137 122.738 83.9056C124.946 81.6976 127.785 74.2848 127.785 74.2848C127.785 74.2848 121.949 84.6942 113.59 91.7915C105.231 98.7311 98.2915 102.201 84.2546 104.409C70.3755 106.459 54.2883 106.144 47.191 105.828Z" fill="#D374F4"/>
<path fill-rule="evenodd" clip-rule="evenodd" d="M61.0698 140.211C61.0698 140.211 75.4222 141.472 81.2577 142.576C87.0933 143.838 98.2912 143.68 104.758 141.315C111.224 138.949 123.842 132.167 123.842 132.167C123.842 132.167 112.013 138.791 97.8181 140.368C83.7812 141.788 75.1067 139.422 61.0698 140.211Z" fill="#D374F4"/>
<path fill-rule="evenodd" clip-rule="evenodd" d="M128.1 130.117C128.1 130.117 137.247 123.966 141.664 120.023C141.664 119.865 136.932 126.489 128.1 130.117Z" fill="#D374F4"/>
<path fill-rule="evenodd" clip-rule="evenodd" d="M58.8627 52.2046C58.8627 52.2046 69.2721 44.3187 72.5842 38.7986C75.8962 33.1207 76.2117 29.9664 76.2117 29.9664C76.2117 29.9664 77.6311 35.4865 71.4801 42.4261C65.1714 49.3656 58.8627 52.2046 58.8627 52.2046Z" fill="#F2C4F8"/>
<path fill-rule="evenodd" clip-rule="evenodd" d="M9.96996 93.3688C9.81224 96.8386 11.7049 100.782 17.8558 103.147C24.0068 105.513 28.7384 104.882 28.7384 104.882C28.7384 104.882 21.6411 103.463 17.6981 100.782C13.7552 97.7849 9.96996 93.3688 9.96996 93.3688Z" fill="#F5CEFA"/>
<defs>
<radialGradient id="paint0_radial_4_1584" cx="0" cy="0" r="1" gradientUnits="userSpaceOnUse" gradientTransform="translate(29.9583 47.1345) scale(122.103)">
<stop offset="0.00558659" stop-color="#FF9AFF"/>
<stop offset="0.0930098" stop-color="#FB94FF"/>
<stop offset="0.2093" stop-color="#F183FF"/>
<stop offset="0.3418" stop-color="#E068FF"/>
<stop offset="0.4864" stop-color="#C841FF"/>
<stop offset="0.639" stop-color="#A910FF"/>
<stop offset="0.6844" stop-color="#9F00FF"/>
<stop offset="0.7432" stop-color="#9900F8"/>
<stop offset="0.8282" stop-color="#8700E5"/>
<stop offset="0.9287" stop-color="#6A00C6"/>
<stop offset="1" stop-color="#5200AB"/>
</radialGradient>
<radialGradient id="paint1_radial_4_1584" cx="0" cy="0" r="1" gradientUnits="userSpaceOnUse" gradientTransform="translate(29.9583 47.1345) scale(122.103)">
<stop offset="0.00558659" stop-color="#FF9AFF"/>
<stop offset="0.0930098" stop-color="#FB94FF"/>
<stop offset="0.2093" stop-color="#F183FF"/>
<stop offset="0.3418" stop-color="#E068FF"/>
<stop offset="0.4864" stop-color="#C841FF"/>
<stop offset="0.639" stop-color="#A910FF"/>
<stop offset="0.6844" stop-color="#9F00FF"/>
<stop offset="0.7432" stop-color="#9900F8"/>
<stop offset="0.8282" stop-color="#8700E5"/>
<stop offset="0.9287" stop-color="#6A00C6"/>
<stop offset="1" stop-color="#5200AB"/>
</radialGradient>
<radialGradient id="paint2_radial_4_1584" cx="0" cy="0" r="1" gradientUnits="userSpaceOnUse" gradientTransform="translate(33.4214 40.0694) scale(120.026)">
<stop offset="0.00558659" stop-color="#FF9AFF"/>
<stop offset="0.0930098" stop-color="#FB94FF"/>
<stop offset="0.2093" stop-color="#F183FF"/>
<stop offset="0.3418" stop-color="#E068FF"/>
<stop offset="0.4864" stop-color="#C841FF"/>
<stop offset="0.639" stop-color="#A910FF"/>
<stop offset="0.6844" stop-color="#9F00FF"/>
<stop offset="0.7432" stop-color="#9900F8"/>
<stop offset="0.8282" stop-color="#8700E5"/>
<stop offset="0.9287" stop-color="#6A00C6"/>
<stop offset="1" stop-color="#5200AB"/>
</radialGradient>
<radialGradient id="paint3_radial_4_1584" cx="0" cy="0" r="1" gradientUnits="userSpaceOnUse" gradientTransform="translate(49.2043 27.3753) scale(26.8382)">
<stop offset="0.630208" stop-color="white"/>
<stop offset="1" stop-color="#EF9AFF"/>
</radialGradient>
<radialGradient id="paint4_radial_4_1584" cx="0" cy="0" r="1" gradientUnits="userSpaceOnUse" gradientTransform="translate(53.4744 37.0771) scale(9.33658)">
<stop stop-color="white"/>
<stop offset="1" stop-color="#F7ABFF"/>
</radialGradient>
<radialGradient id="paint5_radial_4_1584" cx="0" cy="0" r="1" gradientUnits="userSpaceOnUse" gradientTransform="translate(47.7332 36.2128) scale(9.83844)">
<stop stop-color="white"/>
<stop offset="1" stop-color="#F9D0FD"/>
</radialGradient>
<radialGradient id="paint6_radial_4_1584" cx="0" cy="0" r="1" gradientUnits="userSpaceOnUse" gradientTransform="translate(40.7741 26.7373) scale(22.7264)">
<stop stop-color="white"/>
<stop offset="1" stop-color="#F7C2FC"/>
</radialGradient>
<radialGradient id="paint7_radial_4_1584" cx="0" cy="0" r="1" gradientUnits="userSpaceOnUse" gradientTransform="translate(31.0612 17.904) scale(38.5315)">
<stop stop-color="white"/>
<stop offset="1" stop-color="#F5AEFE"/>
</radialGradient>
<radialGradient id="paint8_radial_4_1584" cx="0" cy="0" r="1" gradientUnits="userSpaceOnUse" gradientTransform="translate(45.3414 24.0074) scale(53.6889)">
<stop offset="0.744792" stop-color="white"/>
<stop offset="0.9998" stop-color="#E886FF"/>
<stop offset="0.9999" stop-color="#ED8CFF"/>
</radialGradient>
<radialGradient id="paint9_radial_4_1584" cx="0" cy="0" r="1" gradientUnits="userSpaceOnUse" gradientTransform="translate(28.6004 24.4021) scale(90.7049)">
<stop offset="0.84375" stop-color="#EEADFE"/>
<stop offset="1" stop-color="#B439EE"/>
</radialGradient>
<radialGradient id="paint10_radial_4_1584" cx="0" cy="0" r="1" gradientUnits="userSpaceOnUse" gradientTransform="translate(55.7893 103.399) scale(71.4887)">
<stop offset="0.572917" stop-color="#EEB9FF"/>
<stop offset="1" stop-color="#7801BD"/>
</radialGradient>
<radialGradient id="paint11_radial_4_1584" cx="0" cy="0" r="1" gradientUnits="userSpaceOnUse" gradientTransform="translate(27.639 130.98) scale(7.71555)">
<stop stop-color="#6D00C2"/>
<stop offset="0.3995" stop-color="#6600BC"/>
<stop offset="0.976" stop-color="#5300AC"/>
<stop offset="1" stop-color="#5200AB"/>
</radialGradient>
<radialGradient id="paint12_radial_4_1584" cx="0" cy="0" r="1" gradientUnits="userSpaceOnUse" gradientTransform="translate(152.422 86.1183) scale(8.05887)">
<stop stop-color="#1F0081"/>
<stop offset="0.73" stop-color="#260087"/>
<stop offset="1" stop-color="#2A008B"/>
</radialGradient>
</defs>
</svg>
