<svg width="150" height="150" viewBox="0 0 150 150" fill="none" xmlns="http://www.w3.org/2000/svg">
<path fill-rule="evenodd" clip-rule="evenodd" d="M149.717 74.7579C149.717 81.8552 148.771 88.9525 146.878 95.419C143.093 108.667 135.68 120.338 125.902 129.486C118.962 135.952 110.603 141.157 101.456 144.627C93.2544 147.781 84.2645 149.516 74.9592 149.516C73.6974 149.516 72.278 149.516 71.0162 149.358C69.1236 149.201 67.0733 149.043 65.1806 148.885C50.8283 146.993 37.5801 140.999 27.013 132.009C23.07 128.697 19.4425 124.912 16.1305 120.812C13.7647 117.657 11.5567 114.503 9.66404 111.033C9.19089 110.244 8.71774 109.298 8.24459 108.51C8.24459 108.51 8.24459 108.51 8.24459 108.352C7.77144 107.406 7.29825 106.617 6.98282 105.671C5.72108 102.832 4.61704 99.8351 3.67074 96.8384C3.03987 94.6304 2.40903 92.4223 1.93588 90.2143C1.62045 88.6371 1.30501 87.0599 1.14729 85.325C0.674139 81.8552 0.358704 78.3854 0.358704 74.7579C0.358704 72.7076 0.358675 70.6573 0.67411 68.607C0.831828 67.3452 0.989574 66.0835 1.14729 64.8217C2.0936 57.409 4.14391 50.4694 7.14055 44.003C8.56001 40.8486 10.2949 37.6943 12.1875 34.8554C15.3419 29.9661 18.9694 25.3923 23.2278 21.2916C36.6338 8.20108 55.0867 0.157471 75.2746 0.157471C76.0632 0.157471 76.8518 0.157471 77.6404 0.157471C78.429 0.157471 79.3752 0.157468 80.1638 0.315186C84.4222 0.630621 88.6806 1.26149 92.7812 2.2078C95.147 2.83867 97.5128 3.46954 99.7209 4.25813C101.298 4.73128 102.717 5.36215 104.295 5.99302C105.399 6.46617 106.503 6.93933 107.607 7.41248C107.764 7.5702 107.922 7.5702 108.238 7.72792C115.493 11.1977 122.117 15.9292 127.795 21.6071C128.583 22.3957 129.372 23.1842 130.16 24.1306C130.634 24.7614 131.264 25.2346 131.738 25.8654C132.684 26.8118 133.472 27.9158 134.261 28.8621C137.258 32.6473 139.781 36.748 141.989 41.0064C144.513 46.0533 146.563 51.4157 147.982 56.9358C148.929 62.456 149.717 68.4492 149.717 74.7579Z" fill="url(#paint0_radial_4_1463)"/>
<path opacity="0.3" fill-rule="evenodd" clip-rule="evenodd" d="M107.764 7.57043C107.449 7.57043 107.291 7.57044 106.976 7.72816C106.187 7.88587 105.399 7.72815 104.61 7.57043C103.979 7.41272 103.664 7.09728 102.875 7.09728C101.929 6.93956 101.14 6.62413 100.194 6.46642C99.2477 6.3087 98.4591 5.99326 97.5128 5.67783C96.7242 5.36239 96.4088 5.52011 95.7779 5.67783C95.147 5.83554 94.6739 5.52011 94.043 5.36239C93.4121 5.04695 92.6235 5.04696 91.9927 4.88924C90.1 4.5738 88.2075 3.94293 86.3149 3.46978C85.2108 3.15434 84.1068 3.15434 82.845 3.15434C81.8987 3.15434 81.1101 3.46978 80.1638 3.46978C79.533 3.46978 79.0598 3.31206 78.429 3.31206C77.7981 3.15434 77.1672 3.31206 76.5363 3.31206C75.59 3.15434 75.1169 2.99663 74.1706 3.31206C73.382 3.46978 72.9089 3.46977 72.1203 3.62749C71.3317 3.62749 70.3854 3.94293 69.5968 4.10065C68.1773 4.41609 66.6001 4.73152 65.1806 4.73152C64.2343 4.73152 62.9726 4.41608 62.184 4.73152C61.7109 4.88923 61.3955 5.52011 60.9223 5.83554C60.1337 6.62413 59.3451 7.255 58.7143 8.04359C58.0834 8.83218 57.4525 9.77849 57.4525 10.8825C57.4525 11.8288 57.9257 12.9328 58.3988 13.7214C58.872 14.6677 59.0297 15.4563 58.0834 16.0872C56.9793 16.8758 55.5599 17.5067 54.2981 17.9798C53.3518 18.2952 52.5632 18.453 51.9324 17.8221C51.6169 17.6644 51.4592 17.1912 51.1438 16.8758C50.8283 16.7181 50.3552 16.8758 50.0398 17.0335C49.0935 17.3489 48.1471 17.6644 47.2008 17.8221C46.57 17.9798 46.0968 18.2952 45.4659 18.2952C44.8351 18.453 44.3619 17.9798 43.5733 18.1375C42.627 18.2952 41.523 18.7684 40.5767 18.7684C39.7881 18.7684 38.8418 18.453 38.211 18.1375C37.8955 17.9798 37.7378 17.6644 37.2646 17.8221C36.9492 17.8221 36.476 18.2952 36.3183 18.6107C36.0029 18.9261 36.0029 19.3993 35.6875 19.7147C35.372 20.1879 35.2143 20.5033 34.8989 20.9764C34.4257 21.765 33.9526 22.5536 33.4794 23.3422C33.164 23.8154 32.8485 24.6039 32.3754 25.0771C32.2177 25.3925 31.7445 25.5503 31.4291 25.708C30.6405 26.1811 29.8519 26.812 29.0633 27.2851C27.6438 28.3892 26.2244 29.6509 24.8049 30.7549C23.7009 31.5435 22.1237 32.0167 20.862 32.6476C20.0734 32.963 19.2848 33.2784 18.4962 33.5939C18.1808 33.7516 17.7076 33.7516 17.5499 34.067C17.2345 34.3825 17.0768 34.6979 16.9191 35.171C16.2882 35.9596 15.4996 36.9059 15.0264 37.8522C14.711 38.4831 14.5533 38.9563 14.2378 39.5871C13.9224 40.3757 13.4492 41.1643 13.2915 42.1106C12.6607 43.8455 12.6607 45.7381 11.8721 47.473C11.5566 48.4193 10.9258 49.3656 10.4526 50.3119C9.66404 51.8891 9.5063 53.7817 9.34858 55.5166C9.19087 56.4629 9.34859 57.7247 9.50631 58.671C9.66403 59.775 9.66404 60.879 9.66404 61.983C9.66404 63.0871 8.87546 64.3488 8.24459 65.1374C7.61372 65.926 6.50969 66.2414 5.7211 67.03C5.09023 67.6609 4.30163 68.2917 3.98619 69.2381C3.82847 69.5535 3.98619 70.0266 3.98619 70.4998C3.82847 71.4461 3.51306 72.2347 3.51306 73.181C3.35534 74.285 3.35533 75.3891 3.35533 76.6508C3.35533 77.2817 3.35533 77.7548 3.35533 78.3857C3.35533 79.0166 3.51302 79.4897 3.67074 79.9629C3.67074 80.2783 3.67074 80.7514 3.67074 81.0669C3.67074 81.54 3.98619 82.0132 3.98619 82.3286C4.30163 83.4327 4.45934 84.379 4.61705 85.483C4.77477 86.4293 5.24792 87.3756 5.40564 88.3219C5.87879 89.5836 6.03652 90.8454 6.35196 92.2648C6.50968 93.2112 6.50969 94.3152 6.66741 95.2615C6.82513 96.0501 6.98282 96.8387 6.98282 97.6272C6.98282 98.889 6.66741 99.993 6.66741 101.255C6.66741 103.305 7.45598 105.355 7.92913 107.406C8.08685 108.037 8.24455 108.51 8.40227 109.141C3.19758 99.0467 0.358704 87.5333 0.358704 75.389C0.358704 60.5636 4.61707 46.8421 12.0298 35.3287C15.1842 30.4395 18.8117 25.8657 23.07 21.9227C36.4761 8.83217 54.929 0.788574 75.1169 0.788574C76.6941 0.788574 78.429 0.788578 80.0061 0.946296C89.7846 0.788578 99.2477 3.31206 107.764 7.57043Z" fill="url(#paint1_linear_4_1463)"/>
<path opacity="0.1" fill-rule="evenodd" clip-rule="evenodd" d="M79.6912 109.772C79.6912 109.772 86.6307 120.023 95.9361 128.382C105.241 136.741 106.503 142.419 106.503 142.419C106.503 142.419 124.01 135.164 136.47 117.815C148.929 100.624 79.6912 109.772 79.6912 109.772Z" fill="black" fill-opacity="0.5"/>
<path opacity="0.4" fill-rule="evenodd" clip-rule="evenodd" d="M92.3084 2.05033C88.2078 1.10402 84.1071 0.473157 79.691 0.157721C78.9024 0.157721 77.9561 0 77.1675 0C78.9024 0.946306 80.6373 2.6812 80.9527 4.57382C81.5836 7.72817 82.6877 10.5671 83.1608 13.5637C83.7917 16.5604 83.634 20.3456 82.2145 23.0268C81.4259 24.7617 80.3219 26.1811 78.9024 27.6006C77.9561 28.5469 77.0098 29.1778 76.3789 30.4395C75.7481 31.7013 74.9595 32.8053 74.1709 33.9093C73.0669 35.6442 71.8051 37.3791 70.3857 38.9563C69.9125 39.5871 69.4394 39.9026 68.9662 40.5335C68.4931 41.322 68.1776 42.1106 67.5467 42.7415C66.1273 44.161 64.077 45.1073 62.3421 45.7381C59.9763 46.6844 57.926 47.6308 55.7179 48.8925C52.5636 50.6274 49.8824 52.6777 46.2548 52.8354C44.9931 52.8354 43.7314 52.6777 42.4696 52.8354C40.8925 52.9932 39.473 53.624 38.0536 53.9395C36.7918 54.2549 35.3724 54.4126 34.1106 54.728C31.9026 55.0435 30.1676 55.8321 28.1173 56.3052C25.4361 56.9361 22.5972 56.7784 19.7583 57.2515C17.2348 57.567 15.1845 57.8824 12.661 57.2515C8.87577 56.3052 6.82542 54.5703 7.61401 50.4697C8.08716 47.7885 7.92948 45.7381 6.66774 43.8455C3.6711 50.3119 1.62074 57.4093 0.674438 64.6643C2.40933 65.4529 4.45966 65.7683 6.19456 65.926C11.7147 66.5569 17.708 64.0334 22.7549 62.1408C25.2784 61.1945 27.9596 59.775 30.7985 59.4596C33.7952 59.1441 36.3186 59.4596 39.3153 58.8287C49.4092 56.3052 59.3454 52.8354 68.493 47.473C72.2783 45.265 73.8555 42.1106 76.5367 38.9563C78.7447 36.1174 81.4259 33.9093 84.1071 31.5435C86.7883 29.1778 89.1541 26.9697 90.7313 23.8154C92.4662 20.5033 93.8856 16.7181 94.6742 13.0906C95.4628 8.98991 94.3588 5.20468 92.3084 2.05033ZM91.8353 12.1443C91.6776 12.9329 91.5198 13.8792 91.3621 14.6677C90.7312 16.7181 89.4695 18.7684 87.5769 19.7147C86.7883 20.1879 85.5266 19.8724 85.0534 19.0838C84.738 18.6107 84.738 17.9798 84.738 17.5067C84.5803 16.4026 84.4225 15.4563 84.4225 14.3523C84.4225 11.8288 84.4225 9.30534 84.1071 6.78186C84.4225 8.20132 84.1071 4.57381 86.3152 3.62751C87.4192 3.15435 88.9964 3.62751 89.7849 4.41609C90.7312 5.52012 91.0467 7.25502 91.3621 8.51676C91.6776 9.93622 91.993 10.8825 91.8353 12.1443Z" fill="url(#paint2_linear_4_1463)" fill-opacity="0.5"/>
<path opacity="0.4" fill-rule="evenodd" clip-rule="evenodd" d="M80.9524 131.536C80.7947 131.536 80.4793 131.694 80.3215 131.694L81.741 131.852C81.741 131.694 81.4256 131.536 80.9524 131.536ZM80.9524 131.536C80.7947 131.536 80.4793 131.694 80.3215 131.694L81.741 131.852C81.741 131.694 81.4256 131.536 80.9524 131.536ZM147.509 56.6205C147.509 58.5131 146.878 60.5634 146.878 62.456C146.878 65.1372 146.405 67.1876 145.774 69.7111C145.301 71.446 144.355 72.7077 143.882 74.4426C143.251 76.3352 142.305 78.0701 141.358 79.805C139.466 83.2748 137.415 86.9023 136.627 90.8452C135.838 94.4727 135.68 97.4694 133.946 100.781C132.211 103.936 129.687 106.617 127.795 109.771C127.006 111.191 126.375 111.191 124.956 112.137C123.536 113.241 122.117 114.818 120.697 115.922C117.701 118.288 114.862 120.023 111.076 121.442C108.711 122.389 106.503 123.02 103.979 123.335C102.402 123.651 100.825 123.335 99.2477 123.651C96.7242 124.124 94.3584 124.755 91.835 125.543C87.892 126.805 83.7914 127.593 79.8484 128.855C77.0095 129.644 74.3283 130.275 71.4893 130.748C69.7544 131.063 68.335 132.01 66.6001 131.694C64.8652 131.379 63.1303 130.748 61.3954 130.117C59.1874 129.486 57.2947 129.328 54.929 129.328C51.7746 129.328 47.9894 129.802 44.6773 129.171C41.0498 128.54 37.5801 127.436 33.9525 126.805C31.7445 126.332 30.1673 125.385 28.117 124.597C26.2244 123.651 24.3318 123.493 22.2814 122.862C20.2311 122.231 18.1808 121.285 16.1305 120.812C19.2848 124.912 22.9123 128.697 27.013 132.01C37.5801 140.999 50.6706 146.993 65.1806 148.885C67.0732 149.043 68.9659 149.359 71.0162 149.359C75.2746 148.412 79.3752 147.15 83.6336 145.889C90.7309 143.681 96.8819 139.422 103.979 137.372C106.66 136.583 109.026 135.795 111.392 134.533C113.285 133.587 115.177 133.429 116.912 132.64C123.536 129.801 128.425 123.493 131.422 117.184C132.684 114.345 133.946 111.191 136.469 108.983C137.415 108.036 138.677 107.406 139.466 106.302C140.412 105.198 141.043 103.936 141.989 102.674C143.566 100.624 144.986 98.4157 146.405 96.3654C146.563 96.0499 146.721 95.8922 146.878 95.5768C148.771 88.9526 149.717 82.013 149.717 74.9157C149.717 68.4493 148.929 62.456 147.509 56.6205ZM78.9021 132.01C79.2175 131.852 79.533 131.536 79.8484 131.379C80.1638 131.221 80.637 131.379 80.9524 131.536C81.5833 131.379 82.0564 131.379 82.5296 131.694C82.845 131.852 83.3182 132.167 83.4759 132.483C83.6336 132.798 83.4759 132.956 83.1605 133.271C82.8451 133.587 82.6873 133.587 82.2142 133.587C81.4256 133.744 80.637 133.902 79.6907 133.744C79.2175 133.744 78.4289 133.587 78.1135 133.271C78.1135 132.64 78.5867 132.325 78.9021 132.01ZM83.7914 141.788C83.3182 142.419 82.845 143.05 82.2142 143.365C81.5833 143.838 80.9524 143.996 80.4793 144.469C78.9021 145.258 77.3249 146.204 75.7477 146.677C75.1169 146.835 74.3283 146.835 73.6974 146.835C72.9088 146.993 71.9625 146.993 71.1739 146.993C70.2276 146.993 69.1236 147.15 68.1773 147.308C67.231 147.308 66.1269 147.466 65.1806 147.466C63.4457 147.624 62.0263 147.308 60.4491 146.677C59.0296 146.204 57.6102 145.416 56.3485 144.627C55.4022 143.996 54.6136 143.208 53.9827 142.419C53.1941 141.788 52.721 140.999 52.2478 140.053C52.0901 139.738 51.9324 139.422 52.0901 138.949C52.0901 138.791 52.2478 138.634 52.2478 138.634C52.5632 138.476 52.8787 138.161 53.0364 138.161C53.5095 137.845 54.1404 137.845 54.7713 137.687C56.1908 137.53 57.6102 137.687 59.0296 137.845C59.8182 137.845 60.6068 138.003 61.3954 137.845C62.4994 137.687 63.6035 137.372 64.5498 137.057C67.0733 136.426 69.5968 135.795 72.1202 135.637C74.6437 135.322 77.4827 135.006 80.0061 135.479C80.9524 135.637 82.2142 135.953 83.0028 136.426C83.6336 136.899 84.1068 137.53 84.4222 138.161C84.8954 139.422 84.5799 140.684 83.7914 141.788ZM103.664 135.322C103.191 135.795 102.56 136.11 101.929 136.583C101.14 137.214 100.352 137.53 99.5631 138.003C98.9323 138.476 98.1436 138.791 97.5128 139.107C96.7242 139.422 96.0933 139.738 95.3047 140.211C94.5161 140.526 93.7275 140.842 92.939 141.157C92.3081 141.315 91.6772 141.63 91.0464 141.473C90.5732 141.315 89.9423 141.157 89.6269 140.842C88.996 140.211 89.1537 139.58 89.3115 139.265C89.3115 138.791 89.1537 138.003 89.3115 137.372C89.4692 137.057 89.7846 136.583 89.9423 136.268C90.5732 135.006 91.5195 134.218 92.4658 133.271C93.2544 132.483 94.2007 131.852 95.3047 131.379C96.5665 130.906 98.1436 130.748 99.4054 130.59C100.825 130.432 103.348 130.275 104.137 132.01C104.61 133.114 104.452 134.218 103.664 135.322ZM81.8987 131.694C81.741 131.694 81.4256 131.536 81.1101 131.379C80.9524 131.379 80.637 131.536 80.4793 131.536L81.8987 131.694Z" fill="url(#paint3_linear_4_1463)" fill-opacity="0.5"/>
<path opacity="0.4" fill-rule="evenodd" clip-rule="evenodd" d="M141.517 40.6909V41.0063C141.359 43.0567 140.57 44.4761 139.782 46.3687C139.151 47.9459 138.52 49.2077 137.731 50.6271C136.47 52.9929 135.839 55.2009 134.893 57.8821C133.315 61.8251 132.684 66.0835 130.319 69.711C128.268 73.023 127.637 76.966 126.06 80.4358C124.168 84.3787 121.171 87.0599 118.017 89.8988C116.597 91.1606 115.336 92.7378 114.074 94.1572C112.654 95.5767 111.708 97.4693 109.973 98.731C106.503 101.255 102.56 103.463 99.0906 106.144C97.0403 107.721 95.6208 109.929 93.2551 111.191C91.047 112.61 88.5235 113.556 86.3155 114.818C84.2652 116.08 82.2148 117.342 80.0068 118.288C77.4833 119.234 75.433 118.919 72.7518 119.077C69.9128 119.234 66.9162 120.023 64.235 120.969C62.027 121.758 60.1343 122.546 57.7686 121.758C56.1914 121.285 54.9296 120.181 53.3524 119.865C49.5672 119.077 45.4666 119.865 41.6813 119.707C38.6847 119.55 35.5304 118.919 32.5337 118.288C29.6948 117.815 27.3291 115.765 24.6479 114.976C21.1781 114.03 17.2351 114.818 14.0807 113.556C12.6613 113.083 11.3996 111.979 10.2955 111.191C9.9801 111.033 9.82238 110.875 9.50694 110.718C9.03379 109.929 8.56065 108.983 8.08749 108.194C8.87608 108.51 9.66467 108.825 10.4533 109.298C14.7116 111.348 20.074 111.033 24.6479 111.822C29.8525 112.768 35.0572 114.03 40.2619 114.661C42.4699 114.976 44.5203 114.818 46.7283 114.661C49.725 114.345 52.7216 114.345 55.7182 113.872C60.7652 112.926 65.8122 110.56 71.0168 111.191C71.9632 111.348 73.0672 111.822 74.0135 111.822C75.4329 111.822 76.537 110.56 77.641 109.771C79.6913 108.51 81.8994 108.667 83.792 106.932C85.5269 105.197 87.5772 104.093 89.7852 102.989C95.4631 100.15 100.037 95.419 104.611 90.8451C108.396 87.0599 112.023 83.117 114.547 78.5432C117.07 73.9693 116.597 68.4492 118.49 63.7177C119.909 60.2479 121.013 57.0935 123.221 54.0969C124.325 52.6775 125.587 51.4157 126.691 49.9963C127.953 48.5768 128.584 46.9996 129.53 45.2647C130.476 43.3721 131.896 41.7949 132.684 39.7446C133.473 37.852 133.315 36.2748 133.315 34.2245C133.315 32.1742 133.315 29.9661 133.315 27.7581C136.627 32.3319 139.309 36.4325 141.517 40.6909Z" fill="url(#paint4_linear_4_1463)" fill-opacity="0.5"/>
<path opacity="0.4" fill-rule="evenodd" clip-rule="evenodd" d="M129.687 23.8154C128.899 23.0268 128.11 22.0805 127.321 21.2919C121.644 15.6141 115.019 11.0403 107.764 7.41275C107.607 7.25504 107.449 7.25503 107.134 7.09732C106.03 6.62416 104.925 6.15101 103.821 5.67786C102.244 5.04699 100.825 4.41612 99.2477 3.94296C99.7208 4.2584 100.352 4.57384 100.509 4.57384C101.456 5.04699 102.244 5.36242 102.875 6.15101C103.506 6.9396 103.821 7.57047 103.821 8.67449C103.821 9.6208 103.979 10.7248 104.137 11.6711C104.295 12.6174 104.768 13.406 104.926 14.3523C105.083 14.8255 105.083 15.2986 105.241 15.9295C105.556 17.1913 106.03 18.453 106.345 19.7147C106.818 22.0805 105.556 23.9731 104.768 26.0234C103.506 29.3355 102.717 32.6476 101.613 36.1174C100.825 38.7986 99.4054 41.4798 97.3551 43.5301C95.3048 45.4227 92.3081 45.8959 90.5732 47.9462C88.996 49.8388 87.1034 51.5737 84.8953 52.52C82.3719 53.7818 79.533 54.7281 76.8518 55.5167C74.9592 56.1475 72.9088 56.1475 70.8585 56.6207C68.335 57.2515 66.127 58.5133 63.9189 59.4596C61.3954 60.5636 59.1874 61.8254 56.6639 62.9294C54.1404 64.0334 51.9324 65.4529 49.4089 66.3992C48.1471 66.8723 46.8854 67.1878 45.7814 67.5032C43.2579 68.4495 40.8922 70.0267 38.2109 70.3421C37.2646 70.4998 36.3183 70.6575 35.372 70.6575C34.5834 70.6575 33.9526 70.8153 33.3217 70.973C30.9559 71.9193 29.5365 74.4428 26.8553 74.6005C24.3318 74.6005 21.966 74.4428 19.6002 74.7582C18.3385 74.9159 17.2345 74.7582 16.1305 74.9159C15.815 74.9159 15.3419 75.0737 15.0264 74.9159C14.711 74.7582 14.2379 74.4428 13.7647 74.1273C12.8184 73.6542 12.0298 73.0233 11.2412 72.3924C9.66404 71.1307 7.61372 71.9193 5.87882 71.4461C5.40567 71.2884 4.61707 71.4461 4.14392 71.1307C3.03989 70.4998 1.62042 69.0804 0.67411 68.2918C0.516392 70.3421 0.358704 72.3924 0.358704 74.4428C0.358704 78.0703 0.674139 81.5401 1.14729 85.0099C1.30501 86.587 1.62045 88.1642 1.93588 89.8991C2.40903 92.1072 3.03987 94.4729 3.67074 96.5233C4.61704 99.5199 5.72108 102.517 6.98282 105.355C9.03315 105.671 11.0835 105.986 13.1338 105.671C16.1304 105.198 18.9694 104.725 21.966 104.882C24.8049 105.04 27.3284 105.986 30.0096 106.459C33.0062 106.933 36.1606 107.406 39.3149 107.563C42.1539 107.721 44.9928 108.037 47.674 108.352C49.7243 108.668 51.9324 108.983 53.9827 109.141C59.5028 109.456 64.8652 108.037 70.2276 107.563C72.9088 107.248 75.59 106.617 78.2712 105.986C79.8484 105.671 81.4256 105.198 82.845 104.251C84.7376 102.99 85.9994 101.255 87.5766 99.8353C89.4692 98.2581 91.3618 96.681 93.2544 95.2615C94.8316 93.9998 96.4088 92.5803 98.1437 91.4763C99.4054 90.6877 100.825 89.7414 102.087 88.7951C104.452 86.9025 106.503 84.6944 108.553 82.3287C111.392 79.0166 112.496 74.4428 113.6 70.3421C114.704 66.5569 115.335 62.9294 117.385 59.4596C118.332 57.8824 119.12 55.9898 119.593 54.0972C119.909 52.9932 120.066 51.5737 120.54 50.4697C121.328 48.7348 123.063 47.3153 124.009 45.7382C124.798 44.4764 125.744 43.2147 126.217 41.6375C127.321 38.7986 128.11 35.9597 128.583 32.8053C128.899 30.5973 129.687 28.3892 130.318 26.1812C130.476 25.8657 130.476 25.3926 130.633 25.0771C130.633 24.9194 130.16 24.2885 129.687 23.8154ZM32.3754 74.9159C32.5331 74.6005 35.372 73.4965 35.6875 73.3388C35.6875 73.3388 35.6874 73.3388 35.5297 73.3388L33.6371 74.1273C35.6874 73.4965 39.3149 75.5468 37.58 77.7548C37.1069 78.3857 35.6875 78.7012 34.8989 78.8589C34.1103 79.0166 33.6371 78.7012 33.164 78.0703C32.6908 77.4394 32.3754 76.4931 32.3754 75.7045C32.3754 75.5468 32.3754 75.0737 32.3754 74.9159ZM10.1372 94.9461C7.92912 94.3152 6.50965 93.5266 5.24791 91.634C4.30161 90.3723 3.67077 89.2682 3.35533 87.8488C3.19761 86.587 2.72444 85.6407 3.03988 84.379C3.19759 83.4327 3.67077 82.3287 4.14392 81.5401C4.61707 80.5938 5.40564 79.4897 5.40564 79.1743C7.61369 79.0166 9.66402 78.8589 11.7143 78.8589C14.0801 78.8589 16.6036 79.1743 18.9694 79.1743C20.0734 79.1743 21.1774 79.1743 22.2815 79.0166C23.3855 78.8589 24.3318 78.5434 25.4358 78.3857C27.3284 78.0703 29.0633 77.9126 30.7982 78.7011C32.0599 79.332 32.6908 80.9092 33.3217 82.1709C33.6371 82.9595 33.9526 83.4327 33.9526 84.379C33.9526 85.483 33.9525 86.4293 33.7948 87.3756C33.7948 87.6911 33.6371 88.1642 33.6371 88.4797C32.0599 91.7917 27.9593 92.8958 24.8049 94.1575C20.0734 96.0501 14.8687 96.2078 10.1372 94.9461ZM43.7311 102.201C42.7848 104.725 38.6841 105.513 36.3183 105.671C35.2143 105.671 33.7949 105.513 32.6908 104.882C32.06 104.567 31.5868 103.936 31.1137 103.305C30.7982 102.832 30.325 102.043 29.0633 102.359C29.3787 100.939 29.6942 99.6776 30.3251 98.4159C30.7982 97.785 31.4291 97.3118 32.0599 96.681C33.1639 95.7347 34.4257 94.7884 35.6875 94.1575C37.7378 93.0535 39.9458 93.8421 41.8384 94.7884C43.2579 95.4192 44.2042 96.3655 44.5197 97.785C44.9928 99.5199 44.3619 100.624 43.7311 102.201ZM71.4893 101.728C70.7008 103.463 69.5968 103.936 68.0196 104.882C66.127 105.829 63.6035 106.617 61.5532 106.617C60.4491 106.617 59.3451 106.144 58.3988 105.671C57.7679 105.355 56.9793 105.198 56.5062 104.725C55.0867 103.305 54.7713 101.413 55.7176 101.728C55.0867 100.466 54.7713 99.2045 54.6136 97.9427C54.929 97.785 55.0867 97.4696 55.0867 97.1541C55.8753 95.7347 57.2948 94.4729 58.8719 93.6843C61.3954 92.2649 64.7075 91.9494 67.5464 93.2112C68.8081 93.6843 69.5968 94.3152 70.3854 95.2615C70.8585 95.7347 71.3316 96.0501 71.8048 96.681C72.278 97.9427 71.9625 100.308 71.4893 101.728ZM79.8484 101.413C79.3753 101.728 78.5867 102.359 78.1135 102.359C77.6404 102.201 76.8518 101.412 76.8518 100.782L76.5363 100.466C77.1672 99.3622 77.7981 98.4159 78.429 97.3118C79.3753 97.785 80.3215 97.6273 80.9524 98.7313C81.741 99.8353 80.637 100.782 79.8484 101.413ZM101.14 51.7314C100.352 52.8354 99.2477 53.9395 97.9859 54.4126C96.4088 55.0435 94.2007 55.6744 94.043 53.1509C94.043 51.7314 94.2007 50.6274 94.8316 49.3657C95.7779 47.473 96.5665 46.9999 98.4591 46.0536C99.09 46.0536 99.8786 46.369 100.352 46.5267C101.298 46.8422 102.244 47.7885 102.402 48.8925C102.56 49.9965 101.771 50.9428 101.14 51.7314ZM120.855 41.1643C120.066 43.6878 118.962 46.0536 117.858 48.2616C116.597 51.1006 116.439 54.0972 115.65 57.0938C115.335 58.8287 114.389 60.7213 112.811 61.3522C112.023 61.6676 111.392 61.5099 110.603 61.5099C109.815 61.5099 108.553 61.8254 108.553 62.4562C108.08 61.1945 107.449 59.6173 107.134 58.3556C106.818 56.9361 106.66 55.3589 106.503 53.7818C106.187 52.2046 106.187 50.6274 106.03 49.0502C105.872 47.6308 105.556 46.0536 105.556 44.6341C105.556 39.7449 108.395 33.5939 112.969 31.3858C114.389 30.755 115.808 30.4395 117.385 30.5973C119.12 30.9127 120.224 31.3858 121.013 33.1207C121.959 35.4865 121.486 38.6409 120.855 41.1643Z" fill="url(#paint5_linear_4_1463)" fill-opacity="0.5"/>
<path opacity="0.4" fill-rule="evenodd" clip-rule="evenodd" d="M99.09 45.7381C98.9322 45.8958 98.6168 45.8958 98.4591 46.0536C97.9859 46.0536 97.6705 45.8958 97.3551 46.0536L99.09 45.7381Z" fill="url(#paint6_linear_4_1463)" fill-opacity="0.5"/>
<path opacity="0.4" fill-rule="evenodd" clip-rule="evenodd" d="M5.24854 79.1743C5.09082 79.1743 4.93314 79.1743 4.93314 79.1743C5.24857 79.0166 5.24854 79.0166 5.24854 79.1743Z" fill="url(#paint7_linear_4_1463)" fill-opacity="0.5"/>
<path opacity="0.3" fill-rule="evenodd" clip-rule="evenodd" d="M32.3759 136.268C32.3759 136.268 39.1577 138.792 44.047 137.372C44.047 137.372 45.9396 121.443 39.9463 111.191C33.953 100.939 23.7014 116.396 23.7014 116.396L21.3356 126.174C21.3356 126.174 27.0135 132.956 32.3759 136.268Z" fill="black" fill-opacity="0.5"/>
<path fill-rule="evenodd" clip-rule="evenodd" d="M15.8155 139.738C15.9732 139.896 16.131 140.054 16.131 140.369C15.8155 140.369 15.8155 140.211 15.8155 139.896C15.8155 139.58 15.9733 139.738 16.131 139.423C16.131 139.423 16.1309 139.423 16.2887 139.423L15.8155 139.738Z" fill="#0EDBFF"/>
<defs>
<radialGradient id="paint0_radial_4_1463" cx="0" cy="0" r="1" gradientUnits="userSpaceOnUse" gradientTransform="translate(28.6649 39.7541) scale(120.026)">
<stop offset="0.00558659" stop-color="#B1B8BE"/>
<stop offset="0.0937306" stop-color="#C0C8CB"/>
<stop offset="0.211" stop-color="#C0CAC9"/>
<stop offset="0.3446" stop-color="#B7C0C7"/>
<stop offset="0.4903" stop-color="#BCC6C7"/>
<stop offset="0.6442" stop-color="#959EA3"/>
<stop offset="0.6844" stop-color="#4C535D"/>
<stop offset="0.7432" stop-color="#636A74"/>
<stop offset="0.8282" stop-color="#3C4451"/>
<stop offset="0.9287" stop-color="#2E353F"/>
<stop offset="1" stop-color="#283039"/>
</radialGradient>
<linearGradient id="paint1_linear_4_1463" x1="0.219597" y1="54.2041" x2="107.704" y2="54.2041" gradientUnits="userSpaceOnUse">
<stop offset="0.0111732" stop-color="#001218"/>
<stop offset="0.3224"/>
<stop offset="0.5506"/>
<stop offset="0.7523"/>
<stop offset="0.9375"/>
<stop offset="1"/>
</linearGradient>
<linearGradient id="paint2_linear_4_1463" x1="0.901394" y1="33.0546" x2="94.8709" y2="33.0546" gradientUnits="userSpaceOnUse">
<stop stop-color="#B8C2FF"/>
<stop offset="1" stop-color="#7D72B3"/>
</linearGradient>
<linearGradient id="paint3_linear_4_1463" x1="16.1524" y1="103" x2="149.66" y2="103" gradientUnits="userSpaceOnUse">
<stop stop-color="#B8C2FF"/>
<stop offset="1" stop-color="#7D72B3"/>
</linearGradient>
<linearGradient id="paint4_linear_4_1463" x1="8.26713" y1="75.385" x2="141.507" y2="75.385" gradientUnits="userSpaceOnUse">
<stop stop-color="#B8C2FF"/>
<stop offset="1" stop-color="#7D72B3"/>
</linearGradient>
<linearGradient id="paint5_linear_4_1463" x1="0.222909" y1="56.7655" x2="131.192" y2="56.7655" gradientUnits="userSpaceOnUse">
<stop stop-color="#B8C2FF"/>
<stop offset="1" stop-color="#7D72B3"/>
</linearGradient>
<linearGradient id="paint6_linear_4_1463" x1="97.251" y1="45.9698" x2="99.0488" y2="45.9698" gradientUnits="userSpaceOnUse">
<stop stop-color="#E8DDFF"/>
<stop offset="1" stop-color="#AA8AD8"/>
</linearGradient>
<linearGradient id="paint7_linear_4_1463" x1="4.90775" y1="79.191" x2="5.28103" y2="79.191" gradientUnits="userSpaceOnUse">
<stop stop-color="#E8DDFF"/>
<stop offset="1" stop-color="#AA8AD8"/>
</linearGradient>
</defs>
</svg>
