<svg width="156" height="151" viewBox="0 0 156 151" fill="none" xmlns="http://www.w3.org/2000/svg">
<path fill-rule="evenodd" clip-rule="evenodd" d="M153.363 74.4428C153.363 81.6978 152.417 88.6374 150.524 95.1038C146.739 108.352 139.484 120.023 129.547 129.171C122.608 135.637 114.249 140.842 105.101 144.312C96.8998 147.466 87.9099 149.201 78.6046 149.201C77.3428 149.201 75.9234 149.201 74.6616 149.043C72.769 148.886 70.7187 148.728 68.8261 148.57C54.4738 146.677 41.2255 140.684 30.6584 131.694C26.7155 128.382 23.088 124.597 19.7759 120.496C17.4101 117.5 15.2021 114.188 13.3095 110.718C12.8363 109.929 12.3632 108.983 11.89 108.194C11.4169 107.248 10.9437 106.459 10.6283 105.513C9.36656 102.674 8.26252 99.6776 7.31622 96.681C6.68535 94.4729 6.05447 92.2649 5.58131 90.0568C5.26588 88.4796 4.95044 86.9025 4.79272 85.1676C4.31957 81.6978 4.00414 78.228 4.00414 74.6005C4.00414 72.5501 4.00415 70.4998 4.31959 68.4495C4.47731 67.1877 4.47729 65.926 4.79272 64.6643C5.73903 57.2515 7.78934 50.312 10.786 43.8455C12.2054 40.6912 13.9404 37.5368 15.833 34.6979C18.9873 29.8086 22.6148 25.2348 26.8732 21.1342C40.2792 8.0436 58.7322 0 78.92 0C79.7086 0 80.4972 0 81.2858 0C82.0744 0 83.0207 3.60752e-06 83.8093 0.157721C88.0677 0.473157 92.326 1.10403 96.269 2.05033C98.6348 2.68121 101.001 3.31208 103.209 4.10066C104.786 4.57382 106.205 5.20469 107.782 5.83556C108.886 6.30871 109.99 6.78187 111.094 7.25502C111.252 7.41274 111.41 7.41274 111.725 7.57045C118.98 11.0402 125.605 15.7718 131.282 21.4496C132.071 22.2382 132.86 23.0268 133.648 23.8154C134.121 24.4462 134.752 24.9194 135.225 25.5503C136.172 26.4966 136.96 27.6006 137.749 28.5469C140.745 32.3321 143.269 36.4328 145.477 40.6912C148 45.7381 150.051 51.1005 151.47 56.6207C152.574 62.2985 153.363 68.2918 153.363 74.4428Z" fill="url(#paint0_radial_4_1513)"/>
<path opacity="0.4" fill-rule="evenodd" clip-rule="evenodd" d="M3.84703 74.4427C3.84703 74.4427 21.5114 105.671 38.5449 110.56C55.5784 115.449 74.9777 112.295 81.6019 114.818C88.226 117.342 91.8535 127.436 91.8535 127.436L94.377 128.855C94.377 128.855 100.055 120.023 103.525 125.228C103.525 125.228 102.105 117.815 106.364 108.825C110.622 99.8353 113.303 90.2145 118.508 87.0601C123.712 83.9058 133.176 82.4863 140.746 85.483C148.316 88.4796 152.102 87.8487 152.102 87.8487L152.733 84.3789L153.363 81.2246C153.363 81.2246 146.108 82.3286 140.431 78.7011C140.431 78.7011 141.219 80.1206 145.635 71.7615C150.051 63.4025 149.578 55.832 149.578 55.832L148.947 48.8925C148.947 48.8925 146.582 73.0233 136.33 79.9629C136.33 79.9629 113.619 75.2313 103.998 102.043C103.998 102.043 102.421 119.865 92.7998 119.392C83.3367 118.919 86.6488 107.248 72.7697 107.09C59.0482 106.933 50.6892 112.61 37.1255 104.882C23.5618 97.1541 3.84703 74.4427 3.84703 74.4427Z" fill="#7D72B3"/>
<path opacity="0.4" fill-rule="evenodd" clip-rule="evenodd" d="M74.6629 149.043C74.6629 149.043 84.126 135.006 94.3776 135.006C104.787 135.006 109.519 138.791 117.72 134.06C125.921 129.328 129.233 126.332 133.018 123.808C136.804 121.285 137.435 120.496 137.435 120.496L139.17 118.288C139.17 118.288 133.492 115.449 128.445 119.55C123.398 123.651 114.25 132.956 106.995 132.798C99.74 132.798 100.055 128.54 92.0119 131.852C83.8106 135.164 66.777 146.677 66.777 146.677C66.777 146.677 69.7737 148.885 74.6629 149.043Z" fill="#7D72B3"/>
<path opacity="0.4" fill-rule="evenodd" clip-rule="evenodd" d="M7.94708 98.8889L8.8934 101.412C8.8934 101.412 23.4034 109.456 32.7088 120.654C41.8564 131.852 43.5913 139.422 43.5913 139.422C43.5913 139.422 45.1685 132.798 37.2826 120.181C29.239 107.721 12.2055 100.782 7.94708 98.8889Z" fill="#7D72B3"/>
<path fill-rule="evenodd" clip-rule="evenodd" d="M111.41 7.25513C111.094 7.25513 110.937 7.25512 110.621 7.41284C109.833 7.57056 109.044 7.41284 108.256 7.25513C107.625 7.09741 107.309 6.78197 106.521 6.78197C105.574 6.62426 104.786 6.30882 103.839 6.1511C102.893 5.99338 102.105 5.67795 101.158 5.36251C100.37 5.04708 100.054 5.2048 99.4234 5.36251C98.7925 5.52023 98.3194 5.20479 97.6885 5.04708C97.0576 4.73164 96.269 4.73164 95.6381 4.57392C93.7455 4.25849 91.8529 3.62762 89.9603 3.15446C88.8563 2.83903 87.7522 2.83903 86.4905 2.83903C85.5442 2.83903 84.7556 3.15446 83.8093 3.15446C83.1784 3.15446 82.7053 2.99675 82.0744 2.99675C81.4435 2.83903 80.8126 2.99675 80.1818 2.99675C79.2355 2.83903 78.7623 2.68131 77.816 2.99675C77.0274 3.15447 76.5543 3.15447 75.7657 3.31218C74.9771 3.31218 74.0308 3.62762 73.2422 3.78534C71.8227 4.10077 70.2456 4.41621 68.8261 4.41621C67.8798 4.41621 66.6181 4.10077 65.8295 4.41621C65.3563 4.57393 65.0409 5.20479 64.5677 5.52023C63.7791 6.30882 62.9906 6.93969 62.3597 7.72828C61.7288 8.51687 61.098 9.46317 61.098 10.5672C61.098 11.5135 61.5711 12.6175 62.0442 13.4061C62.5174 14.3524 62.6751 15.141 61.7288 15.7719C60.6248 16.5605 59.2054 17.1913 57.9436 17.6645C56.9973 17.9799 56.2087 18.1376 55.5778 17.5068C55.2624 17.3491 55.1047 16.8759 54.7893 16.5605C54.4738 16.4028 54.0007 16.5605 53.6852 16.7182C52.7389 17.0336 51.7926 17.3491 50.8463 17.5068C50.2154 17.6645 49.7423 17.9799 49.1114 17.9799C48.4805 18.1376 48.0074 17.6645 47.2188 17.8222C46.2725 17.9799 45.1685 18.4531 44.2222 18.4531C43.4336 18.4531 42.4873 18.1376 41.8564 17.8222C41.541 17.6645 41.3832 17.3491 40.9101 17.5068C40.5946 17.5068 40.1215 17.9799 39.9638 18.2954C39.6483 18.6108 39.6483 19.084 39.3329 19.3994C39.0175 19.8725 38.8597 20.188 38.5443 20.6611C38.0712 21.4497 37.598 22.2383 37.1249 23.0269C36.8094 23.5 36.494 24.2886 36.0208 24.7618C35.8631 25.0772 35.39 25.2349 35.0745 25.3927C34.286 25.8658 33.4974 26.4967 32.7088 26.9698C31.2893 28.0739 29.8698 29.3356 28.4504 30.4396C27.3464 31.2282 25.7692 31.7014 24.5074 32.3322C23.7188 32.6477 22.9303 32.9631 22.1417 33.2785C21.8262 33.4363 21.3531 33.4363 21.1954 33.7517C20.8799 34.0671 20.7222 34.3826 20.5645 34.8557C19.9336 35.6443 19.145 36.5906 18.6719 37.5369C18.3564 38.1678 18.1987 38.6409 17.8833 39.2718C17.5678 40.0604 17.0947 40.849 16.937 41.7953C16.3061 43.5302 16.3061 45.4228 15.5175 47.1577C15.2021 48.104 14.5712 49.0503 14.0981 49.9966C13.3095 51.5738 13.1518 53.4664 12.9941 55.2013C12.8363 56.1476 12.994 57.4094 13.1517 58.3557C13.3095 59.4597 13.3095 60.5637 13.3095 61.6677C13.3095 62.7718 12.5209 64.0335 11.89 64.8221C11.2592 65.6107 10.1551 65.9261 9.36653 66.7147C8.73566 67.3456 7.94706 67.9764 7.63162 68.9228C7.47391 69.2382 7.63162 69.7113 7.63162 70.1845C7.47391 71.1308 7.15849 71.9194 7.15849 72.8657C7.00077 73.9697 7.00076 75.0737 7.00076 76.3355C7.00076 76.9664 7.00076 77.4395 7.00076 78.0704C7.00076 78.7012 7.1585 79.1744 7.31622 79.6476C7.31622 79.963 7.31622 80.4361 7.31622 80.7516C7.31622 81.2247 7.63162 81.6979 7.63162 82.0133C7.94706 83.1173 8.10482 84.0636 8.26253 85.1677C8.42025 86.114 8.8934 87.0603 9.05112 88.0066C9.52427 89.2683 9.68195 90.5301 9.99739 91.9495C10.1551 92.8958 10.1551 93.9999 10.3128 94.9462C10.4706 95.7348 10.6283 96.5234 10.6283 97.3119C10.6283 98.5737 10.3128 99.6777 10.3128 100.939C10.3128 102.99 11.1014 105.04 11.5746 107.09C11.7323 107.721 11.89 108.194 12.0477 108.825C6.84306 98.7314 4.00414 87.218 4.00414 75.0737C4.00414 60.2483 8.2625 46.5268 15.6752 35.0134C18.8296 30.1242 22.4571 25.5504 26.7155 21.6074C40.1215 8.51687 58.5745 0.473267 78.7623 0.473267C80.3395 0.473267 82.0744 0.473264 83.6516 0.630982C93.4301 0.473264 102.893 3.15447 111.41 7.25513Z" fill="url(#paint1_linear_4_1513)"/>
<path opacity="0.4" fill-rule="evenodd" clip-rule="evenodd" d="M22.1417 32.6478C22.1417 32.6478 39.0175 47.6309 61.098 48.1041C83.3362 48.5772 91.5375 47.0001 98.9502 38.7987C106.363 30.5974 114.249 16.7183 114.249 16.7183C114.249 16.7183 104.786 21.2921 98.1616 30.282C91.6952 39.1142 60.7825 54.2551 22.1417 32.6478Z" fill="#7D72B3"/>
<g opacity="0.25">
<path opacity="0.4" fill-rule="evenodd" clip-rule="evenodd" d="M23.5608 32.9631C21.3528 35.6443 19.4602 38.1678 18.0407 41.3221C16.779 44.0033 16.3058 47.1577 15.8327 50.1543C15.5172 51.8892 15.3595 53.6241 15.0441 55.5167C14.8864 57.0939 14.4132 58.6711 14.5709 60.2482C14.8864 62.4563 15.0441 64.822 16.1481 66.7147C17.2521 68.765 18.3561 70.6576 19.7756 72.5502C21.1951 74.2851 22.93 75.2314 25.2957 75.3891C26.5575 75.5468 27.8192 75.2314 29.0809 75.3891C30.8158 75.5468 32.5508 75.8623 34.2857 76.1777C37.7554 76.8086 41.6984 76.8086 44.2219 73.9697C46.2722 71.6039 47.2185 68.765 48.4802 65.9261C49.8997 62.9294 51.6346 60.5637 54.158 58.5133C56.0507 57.0939 57.7856 55.359 59.5205 53.7818C60.3091 53.1509 60.7822 52.3623 61.7285 51.7315C62.6748 51.2583 63.148 50.6274 63.9366 49.8389C64.7252 49.208 65.5137 48.7348 66.1446 47.9462C67.2486 46.6845 68.0372 45.1073 68.5104 43.6879C69.1412 42.1107 69.299 40.5335 69.6144 38.7986C69.7721 37.2214 69.299 35.6443 68.8258 34.0671C67.8795 31.2282 65.356 29.3356 63.148 27.6007C60.3091 25.3926 56.8392 24.4463 53.3695 23.6577C50.2151 23.0268 46.2722 22.8691 42.9601 23.5C39.4903 24.1309 36.0205 24.604 32.8662 26.0235C30.5004 27.1275 29.081 28.547 27.1884 30.2819C26.2421 31.0705 25.138 31.7013 24.1917 32.6476C23.0877 33.9094 21.9836 35.3288 23.5608 32.9631Z" fill="black"/>
<path opacity="0.4" fill-rule="evenodd" clip-rule="evenodd" d="M57.3124 19.084C57.7856 18.2954 58.2587 17.0336 58.8896 16.4028C59.205 15.9296 59.6782 15.6142 60.1514 15.2988C61.4131 14.1947 62.8325 13.4061 64.4097 12.933C65.356 12.6176 66.3024 12.6176 67.0909 12.933C68.0372 13.0907 69.6144 13.7216 70.2453 14.3524C71.507 15.6142 70.7184 17.6645 70.2453 19.084C69.9299 20.5034 69.4567 21.9229 68.195 22.7115C67.4064 23.3424 66.3023 23.8155 65.356 23.9732C64.8829 24.131 64.252 24.1309 63.6211 24.1309C63.148 24.1309 62.6748 24.2887 62.3594 24.2887C61.2554 24.2887 59.6782 23.5001 59.3628 22.5538C59.2051 22.0806 59.0474 21.4497 58.7319 20.9766C58.5742 20.5034 58.4165 20.188 58.2587 19.7148C57.9433 18.9263 57.7856 18.1377 57.3124 19.084Z" fill="black"/>
<path opacity="0.4" fill-rule="evenodd" clip-rule="evenodd" d="M69.7721 26.9698C69.4567 27.7584 69.299 28.7048 69.299 29.4933C69.6144 29.6511 69.7721 30.1242 70.2453 30.4396C70.5607 30.5974 71.0339 30.5974 71.507 30.5974C72.2956 30.5974 72.9265 30.5974 73.0842 29.6511C73.2419 28.8625 72.4533 28.2316 71.8225 27.7584C71.3493 27.443 70.5607 26.6544 70.0876 27.2853L69.7721 26.9698Z" fill="black"/>
<path opacity="0.4" fill-rule="evenodd" clip-rule="evenodd" d="M80.0238 39.1141C79.0775 39.745 77.9734 40.3759 77.0271 41.1645C75.9231 42.1108 74.9768 43.2148 74.0305 44.4766C72.9264 45.896 71.507 47.4732 71.8224 49.5235C72.1379 51.4161 72.7687 53.151 74.1882 54.4128C75.9231 55.9899 78.6043 55.9899 80.6546 56.9362C82.3895 57.7248 83.4935 59.4597 84.2821 61.1946C85.5439 63.7181 88.3828 64.1913 90.9063 64.6644C92.4835 64.9799 94.2184 65.1376 95.7955 65.453C98.0036 65.7684 100.212 66.0839 102.42 66.3993C106.52 66.7147 110.621 67.6611 114.722 67.3456C119.138 67.0302 123.081 65.453 126.55 62.9295C129.547 60.8792 132.386 57.094 133.175 53.4665C133.963 49.6812 132.701 45.4228 130.967 41.9531C128.601 37.537 125.762 33.594 122.608 29.6511C120.873 27.443 118.98 25.5504 117.087 23.5001C115.51 21.6075 113.933 20.0303 112.198 18.4531C108.097 14.9833 103.051 12.1444 97.6882 11.829C95.6378 11.6713 93.5875 11.9867 91.5371 12.7753C89.8023 13.4062 88.5405 14.3525 87.2788 15.7719C84.1244 19.084 82.3895 23.3424 80.97 27.6007C80.3392 29.6511 79.7083 31.8591 80.0238 33.9095C80.0238 34.5403 80.4969 35.0135 80.4969 35.6444C80.4969 36.2752 80.4969 36.7484 80.4969 37.3793C80.4969 37.6947 80.4969 38.0101 80.3392 38.3256C80.1815 38.641 79.7083 39.1141 80.0238 39.1141Z" fill="black"/>
<path opacity="0.4" fill-rule="evenodd" clip-rule="evenodd" d="M62.9902 53.9395C60.9399 55.2013 58.7319 56.1476 57.1547 58.0402C56.8393 58.3556 56.5238 58.8288 56.6815 59.3019C56.8393 59.7751 57.4702 60.0905 57.9433 60.2483C59.5205 60.8791 61.4131 61.1945 63.148 60.8791C64.7251 60.5637 66.6178 59.6174 67.4064 58.1979C68.5104 56.463 67.2486 53.6241 65.0406 53.7818C64.7252 53.7818 64.4097 53.9395 64.0943 53.9395C63.7789 53.9395 63.6211 53.9395 63.3057 53.9395C62.9903 53.9395 62.9903 53.9395 62.6748 54.0973C62.3594 54.4127 62.0439 54.7281 62.9902 53.9395Z" fill="black"/>
<path opacity="0.4" fill-rule="evenodd" clip-rule="evenodd" d="M19.7756 82.8019C18.987 83.5905 18.0407 84.2213 17.5676 85.1677C17.0944 86.114 16.779 87.0603 16.6213 88.1643C16.4636 89.1106 16.1481 90.0569 16.4635 91.0032C16.6213 91.7918 17.0944 92.5804 17.4099 93.5267C17.7253 94.6307 18.1985 95.577 18.3562 96.681C18.6716 98.1005 19.1448 99.2045 19.7756 100.466C20.4065 101.728 21.0374 102.832 21.8259 103.936C22.6145 105.198 23.4031 105.986 24.3494 107.09C27.8192 110.56 31.9199 114.345 36.9669 114.976C39.4903 115.292 42.1715 114.661 44.0641 112.768C46.1145 110.718 47.3762 107.879 47.8494 105.04C48.1648 102.674 48.0071 100.151 46.7454 98.1005C45.6413 96.3656 44.5373 94.6307 43.2756 93.2113C42.3293 92.2649 41.383 91.4764 40.2789 90.5301C39.3326 89.5837 38.3863 88.6374 37.2823 88.0066C35.3897 86.5871 33.6548 85.1677 31.7622 83.9059C30.0273 82.6442 28.1347 81.3824 26.0843 80.9093C24.6649 80.5938 23.0877 80.2784 21.6683 80.9093C21.0374 81.2247 20.5642 81.3824 20.2488 81.8556C20.091 82.171 19.7756 82.6442 19.7756 82.9596C19.4602 82.6442 19.3025 82.6442 19.7756 82.8019Z" fill="black"/>
<path opacity="0.4" fill-rule="evenodd" clip-rule="evenodd" d="M33.0239 79.4898C33.0239 80.1207 33.1816 80.7516 33.1816 81.2247C33.1816 81.3825 33.3394 81.5402 33.3394 81.8556C33.4971 82.0133 33.9702 82.0133 34.1279 82.0133C34.7588 82.0133 35.3897 81.6979 35.8629 81.3825C36.6514 80.7516 36.9668 79.4898 36.1783 78.859C35.7051 78.3858 34.9165 78.0704 34.1279 78.2281C33.8125 78.3858 32.0776 79.1744 32.7085 79.8053L33.0239 79.4898Z" fill="black"/>
<path opacity="0.4" fill-rule="evenodd" clip-rule="evenodd" d="M133.017 63.0872C133.332 61.8255 133.332 60.8792 134.121 59.9329C134.91 59.1443 135.698 58.198 136.329 57.4094C137.591 55.8322 138.379 53.7819 138.852 51.8893C139.326 50.1544 138.852 48.4195 139.641 46.6846C139.799 46.2114 140.114 45.5806 140.43 45.2651C140.745 45.1074 141.691 45.2651 142.007 45.4228C142.322 45.5806 142.795 46.0537 143.111 46.3691C143.584 46.8423 144.057 47.3155 144.688 47.9463C147.212 50.6275 148.631 54.7282 148.473 58.3557C148.473 60.5637 148.158 62.4564 147.527 64.5067C147.212 65.2953 146.896 66.0839 146.423 66.8724C145.95 67.8188 145.161 68.2919 144.373 68.9228C141.849 70.5 138.064 70.0268 135.856 67.9765C135.067 67.1879 134.752 66.2416 134.121 65.2953C133.648 64.6644 133.332 64.0335 133.175 63.0872C133.175 62.9295 133.175 62.9295 133.017 63.0872Z" fill="black"/>
<path opacity="0.4" fill-rule="evenodd" clip-rule="evenodd" d="M133.017 35.0135C133.49 36.4329 133.648 38.0101 135.225 38.7987C135.54 38.9564 136.014 39.1141 136.329 39.1141C136.644 39.1141 136.96 38.9564 137.275 38.641C138.852 37.5369 137.906 34.8557 136.96 33.594C136.329 32.9631 135.54 32.6477 134.752 32.3322C134.436 32.1745 134.436 32.1745 134.121 32.3322C133.806 32.49 133.648 32.49 133.49 32.8054C133.332 32.9631 133.332 33.4363 133.332 33.594C133.332 33.9094 133.175 34.0671 133.175 34.2249C133.017 34.698 133.175 35.1712 133.332 35.6443L133.017 35.0135Z" fill="black"/>
<path opacity="0.4" fill-rule="evenodd" clip-rule="evenodd" d="M121.346 95.7348C121.03 96.6811 120.715 97.7851 120.242 98.7314C119.769 99.8354 119.295 100.782 118.822 101.886C117.718 104.567 117.087 107.564 116.299 110.403C115.51 113.399 115.037 116.553 114.722 119.55C114.564 121.127 114.249 122.704 114.406 124.282C114.406 125.386 114.406 126.805 114.879 127.909C115.195 128.54 115.826 129.644 116.457 129.959C117.403 130.433 118.507 129.644 119.295 129.171C122.292 127.594 124.973 125.386 127.339 123.02C129.705 120.654 132.071 118.446 134.121 115.765C135.067 114.503 136.014 113.399 136.802 111.98C137.433 110.876 137.906 109.614 138.379 108.51C138.852 107.406 139.326 106.302 139.799 105.198C140.43 103.936 140.903 102.517 141.376 101.097C142.165 98.416 142.953 95.7348 142.007 93.0536C141.218 90.6878 139.326 88.9529 136.802 88.4797C135.54 88.1643 133.963 87.8489 132.701 87.8489C131.44 88.0066 130.02 88.322 128.759 88.7952C127.654 89.2683 126.55 89.7415 125.604 90.3724C125.131 90.6878 124.658 91.1609 124.185 91.6341C123.396 92.4227 122.765 93.2113 122.134 94.1576C121.819 94.6307 121.661 94.9462 121.188 95.2616C121.03 96.0502 120.715 96.8388 121.346 95.7348Z" fill="black"/>
<path opacity="0.4" fill-rule="evenodd" clip-rule="evenodd" d="M109.517 130.275C107.94 130.906 106.678 131.379 105.259 132.483C103.681 133.745 102.104 134.849 101 136.584C100.527 137.215 99.7385 138.161 100.369 138.949C100.842 139.58 101.789 139.58 102.577 139.58C103.681 139.58 104.785 139.423 105.732 138.949C106.678 138.634 107.467 138.003 108.413 137.688C109.359 137.372 110.621 136.741 111.252 135.953C111.567 135.48 111.883 134.849 112.198 134.376C112.514 133.902 112.514 133.745 112.514 133.114C112.514 132.483 112.04 131.694 111.725 131.379C111.41 131.064 110.621 130.59 110.148 130.748C109.832 130.748 109.517 130.906 109.202 131.064C108.571 131.064 108.098 131.852 109.517 130.275Z" fill="black"/>
<path opacity="0.4" fill-rule="evenodd" clip-rule="evenodd" d="M107.624 121.127C107.309 119.866 106.994 119.077 106.994 117.815C107.151 116.711 107.151 115.765 107.624 114.819C107.94 114.345 108.571 113.084 109.044 112.926C109.202 112.926 109.675 112.926 109.832 112.926C110.621 113.084 111.094 114.03 111.252 114.819C111.567 115.923 111.252 117.184 111.41 118.446C111.41 119.392 111.252 120.181 110.936 120.97C110.621 121.6 110.148 121.6 109.517 121.6C108.886 121.6 108.571 121.443 108.098 120.97C107.94 120.812 107.624 120.812 107.467 120.654C107.151 120.339 107.151 120.023 107.624 121.127Z" fill="black"/>
<path opacity="0.4" fill-rule="evenodd" clip-rule="evenodd" d="M106.205 73.812C106.047 74.6005 106.047 75.5469 106.047 76.3354C106.363 76.3354 106.678 76.9663 106.993 76.9663C107.624 77.124 108.098 76.8086 108.571 76.4932C109.517 75.7046 109.832 74.2851 109.517 73.1811C109.359 72.0771 108.098 71.9194 107.151 72.0771C106.836 72.0771 106.363 72.2348 106.205 72.3925C105.574 72.8657 105.574 73.4965 105.574 74.1274L106.205 73.812Z" fill="black"/>
<path opacity="0.4" fill-rule="evenodd" clip-rule="evenodd" d="M34.9165 125.228C35.3897 124.282 35.8629 123.335 36.4937 122.547C37.2823 121.6 38.0709 120.812 38.8595 120.023C39.9635 119.077 41.0675 118.131 42.1716 117.342C43.2756 116.553 44.2219 115.765 45.3259 114.976C47.2185 113.715 49.2689 112.926 51.4769 112.137C53.2118 111.506 55.1044 111.349 56.997 111.664C58.8896 111.98 60.7822 113.084 62.044 114.345C63.3057 115.607 64.7252 117.184 65.5138 118.762C67.2487 122.074 66.4601 125.859 65.356 129.171C64.8829 130.748 63.7789 132.483 62.5171 133.587C61.7286 134.218 60.94 134.533 59.9937 134.691C59.0473 134.849 57.7856 135.322 56.8393 135.322C52.2655 135.953 47.6917 135.637 43.4333 134.06C41.6984 133.429 40.1212 132.641 38.3863 131.852C37.1246 131.221 36.0205 130.433 35.232 129.329C34.6011 128.54 34.128 127.436 34.128 126.332C34.128 125.859 34.2856 125.386 34.4434 124.913C34.7588 125.228 34.9165 125.07 34.9165 125.228Z" fill="black"/>
<path opacity="0.4" fill-rule="evenodd" clip-rule="evenodd" d="M68.6681 127.278C68.3527 128.067 68.195 129.013 68.0373 129.802C68.3527 129.959 68.3527 130.433 68.5104 130.748C68.8258 131.063 68.9836 131.221 69.4567 131.221C69.9299 131.221 70.403 131.221 70.7184 131.221C71.3493 131.063 71.5071 130.906 71.8225 130.433C72.1379 129.959 72.2956 129.644 72.2956 129.013C72.2956 128.54 72.1379 128.067 71.8225 127.751C71.6648 127.436 71.3493 127.121 71.0339 126.963C70.403 126.49 69.9299 126.805 69.4567 127.121L68.6681 127.278Z" fill="black"/>
<path opacity="0.4" fill-rule="evenodd" clip-rule="evenodd" d="M142.48 88.322C141.849 87.8488 141.218 87.218 140.745 86.4294C140.745 86.1139 140.745 85.7985 140.745 85.4831C140.587 84.6945 140.43 84.0636 140.587 83.275C140.903 81.3824 142.48 80.1207 144.373 79.9629C145.634 79.8052 147.369 80.7515 148 81.8555C148.631 82.9596 148.946 84.2213 148.946 85.4831C148.946 86.4294 148.789 87.6911 148.158 88.4797C147.685 89.1106 146.896 89.1106 146.265 89.1106C145.477 89.1106 144.688 88.9528 144.057 88.7951C143.426 88.6374 142.795 88.322 142.48 88.322Z" fill="black"/>
</g>
<path opacity="0.4" fill-rule="evenodd" clip-rule="evenodd" d="M12.5215 66.3994C12.5215 66.3994 54.3167 83.4329 77.028 82.1712C99.7394 80.7517 109.36 67.8188 118.508 55.99C127.498 44.1612 130.968 29.8089 130.968 29.8089C130.968 29.8089 113.776 62.9296 92.4843 71.7618L80.1824 74.2853C80.1824 74.2853 86.6488 69.5537 91.0649 64.6645C95.481 59.7752 112.672 52.8357 114.407 47.1578C115.984 41.48 115.827 32.1746 118.666 26.1814C121.504 20.1881 124.186 15.2988 124.186 15.2988L116.773 14.0371L113.303 22.2384C113.303 22.2384 112.357 35.8022 109.676 43.0572C106.994 50.4699 81.1287 70.5 75.2932 73.8121C69.4576 77.1242 17.8839 70.0269 12.5215 66.3994Z" fill="#7D72B3"/>
<path opacity="0.4" fill-rule="evenodd" clip-rule="evenodd" d="M87.2803 138.003C87.4381 138.003 90.1193 136.741 90.9079 136.741C91.2233 136.741 91.5388 137.057 91.8542 137.214C92.6428 137.688 93.1159 138.161 92.9582 139.107C92.8005 140.369 91.5387 141.946 90.1193 142.419C88.3844 143.05 86.4918 142.261 85.8609 141C85.23 139.738 86.8072 137.688 88.6998 137.53L87.2803 138.003Z" fill="#7D72B3"/>
<path fill-rule="evenodd" clip-rule="evenodd" d="M52.267 63.5602C51.3207 65.295 48.7972 68.2917 49.5858 70.8152C49.9012 71.9192 50.6898 72.8655 51.1629 73.9695C52.4247 76.6507 54.9482 79.3319 58.1025 77.4393C61.73 75.2313 60.1529 71.2883 58.5757 68.4494C57.9448 67.3454 57.1562 66.0836 56.0522 65.4528C55.4213 65.1373 54.475 64.8219 53.8442 64.6642C52.5824 64.191 53.371 63.5602 52.267 63.5602Z" fill="#FF9F84"/>
<path fill-rule="evenodd" clip-rule="evenodd" d="M76.0823 8.67441C75.9246 9.62072 75.9246 10.4093 76.0823 11.3556C76.3978 11.3556 76.5555 11.5133 76.8709 11.5133C77.1864 11.5133 77.6595 11.3556 77.9749 11.0402C78.6058 10.7247 78.7635 9.93616 78.7635 9.30528C78.7635 8.67441 78.7635 8.04354 78.1326 7.72811C77.3441 7.25495 76.5555 7.57039 76.24 8.35898V8.67441H76.0823Z" fill="#FFEF84"/>
<path fill-rule="evenodd" clip-rule="evenodd" d="M60.3106 89.899C60.4683 89.4258 60.626 87.8487 61.0992 87.2178C61.4146 86.7447 62.2032 86.4292 62.834 86.1138C64.0958 85.6406 65.5153 85.7983 66.4616 86.7446C68.3542 88.3218 68.1965 90.8453 66.4616 92.5802C65.673 93.3688 64.569 94.1574 63.4649 94.1574C62.8341 94.1574 62.2032 94.3151 61.73 93.9997C61.0992 93.6842 60.626 93.0534 60.4683 92.4225C60.1528 91.3185 60.3106 90.5299 60.9414 89.5836L60.3106 89.899Z" fill="#FF9F84"/>
<path fill-rule="evenodd" clip-rule="evenodd" d="M46.5891 89.1104C46.5891 89.899 46.116 91.9494 47.3777 92.2648C48.0086 92.4225 48.6394 91.6339 48.6394 91.1608C48.7971 90.6876 48.6395 89.899 48.4817 89.4259C48.1663 88.795 47.5354 88.3219 47.0623 88.9527H46.5891V89.1104Z" fill="#FF9F84"/>
<path fill-rule="evenodd" clip-rule="evenodd" d="M14.7302 74.6004C14.8879 75.8621 14.8879 77.9125 15.6765 79.0165C15.9919 79.4896 16.3074 79.9628 16.9383 80.1205C17.5691 80.2782 17.8845 79.9628 18.2 79.4896C18.8308 78.7011 18.8308 78.2279 18.8308 77.2816C18.8308 76.493 18.5154 75.5467 18.2 74.7581C17.8845 74.285 17.4114 73.8118 17.0959 73.4964C16.7805 73.1809 16.4651 73.0232 15.8342 73.0232C15.0456 73.0232 15.2033 73.9695 15.0456 74.6004H14.7302Z" fill="#FF9F84"/>
<path fill-rule="evenodd" clip-rule="evenodd" d="M125.448 68.4493C125.448 68.2916 125.606 66.0836 126.079 65.6104C126.237 65.4527 126.71 65.295 126.867 65.1373C127.498 64.8218 128.287 64.6641 129.075 64.9796C130.022 65.4527 130.968 66.8722 130.653 67.9762C130.337 69.3956 128.76 70.3419 127.498 70.3419C126.079 70.3419 124.975 68.6071 125.763 67.3453L125.448 68.4493Z" fill="#FF9F84"/>
<path fill-rule="evenodd" clip-rule="evenodd" d="M48.6395 86.1137C48.6395 86.1137 48.7972 85.0097 48.9549 84.6943C49.1126 84.5366 49.2703 84.5366 49.4281 84.5366C49.7435 84.3788 50.2167 84.3788 50.5321 84.5366C51.0053 84.852 51.4784 85.4829 51.3207 86.1137C51.163 86.7446 50.3744 87.3755 49.7435 87.3755C49.1126 87.3755 48.4818 86.4292 48.7972 85.7983L48.6395 86.1137Z" fill="#FF9F84"/>
<path fill-rule="evenodd" clip-rule="evenodd" d="M82.7065 99.8352C82.7065 99.8352 82.8642 98.7312 83.022 98.4157C83.1797 98.258 83.3374 98.258 83.4951 98.258C83.8105 98.1003 84.2837 98.1003 84.5991 98.258C85.0723 98.5735 85.5455 99.2043 85.3877 99.8352C85.23 100.466 84.4414 101.097 83.8106 101.097C83.1797 101.097 82.5488 100.151 82.8642 99.5198L82.7065 99.8352Z" fill="#FF9F84"/>
<path fill-rule="evenodd" clip-rule="evenodd" d="M105.733 39.5871C105.733 39.5871 105.891 38.4831 106.049 38.1676C106.206 38.0099 106.364 38.0099 106.522 38.0099C106.837 37.8522 107.31 37.8522 107.626 38.0099C108.099 38.3253 108.572 38.9562 108.414 39.5871C108.257 40.2179 107.468 40.8488 106.837 40.8488C106.206 40.8488 105.576 39.9025 105.891 39.2716L105.733 39.5871Z" fill="#FF9F84"/>
<path fill-rule="evenodd" clip-rule="evenodd" d="M58.8911 126.963C58.8911 126.963 59.0489 125.859 59.2066 125.543C59.3643 125.386 59.522 125.386 59.6797 125.386C59.9951 125.228 60.4683 125.228 60.7837 125.386C61.2569 125.701 61.7301 126.332 61.5723 126.963C61.4146 127.594 60.626 128.224 59.9952 128.224C59.3643 128.224 58.7334 127.278 59.0488 126.647L58.8911 126.963Z" fill="#FF9F84"/>
<path fill-rule="evenodd" clip-rule="evenodd" d="M120.559 87.0602C119.455 87.8487 118.666 88.1642 118.035 89.1105C117.562 89.8991 116.931 90.5299 116.616 91.4762C116.3 92.1071 115.985 93.2111 115.985 93.842C116.143 95.7346 118.508 94.1574 119.297 93.5266C120.243 92.738 121.19 91.634 121.19 90.3722C121.19 89.8991 121.19 89.2682 121.032 88.795C120.874 88.6373 120.874 88.3219 120.716 88.1642C120.401 87.8487 120.243 87.8487 120.559 87.0602Z" fill="#FF9F84"/>
<path fill-rule="evenodd" clip-rule="evenodd" d="M144.374 95.7345C144.532 94.9459 144.059 97.9426 144.216 98.1003C144.532 98.1003 144.847 98.1003 145.163 98.1003C145.478 98.1003 145.636 97.7849 145.951 97.6271C146.582 97.154 147.055 96.8385 147.055 96.05C147.055 95.4191 146.898 94.9459 146.267 94.6305C145.951 94.4728 145.794 94.4728 145.478 94.4728C144.847 94.6305 144.374 95.2614 144.059 95.8922L144.374 95.7345Z" fill="#FF9F84"/>
<path fill-rule="evenodd" clip-rule="evenodd" d="M80.9716 8.98988C80.9716 8.35901 80.6562 10.5671 80.8139 10.5671C80.9716 10.5671 81.287 10.5671 81.4447 10.5671C81.7602 10.5671 81.7602 10.4093 81.9179 10.2516C82.391 9.93619 82.7065 9.77848 82.7065 9.1476C82.7065 8.67445 82.7065 8.35901 82.2333 8.20129C82.0756 8.20129 81.9179 8.04358 81.7601 8.04358C81.287 8.2013 80.9716 8.51673 80.8139 8.98988H80.9716Z" fill="#FFEF84"/>
<path fill-rule="evenodd" clip-rule="evenodd" d="M121.347 70.0266C121.347 69.3957 121.032 71.6037 121.19 71.6037C121.347 71.6037 121.663 71.6037 121.82 71.6037C122.136 71.6037 122.136 71.446 122.294 71.2883C122.767 70.9729 123.082 70.8152 123.082 70.1843C123.082 69.7111 123.082 69.3957 122.609 69.238C122.451 69.238 122.294 69.0803 122.136 69.0803C121.663 69.238 121.347 69.5534 121.19 70.0266H121.347Z" fill="#FFEF84"/>
<path fill-rule="evenodd" clip-rule="evenodd" d="M78.7635 128.224C79.3944 128.224 77.1864 128.224 77.1864 128.224C77.1864 128.382 77.1864 128.698 77.1864 128.855C77.1864 129.171 77.3441 129.171 77.5018 129.328C77.8173 129.644 78.1327 129.959 78.6058 129.959C79.079 129.959 79.3944 129.802 79.3944 129.328C79.3944 129.171 79.5521 129.013 79.3944 128.855C79.2367 128.382 78.7636 128.067 78.4481 128.067L78.7635 128.224Z" fill="#FFEF84"/>
<path fill-rule="evenodd" clip-rule="evenodd" d="M44.6965 64.0333C44.6965 63.4025 44.3811 65.6105 44.5388 65.6105C44.6965 65.6105 45.012 65.6105 45.1697 65.6105C45.4851 65.6105 45.4851 65.4528 45.6428 65.2951C46.116 64.9797 46.4314 64.8219 46.4314 64.1911C46.4314 63.7179 46.4314 63.4025 45.9583 63.2448C45.8005 63.2448 45.6428 63.087 45.4851 63.087C45.0119 63.2448 44.6965 63.5602 44.5388 64.0333H44.6965Z" fill="#FFEF84"/>
<path fill-rule="evenodd" clip-rule="evenodd" d="M77.6596 121.758C77.8173 120.969 77.3441 123.966 77.5018 124.124C77.8173 124.124 78.1327 124.124 78.4481 124.124C78.7636 124.124 78.9213 123.808 79.2367 123.651C79.8676 123.177 80.3407 122.862 80.3407 122.073C80.3407 121.443 80.183 120.969 79.5521 120.654C79.2367 120.496 79.079 120.496 78.7636 120.496C78.1327 120.654 77.6595 121.285 77.3441 121.916L77.6596 121.758Z" fill="#FF9F84"/>
<path fill-rule="evenodd" clip-rule="evenodd" d="M35.8622 72.7078C59.9931 76.493 58.5736 82.9594 86.6473 75.2313C114.721 67.5031 134.909 25.3925 134.909 25.3925C134.909 25.3925 136.328 22.2381 135.067 20.3455C134.593 19.5569 130.966 21.1341 130.966 21.1341C131.597 34.6978 112.671 62.7716 91.2211 70.8152C88.8554 71.6038 86.6473 71.9192 84.4393 72.3923C83.493 71.9192 80.9695 69.5534 92.6406 61.6675C106.52 52.3622 112.671 48.8924 111.409 39.1139C110.147 29.3354 122.449 14.0368 122.449 14.0368C122.449 14.0368 123.396 9.93613 121.03 7.41264C118.033 4.10057 111.409 7.41264 111.409 7.41264C111.409 7.41264 109.674 26.4965 85.5433 36.7481C61.4125 46.9998 47.8488 41.9528 38.7011 39.1139C29.3958 36.275 26.7146 20.9764 26.7146 20.9764C26.7146 20.9764 18.8287 19.3992 15.9898 24.2884C13.9395 27.9159 16.9361 32.4898 16.9361 32.4898C16.9361 32.4898 31.6038 37.8522 44.6944 42.8991C57.785 47.9461 83.0198 43.3723 91.852 39.1139C100.842 34.8555 100.842 27.916 107.939 21.6072C110.936 19.0838 113.932 17.1911 116.456 16.0871C116.456 16.0871 108.57 28.2314 109.516 36.7481C110.463 45.2649 105.1 44.9495 91.852 59.9326C82.5467 70.342 74.5031 73.8118 70.5601 74.7581C60.4662 75.7044 51.1608 74.6004 38.7011 71.1306C18.3556 65.6105 6.21129 56.7783 6.21129 56.7783C6.21129 56.7783 4.47639 55.9897 3.84552 57.8823C3.53009 58.6709 5.4227 61.0367 5.4227 61.0367C5.4227 61.0367 11.7314 68.7648 35.8622 72.7078Z" fill="url(#paint2_linear_4_1513)"/>
<path fill-rule="evenodd" clip-rule="evenodd" d="M52.8966 144.312C52.8966 144.312 46.9033 140.527 42.4872 129.013C38.0712 117.5 38.5443 118.288 30.1853 111.033C21.8262 103.778 7.31622 96.681 7.31622 96.681C7.31622 96.681 6.3699 96.9965 6.3699 97.3119C6.3699 98.7314 8.10481 99.0468 8.10481 99.0468C8.10481 99.0468 21.6685 104.882 30.1853 114.188C38.702 123.493 47.8497 140.211 41.3833 139.265C41.3833 139.265 42.8027 143.365 46.2725 144.312C49.5845 145.258 52.8966 144.312 52.8966 144.312Z" fill="url(#paint3_radial_4_1513)"/>
<path d="M112.357 88.6375C115.196 85.6408 118.508 81.6979 132.072 81.5402C145.635 81.3824 152.575 84.3791 152.575 84.3791C152.575 84.3791 155.414 83.5905 155.729 79.963C156.045 76.3355 153.206 74.6006 153.206 74.6006C153.048 75.7046 151.629 83.275 140.115 78.859C140.115 78.7012 144.216 75.0737 145.005 67.5033C145.951 59.9328 148.632 49.0503 148.632 49.0503C148.632 49.0503 150.209 46.3691 149.263 44.1611C148.947 43.3725 146.266 43.057 146.266 43.057C148.632 58.3557 142.796 76.6509 136.488 78.859C128.917 79.0167 119.612 80.2784 115.354 83.1173C110.149 86.5871 104.944 102.043 101.632 112.926C100.844 115.607 99.1087 118.604 96.9006 121.443C88.5416 123.493 91.2227 113.399 87.5952 110.402C83.9677 107.406 77.1858 108.983 72.612 107.406C68.1959 105.671 66.9342 102.201 62.2027 101.57C57.4711 100.939 49.9007 109.929 41.2262 106.302C32.5517 102.674 3.8471 68.6073 3.8471 68.6073C3.8471 68.6073 1.32362 67.9764 0.692748 69.7113C0.219595 71.1308 3.5317 74.7583 3.5317 74.7583C3.5317 74.7583 23.5618 104.882 42.6457 108.825C61.7295 112.768 79.0785 109.141 85.0717 114.188C91.065 119.392 91.5382 127.594 91.5382 127.751C85.3872 134.376 77.9745 140.053 74.5047 141.788C68.5114 144.785 58.7329 146.835 58.7329 146.835C60.1524 148.412 62.8335 149.674 65.6725 150.463C69.9308 151.567 72.612 149.516 72.612 149.516C72.612 149.516 70.2463 147.466 73.4006 144.785C81.4442 138.003 87.2797 135.164 95.6388 133.114C100.686 131.852 102.263 134.218 102.894 133.429C110.78 135.953 116.931 130.117 123.555 124.597C130.179 119.235 138.853 118.446 138.853 118.446C138.853 118.446 143.27 117.658 144.531 115.765C145.635 114.03 143.112 111.98 143.112 111.98C143.112 111.98 139.327 113.557 132.072 117.184C124.974 120.812 117.246 131.379 108.414 131.064C103.525 130.906 104.629 126.017 104.156 125.228C104.156 124.913 104.156 124.597 104.156 124.124C103.998 120.654 103.209 117.342 103.209 114.819C103.209 114.188 103.209 113.557 103.367 112.926C104.629 108.983 109.518 91.4764 112.357 88.6375ZM97.0583 121.285C95.4811 123.335 93.7462 125.386 91.8536 127.436L97.0583 121.285ZM103.84 126.647C103.998 127.436 104.156 128.225 103.998 129.171C103.998 129.644 103.84 129.96 103.525 130.117C103.209 130.275 103.052 130.275 102.736 130.275C102.421 130.433 101.948 130.433 101.632 130.59C101.001 130.748 100.37 130.59 99.8972 130.59C99.2663 130.59 98.6354 130.59 98.0045 130.59C97.6891 130.59 97.3737 130.433 97.0583 130.433C96.7428 130.433 96.2697 130.433 96.112 130.275C95.4811 129.959 95.008 129.171 94.5348 129.013C94.5348 128.382 94.5348 127.909 94.8502 127.436C94.8502 127.278 95.008 127.121 95.008 126.805C95.1657 126.49 95.1657 126.174 95.3234 125.859C95.6389 125.07 95.9543 124.282 96.5851 123.651C96.7429 123.335 97.0582 122.862 97.216 122.547C97.5314 122.074 97.8469 121.758 98.1623 121.443C98.6355 120.97 99.1086 120.496 99.7395 120.181C100.213 119.866 101.001 119.55 101.632 119.708C102.263 119.866 102.421 120.654 102.578 121.127C102.736 121.443 102.736 121.916 102.894 122.231C103.052 122.704 103.209 123.178 103.367 123.651C103.525 124.282 103.525 124.755 103.682 125.386C103.682 125.701 103.682 126.174 103.84 126.647Z" fill="url(#paint4_linear_4_1513)"/>
<path fill-rule="evenodd" clip-rule="evenodd" d="M18.6731 22.5538C18.6731 22.5538 21.9852 29.4934 30.6597 35.8021C30.6597 35.8021 27.8208 25.7081 25.7704 21.6075C25.7704 21.6075 22.9315 18.9263 18.6731 22.5538Z" fill="#FFFF0E"/>
<path fill-rule="evenodd" clip-rule="evenodd" d="M64.2526 43.8455C64.2526 43.8455 70.0882 41.4797 71.9808 42.426C71.9808 42.2683 66.303 43.8455 64.2526 43.8455Z" fill="#FFFF0E"/>
<path fill-rule="evenodd" clip-rule="evenodd" d="M83.9683 38.3255C85.0723 38.01 86.1763 37.6946 87.1226 37.2214C88.0689 36.906 88.8575 36.4329 89.8038 35.9597C90.9078 35.3288 92.0119 34.698 92.9582 33.9094C93.2736 33.7517 93.4314 33.5939 93.7468 33.4362C94.0622 33.2785 94.3776 32.9631 94.6931 32.8054C95.0085 32.6476 95.1662 32.3322 95.4817 32.1745C95.7971 32.0168 95.9548 31.7013 96.2702 31.5436C96.7434 31.2282 97.2165 30.755 97.532 30.4396C97.6897 30.2819 97.8474 30.1242 98.1629 29.8087C98.3206 29.651 98.4783 29.651 98.636 29.651C98.636 29.8087 98.4783 30.1242 98.4783 30.2819C98.3206 30.5973 98.1628 30.755 98.0051 31.0705C97.6897 31.7013 97.0589 32.0168 96.5857 32.6476C96.2703 32.9631 95.9548 33.2785 95.4817 33.5939C95.0085 33.9094 94.3777 34.2248 93.7468 34.5402C93.1159 34.8557 92.485 35.0134 92.0118 35.3288C91.5387 35.6443 90.9078 35.9597 90.4347 36.1174C90.1192 36.2751 89.6461 36.5906 89.3307 36.7483C89.0152 36.906 88.6998 37.0637 88.3844 37.2214C87.9112 37.5369 87.4381 37.6946 86.9649 38.01C86.6495 38.1677 86.4918 38.1678 86.1763 38.3255C85.7032 38.6409 84.9146 38.7986 84.2837 38.7986C84.126 38.7986 83.8105 38.7986 83.6528 38.7986C83.4951 38.7986 83.3374 38.6409 83.3374 38.6409C83.6528 38.4832 83.8106 38.3255 83.9683 38.3255Z" fill="#FFFF0E"/>
<path fill-rule="evenodd" clip-rule="evenodd" d="M99.7401 28.0739C99.4246 28.2317 99.2669 28.3894 98.9515 28.7048C98.9515 28.8625 98.7937 29.0202 99.1091 29.0202C99.4246 29.0202 99.5823 28.8625 99.8977 28.5471C100.055 28.3894 100.213 28.0739 100.056 27.9162C99.8978 27.7585 99.5823 27.9162 99.4246 28.0739H99.7401Z" fill="#FFFF0E"/>
<path fill-rule="evenodd" clip-rule="evenodd" d="M112.514 7.72818C112.357 8.04361 112.041 8.35905 111.884 8.67448C111.726 8.98992 111.726 9.14763 111.568 9.46307C111.41 9.93622 111.253 10.5671 111.095 11.0402C110.779 11.9866 110.622 13.0906 110.149 14.0369C109.991 14.51 109.833 14.8255 109.518 15.2986C109.36 15.4563 109.202 15.7718 109.202 15.9295C109.045 16.0872 109.045 16.2449 108.887 16.5604C108.729 16.7181 108.729 16.8758 108.571 17.0335C108.414 17.1912 108.414 17.5067 108.256 17.6644C108.098 17.8221 107.783 18.2953 107.941 18.453C108.098 18.453 108.098 18.2953 108.256 18.2953C108.414 18.1375 108.729 17.9798 108.887 17.6644C109.36 17.349 109.675 16.8758 109.991 16.4027C110.149 16.2449 110.306 16.0872 110.464 15.7718C110.622 15.4563 110.937 15.2986 111.095 14.9832C111.41 14.51 111.883 14.0369 112.199 13.7214C112.357 13.5637 112.514 13.2483 112.672 13.0906C112.83 12.9329 112.988 12.7751 113.145 12.4597C113.776 11.8288 114.249 11.198 114.88 10.5671C115.353 10.0939 115.669 9.46307 116.142 8.98992C116.457 8.51676 116.773 8.04362 116.93 7.57046C117.088 7.41274 117.246 6.93959 117.246 6.78187C117.088 6.46644 116.773 6.30872 116.457 6.30872C115.984 6.30872 115.511 6.30872 115.038 6.30872C114.565 6.46643 114.249 6.62416 113.776 6.78187C113.461 6.93959 113.145 7.25502 112.672 7.41274C112.514 7.72818 112.199 7.8859 112.514 7.72818Z" fill="#FFFF0E"/>
<path fill-rule="evenodd" clip-rule="evenodd" d="M116.3 16.7183C116.142 17.0338 115.984 17.3492 115.827 17.6646C115.669 17.8224 115.511 18.1378 115.353 18.2955C115.038 18.7687 114.88 19.2418 114.565 19.5572C114.092 20.3458 113.461 21.1344 113.145 21.923C112.988 22.2384 112.83 22.5539 112.672 22.8693C112.515 23.1848 112.357 23.6579 112.357 23.9733C112.199 24.2888 112.199 24.6042 112.041 25.0774C112.041 25.3928 111.884 25.7082 111.884 26.0237C112.199 25.7082 112.357 25.2351 112.672 24.9197C112.83 24.6042 112.988 24.2888 113.303 24.1311C113.619 23.9733 113.776 23.6579 113.934 23.3425C114.092 23.027 114.407 22.8693 114.565 22.5539C114.723 22.2385 114.88 22.0807 115.038 21.7653C115.196 21.6076 115.353 21.2921 115.511 20.9767C115.669 20.6613 115.827 20.3458 115.984 20.0304C116.142 19.3995 116.458 18.7687 116.615 18.1378C116.615 17.8224 116.773 17.5069 116.615 17.1915C116.615 17.0338 116.3 16.4029 116.3 16.7183Z" fill="#FFFF0E"/>
<path fill-rule="evenodd" clip-rule="evenodd" d="M111.095 26.9698C110.937 27.443 110.779 27.7584 110.779 28.2316C110.779 28.3893 110.779 28.547 110.779 28.547C110.937 28.547 111.095 28.547 111.095 28.3893C111.253 28.3893 111.252 28.2316 111.252 28.0739C111.41 27.9162 111.568 27.6007 111.41 27.2853C111.41 26.9698 111.095 26.8121 110.937 27.1276L111.095 26.9698Z" fill="#FFFF0E"/>
<path fill-rule="evenodd" clip-rule="evenodd" d="M103.366 48.5773C102.578 49.3659 101.474 50.1545 100.843 51.1008C100.843 51.2585 100.37 51.574 100.528 51.7317C100.685 51.8894 101.001 51.7317 101.158 51.7317C101.631 51.574 102.105 51.2585 102.578 51.1008C102.893 50.9431 103.209 50.6276 103.524 50.4699C104.313 49.9968 104.944 49.3659 105.575 48.5773C105.89 48.2619 106.048 47.9464 106.205 47.631C106.205 47.4733 106.363 47.1579 106.363 47.1579C106.205 46.6847 105.259 47.1579 105.101 47.3156C104.944 47.4733 104.628 47.631 104.47 47.7887C104.313 47.9464 104.155 48.1042 103.997 48.1042C103.84 48.2619 103.682 48.4196 103.366 48.5773C103.366 48.735 103.209 48.8928 103.366 48.5773Z" fill="#FFFF0E"/>
<path fill-rule="evenodd" clip-rule="evenodd" d="M99.5821 52.52C99.2667 52.6777 98.9512 52.8354 98.7935 52.9932C98.7935 53.1509 98.4781 53.3086 98.6358 53.4663C98.7935 53.624 99.109 53.4663 99.109 53.4663C99.2667 53.4663 99.4244 53.3086 99.5821 53.1509C99.5821 52.8355 99.5821 52.8355 99.5821 52.52Z" fill="#FFFF0E"/>
<path fill-rule="evenodd" clip-rule="evenodd" d="M80.182 70.973C79.5511 71.4461 78.7626 71.9193 77.974 72.3924C77.0277 72.8656 76.0814 73.181 75.2928 73.6542C73.8733 74.4428 72.4539 75.0736 71.0344 75.7045C70.8767 75.8622 68.6686 76.6508 69.4572 77.124C69.7727 77.2817 70.2458 77.2817 70.5613 77.2817C70.8767 77.2817 71.1921 77.4394 71.5075 77.4394C71.823 77.4394 72.1384 77.4394 72.4539 77.4394C74.1887 77.4394 76.0814 76.9662 77.6586 76.3354C77.974 76.1776 78.4471 76.0199 78.7626 75.8622C78.9203 75.7045 79.078 75.5468 79.3934 75.3891C79.7089 75.0736 80.0243 74.7582 80.182 74.285C80.4974 73.6542 80.6552 73.181 80.6552 72.3924C80.6552 72.077 80.4975 71.9193 80.3397 71.6038C80.3397 71.4461 80.182 71.2884 80.182 70.973Z" fill="#FFFF0E"/>
<path fill-rule="evenodd" clip-rule="evenodd" d="M67.8808 76.3355C67.5654 76.1778 67.0922 75.8623 66.6191 75.8623C66.4614 75.8623 66.3036 75.8623 66.1459 75.8623C65.8305 75.8623 65.3573 76.0201 65.0419 76.1778C64.7265 76.4932 65.515 76.8086 65.8305 76.9664C66.1459 77.1241 66.7768 77.1241 67.0922 76.9664C67.4076 76.9664 67.8808 76.6509 67.8808 76.3355C68.0385 76.3355 68.0385 76.3355 68.0385 76.3355H67.8808Z" fill="#FFFF0E"/>
<path fill-rule="evenodd" clip-rule="evenodd" d="M90.7489 71.4461C92.326 70.973 93.9033 70.3421 95.3227 69.5535C95.9536 69.2381 96.4267 68.9226 97.0576 68.6072C97.373 68.4495 97.8462 68.134 98.1616 67.9763C98.3193 67.9763 99.2656 67.3455 99.4233 67.6609C99.5811 67.9763 98.6348 68.6072 98.4771 68.7649C98.1616 69.0803 97.6884 69.3958 97.2153 69.7112C96.8998 70.0267 96.4267 70.0267 96.1113 70.3421C95.6382 70.6575 95.165 70.8152 94.5341 71.1307C94.2187 71.2884 93.7455 71.4461 93.4301 71.6038C93.1147 71.7616 92.7992 71.7615 92.4837 71.9193C92.326 71.9193 92.0106 71.9193 91.8529 71.9193C91.5375 71.7615 90.9066 71.9193 90.7489 71.4461Z" fill="#FFFF0E"/>
<path fill-rule="evenodd" clip-rule="evenodd" d="M125.92 80.1207C126.709 80.1207 127.655 80.2784 128.444 80.1207C129.075 79.9629 129.548 79.9629 130.179 79.8052C131.283 79.6475 132.545 79.3321 133.649 79.3321C134.122 79.3321 134.595 79.3321 135.068 79.3321C135.384 79.3321 135.699 79.3321 135.857 79.3321C136.014 79.3321 136.33 79.4898 136.33 79.6475C136.645 79.9629 136.33 79.9629 136.172 79.9629C135.699 80.1207 135.384 80.4361 134.91 80.4361C134.122 80.5938 133.491 80.7515 132.702 80.9092C132.229 80.9092 131.756 80.9092 131.125 80.9092C130.494 81.067 129.863 81.067 129.075 81.067C128.444 81.067 127.971 81.067 127.34 81.067C126.867 81.067 126.551 80.9092 126.078 80.9092C125.763 80.9092 125.447 80.9092 125.29 80.7515C125.447 80.9092 125.132 80.5938 125.92 80.1207Z" fill="#FFFF0E"/>
<path fill-rule="evenodd" clip-rule="evenodd" d="M144.847 80.9091C145.794 81.0668 146.425 81.0668 147.371 80.9091C148.002 80.7514 148.633 80.7514 149.106 80.5937C149.894 80.436 150.841 80.1205 151.629 79.6474C152.102 79.3319 152.891 78.8588 153.364 79.0165C153.837 79.1742 154.31 79.6474 154.31 80.1205C154.31 80.7514 153.68 81.0668 153.364 81.3823C152.733 81.8554 151.629 82.1708 150.841 82.1708C149.894 82.1708 148.79 82.0131 147.844 81.8554C147.529 81.8554 147.213 81.6977 146.898 81.6977C146.582 81.54 145.951 81.54 144.847 80.9091Z" fill="#FFFF0E"/>
<path fill-rule="evenodd" clip-rule="evenodd" d="M147.055 44.0034C147.055 44.6343 146.582 46.3692 147.37 46.8424C147.844 47.1578 148.001 46.3692 148.001 46.0538C148.159 45.5806 147.844 44.3189 147.055 44.0034Z" fill="#FFFF0E"/>
<path fill-rule="evenodd" clip-rule="evenodd" d="M6.21155 59.4595C7.00014 60.4058 7.47328 61.3521 8.41959 61.8252C9.05046 62.1407 9.52362 62.6138 10.1545 62.7715C10.7854 62.9293 11.574 63.087 12.2049 63.087C12.5203 63.087 12.678 63.087 12.678 62.6138C12.678 62.4561 12.5203 62.1407 12.3625 61.983C12.2048 61.6675 11.8894 61.5098 11.5739 61.1944C11.2585 60.8789 11.1008 60.5635 10.7854 60.2481C9.68133 59.3018 8.57733 58.6709 7.15787 58.1977C6.68472 58.04 6.68471 58.04 6.21155 58.1977C5.89612 58.3554 5.89614 58.3554 5.73842 58.6709C5.73842 59.144 6.05384 59.6172 6.36928 60.0903L6.21155 59.4595Z" fill="#FFFF0E"/>
<path fill-rule="evenodd" clip-rule="evenodd" d="M6.84431 74.1276C7.94833 76.0202 9.36779 77.5974 10.7873 79.3323C11.7336 80.4363 12.3644 82.0135 13.4685 83.1175C13.6262 83.2752 15.6765 85.0101 15.6765 84.0638C15.6765 83.9061 15.0456 82.9598 15.0456 82.8021C14.7302 82.3289 14.4148 81.698 13.9416 81.2249C13.6262 80.7517 13.1531 80.4363 12.9953 79.9632C12.6799 79.49 12.3645 79.1746 12.049 78.7014C11.5759 78.2283 11.2604 77.4397 10.945 76.9665C10.6295 76.4934 10.1564 75.8625 9.84098 75.3893C9.36783 74.6008 8.73694 73.8122 7.94835 73.4967C7.79063 73.339 7.4752 73.1813 7.15976 73.339C6.37117 73.8122 6.68659 74.7585 6.84431 74.1276Z" fill="#FFFF0E"/>
<path fill-rule="evenodd" clip-rule="evenodd" d="M78.7623 109.299C80.4972 108.983 81.7589 108.668 83.4938 109.141C84.2824 109.299 85.071 109.614 85.8596 109.772C86.3327 109.929 87.1213 110.087 87.4367 110.403C87.7522 110.876 87.7522 111.507 87.279 111.822C86.8059 112.295 85.7019 112.137 85.071 112.137C83.8092 111.98 82.7052 111.822 81.4435 111.507C80.8126 111.349 79.8663 111.033 79.2355 110.56C79.0777 110.403 78.4468 109.772 78.7623 109.299Z" fill="#FFFF0E"/>
<path fill-rule="evenodd" clip-rule="evenodd" d="M101.631 118.131C100.843 117.973 100.685 116.396 101 115.765C101.158 115.45 101.316 114.819 101.789 114.661C102.104 114.503 102.262 114.819 102.578 114.819C102.262 115.607 101.789 116.238 101.316 116.869L101.631 118.131Z" fill="#FFFF0E"/>
<path fill-rule="evenodd" clip-rule="evenodd" d="M133.018 117.658C134.122 116.869 134.911 116.396 136.173 116.08C136.804 115.923 137.435 115.765 138.065 115.607C138.854 115.449 139.485 114.976 140.274 114.976C140.589 114.976 140.747 114.976 141.062 114.819C141.378 114.819 141.22 114.661 141.535 114.819C142.166 115.134 141.851 115.607 141.535 115.923C140.747 116.553 140.116 116.869 139.169 117.027C138.539 117.184 138.223 117.5 137.592 117.658C137.277 117.815 136.961 117.815 136.646 117.973C135.226 118.288 133.807 117.973 133.018 117.658Z" fill="#FFFF0E"/>
<path fill-rule="evenodd" clip-rule="evenodd" d="M32.7096 114.976C33.3404 116.396 33.9713 117.815 34.9176 119.077C35.3907 119.708 35.7062 120.181 36.337 120.496C36.8102 120.654 37.2834 120.812 37.2834 120.023C37.2834 119.708 36.9679 119.077 36.8102 118.761C36.1793 117.657 35.3907 116.869 34.7599 115.922C34.4444 115.607 34.129 114.976 33.8136 114.818C33.3404 114.661 32.5518 114.345 32.7096 114.976Z" fill="#FFFF0E"/>
<path fill-rule="evenodd" clip-rule="evenodd" d="M61.8868 146.835C63.6217 146.52 65.0412 145.889 66.6184 145.416C67.2492 145.101 67.8801 145.101 68.6687 145.101L68.8264 144.943C68.9841 144.943 69.2996 144.943 69.4573 144.943C69.615 144.943 70.4036 144.785 70.5613 144.943C71.1922 145.416 69.9304 146.678 69.615 146.835C68.511 147.939 66.7761 148.57 65.0412 148.413C64.2526 148.255 63.464 147.939 62.6754 147.782C62.2023 147.782 61.0983 147.466 61.0983 146.835C61.256 146.993 61.256 146.835 61.8868 146.835Z" fill="#FFFF0E"/>
<path fill-rule="evenodd" clip-rule="evenodd" d="M90.9071 129.96C89.4877 130.906 87.7527 131.852 86.6487 133.429C85.8601 134.533 87.2796 134.218 87.9105 134.06C88.3836 133.903 88.8568 133.745 89.1722 133.429C89.4876 133.114 89.8031 132.956 90.1185 132.483C90.434 132.168 90.5917 132.01 90.9071 131.852C91.0648 131.537 91.2225 131.064 91.538 130.906C91.538 130.748 91.3802 130.748 91.3802 130.591L90.9071 129.96Z" fill="#FFFF0E"/>
<path fill-rule="evenodd" clip-rule="evenodd" d="M50.2148 107.09C51.3189 106.617 52.4229 106.302 53.3692 105.671C54.3155 105.198 55.2618 104.567 56.2081 104.094C57.4699 103.463 58.7316 102.674 60.1511 102.517C60.6242 102.517 61.0974 102.201 61.5705 102.517C62.0437 102.674 62.2014 102.832 62.5168 103.147C63.3054 104.251 61.7283 105.198 60.9397 105.671C60.3088 106.144 59.8356 106.617 59.047 106.933C58.2584 107.248 57.4699 107.406 56.6813 107.721C55.4195 108.194 54.0001 108.825 52.5806 108.983C51.792 109.141 51.1612 108.825 50.5303 108.352C50.2149 108.194 49.8994 107.879 49.7417 107.564C49.584 107.406 49.4262 107.09 50.2148 107.09Z" fill="#FFFF0E"/>
<defs>
<radialGradient id="paint0_radial_4_1513" cx="0" cy="0" r="1" gradientUnits="userSpaceOnUse" gradientTransform="translate(32.3433 39.5084) scale(120.026)">
<stop offset="0.00558659" stop-color="#DE6863"/>
<stop offset="0.2018" stop-color="#DB6563"/>
<stop offset="0.3542" stop-color="#D15D62"/>
<stop offset="0.4919" stop-color="#C14F60"/>
<stop offset="0.6209" stop-color="#A93B5E"/>
<stop offset="0.7437" stop-color="#8B225B"/>
<stop offset="0.8606" stop-color="#670357"/>
<stop offset="0.8715" stop-color="#630057"/>
</radialGradient>
<linearGradient id="paint1_linear_4_1513" x1="3.89799" y1="53.9583" x2="111.382" y2="53.9583" gradientUnits="userSpaceOnUse">
<stop offset="0.0111732" stop-color="#FF7D85"/>
<stop offset="0.2983" stop-color="#FC7B84"/>
<stop offset="0.5089" stop-color="#F3757F"/>
<stop offset="0.695" stop-color="#E36B77"/>
<stop offset="0.8659" stop-color="#CC5C6C"/>
<stop offset="1" stop-color="#B54D61"/>
</linearGradient>
<linearGradient id="paint2_linear_4_1513" x1="3.55532" y1="42.2877" x2="135.562" y2="42.2877" gradientUnits="userSpaceOnUse">
<stop offset="0.00558659" stop-color="#FFB80B"/>
<stop offset="0.388" stop-color="#FFB60C"/>
<stop offset="0.5789" stop-color="#FEAE10"/>
<stop offset="0.7274" stop-color="#FCA117"/>
<stop offset="0.8539" stop-color="#FA8E21"/>
<stop offset="0.9655" stop-color="#F7762E"/>
<stop offset="1" stop-color="#F66D33"/>
</linearGradient>
<radialGradient id="paint3_radial_4_1513" cx="0" cy="0" r="1" gradientUnits="userSpaceOnUse" gradientTransform="translate(15.145 109.42) scale(37.951)">
<stop offset="0.00558659" stop-color="#FFB80B"/>
<stop offset="0.388" stop-color="#FFB60C"/>
<stop offset="0.5789" stop-color="#FEAE10"/>
<stop offset="0.7274" stop-color="#FCA117"/>
<stop offset="0.8539" stop-color="#FA8E21"/>
<stop offset="0.9655" stop-color="#F7762E"/>
<stop offset="1" stop-color="#F66D33"/>
</radialGradient>
<linearGradient id="paint4_linear_4_1513" x1="1.01276" y1="96.7616" x2="155.79" y2="96.7616" gradientUnits="userSpaceOnUse">
<stop offset="0.00558659" stop-color="#FFB80B"/>
<stop offset="0.388" stop-color="#FFB60C"/>
<stop offset="0.5789" stop-color="#FEAE10"/>
<stop offset="0.7274" stop-color="#FCA117"/>
<stop offset="0.8539" stop-color="#FA8E21"/>
<stop offset="0.9655" stop-color="#F7762E"/>
<stop offset="1" stop-color="#F66D33"/>
</linearGradient>
</defs>
</svg>
