<svg width="151" height="150" viewBox="0 0 151 150" fill="none" xmlns="http://www.w3.org/2000/svg">
<path fill-rule="evenodd" clip-rule="evenodd" d="M150.083 74.6005C150.083 81.8555 149.137 88.7951 147.244 95.2615C143.459 108.51 136.046 120.181 126.268 129.329C119.328 135.795 110.969 141 101.979 144.469C93.7777 147.624 84.7878 149.359 75.4824 149.359C74.2207 149.359 72.8012 149.359 71.5395 149.201C69.6469 149.043 67.5966 148.885 65.704 148.728C51.1939 146.835 38.1034 140.842 27.5363 131.852C23.5933 128.54 19.9658 124.755 16.6538 120.654C14.288 117.657 12.0799 114.345 10.0296 110.876C9.55645 110.087 9.08331 109.298 8.76788 108.352C8.76788 108.352 8.76788 108.352 8.76788 108.194C8.29472 107.248 7.82157 106.459 7.50613 105.513C6.24439 102.674 5.14036 99.6776 4.19405 96.6809C3.56318 94.4729 2.93232 92.2649 2.45917 90.0568C2.14373 88.4796 1.8283 86.9025 1.67058 85.1676C1.19743 81.6978 0.881992 78.228 0.881992 74.6005C0.881992 72.5501 1.03971 70.4998 1.19742 68.4495C1.35514 67.1877 1.51286 65.926 1.67058 64.6643C2.61689 57.2515 4.6672 50.3119 7.66383 43.8455C9.08329 40.6911 10.8182 37.5368 12.7108 34.5402C15.8652 29.6509 19.4927 25.0771 23.7511 21.1342C37.1571 8.04359 55.61 0 75.7979 0C76.5865 0 77.3751 0 78.1637 0C78.9523 0 79.8985 9.62397e-06 80.6871 0.157727C84.9455 0.473163 89.2039 1.10403 93.1468 2.05033C95.5126 2.68121 97.8784 3.31208 100.086 4.10067C101.664 4.57382 103.083 5.20468 104.66 5.83555C105.764 6.3087 106.868 6.78187 107.972 7.25502C108.13 7.41274 108.288 7.41274 108.603 7.57045C115.858 11.0402 122.482 15.7718 128.16 21.4496C128.949 22.2382 129.737 23.0268 130.526 23.8154C130.999 24.4463 131.63 24.9194 132.103 25.5503C133.049 26.4966 133.838 27.6006 134.627 28.5469C137.623 32.3321 140.147 36.4328 142.355 40.6911C144.878 45.7381 146.929 51.1005 148.348 56.6206C149.294 62.2985 150.083 68.2917 150.083 74.6005Z" fill="url(#paint0_radial_4_1270)"/>
<path d="M94.5662 55.2015C94.5662 54.5706 96.6691 54.9386 97.7205 55.2015H102.452C104.345 55.2015 101.663 56.7785 100.086 57.567C99.2977 57.8298 97.4051 58.3556 96.1433 58.3556C94.5662 58.3556 94.5662 55.9901 94.5662 55.2015Z" fill="url(#paint1_linear_4_1270)"/>
<path fill-rule="evenodd" clip-rule="evenodd" d="M108.13 7.41258C107.814 7.41258 107.657 7.41259 107.341 7.57031C106.553 7.72803 105.764 7.5703 104.976 7.41258C104.345 7.25486 104.029 6.93942 103.241 6.93942C102.294 6.7817 101.506 6.46628 100.559 6.30856C99.6131 6.15084 98.8245 5.83541 97.8782 5.51997C97.0896 5.20454 96.7742 5.36226 96.1433 5.51997C95.5125 5.67769 95.0393 5.36226 94.4084 5.20454C93.7776 4.88911 92.989 4.8891 92.3581 4.73138C90.4655 4.41595 88.5729 3.78509 86.6803 3.31193C85.5762 2.9965 84.4722 2.99648 83.2105 2.99648C82.2642 2.99648 81.4756 3.31193 80.5293 3.31193C79.8984 3.31193 79.4253 3.15421 78.7944 3.15421C78.1635 2.99649 77.5326 3.15421 76.9018 3.15421C75.9555 2.99649 75.4823 2.83877 74.536 3.15421C73.7474 3.31192 73.2743 3.31192 72.4857 3.46964C71.6971 3.46964 70.7508 3.78508 69.9622 3.9428C68.5427 4.25823 66.9656 4.57366 65.5461 4.57366C64.5998 4.57366 63.338 4.25822 62.5495 4.57366C62.0763 4.73137 61.7609 5.36226 61.2877 5.6777C60.4991 6.46629 59.7105 7.09715 59.0797 7.88574C58.4488 8.67433 57.8179 9.62061 57.8179 10.7246C57.8179 11.6709 58.2911 12.775 58.7642 13.5636C59.2374 14.5099 59.3951 15.2985 58.4488 15.9294C57.3448 16.7179 55.9253 17.3488 54.6636 17.8219C53.7173 18.1374 52.9287 18.2951 52.2978 17.6643C51.9824 17.5065 51.8247 17.0334 51.5092 16.7179C51.1938 16.5602 50.7206 16.7179 50.4052 16.8757C49.4589 17.1911 48.5126 17.5065 47.5663 17.6643C46.9354 17.822 46.4623 18.1374 45.8314 18.1374C45.2005 18.2951 44.7274 17.8219 43.9388 17.9797C42.9925 18.1374 41.8884 18.6105 40.9421 18.6105C40.1535 18.6105 39.2072 18.2951 38.5764 17.9797C38.2609 17.8219 38.1032 17.5065 37.6301 17.6643C37.3146 17.6643 36.8415 18.1374 36.6838 18.4528C36.3683 18.7683 36.3683 19.2414 36.0529 19.5568C35.7374 20.03 35.5797 20.3455 35.2643 20.8186C34.7911 21.6072 34.318 22.3958 33.8448 23.1844C33.5294 23.6575 33.214 24.4461 32.7408 24.9192C32.5831 25.2347 32.1099 25.3924 31.7945 25.5501C31.0059 26.0233 30.2173 26.6542 29.4287 27.1273C28.0093 28.2313 26.5898 29.4931 25.1704 30.5971C24.0663 31.3857 22.4892 31.8588 21.2274 32.4897C20.4388 32.8051 19.6502 33.1206 18.8617 33.436C18.5462 33.5937 18.0731 33.5937 17.9153 33.9092C17.5999 34.2246 17.4422 34.5401 17.2845 35.0132C16.6536 35.8018 15.865 36.7481 15.3919 37.6944C15.0764 38.3252 14.9187 38.7984 14.6033 39.4293C14.2878 40.2179 13.8147 41.0065 13.657 41.9528C13.0261 43.6877 13.0261 45.5803 12.2375 47.3152C11.9221 48.2615 11.2912 49.2078 10.818 50.1541C10.0295 51.7312 9.87174 53.6239 9.71403 55.3588C9.55631 56.3051 9.71404 57.5668 9.87175 58.5131C10.0295 59.6172 10.0295 60.7212 10.0295 61.8252C10.0295 62.9292 9.24088 64.191 8.61001 64.9796C7.97914 65.7682 6.8751 66.0836 6.08651 66.8722C5.45564 67.503 4.66707 68.1339 4.35163 69.0802C4.19392 69.3956 4.35163 69.8688 4.35163 70.342C4.19392 71.2883 3.87848 72.0768 3.87848 73.0231C3.72076 74.1272 3.72075 75.2312 3.72075 76.4929C3.72075 77.1238 3.72075 77.597 3.72075 78.2278C3.72075 78.8587 3.87848 79.3319 4.0362 79.805C4.0362 80.1205 4.0362 80.5936 4.0362 80.909C4.0362 81.3822 4.35163 81.8554 4.35163 82.1708C4.66707 83.2748 4.82478 84.2211 4.98249 85.3251C5.14021 86.2714 5.61337 87.2177 5.77108 88.164C6.24424 89.4258 6.40196 90.6875 6.7174 92.107C6.87512 93.0533 6.87511 94.1573 7.03283 95.1036C7.19055 95.8922 7.34826 96.6808 7.34826 97.4694C7.34826 98.7311 7.03283 99.8352 7.03283 101.097C7.03283 103.147 7.82142 105.198 8.29458 107.248C8.45229 107.879 8.61002 108.352 8.76773 108.983C3.56305 98.8889 0.724121 87.3755 0.724121 75.2312C0.724121 60.4058 4.98249 46.6843 12.3952 35.1709C15.5496 30.2816 19.1771 25.7078 23.4355 21.7649C36.8415 8.67431 55.2944 0.630714 75.4823 0.630714C77.0595 0.630714 78.7944 0.630724 80.3716 0.788442C90.1501 0.630724 99.6131 3.1542 108.13 7.41258Z" fill="url(#paint2_linear_4_1270)"/>
<path d="M89.8349 62.2984C93.6201 62.9293 98.7722 64.6642 100.875 65.4528H105.606C107.184 65.4528 115.858 71.7615 117.435 75.7045C119.012 79.6474 123.744 75.7045 127.687 75.7045C131.63 75.7045 122.167 89.1105 119.012 92.2648C115.858 95.4192 121.378 101.728 122.167 103.305C122.955 104.882 119.801 107.248 119.012 113.557C118.224 119.865 115.858 128.54 114.281 134.06C113.019 138.476 106.921 142.209 104.029 143.523C102.978 144.049 100.244 144.154 97.7205 140.369C94.5659 135.637 92.989 127.751 92.2004 124.597C91.4118 121.443 98.5091 104.882 84.3145 103.305C70.1199 101.728 78.0061 115.134 59.8686 101.728C41.731 88.3219 62.2343 62.2984 63.8115 59.9327C65.3887 57.567 69.3316 59.9327 76.4289 57.5669C82.1068 55.6743 87.732 56.7783 89.8349 57.5669C88.2577 58.8812 86.0497 61.6676 89.8349 62.2984Z" fill="url(#paint3_linear_4_1270)"/>
<path d="M11.8388 106.49C12.3554 104.961 9.90152 99.9092 8.61 97.5742C9.68627 96.0882 12.3554 93.4984 14.4218 95.0268C17.0049 96.9373 24.754 92.4795 27.337 93.1163C29.9201 93.7531 35.7319 94.39 36.3777 96.3005C37.0234 98.211 37.0234 102.669 38.3149 104.579C39.3482 106.108 38.3149 110.311 37.6692 112.221C37.4539 112.858 36.636 114.259 35.0861 114.769C33.1489 115.406 37.6692 115.406 41.5437 116.679C45.4183 117.953 42.8353 124.321 44.1268 127.506C45.4183 130.69 52.5217 136.421 53.8132 137.695C55.1047 138.969 53.8132 140.879 52.5217 140.242C51.2301 139.605 37.0234 128.142 30.5658 126.869C25.3998 125.85 15.9286 115.83 11.8388 110.948C11.6235 110.099 11.3222 108.018 11.8388 106.49Z" fill="url(#paint4_linear_4_1270)"/>
<path d="M29.1136 44.161V41.0067V37.0637C29.1136 35.4866 27.5364 35.4865 25.9592 33.1208C24.3821 30.755 25.9592 31.5436 28.325 30.755C30.6908 29.9664 29.9022 32.3322 29.9022 33.1208C29.9022 33.9094 33.0565 35.4865 33.8451 35.4865C34.6337 35.4865 37.7881 35.4865 36.9995 37.0637C36.2109 38.6409 36.2109 39.4295 33.8451 42.5838C31.9525 45.1073 29.9022 44.6867 29.1136 44.161Z" fill="url(#paint5_linear_4_1270)"/>
<path d="M27.5358 38.6409C28.1666 38.01 25.17 35.7494 23.5928 34.6979C23.33 36.0122 22.4888 38.9563 21.2271 40.218C19.6499 41.7952 23.5928 41.7952 25.17 42.5838C26.7472 43.3724 26.7472 39.4294 27.5358 38.6409Z" fill="url(#paint6_linear_4_1270)"/>
<path d="M127.687 104.093C129.579 104.093 131.104 100.939 131.63 99.3619C132.285 97.7847 133.996 97.7847 134.784 98.5733C135.573 99.3619 134.784 108.036 132.418 111.979C130.053 115.922 127.687 115.134 126.11 115.134C124.533 115.134 126.11 111.979 127.687 110.402C129.264 108.825 125.321 104.093 127.687 104.093Z" fill="url(#paint7_linear_4_1270)"/>
<path fill-rule="evenodd" clip-rule="evenodd" d="M105.606 58.3548C105.606 60.8783 104.029 62.0349 103.24 62.2978L107.972 64.6642C107.709 63.8754 107.972 62.2978 111.127 62.2978C113.098 62.2978 114.872 65.4522 116.647 68.6067C118.421 71.7611 120.195 74.9155 122.167 74.9155C126.11 74.9155 135.573 69.3958 137.939 67.03C139.831 65.1374 137.15 62.0356 135.573 60.7213C135.047 62.2985 132.576 64.0332 126.898 58.3548C119.801 51.2568 122.167 49.6807 126.898 52.8347C130.683 55.3579 133.207 54.9377 133.996 54.4122C135.047 53.8864 138.254 53.4657 142.67 55.9894C147.086 58.5132 147.139 75.9673 146.613 84.379C148.19 78.0702 150.714 63.5601 148.19 55.9894C140.304 32.3314 130.841 23.6573 122.167 15.7714C115.227 9.46269 97.7205 3.15421 89.8346 0.788567C87.7316 1.84002 83.2103 4.73151 81.9487 7.88586C80.4666 11.5917 79.6808 11.8142 75.0086 13.1373C74.7097 13.222 74.3948 13.3111 74.0628 13.406C70.252 14.495 70.1995 14.4561 68.9758 13.5492C68.4269 13.1424 67.6424 12.561 66.1774 11.8285C62.665 10.0721 57.8482 12.2274 53.6637 14.0997C52.2116 14.7495 50.8358 15.3651 49.6169 15.7714C44.8857 17.3486 40.9425 22.0801 40.9425 23.6573C40.9425 24.216 40.5466 24.6757 40.1755 25.1066C39.4991 25.8921 38.9053 26.5818 40.9425 27.6002C43.0146 28.6362 44.7461 28.3112 46.5844 27.9662C47.5448 27.7859 48.5344 27.6002 49.6169 27.6002C52.7716 27.6002 51.1938 29.966 49.6169 31.5432C48.0401 33.1203 44.8851 33.9089 40.9425 34.6975C38.8349 35.1191 38.5298 36.4419 38.1001 38.3047C37.726 39.9267 37.2574 41.9581 35.4224 44.1602C33.1545 46.8817 32.3812 47.8639 32.2233 48.1033C30.9057 48.1103 28.819 48.4328 30.6905 49.6807L30.6947 49.6835C33.0591 51.2601 35.4205 52.8347 32.2677 52.8347C30.8888 52.8347 29.9621 53.8892 29.0922 54.8789C27.9719 56.1537 26.946 57.321 25.1704 55.9894C22.8046 54.2153 21.3262 56.4329 19.4041 59.316C18.7634 60.2771 18.0734 61.312 17.2848 62.2978C15.2633 64.8247 15.8328 66.3801 16.5027 68.2093C16.878 69.2342 17.2848 70.3452 17.2848 71.7612C17.2848 73.8023 18.1301 73.7302 19.3831 73.6233C20.5506 73.5238 22.072 73.3941 23.5935 74.9155C26.5104 77.8324 32.1244 74.0062 34.8239 72.1664C35.0437 72.0166 35.2442 71.8799 35.4224 71.7612C37.7881 70.184 41.731 58.3548 40.9425 55.9894C40.2738 53.9838 45.2746 50.8437 48.2535 48.9733C48.7878 48.6378 49.2571 48.3431 49.6169 48.1032C51.3219 46.9663 53.0269 48.2874 55.6174 50.2947C56.6214 51.0727 57.7584 51.9538 59.08 52.8347C61.981 54.7685 61.9176 54.924 61.616 55.6636C61.4258 56.1303 61.1407 56.8295 61.4458 58.3548C61.8401 60.3262 62.2344 59.5376 62.9244 58.1577C63.6145 56.7778 64.6002 54.8065 66.1774 54.4122C69.3317 53.6236 67.7546 50.4693 63.023 49.6807C58.2915 48.8921 53.56 44.1602 55.9257 44.1602H66.1774C70.1203 44.1602 72.4857 46.5263 70.9086 48.1032C69.3314 49.68 77.2172 52.8347 79.583 52.8347C81.3105 52.8347 80.0947 50.312 78.6989 47.4156C78.1831 46.3454 77.6428 45.2241 77.2172 44.1602C76.1175 41.4111 78.8515 42.4955 81.1423 43.4042C82.1371 43.7988 83.0482 44.1602 83.5257 44.1602C85.1026 44.1602 85.8914 45.7374 83.5257 48.1032C81.1599 50.4689 89.8344 52.8347 92.2001 52.8347H101.663C105.606 52.8347 105.606 55.2005 105.606 58.3548ZM87.4688 43.372C89.3089 43.6349 93.3044 44.0029 94.5661 43.372C95.8279 42.7411 99.8234 44.6863 101.663 45.7378C102.715 46.0006 104.66 46.211 104.029 44.9492C103.241 43.372 98.5091 37.8519 95.3547 38.6405C92.2003 39.4291 86.6802 42.583 87.4688 43.372Z" fill="url(#paint8_linear_4_1270)"/>
<defs>
<radialGradient id="paint0_radial_4_1270" cx="0" cy="0" r="1" gradientUnits="userSpaceOnUse" gradientTransform="translate(29.1177 39.5715) scale(120.026)">
<stop offset="0.00558659" stop-color="#0CB9C4"/>
<stop offset="0.2058" stop-color="#0C96C1"/>
<stop offset="0.3613" stop-color="#0B79B7"/>
<stop offset="0.5018" stop-color="#096EA7"/>
<stop offset="0.6334" stop-color="#075E8F"/>
<stop offset="0.7576" stop-color="#044A72"/>
<stop offset="0.8715" stop-color="#003C74"/>
</radialGradient>
<linearGradient id="paint1_linear_4_1270" x1="98.8346" y1="54.8531" x2="98.8346" y2="58.3556" gradientUnits="userSpaceOnUse">
<stop stop-color="#43991F"/>
<stop offset="1" stop-color="#4BFF00" stop-opacity="0"/>
</linearGradient>
<linearGradient id="paint2_linear_4_1270" x1="0.672074" y1="54.0212" x2="108.156" y2="54.0212" gradientUnits="userSpaceOnUse">
<stop stop-color="#2CB3FF"/>
<stop offset="0.0885417" stop-color="#2CA6FF"/>
<stop offset="0.2325" stop-color="#2DCAFC"/>
<stop offset="0.3947" stop-color="#32AEF3"/>
<stop offset="0.5382" stop-color="#3A7EE3"/>
<stop offset="0.6707" stop-color="#446ACD"/>
<stop offset="0.7958" stop-color="#4268B1"/>
<stop offset="0.9136" stop-color="#1F598E"/>
<stop offset="1" stop-color="#005D72"/>
</linearGradient>
<linearGradient id="paint3_linear_4_1270" x1="90.5277" y1="56.5219" x2="90.5277" y2="143.79" gradientUnits="userSpaceOnUse">
<stop stop-color="#43991F"/>
<stop offset="1" stop-color="#4BFF00" stop-opacity="0"/>
</linearGradient>
<linearGradient id="paint4_linear_4_1270" x1="31.4791" y1="93.0534" x2="31.4791" y2="140.369" gradientUnits="userSpaceOnUse">
<stop stop-color="#43991F"/>
<stop offset="1" stop-color="#4BFF00" stop-opacity="0"/>
</linearGradient>
<linearGradient id="paint5_linear_4_1270" x1="31.2247" y1="30.5963" x2="31.2247" y2="44.5598" gradientUnits="userSpaceOnUse">
<stop stop-color="#43991F"/>
<stop offset="1" stop-color="#4BFF00" stop-opacity="0"/>
</linearGradient>
<linearGradient id="paint6_linear_4_1270" x1="24.2417" y1="34.6979" x2="24.2417" y2="42.6875" gradientUnits="userSpaceOnUse">
<stop stop-color="#43991F"/>
<stop offset="1" stop-color="#4BFF00" stop-opacity="0"/>
</linearGradient>
<linearGradient id="paint7_linear_4_1270" x1="130.268" y1="98.0553" x2="130.268" y2="115.198" gradientUnits="userSpaceOnUse">
<stop stop-color="#43991F"/>
<stop offset="1" stop-color="#4BFF00" stop-opacity="0"/>
</linearGradient>
<linearGradient id="paint8_linear_4_1270" x1="82.5718" y1="0.788567" x2="82.5718" y2="84.379" gradientUnits="userSpaceOnUse">
<stop stop-color="#43991F"/>
<stop offset="1" stop-color="#4BFF00" stop-opacity="0"/>
</linearGradient>
</defs>
</svg>
