<svg width="161" height="161" viewBox="0 0 161 161" fill="none" xmlns="http://www.w3.org/2000/svg">
<path opacity="0.92" fill-rule="evenodd" clip-rule="evenodd" d="M160.724 80.1206C160.724 103.305 150.946 124.124 135.174 138.792C127.603 145.731 118.771 151.409 108.993 155.036C100.161 158.349 90.5397 160.241 80.6035 160.241C76.976 160.241 73.5062 159.926 70.0364 159.61C66.8821 159.137 63.7277 158.664 60.7311 157.875C53.4761 155.983 46.6942 153.144 40.3855 149.516C36.4426 147.151 32.6573 144.627 29.0298 141.63C20.6708 134.691 13.8889 126.016 8.99967 116.396C5.84531 110.245 3.63726 103.778 2.06009 96.8387C0.956064 91.4763 0.325195 85.9561 0.325195 80.2783C0.325195 64.5065 4.89901 49.6811 12.7849 37.2214C16.097 32.0167 20.0399 27.1274 24.6137 22.7113C39.1238 8.67447 58.8385 0 80.4458 0C82.1807 0 83.9156 -1.44418e-05 85.6505 0.157703C94.7981 0.788574 103.473 2.83891 111.516 6.15098C112.936 6.78185 114.355 7.41272 115.617 8.04359C121.452 10.8825 126.815 14.3523 131.704 18.6107C133.439 20.0301 135.016 21.4496 136.436 22.8691C137.066 23.3422 137.54 23.9731 138.013 24.604C152.207 38.9563 160.724 58.5132 160.724 80.1206Z" fill="url(#paint0_radial_4_1282)"/>
<path fill-rule="evenodd" clip-rule="evenodd" d="M155.204 80.1204C155.204 101.728 146.056 121.127 131.389 134.849C124.449 141.315 116.09 146.52 107.1 149.989C98.8988 153.144 89.9088 154.879 80.6035 154.879C77.2914 154.879 73.9793 154.721 70.825 154.248C67.8284 153.932 64.9894 153.301 62.1505 152.513C55.3687 150.778 49.06 148.097 43.2244 144.785C39.4392 142.577 35.9694 140.211 32.6573 137.372C24.9291 130.906 18.4627 122.862 13.8889 113.872C11.05 108.194 8.84194 102.043 7.42248 95.5768C6.31846 90.5298 5.84531 85.4828 5.84531 80.1204C5.84531 65.295 10.1037 51.5735 17.5164 40.0602C20.6708 35.1709 24.2983 30.5971 28.5567 26.4964C41.9627 13.4058 60.4156 5.36225 80.6035 5.36225C82.1807 5.36225 83.9156 5.36226 85.4927 5.51998C94.0095 6.15085 102.053 8.04345 109.466 11.1978C110.728 11.671 111.989 12.3018 113.251 12.9327C118.613 15.6139 123.66 18.926 128.392 22.7112C129.969 23.9729 131.389 25.3924 132.808 26.8119C133.281 27.285 133.912 27.7582 134.385 28.389C147.318 41.7951 155.204 60.0903 155.204 80.1204Z" fill="url(#paint1_radial_4_1282)"/>
<path opacity="0.4" fill-rule="evenodd" clip-rule="evenodd" d="M155.204 80.1204C155.204 101.728 146.057 121.127 131.389 134.849C124.449 141.315 116.09 146.52 107.1 149.989C98.899 153.144 89.9091 154.879 80.6037 154.879C77.2917 154.879 73.9796 154.721 70.8252 154.248C60.889 152.986 51.5837 149.674 43.2246 144.785C45.7481 144.154 48.1139 143.365 50.6374 142.734C56.6306 141.157 62.3085 139.422 68.3017 138.791C70.6675 138.476 74.6105 137.53 74.6105 134.533C74.6105 133.744 74.4527 133.429 74.9259 132.956C75.5568 132.483 76.1876 132.64 76.8185 132.483C78.5534 132.167 79.9729 130.275 81.0769 129.013C82.8118 126.963 84.8621 124.912 86.9124 123.177C90.8554 119.708 96.2178 117.973 98.7413 112.926C99.3721 111.506 99.5299 110.087 99.8453 108.667C100.161 106.932 101.422 105.828 103 105.04C104.735 103.936 106.785 103.62 108.362 102.201C109.939 100.939 110.57 98.8889 111.201 96.9963C112.147 93.9996 111.99 90.8453 112.463 87.6909C112.62 86.1138 113.094 84.5366 113.251 82.9594C113.251 81.3822 112.778 80.2782 112.147 78.8587C111.359 76.493 110.097 73.9695 109.151 71.6037C108.835 70.6574 108.204 70.0265 107.416 69.3957C106.312 68.4494 105.523 67.3453 104.419 66.399C103.631 65.7682 102.684 65.295 102.053 64.6641C101.422 64.191 100.949 63.4024 100.476 62.7715C99.5299 61.8252 98.5835 60.7212 97.3218 59.9326C94.3252 58.3554 92.5903 55.3588 89.1205 54.7279C84.8621 53.9393 81.3923 49.5232 76.9762 51.1004C74.1373 52.0467 71.2984 53.1507 68.144 53.9393C66.2514 54.4125 64.0434 54.4125 62.1508 55.0433C61.0467 55.5165 59.785 56.4628 58.9964 57.4091C57.7347 58.8286 57.2615 60.7212 56.1575 62.1406C55.3689 63.2447 54.8957 64.3487 54.1072 65.6105C52.8454 67.9762 52.8454 70.342 52.8454 73.0232C52.8454 74.4426 52.6877 76.0198 52.8454 77.4393C53.0031 79.1742 53.7917 80.4359 54.8957 81.8554C55.5266 82.6439 55.9998 84.0634 56.7884 84.6943C57.2615 85.0097 57.5769 84.852 58.0501 85.1674C58.8387 85.4829 59.1541 85.7983 59.785 86.2714C61.6776 87.6909 63.7279 89.1104 66.0937 89.5835C67.3554 89.8989 68.4595 90.0567 69.5635 90.5298C70.5098 91.003 71.6138 91.1607 72.7178 91.3184C75.2413 91.6339 77.4494 90.6876 79.342 89.1104C80.6037 88.1641 81.3923 87.3755 82.3386 86.1138C82.8118 85.4829 83.1272 85.0097 83.9158 84.5366C84.389 84.2211 84.8621 83.9057 85.493 84.0634C85.9661 84.0634 86.4393 84.6943 87.0702 84.3788C87.5433 84.0634 87.8587 82.6439 88.0165 82.3285C88.3319 81.5399 88.4896 80.5936 88.805 79.9627C89.4359 78.701 90.3822 79.0165 91.644 79.0165C92.4326 79.0165 93.5366 78.8587 94.1674 78.2279C94.6406 77.4393 94.4829 76.0198 94.1674 75.2312C93.5366 74.1272 92.1171 73.1809 91.3285 72.3923C90.6977 71.7614 90.2245 70.9728 89.5936 70.1843C88.6473 68.7648 88.1742 65.9259 86.1239 65.6105C85.3353 65.4527 84.2312 65.6105 83.4426 65.6105C82.4963 65.6105 81.8655 65.4527 80.9192 65.1373C79.4997 64.8218 78.238 64.3487 76.6608 64.3487C74.7682 64.3487 73.191 64.8219 71.4561 65.6105C70.6675 65.9259 70.1944 65.7681 69.4058 65.9259C68.6172 66.2413 67.3554 67.8185 67.1977 68.7648C66.8823 70.4997 67.5132 72.0768 69.2481 72.8654C69.7212 73.0231 70.9829 73.1809 71.4561 73.654C71.9293 74.2849 71.6138 75.0735 71.2984 75.7044C70.6675 77.4393 70.9829 79.4896 73.0333 79.805C74.4527 79.9628 75.8722 79.1741 76.9762 78.5433C77.9225 78.0701 79.6574 77.9124 79.6574 76.6507C79.4997 77.2816 78.5534 76.9661 78.0802 76.9661C76.9762 76.9661 76.3453 76.9661 75.5568 76.3352C74.7682 75.7044 74.6105 75.0735 74.295 74.2849C74.1373 73.9695 73.9796 73.3386 73.6642 73.0232C73.5064 72.7077 72.8756 72.3923 72.8756 72.0768C72.2447 70.6574 76.9762 69.8688 77.7648 69.7111C79.6574 69.5534 81.0769 70.8151 82.1809 72.2346C82.6541 72.8654 83.6004 73.8117 83.6004 74.6003C83.6004 75.3889 82.9695 76.6507 82.6541 77.4393C82.3386 78.2279 82.1809 78.8587 81.8655 79.6473C81.55 80.5936 81.0769 80.7513 80.2883 81.2245C79.4997 81.6976 78.8688 82.3285 78.238 82.9594C77.4494 83.5903 76.5031 83.7479 75.5568 83.9057C74.1373 84.2211 72.8756 83.4325 71.4561 83.5903C70.1944 83.5903 69.2481 84.3788 68.144 84.3788C65.6205 84.5366 63.5702 84.2211 62.6239 81.5399C62.3085 80.4359 62.6239 79.9627 63.2548 79.1741C64.0434 78.3855 63.7279 77.7547 63.4125 76.8084C62.9393 75.7043 62.4662 74.758 62.3085 73.654C62.1508 72.55 62.7816 71.2883 62.9393 70.0265C63.0971 69.0802 62.6239 67.6608 62.9393 66.8722C63.2548 66.0836 64.832 65.295 65.6205 64.6641C66.5669 64.0333 67.6709 63.7178 68.7749 63.087C70.0366 62.4561 70.9829 62.6138 72.2447 62.4561C73.3487 62.2984 73.8219 61.5098 74.7682 61.0366C75.8722 60.5634 77.2917 60.8789 78.3957 60.8789C79.6574 60.8789 80.2883 61.352 81.3923 61.8252C82.4963 62.2983 83.2849 63.087 84.5467 63.2447C85.9661 63.4024 87.3856 63.087 88.805 63.2447C90.2245 63.4024 90.6977 64.0333 91.8017 64.8219C92.9057 65.6105 93.6943 66.0836 94.6406 67.3453C95.1138 67.9762 95.2715 68.6071 95.7446 69.0802C96.2178 69.7111 96.5332 70.0265 96.8486 70.8151C97.1641 71.7614 97.795 72.7077 98.1104 73.8117C98.2681 74.4426 98.4258 74.9158 98.4258 75.5466C98.2681 76.3352 97.9527 77.1238 97.9527 77.9124C97.9527 79.805 97.1641 81.2245 96.3755 82.9594C95.5869 84.6943 94.7983 86.4292 94.0097 88.1641C93.5366 89.2681 93.3789 91.6338 91.8017 91.9493C91.0131 92.107 90.2245 91.9493 89.4359 92.4225C88.6473 92.8956 88.4896 93.8419 87.8587 94.315C87.2279 94.9459 86.4393 94.6305 85.6507 94.6305C84.389 94.6305 83.2849 94.7882 82.1809 95.2614C80.7614 95.8922 79.8151 97.154 78.5534 97.9426C77.4494 98.4157 76.1876 99.0466 74.9259 99.2043C73.9796 99.362 73.191 99.2043 72.2447 99.5198C70.1944 100.151 68.6172 101.412 66.5669 102.201C64.9897 102.674 63.0971 103.147 61.5199 102.99C60.889 102.99 60.2581 102.674 59.6273 102.516C58.681 102.201 57.5769 102.201 56.4729 101.886C55.6843 101.728 54.8957 101.412 54.1072 101.097C53.3186 100.781 52.8454 100.151 52.0568 99.8352C50.3219 99.0466 48.587 99.0466 47.0099 97.7849C44.9595 96.2077 43.2246 94.3151 41.0166 92.8956C40.0703 92.2647 39.5971 91.4761 38.9663 90.6876C38.4931 89.899 37.8622 89.4258 37.2314 88.7949C36.2851 87.8486 35.8119 86.5869 35.3387 85.4828C34.5502 83.5902 33.6038 81.6976 32.8153 79.6473C31.869 76.8084 30.6072 74.1272 29.9763 71.1306C29.5032 68.6071 30.1341 66.399 30.1341 64.0333C30.1341 63.4024 30.2918 62.7715 30.1341 62.1406C29.9763 61.1943 29.1878 60.5635 28.5569 59.9326C26.6643 57.7246 24.9294 55.5165 23.8254 52.6776C22.7213 49.8387 22.2482 46.3689 23.0368 43.3722C23.8254 40.691 25.5602 39.2716 27.7683 37.5367C29.8186 35.9595 32.3421 34.6978 34.7079 33.5937C35.8119 32.9629 36.7582 32.332 37.8622 31.8588C38.9663 31.3857 40.3857 31.228 41.6474 30.9126C42.7515 30.5971 43.5401 30.5971 44.4864 29.8085C45.4327 29.1776 46.5367 28.3891 47.3253 27.6005C48.4293 26.6542 49.2179 25.5501 50.7951 25.2347C52.6877 24.7616 54.8957 24.1307 56.7884 23.6575C59.3118 23.1844 62.3085 23.8152 64.832 24.1307C67.3554 24.4461 69.7212 24.4461 72.2447 24.4461C74.295 24.4461 76.3454 24.1307 78.3957 23.9729C79.1843 23.9729 79.9729 24.1307 80.7614 23.9729C82.0232 23.9729 83.1272 23.3421 84.389 23.0267C86.7547 22.3958 88.805 21.2918 91.1708 20.5032C92.9057 19.8723 94.6406 20.03 96.3755 19.7146C98.2681 19.3992 100.161 18.7683 102.211 18.6105C103.946 18.6105 105.681 17.9797 107.258 18.7683C110.097 20.5032 111.832 23.4998 114.671 25.2347C117.667 26.9696 120.979 28.2313 124.134 29.4931C125.238 29.9662 126.5 29.3354 127.446 29.8085C127.919 29.9662 128.55 30.7548 128.865 31.228C129.339 30.9125 129.181 30.2817 129.181 29.8085C129.181 29.0199 129.654 28.3891 129.654 27.6005C129.654 26.6542 129.812 25.5502 129.654 24.6038C129.496 24.1307 128.865 23.0267 128.865 22.2381C130.443 23.4998 131.862 24.9192 133.281 26.3387C146.687 40.3756 155.204 59.3017 155.204 80.1204Z" fill="url(#paint2_radial_4_1282)"/>
<path opacity="0.3" fill-rule="evenodd" clip-rule="evenodd" d="M30.7647 102.832C30.2916 104.409 30.1338 106.144 29.9761 107.879C30.4493 107.721 31.0801 108.825 31.5533 108.983C32.4996 109.298 33.2882 109.298 34.0768 109.772C34.8654 110.245 35.654 111.349 36.4425 111.506C36.9157 111.664 37.7043 111.506 38.3352 111.506C39.5969 111.506 40.7009 111.506 41.8049 111.822C43.0667 112.137 44.6439 112.453 45.9056 112.295C46.6942 112.137 48.1136 111.822 48.7445 111.191C49.3754 110.56 49.6908 108.983 49.8485 108.037C50.0063 105.355 47.9559 102.674 45.9056 101.097C44.8016 100.309 43.6976 100.308 42.4358 99.6776C41.0164 98.889 39.7546 98.5736 38.1774 98.1005C37.2311 97.785 35.9694 97.4696 35.0231 97.4696C34.0768 97.4696 32.9727 98.1005 32.1842 98.2582C31.2379 98.5736 30.4493 98.5736 29.8184 99.3622C29.1875 100.466 29.503 101.728 30.7647 102.832Z" fill="url(#paint3_linear_4_1282)"/>
<path opacity="0.3" fill-rule="evenodd" clip-rule="evenodd" d="M51.8989 112.295C51.4257 112.926 47.0096 116.711 49.2177 118.288C49.3754 118.446 50.3217 118.604 50.4794 118.604C51.1103 118.761 51.268 118.604 51.8989 118.288C53.0029 117.657 53.1606 116.553 52.8452 115.292C52.8452 114.976 52.5297 114.345 52.372 114.03C52.2143 113.557 51.7412 113.557 51.5834 112.926L51.8989 112.295Z" fill="url(#paint4_linear_4_1282)"/>
<path opacity="0.3" fill-rule="evenodd" clip-rule="evenodd" d="M77.2915 15.4563C78.0801 14.9832 80.6036 13.5637 82.023 13.406C82.4962 13.406 83.1271 13.5637 83.6002 13.5637C84.7042 13.5637 85.6505 13.406 86.4391 14.1946C87.07 14.8255 87.3854 15.4563 86.9123 16.2449C86.2814 17.349 84.7042 18.1375 83.6002 18.6107C81.2345 20.0302 78.0801 21.2919 75.2412 20.9765C73.0331 20.8187 70.9828 19.0839 68.9325 17.9798C67.513 17.1912 64.8318 15.7718 66.5667 14.0369C67.9862 12.6174 70.1942 11.8288 72.2445 11.6711C73.1908 11.6711 75.3989 11.3557 76.0298 11.8289C76.8184 12.4597 76.0298 14.9832 77.6069 14.8255L77.2915 15.4563Z" fill="url(#paint5_linear_4_1282)"/>
<path fill-rule="evenodd" clip-rule="evenodd" d="M4.74153 64.9796C5.84556 80.2783 41.4898 55.5166 76.0299 44.6341C116.563 31.7012 147.318 59.9327 151.734 58.3555C158.832 55.9898 129.969 0.157682 83.7581 0.946271C31.7113 1.57714 2.84892 40.3757 4.74153 64.9796Z" fill="url(#paint6_linear_4_1282)"/>
<path opacity="0.5" fill-rule="evenodd" clip-rule="evenodd" d="M1.11377 91.3187L3.63725 102.99C3.63725 102.99 17.5164 111.191 49.8485 108.195C82.1807 105.198 89.7511 89.4261 102.369 80.2785C114.986 71.1308 139.432 63.8758 145.741 56.6208C152.05 49.5235 146.687 35.1712 146.687 35.1712L144.164 31.7014C144.164 31.7014 148.738 44.0034 143.217 52.9933C137.855 61.9832 113.724 66.2416 100.634 77.755C87.5431 89.2684 60.8888 98.1006 38.0197 98.2583C15.6238 98.416 1.11377 91.3187 1.11377 91.3187Z" fill="#BDFFE8" fill-opacity="0.5"/>
<path opacity="0.5" fill-rule="evenodd" clip-rule="evenodd" d="M11.8391 121.6L16.886 129.013C16.886 129.013 40.0705 135.795 74.9261 129.013C109.782 122.231 136.121 102.516 148.265 91.3184C160.567 80.1205 158.99 64.5064 158.99 64.5064L157.886 59.7749C157.886 59.7749 155.678 76.0198 142.114 91.3184C128.55 106.617 105.839 120.496 73.1912 126.174C40.7014 132.01 11.8391 121.6 11.8391 121.6Z" fill="#BDFFE8" fill-opacity="0.5"/>
<path opacity="0.5" fill-rule="evenodd" clip-rule="evenodd" d="M5.84531 51.1005C5.84531 51.1005 51.4257 66.7145 86.5968 59.7749C121.768 52.9931 131.231 30.2817 131.862 18.6106L125.395 13.7214C125.395 13.7214 125.553 37.0636 103.315 51.2582C81.0767 65.2951 23.9828 56.936 8.68422 44.7918L5.84531 51.1005Z" fill="#BDFFE8" fill-opacity="0.5"/>
<path fill-rule="evenodd" clip-rule="evenodd" d="M10.7348 78.5433C11.208 81.3822 17.5167 77.4393 22.4059 67.9762C27.1375 58.5132 28.0838 38.7985 25.5603 37.2213C23.1945 35.3287 7.26505 59.144 10.7348 78.5433Z" fill="white"/>
<path fill-rule="evenodd" clip-rule="evenodd" d="M11.2079 82.644C7.89588 83.2749 8.05359 89.7413 10.1039 92.4225C12.1543 95.1037 14.8355 93.842 14.9932 88.1641C15.1509 84.8521 13.8892 82.1709 11.2079 82.644Z" fill="white"/>
<path fill-rule="evenodd" clip-rule="evenodd" d="M105.838 7.72802C105.838 7.72802 108.993 8.5166 109.939 12.775C109.939 12.9327 106.784 11.9864 105.838 7.72802Z" fill="white"/>
<path fill-rule="evenodd" clip-rule="evenodd" d="M47.6405 9.14779C47.6405 9.14779 50.0063 6.30889 54.7378 5.04715C58.523 4.10084 60.7311 4.25855 61.5197 4.10083C61.5197 4.10083 53.4761 9.62094 47.6405 9.14779Z" fill="white"/>
<defs>
<radialGradient id="paint0_radial_4_1282" cx="0" cy="0" r="1" gradientUnits="userSpaceOnUse" gradientTransform="translate(80.5305 80.143) scale(80.1829)">
<stop stop-color="#004858"/>
<stop offset="1" stop-color="#008BAB"/>
</radialGradient>
<radialGradient id="paint1_radial_4_1282" cx="0" cy="0" r="1" gradientUnits="userSpaceOnUse" gradientTransform="translate(59.3559 58.9456) scale(109.603)">
<stop offset="0.00558659" stop-color="#00CEC0"/>
<stop offset="0.2576" stop-color="#00CCC0"/>
<stop offset="0.3833" stop-color="#00C4C1"/>
<stop offset="0.4811" stop-color="#00B7C2"/>
<stop offset="0.5645" stop-color="#00A4C4"/>
<stop offset="0.6387" stop-color="#008CC6"/>
<stop offset="0.7054" stop-color="#006EC8"/>
<stop offset="0.7179" stop-color="#0068C9"/>
<stop offset="0.7438" stop-color="#0767CB"/>
<stop offset="0.7813" stop-color="#1A66CF"/>
<stop offset="0.8259" stop-color="#3A63D6"/>
<stop offset="0.8759" stop-color="#6660E0"/>
<stop offset="0.9304" stop-color="#9E5BEC"/>
<stop offset="0.9879" stop-color="#E255FC"/>
<stop offset="1" stop-color="#F154FF"/>
</radialGradient>
<radialGradient id="paint2_radial_4_1282" cx="0" cy="0" r="1" gradientUnits="userSpaceOnUse" gradientTransform="translate(88.8462 86.8238) scale(67.2256)">
<stop stop-color="#1372B3"/>
<stop offset="1" stop-color="white"/>
</radialGradient>
<linearGradient id="paint3_linear_4_1282" x1="29.5454" y1="104.96" x2="49.8724" y2="104.96" gradientUnits="userSpaceOnUse">
<stop stop-color="#B8C2FF"/>
<stop offset="1" stop-color="#7D72B3"/>
</linearGradient>
<linearGradient id="paint4_linear_4_1282" x1="48.5286" y1="115.502" x2="52.7165" y2="115.502" gradientUnits="userSpaceOnUse">
<stop stop-color="#B8C2FF"/>
<stop offset="1" stop-color="#7D72B3"/>
</linearGradient>
<linearGradient id="paint5_linear_4_1282" x1="66.1335" y1="16.4623" x2="87.1826" y2="16.4623" gradientUnits="userSpaceOnUse">
<stop stop-color="#B8C2FF"/>
<stop offset="1" stop-color="#7D72B3"/>
</linearGradient>
<linearGradient id="paint6_linear_4_1282" x1="34.5506" y1="12.6624" x2="113.093" y2="113.399" gradientUnits="userSpaceOnUse">
<stop offset="0.0167598" stop-color="#B1FDF9"/>
<stop offset="1" stop-color="#37C7D1" stop-opacity="0"/>
</linearGradient>
</defs>
</svg>
