<svg width="160" height="183" viewBox="0 0 160 183" fill="none" xmlns="http://www.w3.org/2000/svg">
<path fill-rule="evenodd" clip-rule="evenodd" d="M11.5146 61.0199C11.5146 61.0199 12.4609 53.134 13.0918 48.8756C13.0918 48.8756 18.4542 41.3051 26.9709 35.1542L38.3266 35.785C38.3266 35.785 15.2998 54.238 11.5146 61.0199Z" fill="url(#paint0_linear_4_1297)"/>
<path fill-rule="evenodd" clip-rule="evenodd" d="M26.9716 35.1542C26.9716 35.1542 26.9716 41.4629 21.136 46.5098C15.3005 51.5568 12.777 49.8219 12.777 49.8219L11.3575 59.9158L38.1695 35.785L26.9716 35.1542Z" fill="url(#paint1_linear_4_1297)"/>
<path fill-rule="evenodd" clip-rule="evenodd" d="M149.359 101.238C149.359 108.335 148.412 115.432 146.52 121.899C142.735 135.147 135.322 146.818 125.543 155.966C118.604 162.432 110.245 167.637 101.097 171.107C92.8957 174.261 83.9058 175.996 74.6005 175.996C73.3387 175.996 71.9193 175.996 70.6575 175.838C68.7649 175.68 66.7146 175.523 64.8219 175.365C50.4696 173.472 37.2214 167.479 26.6543 158.489C22.7113 155.177 19.0838 151.392 15.7718 147.291C13.406 144.137 11.1979 140.983 9.30534 137.513C8.83218 136.724 8.35904 135.778 7.88589 134.989C7.88589 134.989 7.88589 134.989 7.88589 134.832C7.41273 133.885 6.93955 133.097 6.62411 132.15C5.36237 129.311 4.25834 126.315 3.31203 123.318C2.68116 121.11 2.05033 118.902 1.57718 116.694C1.26174 115.117 0.946306 113.54 0.788589 111.805C0.315435 108.335 0 104.865 0 101.238C0 99.1873 -2.88837e-05 97.137 0.315407 95.0867C0.473124 93.8249 0.630871 92.5632 0.788589 91.3014C1.73489 83.8887 3.78521 76.9491 6.78184 70.4827C8.2013 67.3283 9.93622 64.174 11.8288 61.3351C14.9832 56.4458 18.6107 51.872 22.8691 47.7714C36.2751 34.6808 54.728 26.6372 74.9159 26.6372C75.7045 26.6372 76.4931 26.6372 77.2817 26.6372C78.0703 26.6372 79.0165 26.6372 79.8051 26.7949C84.0635 27.1103 88.3219 27.7412 92.4225 28.6875C94.7883 29.3184 97.1541 29.9492 99.3622 30.7378C100.939 31.211 102.359 31.8419 103.936 32.4727C105.04 32.9459 106.144 33.419 107.248 33.8922C107.406 34.0499 107.563 34.0499 107.879 34.2076C115.134 37.6774 121.758 42.4089 127.436 48.0868C128.224 48.8754 129.013 49.664 129.802 50.6103C130.275 51.2411 130.906 51.7143 131.379 52.3452C132.325 53.2915 133.114 54.3955 133.902 55.3418C136.899 59.127 139.422 63.2277 141.63 67.4861C144.154 72.533 146.204 77.8954 147.624 83.4156C148.57 88.9357 149.359 94.9289 149.359 101.238Z" fill="url(#paint2_radial_4_1297)"/>
<path fill-rule="evenodd" clip-rule="evenodd" d="M107.406 34.0501C107.09 34.0501 106.933 34.0501 106.617 34.2079C105.829 34.3656 105.04 34.2079 104.251 34.0501C103.62 33.8924 103.305 33.577 102.517 33.577C101.57 33.4193 100.782 33.1038 99.8353 32.9461C98.889 32.7884 98.1004 32.473 97.1541 32.1575C96.3655 31.8421 96.0501 31.9998 95.4192 32.1575C94.7883 32.3153 94.3152 31.9998 93.6843 31.8421C93.0534 31.5267 92.2648 31.5267 91.634 31.3689C89.7413 31.0535 87.8488 30.4226 85.9562 29.9495C84.8521 29.634 83.7481 29.634 82.4863 29.634C81.54 29.634 80.7514 29.9495 79.8051 29.9495C79.1743 29.9495 78.7011 29.7918 78.0703 29.7918C77.4394 29.634 76.8085 29.7918 76.1776 29.7918C75.2313 29.634 74.7582 29.4763 73.8119 29.7918C73.0233 29.9495 72.5501 29.9495 71.7616 30.1072C70.973 30.1072 70.0267 30.4226 69.2381 30.5804C67.8186 30.8958 66.2414 31.2112 64.8219 31.2112C63.8756 31.2112 62.6139 30.8958 61.8253 31.2112C61.3522 31.3689 61.0367 31.9998 60.5636 32.3152C59.775 33.1038 58.9864 33.7347 58.3556 34.5233C57.7247 35.3119 57.0938 36.2582 57.0938 37.3622C57.0938 38.3085 57.5669 39.4125 58.0401 40.2011C58.5133 41.1474 58.671 41.936 57.7246 42.5669C56.6206 43.3555 55.2012 43.9864 53.9394 44.4595C52.9931 44.7749 52.2045 44.9327 51.5737 44.3018C51.2582 44.1441 51.1005 43.6709 50.7851 43.3555C50.4696 43.1978 49.9965 43.3555 49.6811 43.5132C48.7348 43.8286 47.7884 44.1441 46.8421 44.3018C46.2113 44.4595 45.7381 44.7749 45.1072 44.7749C44.4764 44.9327 44.0032 44.4595 43.2146 44.6172C42.2683 44.7749 41.1643 45.2481 40.218 45.2481C39.4294 45.2481 38.4831 44.9327 37.8523 44.6172C37.5368 44.4595 37.3791 44.1441 36.9059 44.3018C36.5905 44.3018 36.1173 44.7749 35.9596 45.0904C35.6442 45.4058 35.6442 45.879 35.3288 46.1944C35.0133 46.6676 34.8556 46.983 34.5402 47.4561C34.067 48.2447 33.5939 49.0333 33.1207 49.8219C32.8053 50.2951 32.4898 51.0837 32.0167 51.5568C31.859 51.8722 31.3858 52.03 31.0704 52.1877C30.2818 52.6608 29.4932 53.2917 28.7046 53.7649C27.2851 54.8689 25.8657 56.1306 24.4462 57.2346C23.3422 58.0232 21.765 58.4964 20.5033 59.1273C19.7147 59.4427 18.9261 59.7581 18.1375 60.0736C17.8221 60.2313 17.3489 60.2313 17.1912 60.5467C16.8758 60.8622 16.7181 61.1776 16.5604 61.6507C15.9295 62.4393 15.1409 63.3856 14.6677 64.3319C14.3523 64.9628 14.1946 65.436 13.8791 66.0668C13.5637 66.8554 13.0905 67.644 12.9328 68.5903C12.302 70.3252 12.302 72.2178 11.5134 73.9527C11.1979 74.899 10.5671 75.8453 10.0939 76.7916C9.30534 78.3688 9.1476 80.2614 8.98988 81.9963C8.83216 82.9426 8.98989 84.2044 9.14761 85.1507C9.30533 86.2547 9.30534 87.3587 9.30534 88.4627C9.30534 89.5668 8.51676 90.8285 7.88589 91.6171C7.25501 92.4057 6.15098 92.7211 5.36239 93.5097C4.73152 94.1406 3.94292 94.7715 3.62749 95.7178C3.46977 96.0332 3.62749 96.5064 3.62749 96.9795C3.46977 97.9258 3.15435 98.7144 3.15435 99.6607C2.99664 100.765 2.99663 101.869 2.99663 103.131C2.99663 103.761 2.99663 104.235 2.99663 104.865C2.99663 105.496 3.15432 105.969 3.31203 106.443C3.31203 106.758 3.31203 107.231 3.31203 107.547C3.31203 108.02 3.62749 108.493 3.62749 108.808C3.94292 109.912 4.10063 110.859 4.25835 111.963C4.41607 112.909 4.88922 113.855 5.04694 114.802C5.52009 116.063 5.67782 117.325 5.99325 118.745C6.15097 119.691 6.15099 120.795 6.30871 121.741C6.46643 122.53 6.62411 123.318 6.62411 124.107C6.62411 125.369 6.30871 126.473 6.30871 127.734C6.30871 129.785 7.09728 131.835 7.57043 133.885C7.72815 134.516 7.88585 134.989 8.04356 135.62C2.83888 125.526 0 114.013 0 101.869C0 87.0433 4.25837 73.3218 11.6711 61.8085C14.8255 56.9192 18.453 52.3454 22.7113 48.4024C36.1173 35.3119 54.5703 27.2683 74.7582 27.2683C76.3354 27.2683 78.0703 27.2683 79.6474 27.426C89.4259 27.2683 98.889 29.7918 107.406 34.0501Z" fill="url(#paint3_linear_4_1297)"/>
<path opacity="0.1" fill-rule="evenodd" clip-rule="evenodd" d="M79.3333 136.251C79.3333 136.251 86.2728 146.503 95.5782 154.862C104.883 163.221 106.145 168.899 106.145 168.899C106.145 168.899 123.652 161.644 136.112 144.295C148.571 127.104 79.3333 136.251 79.3333 136.251Z" fill="black"/>
<path opacity="0.4" fill-rule="evenodd" clip-rule="evenodd" d="M91.9513 28.5301C87.8506 27.5837 83.7499 26.9529 79.3338 26.6374C78.5452 26.6374 77.5989 26.4797 76.8103 26.4797C78.5452 27.426 80.2801 29.1609 80.5956 31.0535C81.2264 34.2079 82.3305 37.0468 82.8036 40.0434C83.4345 43.0401 83.2768 46.8253 81.8573 49.5065C81.0687 51.2414 79.9647 52.6609 78.5452 54.0803C77.5989 55.0266 76.6526 55.6575 76.0218 56.9192C75.3909 58.181 74.6023 59.285 73.8137 60.389C72.7097 62.1239 71.448 63.8588 70.0285 65.436C69.5554 66.0669 69.0822 66.3823 68.6091 67.0132C68.1359 67.8018 67.8204 68.5904 67.1896 69.2212C65.7701 70.6407 63.7198 71.587 61.9849 72.2179C59.6191 73.1642 57.5688 74.1105 55.3607 75.3722C52.2064 77.1071 49.5252 79.1574 45.8977 79.3152C44.6359 79.3152 43.3742 79.1574 42.1125 79.3152C40.5353 79.4729 39.1158 80.1037 37.6964 80.4192C36.4346 80.7346 35.0152 80.8923 33.7534 81.2078C31.5454 81.5232 29.8105 82.3118 27.7601 82.7849C25.0789 83.4158 22.24 83.2581 19.4011 83.7312C16.8776 84.0467 14.8273 84.3621 12.3038 83.7312C8.51859 82.7849 6.46824 81.0501 7.25683 76.9494C7.72998 74.2682 7.5723 72.2179 6.31056 70.3252C3.31393 76.7917 1.26357 83.889 0.317261 91.144C2.05216 91.9326 4.10249 92.248 5.83738 92.4057C11.3575 93.0366 17.3508 90.5131 22.3977 88.6205C24.9212 87.6742 27.6024 86.2547 30.4414 85.9393C33.438 85.6239 35.9615 85.9393 38.9581 85.3084C49.052 82.7849 58.9882 79.3152 68.1359 73.9528C71.9211 71.7447 73.4983 68.5904 76.1795 65.436C78.3875 62.5971 81.0687 60.389 83.7499 58.0233C86.4311 55.6575 88.7969 53.4495 90.3741 50.2951C92.109 46.983 93.5284 43.1978 94.317 39.5703C95.1056 35.4696 94.0016 31.6844 91.9513 28.5301ZM91.4781 38.624C91.3204 39.4126 91.1627 40.3589 91.0049 41.1475C90.3741 43.1978 89.1123 45.2481 87.2197 46.1944C86.4311 46.6676 85.1694 46.3522 84.6962 45.5636C84.3808 45.0904 84.3808 44.4595 84.3808 43.9864C84.2231 42.8824 84.0654 41.9361 84.0654 40.832C84.0654 38.3086 84.0654 35.7851 83.7499 33.2616C84.0654 34.681 83.75 31.0535 85.958 30.1072C87.062 29.6341 88.6392 30.1072 89.4278 30.8958C90.3741 31.9998 90.6895 33.7347 91.0049 34.9965C91.3204 36.4159 91.6358 37.3622 91.4781 38.624Z" fill="url(#paint4_linear_4_1297)"/>
<path opacity="0.4" fill-rule="evenodd" clip-rule="evenodd" d="M80.5937 158.016C80.436 158.016 80.1206 158.174 79.9629 158.174L81.3823 158.332C81.3823 158.174 81.0669 158.016 80.5937 158.016ZM80.5937 158.016C80.436 158.016 80.1206 158.174 79.9629 158.174L81.3823 158.332C81.3823 158.174 81.0669 158.016 80.5937 158.016ZM147.151 83.1002C147.151 84.9928 146.52 87.0431 146.52 88.9358C146.52 91.617 146.047 93.6673 145.416 96.1908C144.943 97.9257 143.996 99.1874 143.523 100.922C142.892 102.815 141.946 104.55 141 106.285C139.107 109.754 137.057 113.382 136.268 117.325C135.48 120.952 135.322 123.949 133.587 127.261C131.852 130.416 129.329 133.097 127.436 136.251C126.647 137.671 126.016 137.671 124.597 138.617C123.178 139.721 121.758 141.298 120.339 142.402C117.342 144.768 114.503 146.503 110.718 147.922C108.352 148.868 106.144 149.499 103.621 149.815C102.043 150.13 100.466 149.815 98.889 150.13C96.3655 150.603 93.9998 151.234 91.4763 152.023C87.5333 153.285 83.4327 154.073 79.4897 155.335C76.6508 156.123 73.9696 156.754 71.1307 157.228C69.3958 157.543 67.9763 158.489 66.2415 158.174C64.5066 157.858 62.7716 157.228 61.0367 156.597C58.8287 155.966 56.9361 155.808 54.5703 155.808C51.416 155.808 47.6307 156.281 44.3187 155.65C40.6911 155.019 37.2214 153.915 33.5939 153.285C31.3858 152.811 29.8086 151.865 27.7583 151.077C25.8657 150.13 23.9731 149.973 21.9228 149.342C19.8724 148.711 17.8221 147.764 15.7718 147.291C18.9261 151.392 22.5536 155.177 26.6543 158.489C37.2214 167.479 50.3119 173.472 64.822 175.365C66.7146 175.523 68.6072 175.838 70.6575 175.838C74.9159 174.892 79.0166 173.63 83.2749 172.368C90.3722 170.16 96.5232 165.902 103.621 163.852C106.302 163.063 108.668 162.274 111.033 161.013C112.926 160.066 114.818 159.909 116.553 159.12C123.178 156.281 128.067 149.973 131.063 143.664C132.325 140.825 133.587 137.671 136.11 135.462C137.057 134.516 138.318 133.885 139.107 132.781C140.053 131.677 140.684 130.416 141.631 129.154C143.208 127.103 144.627 124.895 146.047 122.845C146.204 122.53 146.362 122.372 146.52 122.056C148.412 115.432 149.359 108.493 149.359 101.395C149.359 94.929 148.57 88.9357 147.151 83.1002ZM78.5434 158.489C78.8589 158.332 79.1743 158.016 79.4897 157.858C79.8052 157.701 80.2783 157.858 80.5937 158.016C81.2246 157.858 81.6978 157.858 82.1709 158.174C82.4863 158.332 82.9595 158.647 83.1172 158.962C83.2749 159.278 83.1172 159.436 82.8018 159.751C82.4864 160.066 82.3287 160.066 81.8555 160.066C81.0669 160.224 80.2783 160.382 79.332 160.224C78.8589 160.224 78.0703 160.066 77.7548 159.751C77.7548 159.12 78.228 158.805 78.5434 158.489ZM83.4327 168.268C82.9595 168.899 82.4864 169.529 81.8555 169.845C81.2246 170.318 80.5938 170.476 80.1206 170.949C78.5434 171.738 76.9662 172.684 75.3891 173.157C74.7582 173.315 73.9696 173.315 73.3388 173.315C72.5502 173.472 71.6038 173.472 70.8153 173.472C69.869 173.472 68.7649 173.63 67.8186 173.788C66.8723 173.788 65.7683 173.946 64.822 173.946C63.0871 174.103 61.6676 173.788 60.0904 173.157C58.671 172.684 57.2515 171.895 55.9898 171.107C55.0435 170.476 54.2549 169.687 53.624 168.899C52.8354 168.268 52.3623 167.479 51.8891 166.533C51.7314 166.217 51.5737 165.902 51.7314 165.429C51.7314 165.271 51.8891 165.113 51.8891 165.113C52.2046 164.956 52.52 164.64 52.6777 164.64C53.1509 164.325 53.7818 164.325 54.4126 164.167C55.8321 164.009 57.2515 164.167 58.671 164.325C59.4596 164.325 60.2482 164.483 61.0367 164.325C62.1408 164.167 63.2448 163.852 64.1911 163.536C66.7146 162.905 69.2381 162.274 71.7616 162.117C74.2851 161.801 77.124 161.486 79.6475 161.959C80.5938 162.117 81.8555 162.432 82.6441 162.905C83.275 163.379 83.7481 164.009 84.0635 164.64C84.5367 165.902 84.2213 167.164 83.4327 168.268ZM103.305 161.801C102.832 162.274 102.201 162.59 101.57 163.063C100.782 163.694 99.993 164.009 99.2044 164.483C98.5736 164.956 97.785 165.271 97.1541 165.587C96.3655 165.902 95.7346 166.217 94.946 166.691C94.1575 167.006 93.3689 167.321 92.5803 167.637C91.9494 167.795 91.3186 168.11 90.6877 167.952C90.2145 167.795 89.5836 167.637 89.2682 167.321C88.6373 166.691 88.7951 166.06 88.9528 165.744C88.9528 165.271 88.7951 164.483 88.9528 163.852C89.1105 163.536 89.4259 163.063 89.5837 162.748C90.2145 161.486 91.1608 160.697 92.1071 159.751C92.8957 158.962 93.842 158.332 94.946 157.858C96.2078 157.385 97.785 157.228 99.0467 157.07C100.466 156.912 102.99 156.754 103.778 158.489C104.251 159.593 104.094 160.697 103.305 161.801ZM81.54 158.174C81.3823 158.174 81.0669 158.016 80.7515 157.858C80.5937 157.858 80.2783 158.016 80.1206 158.016L81.54 158.174Z" fill="url(#paint5_linear_4_1297)"/>
<path opacity="0.4" fill-rule="evenodd" clip-rule="evenodd" d="M141.158 67.1706V67.4861C141 69.5364 140.212 70.9558 139.423 72.8485C138.792 74.4256 138.161 75.6874 137.373 77.1068C136.111 79.4726 135.48 81.6807 134.534 84.3619C132.957 88.3048 132.326 92.5632 129.96 96.1907C127.91 99.5028 127.279 103.446 125.702 106.915C123.809 110.858 120.812 113.54 117.658 116.379C116.239 117.64 114.977 119.217 113.715 120.637C112.296 122.056 111.349 123.949 109.614 125.211C106.145 127.734 102.202 129.942 98.7319 132.623C96.6815 134.201 95.2621 136.409 92.8963 137.67C90.6883 139.09 88.1648 140.036 85.9568 141.298C83.9064 142.56 81.8561 143.821 79.6481 144.768C77.1246 145.714 75.0742 145.399 72.3931 145.556C69.5541 145.714 66.5575 146.503 63.8763 147.449C61.6683 148.238 59.7756 149.026 57.4099 148.238C55.8327 147.764 54.5709 146.66 52.9937 146.345C49.2085 145.556 45.1079 146.345 41.3226 146.187C38.326 146.029 35.1717 145.399 32.175 144.768C29.3361 144.295 26.9704 142.244 24.2892 141.456C20.8194 140.509 16.8764 141.298 13.722 140.036C12.3026 139.563 11.0409 138.459 9.93683 137.67C9.62139 137.513 9.46368 137.355 9.14824 137.197C8.67509 136.409 8.20194 135.462 7.72879 134.674C8.51738 134.989 9.30597 135.305 10.0946 135.778C14.3529 137.828 19.7153 137.513 24.2892 138.301C29.4938 139.248 34.6985 140.509 39.9032 141.14C42.1112 141.456 44.1616 141.298 46.3696 141.14C49.3663 140.825 52.3629 140.825 55.3595 140.352C60.4065 139.405 65.4535 137.04 70.6581 137.67C71.6045 137.828 72.7085 138.301 73.6548 138.301C75.0742 138.301 76.1783 137.04 77.2823 136.251C79.3326 134.989 81.5407 135.147 83.4333 133.412C85.1682 131.677 87.2185 130.573 89.4265 129.469C95.1044 126.63 99.6782 121.899 104.252 117.325C108.037 113.54 111.665 109.597 114.188 105.023C116.712 100.449 116.239 94.9289 118.131 90.1974C119.551 86.7276 120.655 83.5733 122.863 80.5766C123.967 79.1572 125.228 77.8954 126.332 76.476C127.594 75.0565 128.225 73.4793 129.171 71.7444C130.118 69.8518 131.537 68.2747 132.326 66.2243C133.114 64.3317 132.957 62.7545 132.957 60.7042C132.957 58.6539 132.957 56.4458 132.957 54.2378C136.269 58.8116 138.95 62.9122 141.158 67.1706Z" fill="url(#paint6_linear_4_1297)"/>
<path opacity="0.4" fill-rule="evenodd" clip-rule="evenodd" d="M129.329 50.295C128.54 49.5065 127.751 48.5602 126.963 47.7716C121.285 42.0937 114.661 37.5199 107.406 33.8924C107.248 33.7347 107.09 33.7347 106.775 33.577C105.671 33.1038 104.567 32.6307 103.463 32.1575C101.886 31.5266 100.466 30.8958 98.889 30.4226C99.3621 30.7381 99.993 31.0535 100.151 31.0535C101.097 31.5266 101.886 31.8421 102.517 32.6307C103.147 33.4193 103.463 34.0501 103.463 35.1541C103.463 36.1005 103.621 37.2045 103.778 38.1508C103.936 39.0971 104.409 39.8857 104.567 40.832C104.725 41.3051 104.725 41.7783 104.882 42.4092C105.198 43.6709 105.671 44.9326 105.986 46.1944C106.459 48.5602 105.198 50.4528 104.409 52.5031C103.147 55.8152 102.359 59.1272 101.255 62.597C100.466 65.2782 99.0467 67.9594 96.9964 70.0098C94.9461 71.9024 91.9494 72.3755 90.2145 74.4258C88.6373 76.3185 86.7447 78.0534 84.5366 78.9997C82.0132 80.2614 79.1743 81.2077 76.4931 81.9963C74.6005 82.6272 72.5501 82.6272 70.4998 83.1003C67.9763 83.7312 65.7683 84.9929 63.5602 85.9392C61.0367 87.0433 58.8287 88.305 56.3052 89.409C53.7817 90.5131 51.5736 91.9325 49.0502 92.8788C47.7884 93.352 46.5267 93.6674 45.4227 93.9828C42.8992 94.9292 40.5334 96.5063 37.8522 96.8218C36.9059 96.9795 35.9596 97.1372 35.0133 97.1372C34.2247 97.1372 33.5939 97.2949 32.963 97.4526C30.5972 98.3989 29.1778 100.922 26.4966 101.08C23.9731 101.08 21.6073 100.922 19.2415 101.238C17.9798 101.396 16.8758 101.238 15.7718 101.396C15.4563 101.396 14.9832 101.553 14.6677 101.396C14.3523 101.238 13.8792 100.922 13.406 100.607C12.4597 100.134 11.6711 99.503 10.8825 98.8721C9.30533 97.6104 7.25501 98.3989 5.52012 97.9258C5.04697 97.7681 4.25837 97.9258 3.78521 97.6104C2.68119 96.9795 1.26171 95.56 0.315407 94.7714C0.157689 96.8218 0 98.8721 0 100.922C0 104.55 0.315435 108.02 0.788588 111.49C0.946306 113.067 1.26174 114.644 1.57718 116.379C2.05033 118.587 2.68116 120.953 3.31203 123.003C4.25834 126 5.36237 128.996 6.62411 131.835C8.67444 132.151 10.7248 132.466 12.7751 132.151C15.7717 131.677 18.6107 131.204 21.6073 131.362C24.4462 131.52 26.9697 132.466 29.6509 132.939C32.6475 133.412 35.8019 133.885 38.9562 134.043C41.7952 134.201 44.6341 134.516 47.3153 134.832C49.3656 135.147 51.5737 135.463 53.624 135.62C59.1441 135.936 64.5065 134.516 69.8689 134.043C72.5501 133.728 75.2313 133.097 77.9125 132.466C79.4897 132.151 81.0669 131.677 82.4863 130.731C84.3789 129.469 85.6407 127.734 87.2179 126.315C89.1105 124.738 91.0031 123.161 92.8957 121.741C94.4729 120.479 96.0501 119.06 97.785 117.956C99.0467 117.167 100.466 116.221 101.728 115.275C104.094 113.382 106.144 111.174 108.194 108.808C111.033 105.496 112.137 100.922 113.241 96.8218C114.345 93.0365 114.976 89.409 117.026 85.9392C117.973 84.3621 118.761 82.4695 119.235 80.5768C119.55 79.4728 119.708 78.0534 120.181 76.9493C120.969 75.2145 122.704 73.795 123.651 72.2178C124.439 70.9561 125.386 69.6943 125.859 68.1171C126.963 65.2782 127.751 62.4393 128.224 59.285C128.54 57.0769 129.328 54.8689 129.959 52.6608C130.117 52.3454 130.117 51.8722 130.275 51.5568C130.275 51.3991 129.802 50.7682 129.329 50.295ZM32.0167 101.396C32.1744 101.08 35.0133 99.9761 35.3288 99.8184C35.3288 99.8184 35.3287 99.8184 35.171 99.8184L33.2784 100.607C35.3287 99.9761 38.9562 102.026 37.2213 104.234C36.7482 104.865 35.3288 105.181 34.5402 105.339C33.7516 105.496 33.2784 105.181 32.8053 104.55C32.3321 103.919 32.0167 102.973 32.0167 102.184C32.0167 102.026 32.0167 101.553 32.0167 101.396ZM9.77847 121.426C7.57042 120.795 6.15095 120.006 4.88921 118.114C3.9429 116.852 3.31206 115.748 2.99663 114.328C2.83891 113.067 2.36574 112.12 2.68117 110.859C2.83889 109.912 3.31206 108.808 3.78521 108.02C4.25837 107.073 5.04694 105.969 5.04694 105.654C7.25498 105.496 9.30532 105.339 11.3556 105.339C13.7214 105.339 16.2449 105.654 18.6107 105.654C19.7147 105.654 20.8187 105.654 21.9228 105.496C23.0268 105.339 23.9731 105.023 25.0771 104.865C26.9697 104.55 28.7046 104.392 30.4395 105.181C31.7012 105.812 32.3321 107.389 32.963 108.651C33.2784 109.439 33.5938 109.912 33.5938 110.859C33.5938 111.963 33.5938 112.909 33.4361 113.855C33.4361 114.171 33.2784 114.644 33.2784 114.959C31.7012 118.271 27.6006 119.375 24.4462 120.637C19.7147 122.53 14.51 122.687 9.77847 121.426ZM43.3724 128.681C42.4261 131.204 38.3254 131.993 35.9596 132.151C34.8556 132.151 33.4361 131.993 32.3321 131.362C31.7013 131.047 31.2281 130.416 30.7549 129.785C30.4395 129.312 29.9663 128.523 28.7046 128.838C29.02 127.419 29.3355 126.157 29.9664 124.896C30.4395 124.265 31.0703 123.791 31.7012 123.161C32.8052 122.214 34.067 121.268 35.3288 120.637C37.3791 119.533 39.5871 120.322 41.4797 121.268C42.8992 121.899 43.8455 122.845 44.161 124.265C44.6341 126 44.0032 127.104 43.3724 128.681ZM71.1306 128.208C70.3421 129.942 69.2381 130.416 67.6609 131.362C65.7683 132.308 63.2448 133.097 61.1944 133.097C60.0904 133.097 58.9864 132.624 58.0401 132.151C57.4092 131.835 56.6206 131.677 56.1475 131.204C54.728 129.785 54.4126 127.892 55.3589 128.208C54.728 126.946 54.4126 125.684 54.2549 124.422C54.5703 124.265 54.728 123.949 54.728 123.634C55.5166 122.214 56.9361 120.953 58.5132 120.164C61.0367 118.745 64.3488 118.429 67.1877 119.691C68.4494 120.164 69.2381 120.795 70.0266 121.741C70.4998 122.214 70.9729 122.53 71.4461 123.161C71.9193 124.422 71.6038 126.788 71.1306 128.208ZM79.4897 127.892C79.0166 128.208 78.228 128.838 77.7548 128.838C77.2816 128.681 76.4931 127.892 76.4931 127.261L76.1776 126.946C76.8085 125.842 77.4394 124.896 78.0703 123.791C79.0166 124.265 79.9628 124.107 80.5937 125.211C81.3823 126.315 80.2783 127.261 79.4897 127.892ZM100.782 78.2111C99.993 79.3151 98.889 80.4191 97.6272 80.8923C96.0501 81.5232 93.842 82.154 93.6843 79.6305C93.6843 78.2111 93.842 77.1071 94.4729 75.8453C95.4192 73.9527 96.2078 73.4795 98.1004 72.5332C98.7312 72.5332 99.5199 72.8487 99.993 73.0064C100.939 73.3218 101.886 74.2681 102.043 75.3722C102.201 76.4762 101.412 77.4225 100.782 78.2111ZM120.496 67.644C119.708 70.1675 118.604 72.5332 117.5 74.7413C116.238 77.5802 116.08 80.5768 115.292 83.5735C114.976 85.3084 114.03 87.201 112.453 87.8319C111.664 88.1473 111.033 87.9896 110.245 87.9896C109.456 87.9896 108.194 88.305 108.194 88.9359C107.721 87.6741 107.09 86.097 106.775 84.8352C106.459 83.4158 106.302 81.8386 106.144 80.2614C105.829 78.6842 105.829 77.1071 105.671 75.5299C105.513 74.1104 105.198 72.5332 105.198 71.1138C105.198 66.2245 108.037 60.0735 112.61 57.8655C114.03 57.2346 115.449 56.9192 117.026 57.0769C118.761 57.3923 119.865 57.8655 120.654 59.6004C121.6 61.9662 121.127 65.1205 120.496 67.644Z" fill="url(#paint7_linear_4_1297)"/>
<path opacity="0.4" fill-rule="evenodd" clip-rule="evenodd" d="M98.9993 74.1274C98.8415 74.2851 98.5261 74.2851 98.3684 74.4428C97.8952 74.4428 97.5798 74.2851 97.2644 74.4428L98.9993 74.1274Z" fill="url(#paint8_linear_4_1297)"/>
<path fill-rule="evenodd" clip-rule="evenodd" d="M77.3936 110.402C74.2392 108.825 77.8667 94.7883 81.0211 91.634C84.1754 88.4796 92.5344 95.7346 93.4807 101.57C94.5848 107.563 84.8063 113.872 77.3936 110.402Z" fill="url(#paint9_linear_4_1297)"/>
<path opacity="0.4" fill-rule="evenodd" clip-rule="evenodd" d="M4.88984 105.654C4.73212 105.654 4.57443 105.654 4.57443 105.654C4.88987 105.496 4.88984 105.496 4.88984 105.654Z" fill="url(#paint10_linear_4_1297)"/>
<path fill-rule="evenodd" clip-rule="evenodd" d="M88.9534 27.899L102.044 22.6943C102.044 22.6943 122.863 30.7379 136.111 48.56L136.9 59.9157C136.9 59.9157 111.98 50.2949 88.9534 27.899Z" fill="url(#paint11_linear_4_1297)"/>
<path fill-rule="evenodd" clip-rule="evenodd" d="M136.585 143.191C136.585 143.191 125.544 155.177 117.343 157.701L110.561 159.751C110.561 159.751 79.4908 148.553 77.7559 129.154C76.3365 112.751 104.253 87.674 111.823 84.6774C119.393 81.6807 128.226 83.4157 128.226 83.4157L136.585 143.191Z" fill="url(#paint12_linear_4_1297)"/>
<path fill-rule="evenodd" clip-rule="evenodd" d="M128.226 83.4156C121.602 81.3653 93.3703 94.4558 85.6421 123.634C84.065 129.627 98.4173 152.181 115.608 157.701C121.286 159.593 147.467 136.724 148.571 121.268C149.676 105.812 138.004 86.57 128.226 83.4156Z" fill="url(#paint13_linear_4_1297)"/>
<path fill-rule="evenodd" clip-rule="evenodd" d="M87.5341 127.104C91.6347 93.9829 121.759 83.1003 128.383 85.1507C133.114 86.7278 140.054 93.6674 144.155 100.449C140.054 91.9325 133.903 84.993 128.383 83.2581C121.759 81.2077 93.5273 94.2983 85.7992 123.476C85.326 125.526 86.5878 129.627 89.4267 134.359C87.6918 131.362 87.2187 128.681 87.5341 127.104Z" fill="url(#paint14_linear_4_1297)"/>
<path opacity="0.3" fill-rule="evenodd" clip-rule="evenodd" d="M32.018 162.748C32.018 162.748 38.7998 165.271 43.6891 163.852C43.6891 163.852 45.5817 147.922 39.5884 137.671C33.5951 127.419 23.3435 142.875 23.3435 142.875L20.9777 152.654C20.9777 152.654 26.6556 159.436 32.018 162.748Z" fill="black"/>
<path fill-rule="evenodd" clip-rule="evenodd" d="M37.8535 160.224L42.1118 159.12C42.1118 159.12 44.1621 150.288 40.5346 140.194C36.434 128.839 21.2931 120.322 19.085 120.164C16.877 120.006 14.6689 125.053 14.6689 125.053L37.8535 160.224Z" fill="url(#paint15_linear_4_1297)"/>
<path fill-rule="evenodd" clip-rule="evenodd" d="M106.144 168.899L98.889 178.204C98.889 178.204 86.4293 184.197 73.8119 181.359L64.6643 175.208L106.144 168.899Z" fill="url(#paint16_linear_4_1297)"/>
<path fill-rule="evenodd" clip-rule="evenodd" d="M11.5149 131.993C12.3034 128.523 15.3001 122.845 17.9813 122.214C20.6625 121.583 33.5953 133.885 36.592 141.771C39.5886 149.657 38.0115 158.331 37.8537 160.066C37.696 161.801 23.186 156.912 15.7733 150.919C8.51824 144.925 11.5149 131.993 11.5149 131.993Z" fill="url(#paint17_linear_4_1297)"/>
<path fill-rule="evenodd" clip-rule="evenodd" d="M36.5911 141.771C33.5945 133.885 20.8194 121.741 17.9804 122.214C16.8764 122.372 15.7724 123.476 14.8261 124.738C15.457 124.107 16.0878 123.791 16.7187 123.634C19.3999 123.003 32.4905 132.781 35.4871 140.667C39.1146 150.288 37.0643 157.228 36.7488 160.382C37.3797 160.382 37.8529 160.382 37.8529 160.066C38.0106 158.332 39.5877 149.657 36.5911 141.771Z" fill="url(#paint18_linear_4_1297)"/>
<path fill-rule="evenodd" clip-rule="evenodd" d="M80.2796 107.389C77.7561 106.127 80.595 94.4558 83.1185 91.7746C85.642 89.2512 92.2661 95.2444 93.2125 100.134C94.1588 105.023 86.2729 110.228 80.2796 107.389Z" fill="url(#paint19_linear_4_1297)"/>
<path fill-rule="evenodd" clip-rule="evenodd" d="M102.044 22.6943C102.044 22.6943 102.675 30.5802 111.665 40.3587C120.655 50.1372 136.111 48.56 136.111 48.56L136.9 59.9157C136.9 59.9157 104.094 45.4056 88.9534 27.899L102.044 22.6943Z" fill="url(#paint20_linear_4_1297)"/>
<path fill-rule="evenodd" clip-rule="evenodd" d="M127.753 93.1943C127.438 93.5098 126.491 94.1407 127.28 94.6138C127.438 94.7715 127.595 94.6138 127.753 94.7715C127.911 94.7715 127.911 94.9292 128.069 94.9292C128.542 94.6138 128.384 93.0366 127.753 93.1943Z" fill="#0EDBFF"/>
<path fill-rule="evenodd" clip-rule="evenodd" d="M158.666 79.9461C158.35 80.2615 157.404 80.8924 158.193 81.3655C158.35 81.5233 158.508 81.3655 158.666 81.5233C158.824 81.5233 158.824 81.681 158.981 81.681C159.612 81.2078 159.297 79.7884 158.666 79.9461Z" fill="#0EDBFF"/>
<path fill-rule="evenodd" clip-rule="evenodd" d="M145.102 134.832C144.787 135.147 143.84 135.778 144.629 136.251C144.787 136.409 144.944 136.251 145.102 136.409C145.26 136.409 145.26 136.567 145.418 136.567C146.048 136.251 145.733 134.674 145.102 134.832Z" fill="#0EDBFF"/>
<path fill-rule="evenodd" clip-rule="evenodd" d="M130.434 98.7144C130.75 98.5567 130.908 98.5567 131.223 98.5567C131.223 98.8721 131.538 99.503 131.065 99.8184C130.75 99.9762 130.75 99.3453 130.592 99.1876L130.434 98.7144Z" fill="#0EDBFF"/>
<path fill-rule="evenodd" clip-rule="evenodd" d="M81.3842 102.027C81.8573 102.184 82.3305 102.5 82.8037 102.657C82.9614 102.5 83.1191 102.5 83.4346 102.5C83.75 102.342 83.9077 102.027 83.9077 101.711C84.0654 101.238 83.9077 100.922 83.5923 100.607C83.4346 100.449 83.2768 100.134 83.1191 99.9762C82.9614 99.8185 82.4882 99.8185 82.1728 99.9762C81.8573 100.134 81.6996 100.449 81.5419 100.765C81.3842 101.08 81.0688 101.396 81.0688 101.711C81.0688 102.027 81.3842 102.342 81.5419 102.657L81.3842 102.027Z" fill="#0EDBFF"/>
<path fill-rule="evenodd" clip-rule="evenodd" d="M11.673 139.248C12.1462 139.406 12.6193 139.721 13.0924 139.879C13.2502 139.721 13.4079 139.721 13.7233 139.721C14.0387 139.563 14.1965 139.248 14.1965 138.932C14.3542 138.459 14.1965 138.144 13.881 137.828C13.7233 137.671 13.5656 137.355 13.4079 137.198C13.2502 137.04 12.777 137.04 12.4616 137.198C12.1462 137.355 11.9884 137.671 11.8307 137.986C11.673 138.302 11.3575 138.617 11.3575 138.932C11.3575 139.248 11.673 139.563 11.8307 139.879L11.673 139.248Z" fill="#0EDBFF"/>
<path fill-rule="evenodd" clip-rule="evenodd" d="M147.468 158.647C147.941 158.805 148.414 159.12 148.887 159.278C149.045 159.12 149.203 159.12 149.518 159.12C149.834 158.963 149.991 158.647 149.991 158.332C150.149 157.859 149.991 157.543 149.676 157.228C149.518 157.07 149.361 156.755 149.203 156.597C149.045 156.439 148.572 156.439 148.257 156.597C147.941 156.755 147.783 157.07 147.626 157.385C147.468 157.701 147.152 158.016 147.152 158.332C147.152 158.647 147.468 158.963 147.626 159.278L147.468 158.647Z" fill="#0EDBFF"/>
<path fill-rule="evenodd" clip-rule="evenodd" d="M137.689 145.083C138.163 145.241 138.636 145.557 139.109 145.714C139.267 145.557 139.424 145.557 139.74 145.557C140.055 145.399 140.213 145.083 140.213 144.768C140.371 144.295 140.213 143.979 139.897 143.664C139.74 143.506 139.582 143.191 139.424 143.033C139.267 142.875 138.793 142.875 138.478 143.033C138.163 143.191 138.005 143.506 137.847 143.822C137.689 144.137 137.374 144.453 137.374 144.768C137.374 145.083 137.689 145.399 137.847 145.714L137.689 145.083Z" fill="#0EDBFF"/>
<path fill-rule="evenodd" clip-rule="evenodd" d="M2.20996 51.0837C3.4717 51.5568 4.73343 52.03 5.99517 52.6608C6.46832 52.3454 6.94147 52.3454 7.41462 52.03C8.04549 51.5568 8.51863 50.7682 8.83407 50.1374C9.14951 49.0333 8.67636 48.2447 8.20321 47.4562C7.88777 46.983 7.57237 46.1944 7.09921 45.7213C6.46834 45.2481 5.36432 45.4058 4.73345 45.7213C3.94486 46.0367 3.4717 46.8253 2.99854 47.4562C2.52539 48.087 2.05222 49.1911 1.8945 49.9796C1.8945 50.7682 2.5254 51.7145 3.15627 52.1877L2.20996 51.0837Z" fill="#0EDBFF"/>
<path fill-rule="evenodd" clip-rule="evenodd" d="M84.5385 5.66102C85.8003 6.13417 87.062 6.60733 88.3238 7.2382C88.7969 6.92276 89.2701 6.92276 89.7432 6.60733C90.3741 6.13418 90.8472 5.34559 91.1627 4.71472C91.4781 3.61069 91.005 2.8221 90.5318 2.03351C90.2164 1.56036 89.9009 0.771774 89.4278 0.298621C88.7969 -0.174532 87.6929 -0.0168141 87.062 0.298621C86.2734 0.614057 85.8003 1.40264 85.3271 2.03351C84.854 2.66438 84.3808 3.76841 84.2231 4.557C84.2231 5.34559 84.854 6.29189 85.4848 6.76504L84.5385 5.66102Z" fill="#0EDBFF"/>
<path fill-rule="evenodd" clip-rule="evenodd" d="M95.4211 114.328C95.2634 114.486 95.1057 114.644 94.9479 114.959C95.1057 115.275 95.2634 115.433 95.5788 115.59C95.7365 115.59 95.8943 115.59 96.052 115.59C96.2097 115.433 96.052 115.275 96.2097 115.117C96.3674 114.802 96.3674 114.644 96.2097 114.328C96.052 114.171 96.052 114.013 95.8943 114.013C95.7365 114.013 95.4211 114.013 95.4211 114.171V114.328Z" fill="#0EDBFF"/>
<path fill-rule="evenodd" clip-rule="evenodd" d="M96.5251 122.214C96.5251 122.372 96.052 123.318 96.5251 123.003C96.8405 122.845 96.8405 122.372 96.5251 122.214C96.6828 122.214 96.6828 122.214 96.5251 122.214Z" fill="#0EDBFF"/>
<path fill-rule="evenodd" clip-rule="evenodd" d="M121.287 136.409C120.971 136.882 120.971 137.04 120.814 137.513C120.971 137.671 121.287 137.671 121.445 137.671C121.76 137.671 121.76 137.513 121.76 137.355C121.76 137.198 121.918 136.882 121.76 136.724C121.602 136.409 121.445 136.251 121.287 136.409Z" fill="#0EDBFF"/>
<path fill-rule="evenodd" clip-rule="evenodd" d="M100.468 115.275C100.626 115.433 100.784 115.59 100.784 115.906C100.468 115.906 100.468 115.748 100.468 115.433C100.468 115.117 100.626 115.275 100.784 114.959C100.784 114.959 100.784 114.959 100.941 114.959L100.468 115.275Z" fill="#0EDBFF"/>
<path fill-rule="evenodd" clip-rule="evenodd" d="M124.126 94.1406C123.968 94.2984 123.81 94.4561 123.653 94.6138C123.81 94.7715 123.653 95.087 123.968 95.087C124.126 95.087 124.283 94.9292 124.441 94.6138C124.599 94.4561 124.599 94.2984 124.599 93.9829C124.599 93.8252 124.599 93.3521 124.441 93.6675L124.126 94.1406Z" fill="#0EDBFF"/>
<path fill-rule="evenodd" clip-rule="evenodd" d="M120.814 39.0972C121.129 39.0972 121.287 38.9394 121.602 38.9394C121.602 38.9394 121.76 38.9394 121.918 38.9394C122.233 38.9394 122.233 38.9394 122.233 39.0972C122.391 39.2549 122.391 39.5703 122.391 39.728C122.233 40.6743 120.971 39.2549 121.445 38.9394L120.814 39.0972Z" fill="#0EDBFF"/>
<path fill-rule="evenodd" clip-rule="evenodd" d="M20.5052 40.832C20.032 40.9897 19.4012 40.9897 19.4012 41.4629C19.4012 41.936 20.032 42.2515 20.3475 42.4092C20.9783 42.5669 21.9246 42.7246 22.2401 41.936C22.3978 41.4629 22.2401 40.6743 22.0824 40.3589C21.6092 39.5703 20.5052 39.8857 19.7166 40.2012L20.5052 40.832Z" fill="#0EDBFF"/>
<path fill-rule="evenodd" clip-rule="evenodd" d="M126.965 137.355C126.807 135.936 126.492 134.516 127.753 133.728C128.384 133.255 129.646 133.255 130.434 133.728C130.908 134.043 131.381 134.674 131.538 135.147C132.012 135.936 131.854 135.936 131.696 136.567C131.223 138.144 130.75 139.09 129.33 139.09C127.28 139.09 126.965 137.513 126.965 135.62V137.355Z" fill="#0EDBFF"/>
<path fill-rule="evenodd" clip-rule="evenodd" d="M127.911 97.1373C128.542 96.9796 129.015 96.6641 129.33 96.191C128.857 95.8755 128.069 95.4024 127.911 96.191V97.1373Z" fill="#0EDBFF"/>
<path fill-rule="evenodd" clip-rule="evenodd" d="M14.8273 133.57C15.4582 133.412 15.9313 133.097 16.2468 132.624C15.7736 132.308 14.985 131.835 14.8273 132.624V133.57Z" fill="#0EDBFF"/>
<path fill-rule="evenodd" clip-rule="evenodd" d="M14.8273 145.557C15.4582 145.399 15.9313 145.083 16.2468 144.61C15.7736 144.295 14.985 143.822 14.8273 144.61V145.557Z" fill="#0EDBFF"/>
<path fill-rule="evenodd" clip-rule="evenodd" d="M99.3641 102.657C99.9949 102.026 100.784 100.765 101.73 101.396C102.361 101.869 102.518 102.815 101.888 103.288C101.414 103.604 100.941 103.761 100.31 103.919C99.8372 104.077 99.2063 103.761 99.3641 103.131V102.657Z" fill="#0EDBFF"/>
<path fill-rule="evenodd" clip-rule="evenodd" d="M118.132 133.57C118.763 132.939 119.552 131.677 120.498 132.308C121.129 132.781 121.287 133.728 120.656 134.201C120.183 134.516 119.71 134.674 119.079 134.832C118.606 134.99 117.975 134.674 118.132 134.043V133.57Z" fill="#0EDBFF"/>
<path fill-rule="evenodd" clip-rule="evenodd" d="M115.294 31.0536C116.082 31.2113 117.659 31.2113 117.502 32.473C117.502 33.1039 116.555 33.8925 115.924 33.577C115.294 33.2616 114.978 32.9462 114.505 32.473C114.19 32.1576 114.032 31.369 114.82 31.2113L115.294 31.0536Z" fill="#0EDBFF"/>
<path fill-rule="evenodd" clip-rule="evenodd" d="M112.139 141.614C112.77 140.983 113.559 139.721 114.505 140.352C115.136 140.825 115.294 141.771 114.663 142.244C114.19 142.56 113.716 142.718 113.085 142.875C112.612 143.033 111.981 142.718 112.139 142.087V141.614Z" fill="#0EDBFF"/>
<path fill-rule="evenodd" clip-rule="evenodd" d="M86.5889 101.553C85.9581 102.027 84.6963 102.5 84.5386 103.604C84.5386 104.235 84.6963 104.55 85.3272 104.865C85.8003 105.023 86.4312 105.023 86.9043 104.865C87.5352 104.55 88.3238 103.919 88.6392 103.288C88.797 102.815 88.797 102.5 88.6392 102.027C88.4815 101.711 88.3238 101.396 88.0084 101.396C87.0621 101.08 86.5889 102.027 85.9581 102.342L86.5889 101.553Z" fill="#0EDBFF"/>
<path fill-rule="evenodd" clip-rule="evenodd" d="M88.9547 99.0299C89.2701 99.1876 89.7433 99.3453 89.901 99.6607C89.5855 99.8184 89.1124 100.134 88.6392 99.9762C88.1661 99.8185 88.0084 99.3453 88.1661 98.8721C88.1661 98.5567 88.6392 98.0836 88.9547 98.2413C89.1124 98.2413 89.1124 98.5567 89.1124 98.5567C89.2701 98.8721 89.2701 98.7144 89.1124 99.0299H88.9547Z" fill="#0EDBFF"/>
<path fill-rule="evenodd" clip-rule="evenodd" d="M108.512 94.7716C106.619 96.3488 104.884 98.3991 103.938 100.765C103.465 102.027 104.253 102.027 105.357 101.869C107.408 101.396 109.616 100.923 111.666 100.292C112.928 99.9763 114.663 99.3454 115.451 98.2414C116.082 97.4528 116.398 96.0333 116.24 95.087C116.082 93.6676 114.978 93.1944 113.716 92.7213C110.72 91.9327 106.619 95.087 105.515 97.7682L108.512 94.7716Z" fill="#0EDBFF"/>
<path fill-rule="evenodd" clip-rule="evenodd" d="M98.1023 105.496C98.7331 105.496 99.2063 105.654 99.8372 105.969C99.6794 106.127 99.6794 106.443 99.6794 106.6C99.5217 106.916 99.2063 107.231 99.0486 107.389C98.5754 107.704 97.7868 107.862 97.3137 107.547C95.7365 106.916 98.1023 105.023 98.7331 105.812L98.1023 105.496Z" fill="#0EDBFF"/>
<path fill-rule="evenodd" clip-rule="evenodd" d="M10.4112 165.271C10.2535 165.429 10.0958 165.587 9.93811 165.902C10.0958 166.218 10.2535 166.375 10.569 166.533C10.7267 166.533 10.8844 166.533 11.0422 166.533C11.1999 166.375 11.0421 166.218 11.1998 166.06C11.3576 165.745 11.3576 165.587 11.1998 165.271C11.0421 165.114 11.0421 164.956 10.8844 164.956C10.7267 164.956 10.4112 164.956 10.4112 165.114V165.271Z" fill="#0EDBFF"/>
<path fill-rule="evenodd" clip-rule="evenodd" d="M11.673 173.157C11.673 173.315 11.1998 174.261 11.673 173.946C11.9884 173.788 11.8307 173.315 11.673 173.157C11.673 173.315 11.673 173.157 11.673 173.157Z" fill="#0EDBFF"/>
<path fill-rule="evenodd" clip-rule="evenodd" d="M15.4582 166.218C15.6159 166.375 15.7737 166.533 15.7737 166.848C15.4582 166.848 15.4582 166.691 15.4582 166.375C15.4582 166.06 15.616 166.218 15.7737 165.902C15.7737 165.902 15.7736 165.902 15.9314 165.902L15.4582 166.218Z" fill="#0EDBFF"/>
<path fill-rule="evenodd" clip-rule="evenodd" d="M13.0924 156.439C13.7233 156.439 14.1965 156.597 14.8273 156.912C14.6696 157.07 14.6696 157.385 14.6696 157.543C14.5119 157.859 14.1965 158.174 14.0387 158.332C13.5656 158.647 12.777 158.805 12.3038 158.489C10.7267 157.859 13.0924 155.966 13.7233 156.755L13.0924 156.439Z" fill="#0EDBFF"/>
<path fill-rule="evenodd" clip-rule="evenodd" d="M112.139 32.473C112.612 32.7885 113.243 33.1039 113.716 33.5771C114.189 34.2079 114.663 34.6811 114.978 35.312C115.136 35.6274 115.609 36.416 114.978 36.416C114.347 36.5737 113.085 35.6274 112.455 35.1542C111.508 34.5234 110.72 34.0502 110.089 33.1039C109.773 32.6308 109.3 31.8422 109.616 31.369C109.931 30.8959 110.247 30.8959 110.72 30.8959C111.193 30.8959 111.508 31.0536 111.981 31.369C112.139 31.5267 113.086 32.473 112.77 32.6308L112.139 32.473Z" fill="#0EDBFF"/>
<path fill-rule="evenodd" clip-rule="evenodd" d="M119.079 92.0903C118.763 92.248 116.871 93.3521 117.817 93.8252C118.29 94.1407 119.394 93.9829 119.867 93.8252C120.34 93.6675 120.814 93.3521 120.498 92.8789C119.867 91.7749 118.448 92.4058 117.659 92.8789L119.079 92.0903Z" fill="#0EDBFF"/>
<path fill-rule="evenodd" clip-rule="evenodd" d="M133.273 27.2683C132.642 27.7414 127.595 30.4226 129.961 31.6844C131.223 32.3152 133.746 32.1575 135.008 31.5267C136.112 31.0535 137.374 30.2649 136.585 29.0032C135.166 26.322 131.538 27.8992 129.646 29.0032L133.273 27.2683Z" fill="#0EDBFF"/>
<path fill-rule="evenodd" clip-rule="evenodd" d="M15.6159 140.036C15.7737 141.141 16.0891 142.402 17.0354 143.191C18.1394 143.979 19.2434 143.664 20.3475 143.033C21.1361 142.56 21.7669 142.087 22.5555 141.614C23.0287 141.298 23.3441 141.298 23.3441 140.667C23.3441 140.036 22.7132 139.09 22.3978 138.617C21.9246 137.986 20.9783 137.355 20.3475 137.04C18.7703 136.409 15.7737 137.04 15.7737 139.09L15.6159 140.036Z" fill="#0EDBFF"/>
<path fill-rule="evenodd" clip-rule="evenodd" d="M120.025 142.402C120.183 143.191 120.34 144.137 120.971 144.61C121.76 145.241 122.549 144.926 123.337 144.453C123.81 144.137 124.441 143.822 124.914 143.506C125.23 143.349 125.545 143.349 125.545 142.875C125.545 142.402 125.072 141.771 124.914 141.456C124.599 140.983 123.968 140.51 123.495 140.352C122.391 139.879 120.34 140.352 120.34 141.771L120.025 142.402Z" fill="#0EDBFF"/>
<path fill-rule="evenodd" clip-rule="evenodd" d="M102.202 23.9561C102.202 23.9561 105.672 38.4661 115.293 43.9862C127.437 50.9258 135.954 48.5601 135.954 48.5601C135.954 48.5601 125.071 48.2446 114.977 41.305C106.618 35.4695 102.202 23.9561 102.202 23.9561Z" fill="url(#paint21_linear_4_1297)"/>
<path opacity="0.2" fill-rule="evenodd" clip-rule="evenodd" d="M79.3333 136.251L85.7997 126.788C85.7997 126.788 94.1587 150.446 115.608 157.858L110.877 160.855C111.035 160.855 88.954 154.546 79.3333 136.251Z" fill="black"/>
<path opacity="0.3" fill-rule="evenodd" clip-rule="evenodd" d="M91.6349 31.0534C91.6349 31.0534 122.705 62.2815 145.101 76.1607C145.101 76.1607 142.893 67.6439 136.9 59.758C136.9 59.9157 118.131 53.7648 91.6349 31.0534Z" fill="black"/>
<defs>
<linearGradient id="paint0_linear_4_1297" x1="24.9465" y1="61.0935" x2="24.9465" y2="35.2164" gradientUnits="userSpaceOnUse">
<stop stop-color="#9A00B3"/>
<stop offset="1" stop-color="#7F72FF"/>
</linearGradient>
<linearGradient id="paint1_linear_4_1297" x1="19.2201" y1="62.4043" x2="28.9434" y2="32.7201" gradientUnits="userSpaceOnUse">
<stop stop-color="#5B008B"/>
<stop offset="1" stop-color="#8E00FF"/>
</linearGradient>
<radialGradient id="paint2_radial_4_1297" cx="0" cy="0" r="1" gradientUnits="userSpaceOnUse" gradientTransform="translate(28.3062 66.2338) scale(120.026)">
<stop offset="0.00558659" stop-color="#60DBFF"/>
<stop offset="0.0937306" stop-color="#60D5FF"/>
<stop offset="0.211" stop-color="#5FC4FF"/>
<stop offset="0.3446" stop-color="#5DA9FF"/>
<stop offset="0.4903" stop-color="#5A82FF"/>
<stop offset="0.6442" stop-color="#5751FF"/>
<stop offset="0.6844" stop-color="#5643FF"/>
<stop offset="0.7432" stop-color="#563DF8"/>
<stop offset="0.8282" stop-color="#552EE5"/>
<stop offset="0.9287" stop-color="#5315C6"/>
<stop offset="1" stop-color="#5200AB"/>
</radialGradient>
<linearGradient id="paint3_linear_4_1297" x1="-0.139107" y1="80.6838" x2="107.345" y2="80.6838" gradientUnits="userSpaceOnUse">
<stop offset="0.0111732" stop-color="#81E0FF"/>
<stop offset="0.3224" stop-color="#82DDFF"/>
<stop offset="0.5506" stop-color="#86D4FF"/>
<stop offset="0.7523" stop-color="#8BC4FF"/>
<stop offset="0.9375" stop-color="#94ADFF"/>
<stop offset="1" stop-color="#97A4FF"/>
</linearGradient>
<linearGradient id="paint4_linear_4_1297" x1="0.544217" y1="59.5344" x2="94.5137" y2="59.5344" gradientUnits="userSpaceOnUse">
<stop stop-color="#B8C2FF"/>
<stop offset="1" stop-color="#7D72B3"/>
</linearGradient>
<linearGradient id="paint5_linear_4_1297" x1="15.7937" y1="129.48" x2="149.302" y2="129.48" gradientUnits="userSpaceOnUse">
<stop stop-color="#B8C2FF"/>
<stop offset="1" stop-color="#7D72B3"/>
</linearGradient>
<linearGradient id="paint6_linear_4_1297" x1="7.90843" y1="101.865" x2="141.149" y2="101.865" gradientUnits="userSpaceOnUse">
<stop stop-color="#B8C2FF"/>
<stop offset="1" stop-color="#7D72B3"/>
</linearGradient>
<linearGradient id="paint7_linear_4_1297" x1="-0.135795" y1="83.2451" x2="130.833" y2="83.2451" gradientUnits="userSpaceOnUse">
<stop stop-color="#B8C2FF"/>
<stop offset="1" stop-color="#7D72B3"/>
</linearGradient>
<linearGradient id="paint8_linear_4_1297" x1="97.1603" y1="74.359" x2="98.9581" y2="74.359" gradientUnits="userSpaceOnUse">
<stop stop-color="#E8DDFF"/>
<stop offset="1" stop-color="#AA8AD8"/>
</linearGradient>
<linearGradient id="paint9_linear_4_1297" x1="82.0029" y1="111.992" x2="88.3955" y2="92.4767" gradientUnits="userSpaceOnUse">
<stop stop-color="#5B008B"/>
<stop offset="1" stop-color="#8E00FF"/>
</linearGradient>
<linearGradient id="paint10_linear_4_1297" x1="4.54904" y1="105.671" x2="4.92233" y2="105.671" gradientUnits="userSpaceOnUse">
<stop stop-color="#E8DDFF"/>
<stop offset="1" stop-color="#AA8AD8"/>
</linearGradient>
<linearGradient id="paint11_linear_4_1297" x1="88.9061" y1="41.2767" x2="136.861" y2="41.2767" gradientUnits="userSpaceOnUse">
<stop stop-color="#7F72FF"/>
<stop offset="1" stop-color="#9A00B3"/>
</linearGradient>
<linearGradient id="paint12_linear_4_1297" x1="99.7992" y1="156.395" x2="124.125" y2="82.132" gradientUnits="userSpaceOnUse">
<stop stop-color="#280077"/>
<stop offset="1" stop-color="#812CFF"/>
</linearGradient>
<linearGradient id="paint13_linear_4_1297" x1="106.763" y1="154.884" x2="129.968" y2="84.0455" gradientUnits="userSpaceOnUse">
<stop stop-color="#7A00B3"/>
<stop offset="1" stop-color="#B136FF"/>
</linearGradient>
<linearGradient id="paint14_linear_4_1297" x1="114.756" y1="134.563" x2="114.756" y2="83.2511" gradientUnits="userSpaceOnUse">
<stop stop-color="#8E00B3"/>
<stop offset="1" stop-color="#E05CFF"/>
</linearGradient>
<linearGradient id="paint15_linear_4_1297" x1="24.0218" y1="155.611" x2="34.07" y2="124.934" gradientUnits="userSpaceOnUse">
<stop stop-color="#280077"/>
<stop offset="1" stop-color="#812CFF"/>
</linearGradient>
<linearGradient id="paint16_linear_4_1297" x1="85.4603" y1="182.204" x2="85.4603" y2="168.915" gradientUnits="userSpaceOnUse">
<stop stop-color="#7A00B3"/>
<stop offset="0.9162" stop-color="#7006FC"/>
<stop offset="1" stop-color="#7006F9"/>
</linearGradient>
<linearGradient id="paint17_linear_4_1297" x1="24.6248" y1="160.513" x2="24.6248" y2="122.317" gradientUnits="userSpaceOnUse">
<stop stop-color="#7A00B3"/>
<stop offset="1" stop-color="#B136FF"/>
</linearGradient>
<linearGradient id="paint18_linear_4_1297" x1="26.6259" y1="160.498" x2="26.6259" y2="122.317" gradientUnits="userSpaceOnUse">
<stop stop-color="#8E00B3"/>
<stop offset="1" stop-color="#E05CFF"/>
</linearGradient>
<linearGradient id="paint19_linear_4_1297" x1="83.962" y1="108.673" x2="89.2493" y2="92.5314" gradientUnits="userSpaceOnUse">
<stop stop-color="#A400CA"/>
<stop offset="1" stop-color="#B136FF"/>
</linearGradient>
<linearGradient id="paint20_linear_4_1297" x1="110.468" y1="51.2347" x2="118.099" y2="27.9392" gradientUnits="userSpaceOnUse">
<stop stop-color="#5B008B"/>
<stop offset="1" stop-color="#8E00FF"/>
</linearGradient>
<linearGradient id="paint21_linear_4_1297" x1="119.143" y1="48.9548" x2="119.143" y2="23.9728" gradientUnits="userSpaceOnUse">
<stop stop-color="#B000D9"/>
<stop offset="1" stop-color="#E05CFF"/>
</linearGradient>
</defs>
</svg>
