<svg width="151" height="150" viewBox="0 0 151 150" fill="none" xmlns="http://www.w3.org/2000/svg">
<path fill-rule="evenodd" clip-rule="evenodd" d="M150.341 74.7582C150.341 96.3655 141.193 115.765 126.526 129.486C119.586 135.953 111.227 141.157 102.079 144.627C93.878 147.781 84.8881 149.516 75.5828 149.516C72.2707 149.516 68.9586 149.359 65.8043 148.885C51.452 146.993 38.2037 141 27.6366 132.01C19.9084 125.543 13.442 117.5 8.86819 108.51C6.02927 102.832 3.82122 96.6809 2.40176 90.2145C1.29774 85.1675 0.824585 80.1206 0.824585 74.7582C0.824585 59.9327 5.08296 46.2113 12.4957 34.6979C15.65 29.8086 19.2776 25.2348 23.5359 21.2919C36.9419 8.20128 55.3949 0.157684 75.5828 0.157684C77.16 0.157684 78.8949 0.157688 80.472 0.315406C88.9888 0.788559 97.0324 2.83889 104.603 5.99324C105.865 6.46639 107.126 7.09726 108.388 7.72813C115.643 11.1979 122.267 15.9295 127.945 21.6073C141.824 35.0133 150.341 53.9394 150.341 74.7582Z" fill="url(#paint0_radial_4_1375)"/>
<path fill-rule="evenodd" clip-rule="evenodd" d="M36.1534 124.282C29.8446 124.282 18.3312 115.134 12.8111 103.463C6.02927 88.7951 5.87155 73.3388 9.18362 70.4999C10.1299 69.7113 11.3917 69.2381 12.9688 69.2381C13.9151 69.2381 15.1769 69.3959 16.2809 69.7113C24.1668 72.0771 35.207 82.9596 39.9386 93.9998C44.5124 104.725 43.2506 113.241 41.8312 118.446C40.8849 123.335 38.2037 124.282 36.1534 124.282Z" fill="url(#paint1_linear_4_1375)"/>
<path fill-rule="evenodd" clip-rule="evenodd" d="M40.8849 118.131C40.0963 121.127 38.6768 123.02 36.1534 123.02C30.791 123.02 19.4353 114.503 14.0729 102.832C7.13329 88.1642 7.60644 73.6542 10.1299 71.4462C11.3917 70.3421 13.5997 70.1844 16.1232 70.973C24.1668 73.3388 36.3111 83.5904 38.8345 94.3152C41.2003 103.305 42.3043 112.768 40.8849 118.131Z" fill="url(#paint2_linear_4_1375)"/>
<path fill-rule="evenodd" clip-rule="evenodd" d="M15.0192 64.3489C14.2306 64.3489 13.442 64.0334 12.9688 63.4025C10.9185 61.0368 13.9151 52.6777 15.1769 49.6811C17.2272 44.9496 19.4353 42.4261 21.3279 42.4261C22.1165 42.4261 22.7473 42.7415 23.3782 43.2147L23.6936 43.5301C25.9017 45.7382 27.0057 50.9428 24.9554 55.0435C23.3782 58.0401 18.8044 63.2448 15.65 64.0334C15.65 64.3489 15.3346 64.3489 15.0192 64.3489Z" fill="url(#paint3_linear_4_1375)"/>
<path fill-rule="evenodd" clip-rule="evenodd" d="M24.4822 54.728C23.0628 57.5669 18.3312 62.7716 15.4923 63.5602C14.7037 63.7179 14.0729 63.7179 13.7574 63.2448C11.7071 60.7213 17.7004 43.5301 21.801 43.3723C22.4319 43.3723 23.0628 43.6878 23.5359 44.1609C25.2708 45.8958 26.3748 50.7851 24.4822 54.728Z" fill="url(#paint4_linear_4_1375)"/>
<path fill-rule="evenodd" clip-rule="evenodd" d="M120.69 122.389C118.167 122.389 116.274 121.443 115.485 119.55C113.908 116.08 114.697 103.305 119.744 92.1071C127.156 75.389 137.566 70.9729 141.824 70.9729C142.14 70.9729 142.455 70.9729 142.613 70.9729C142.771 70.9729 142.928 70.973 143.086 71.1307C144.19 71.4461 145.294 72.3924 145.925 73.8119C148.921 79.9629 147.187 95.1038 142.297 105.671C138.039 115.607 127.472 122.389 120.69 122.389Z" fill="url(#paint5_linear_4_1375)"/>
<path fill-rule="evenodd" clip-rule="evenodd" d="M141.351 105.355C135.358 118.288 119.428 124.755 116.747 119.077C115.328 116.238 115.959 104.094 121.005 92.738C128.576 75.8622 138.985 71.9192 142.613 72.3924H142.771C147.975 73.8118 147.187 92.5802 141.351 105.355Z" fill="url(#paint6_linear_4_1375)"/>
<path fill-rule="evenodd" clip-rule="evenodd" d="M140.247 70.0267C139.616 70.0267 139.143 69.869 138.67 69.5535C135.515 67.6609 133.465 55.5166 135.673 51.7314C136.304 50.6274 137.093 50.312 137.566 50.312C137.724 50.312 138.039 50.312 138.354 50.312C141.824 50.312 145.294 54.4126 146.556 59.775C147.344 63.5602 145.767 66.7146 143.875 68.2918C142.77 69.3958 141.509 70.0267 140.247 70.0267Z" fill="url(#paint7_linear_4_1375)"/>
<path fill-rule="evenodd" clip-rule="evenodd" d="M143.086 67.3454C141.824 68.6072 140.405 69.0803 139.458 68.4494C136.935 67.03 135.042 55.6743 136.935 52.3622C137.25 51.8891 137.566 51.5736 137.881 51.5736C140.405 51.1005 144.032 54.4126 145.294 60.0904C145.925 63.087 144.663 65.7682 143.086 67.3454Z" fill="url(#paint8_linear_4_1375)"/>
<path fill-rule="evenodd" clip-rule="evenodd" d="M80.3143 148.57C79.8412 148.57 79.368 148.57 78.8949 148.57C71.1667 148.412 65.3311 145.1 64.3848 142.261C64.0694 141.157 64.2271 140.053 65.0157 139.422C67.3815 137.372 77.3177 137.214 79.368 137.214C85.8344 137.214 93.7203 137.845 94.3512 140.842C94.5089 141.631 94.5089 142.735 93.2472 144.154C91.5123 145.889 89.1465 148.57 80.3143 148.57Z" fill="url(#paint9_linear_4_1375)"/>
<path fill-rule="evenodd" clip-rule="evenodd" d="M92.3009 143.05C90.4083 145.1 88.2002 147.466 78.8949 147.308C69.905 146.993 63.5962 142.261 65.8043 140.369C68.8009 137.845 92.1432 137.688 92.9318 141.157C93.2472 141.63 93.0895 142.419 92.3009 143.05Z" fill="url(#paint10_linear_4_1375)"/>
<path fill-rule="evenodd" clip-rule="evenodd" d="M116.589 75.8622C111.542 75.8622 107.757 73.4964 105.707 69.2381C100.975 58.8287 100.975 38.6408 104.445 30.5972C105.391 28.5469 106.338 27.2851 107.599 26.812C108.861 26.3388 110.123 26.0234 111.542 26.0234C115.958 26.0234 120.532 29.02 124.791 34.5402C131.73 43.6878 136.62 58.5133 134.727 65.1374C134.096 67.1877 132.361 69.5535 129.522 71.4461C125.579 74.1273 120.848 75.8622 116.589 75.8622Z" fill="url(#paint11_linear_4_1375)"/>
<path fill-rule="evenodd" clip-rule="evenodd" d="M133.465 64.6642C132.992 66.5569 131.257 68.6072 128.734 70.3421C122.267 75.0736 110.912 77.5971 106.811 68.7649C102.237 58.671 102.237 38.9563 105.549 31.0704C106.18 29.4932 107.126 28.3892 108.073 27.916C122.109 22.0805 136.146 54.8857 133.465 64.6642Z" fill="url(#paint12_linear_4_1375)"/>
<path fill-rule="evenodd" clip-rule="evenodd" d="M40.8849 118.131C33.6299 120.812 22.2742 111.664 16.4386 96.6809C11.2339 83.5904 15.1769 73.181 16.2809 70.9729C24.3245 73.3387 36.4688 83.5904 38.9923 94.3152C41.2003 103.305 42.3043 112.768 40.8849 118.131Z" fill="#FFFF45"/>
<path fill-rule="evenodd" clip-rule="evenodd" d="M92.3008 143.05C76.8445 147.781 65.8043 140.211 65.8043 140.211C68.8009 137.688 92.1431 137.53 92.9317 141C93.2471 141.631 93.0894 142.419 92.3008 143.05Z" fill="#FFFF45"/>
<path fill-rule="evenodd" clip-rule="evenodd" d="M138.828 104.094C128.26 121.285 116.589 119.077 116.589 119.077C115.17 116.238 115.801 104.094 120.848 92.738C128.418 75.8622 138.828 71.9192 142.455 72.3924H142.613C144.821 78.8588 146.398 91.7916 138.828 104.094Z" fill="#FFFF45"/>
<path fill-rule="evenodd" clip-rule="evenodd" d="M128.734 70.3421C122.267 75.0737 110.912 77.5971 106.811 68.765C102.237 58.671 102.237 38.9563 105.549 31.0704C108.388 30.755 113.908 31.7013 120.059 40.8489C128.891 53.4663 131.73 63.0871 128.734 70.3421Z" fill="#FFFF45"/>
<path fill-rule="evenodd" clip-rule="evenodd" d="M143.086 67.3455C141.824 68.6073 140.405 69.0804 139.458 68.4495C136.935 67.0301 135.042 55.6744 136.935 52.3623C138.828 53.4664 141.824 55.8321 142.613 60.0905C142.928 62.7717 143.086 65.2952 143.086 67.3455Z" fill="#FFFF45"/>
<path fill-rule="evenodd" clip-rule="evenodd" d="M24.4823 54.7281C23.0628 57.567 18.3313 62.7717 15.4923 63.5603C15.6501 62.4562 17.8581 49.0502 23.3782 44.161C25.2708 45.8959 26.3749 50.7851 24.4823 54.7281Z" fill="#FFFF45"/>
<path opacity="0.3" fill-rule="evenodd" clip-rule="evenodd" d="M114.381 92.4226C113.593 94.1575 112.804 95.7346 111.7 97.3118C110.754 98.4158 109.65 99.3622 109.019 100.624C106.653 105.04 107.126 110.087 105.865 114.661C105.076 117.184 103.183 119.235 102.395 121.758C102.079 122.862 102.237 123.966 102.237 125.228C102.237 126.647 101.448 127.594 100.66 128.698C99.7136 129.959 98.4518 130.748 97.0324 131.379C95.9284 131.852 94.6666 131.694 93.4049 131.694C90.7237 131.694 88.2002 131.379 85.519 130.59C83.1532 129.959 80.9452 128.855 78.5794 128.067C77.0022 127.594 75.7405 127.751 74.1633 128.067C72.7439 128.382 71.1667 128.225 69.7472 128.225C67.2237 128.225 64.858 129.644 62.6499 130.748C61.0727 131.537 59.9687 132.483 59.3378 134.218C58.5493 136.268 58.5493 138.161 56.1835 138.949C54.764 139.422 53.0291 138.949 51.6097 138.634C50.3479 138.318 48.9285 138.476 47.6667 138.476C45.1432 138.476 42.7775 137.688 40.4117 136.584C37.7305 135.164 35.3648 133.114 33.3144 131.063C32.2104 129.959 30.6332 129.329 29.5292 128.225C27.952 126.805 26.2171 125.386 24.7977 123.966C22.4319 121.6 19.9084 119.235 17.3849 117.027C15.4923 115.607 13.9151 113.714 12.338 111.98C11.0762 110.56 10.2876 108.51 9.34133 106.775C7.44872 103.463 5.87154 99.6776 4.92524 95.8924C3.82121 91.634 2.55947 87.0602 2.71718 82.6441C2.71718 78.8588 2.24403 75.3891 2.24403 71.6038C1.9286 78.7011 2.24403 84.5367 3.03262 90.0568C1.9286 85.0098 1.45544 79.9629 1.45544 74.6005C1.45544 59.775 5.71383 46.0536 13.1266 34.5402C16.2809 29.6509 19.9084 25.0771 24.1668 21.1342C37.5728 8.0436 56.0258 0 76.2136 0C77.7908 0 79.5257 -2.40893e-06 81.1029 0.157715C89.6196 0.630868 97.6632 2.6812 105.234 5.83556C107.126 7.88589 109.019 10.2517 110.438 12.6174C111.069 13.5637 111.385 14.6677 112.016 15.614C112.489 16.5604 113.12 16.8758 112.962 17.9798C112.804 18.6107 112.489 19.3993 112.173 20.0301C111.385 22.0805 109.019 23.4999 107.284 24.604C104.761 26.1811 101.922 26.812 99.2404 28.2315C97.5055 29.1778 97.0324 29.9664 95.7706 31.3858C95.1398 32.1744 94.3512 32.6476 93.878 33.4362C92.4586 35.6442 91.67 38.7986 91.8277 41.322C91.9854 46.369 95.9284 49.9965 96.8747 54.728C97.6633 58.8287 97.0324 63.2448 98.4518 67.1877C99.8713 71.7616 103.814 75.3891 107.599 78.0703C109.177 79.1743 110.596 80.1206 112.016 81.3823C113.277 82.6441 115.012 83.2749 115.959 84.8521C116.747 87.3756 115.328 90.0568 114.381 92.4226Z" fill="url(#paint13_linear_4_1375)"/>
<path fill-rule="evenodd" clip-rule="evenodd" d="M108.388 7.57043C108.073 7.57043 107.915 7.57043 107.599 7.72815C106.811 7.88587 106.022 7.72815 105.234 7.57043C104.603 7.41272 104.287 7.09728 103.499 7.09728C102.553 6.93956 101.764 6.62413 100.818 6.46641C99.8713 6.30869 99.0827 5.99326 98.1364 5.67782C97.3478 5.36239 97.0324 5.5201 96.4015 5.67782C95.7707 5.83554 95.2975 5.5201 94.6666 5.36238C94.0358 5.04695 93.2472 5.04695 92.6163 4.88923C90.7237 4.5738 88.8311 3.94293 86.9385 3.46978C85.8344 3.15434 84.7304 3.15434 83.4687 3.15434C82.5224 3.15434 81.7338 3.46978 80.7875 3.46978C80.1566 3.46978 79.6834 3.31206 79.0526 3.31206C78.4217 3.15434 77.7908 3.31206 77.16 3.31206C76.2137 3.15434 75.7405 2.99662 74.7942 3.31206C74.0056 3.46977 73.5325 3.46977 72.7439 3.62749C71.9553 3.62749 71.009 3.94293 70.2204 4.10064C68.8009 4.41608 67.2237 4.73152 65.8043 4.73152C64.858 4.73152 63.5962 4.41608 62.8077 4.73152C62.3345 4.88923 62.0191 5.52011 61.5459 5.83554C60.7573 6.62413 59.9687 7.255 59.3379 8.04359C58.707 8.83217 58.0761 9.77848 58.0761 10.8825C58.0761 11.8288 58.5493 12.9328 59.0224 13.7214C59.4956 14.6677 59.6533 15.4563 58.707 16.0872C57.603 16.8758 56.1835 17.5066 54.9218 17.9798C53.9755 18.2952 53.1869 18.453 52.556 17.8221C52.2406 17.6644 52.0828 17.1912 51.7674 16.8758C51.452 16.7181 50.9788 16.8758 50.6634 17.0335C49.7171 17.3489 48.7708 17.6644 47.8245 17.8221C47.1936 17.9798 46.7204 18.2952 46.0896 18.2952C45.4587 18.453 44.9856 17.9798 44.197 18.1375C43.2507 18.2952 42.1466 18.7684 41.2003 18.7684C40.4117 18.7684 39.4654 18.453 38.8346 18.1375C38.5191 17.9798 38.3614 17.6644 37.8883 17.8221C37.5728 17.8221 37.0997 18.2952 36.942 18.6107C36.6265 18.9261 36.6265 19.3993 36.3111 19.7147C35.9956 20.1878 35.8379 20.5033 35.5225 20.9764C35.0493 21.765 34.5762 22.5536 34.103 23.3422C33.7876 23.8154 33.4722 24.6039 32.999 25.0771C32.8413 25.3925 32.3681 25.5503 32.0527 25.708C31.2641 26.1811 30.4755 26.812 29.6869 27.2851C28.2675 28.3892 26.848 29.6509 25.4286 30.7549C24.3245 31.5435 22.7474 32.0167 21.4856 32.6476C20.697 32.963 19.9084 33.2784 19.1199 33.5939C18.8044 33.7516 18.3313 33.7516 18.1735 34.067C17.8581 34.3825 17.7004 34.6979 17.5427 35.171C16.9118 35.9596 16.1232 36.9059 15.6501 37.8522C15.3346 38.4831 15.1769 38.9563 14.8615 39.5871C14.546 40.3757 14.0729 41.1643 13.9152 42.1106C13.2843 43.8455 13.2843 45.7381 12.4957 47.473C12.1803 48.4193 11.5494 49.3656 11.0763 50.3119C10.2877 51.8891 10.1299 53.7817 9.97223 55.5166C9.81451 56.4629 9.97222 57.7247 10.1299 58.671C10.2877 59.775 10.2877 60.879 10.2877 61.983C10.2877 63.0871 9.49907 64.3488 8.8682 65.1374C8.23733 65.926 7.13331 66.2414 6.34472 67.03C5.71385 67.6609 4.92526 68.2917 4.60982 69.2381C4.4521 69.5535 4.60982 70.0266 4.60982 70.4998C4.4521 71.4461 4.13667 72.2347 4.13667 73.181C3.97895 74.285 3.97895 75.3891 3.97895 76.6508C3.97895 77.2817 3.97895 77.7548 3.97895 78.3857C3.97895 79.0166 4.13667 79.4897 4.29438 79.9629C4.29438 80.2783 4.29438 80.7514 4.29438 81.0669C4.29438 81.54 4.60982 82.0132 4.60982 82.3286C4.92526 83.4327 5.08298 84.379 5.24069 85.483C5.39841 86.4293 5.87157 87.3756 6.02928 88.3219C6.50244 89.5836 6.66015 90.8454 6.97559 92.2648C7.1333 93.2111 7.13331 94.3152 7.29102 95.2615C7.44874 96.0501 7.60646 96.8387 7.60646 97.6272C7.60646 98.889 7.29102 99.993 7.29102 101.255C7.29102 103.305 8.07961 105.355 8.55276 107.406C8.71048 108.037 8.8682 108.51 9.02592 109.141C3.82123 99.0467 0.982315 87.5333 0.982315 75.389C0.982315 60.5636 5.2407 46.8421 12.6534 35.3287C15.8078 30.4395 19.4353 25.8657 23.6937 21.9227C37.0997 8.83217 55.5526 0.788574 75.7405 0.788574C77.3177 0.788574 79.0526 0.788572 80.6298 0.94629C90.4083 0.94629 99.8713 3.46977 108.388 7.57043Z" fill="url(#paint14_linear_4_1375)"/>
<path opacity="0.3" fill-rule="evenodd" clip-rule="evenodd" d="M101.922 131.694C103.341 130.748 104.761 129.959 106.338 129.013C107.915 128.067 109.492 127.594 111.227 126.805C112.489 126.332 112.646 126.332 113.593 127.12C114.539 127.909 115.643 128.067 116.747 128.067C118.324 128.067 120.059 128.224 120.217 130.275C120.375 133.114 116.274 135.48 114.224 136.584C112.646 137.53 110.912 138.161 109.177 138.949C107.757 139.58 106.18 140.369 104.603 140.526C103.183 140.684 102.395 140.053 101.448 139.107C100.344 137.845 100.502 136.741 100.502 135.322C100.502 133.429 100.502 132.167 101.922 131.694Z" fill="url(#paint15_linear_4_1375)"/>
<path opacity="0.3" fill-rule="evenodd" clip-rule="evenodd" d="M124.16 27.1274C125.264 29.3355 126.052 32.3321 127.787 34.2247C128.734 35.171 129.364 35.3287 130.626 35.3287C131.257 35.3287 132.361 35.4865 132.992 35.3287C133.781 35.0133 133.781 34.067 133.781 33.2784C133.623 30.2818 131.73 27.6006 129.838 25.5503C128.576 24.1308 126.683 22.5536 124.633 22.869C124.002 24.2885 123.844 25.708 124.16 27.1274Z" fill="url(#paint16_linear_4_1375)"/>
<path fill-rule="evenodd" clip-rule="evenodd" d="M82.9955 144.785C82.8378 145.1 82.5223 145.258 82.6801 145.573C82.8378 145.731 83.1532 145.889 83.3109 145.889C83.6264 146.047 84.2572 145.889 84.5727 145.731C84.8881 145.573 84.7304 145.258 84.5727 144.943C84.2572 144.469 83.7841 144.312 83.3109 144.627L82.9955 144.785Z" fill="#FFFF45"/>
<path fill-rule="evenodd" clip-rule="evenodd" d="M34.103 19.3993C33.3144 19.7147 32.999 19.7147 32.2104 20.3456C31.5795 20.8187 30.9486 21.2919 30.3178 21.9227C29.5292 22.7113 29.2138 23.4999 29.056 24.2885C28.7406 25.0771 28.5829 26.0234 28.8983 26.4966C29.056 26.6543 29.5292 26.6543 30.0023 26.6543C30.6332 26.4966 31.2641 26.0234 31.895 25.708C32.6835 25.2348 33.3144 24.4462 33.9453 23.6576C34.4184 23.0268 34.5762 22.3959 34.8916 21.765C35.0493 21.2919 35.207 20.9764 35.3648 20.661C35.5225 20.3456 35.5225 20.0301 35.3648 19.8724C35.207 19.3993 35.0493 19.3993 34.103 19.3993Z" fill="#FFFF45"/>
<path fill-rule="evenodd" clip-rule="evenodd" d="M42.9352 17.9798C42.6198 18.2952 41.9889 18.7684 42.4621 19.0838C42.6198 19.2415 42.7775 19.0838 42.9352 19.2415C43.0929 19.2415 43.0929 19.3992 43.2507 19.2415C43.7238 19.2415 43.5661 17.822 42.9352 17.9798Z" fill="#FFFF45"/>
<path fill-rule="evenodd" clip-rule="evenodd" d="M45.301 22.7113C45.4587 22.5536 45.7741 22.5536 45.9318 22.5536C45.9318 22.869 46.2473 23.3422 45.7741 23.6576C45.4587 23.8153 45.6164 23.1845 45.4587 23.1845L45.301 22.7113Z" fill="#FFFF45"/>
<path fill-rule="evenodd" clip-rule="evenodd" d="M49.8748 22.7114C50.3479 22.8691 50.6634 23.0268 51.1365 23.1845C51.2942 23.0268 51.4519 23.0268 51.6097 23.0268C51.7674 22.8691 51.9251 22.5537 52.0828 22.3959C52.2405 22.0805 52.0828 21.7651 51.9251 21.4496C51.7674 21.2919 51.7674 20.9765 51.6097 20.8188C51.4519 20.661 50.9788 20.661 50.8211 20.8188C50.5056 20.9765 50.3479 21.1342 50.1902 21.4496C50.0325 21.6073 49.8748 22.0805 49.8748 22.2382C49.8748 22.5537 50.0325 22.8691 50.3479 23.0268L49.8748 22.7114Z" fill="#FFFF45"/>
<path fill-rule="evenodd" clip-rule="evenodd" d="M53.66 109.141C54.1332 109.298 54.4486 109.456 54.9218 109.614C55.0795 109.456 55.2372 109.456 55.3949 109.456C55.5526 109.298 55.7104 108.983 55.8681 108.825C56.0258 108.51 55.8681 108.194 55.7103 107.879C55.5526 107.721 55.5526 107.406 55.3949 107.248C55.2372 107.09 54.764 107.09 54.6063 107.248C54.2909 107.406 54.1332 107.563 53.9754 107.879C53.8177 108.037 53.66 108.51 53.66 108.668C53.66 108.983 53.8177 109.298 54.1332 109.456L53.66 109.141Z" fill="#FFFF45"/>
<path fill-rule="evenodd" clip-rule="evenodd" d="M37.7305 26.812C37.5728 26.9697 37.4151 27.1274 37.2574 27.2851C37.4151 27.4429 37.5728 27.7583 37.8882 27.7583C38.0459 27.7583 38.2037 27.7583 38.2037 27.7583C38.3614 27.6006 38.2037 27.4429 38.3614 27.4429C38.5191 27.1274 38.5191 27.1274 38.3614 26.812C38.2037 26.6543 38.2037 26.6543 38.0459 26.6543C37.8882 26.6543 37.7305 26.6543 37.5728 26.812H37.7305Z" fill="#FFFF45"/>
<path fill-rule="evenodd" clip-rule="evenodd" d="M38.6768 33.5939C38.6768 33.5939 38.3614 34.5402 38.6768 34.2248C38.9923 34.0671 38.9923 33.7516 38.6768 33.5939C38.8345 33.5939 38.8345 33.5939 38.6768 33.5939Z" fill="#FFFF45"/>
<path fill-rule="evenodd" clip-rule="evenodd" d="M32.5258 44.9495C32.2104 45.2649 32.2104 45.4227 32.0527 45.8958C32.2104 46.0535 32.3681 46.0535 32.5258 46.0535C32.8413 46.0535 32.8413 45.8958 32.8413 45.7381C32.8413 45.5804 32.999 45.4227 32.8413 45.2649C32.8413 44.9495 32.6836 44.7918 32.5258 44.9495Z" fill="#FFFF45"/>
<path fill-rule="evenodd" clip-rule="evenodd" d="M41.9889 27.6006C42.1466 27.7583 42.3043 27.916 42.3043 28.0737C42.1466 28.0737 41.9889 27.916 41.9889 27.7583C41.9889 27.4429 41.9889 27.6006 42.1466 27.2852L41.9889 27.6006Z" fill="#FFFF45"/>
<path fill-rule="evenodd" clip-rule="evenodd" d="M39.7808 18.7684C39.6231 18.9261 39.4654 19.0838 39.3077 19.2415C39.4654 19.3993 39.3077 19.557 39.6231 19.557C39.7808 19.557 39.9386 19.3993 40.0963 19.2415C40.254 19.0838 40.254 18.9261 40.254 18.7684C40.254 18.6107 40.254 18.2952 40.0963 18.6107L39.7808 18.7684Z" fill="#FFFF45"/>
<path fill-rule="evenodd" clip-rule="evenodd" d="M68.4855 14.1945C68.4855 14.0368 68.6432 13.7214 68.6432 13.5637L68.8009 13.406C68.9586 13.2482 68.9586 13.2482 69.1163 13.2482C69.274 13.2482 69.4318 13.2482 69.7472 13.406C70.3781 13.8791 68.8009 14.3523 68.6432 13.8791L68.4855 14.1945Z" fill="#FFFF45"/>
<path fill-rule="evenodd" clip-rule="evenodd" d="M73.8479 16.245C73.6901 16.5604 73.5324 17.0335 73.8479 17.349C74.1633 17.5067 74.7942 17.1913 74.9519 17.0335C75.425 16.7181 75.8982 15.9295 75.425 15.4564C75.2673 15.1409 74.4787 14.9832 74.1633 14.9832C73.3747 14.9832 73.217 15.9295 73.0593 16.7181L73.8479 16.245Z" fill="#FFFF45"/>
<path fill-rule="evenodd" clip-rule="evenodd" d="M76.2137 8.83214C76.0559 8.20127 76.0559 7.5704 76.5291 7.25496C76.8445 7.09724 77.3177 6.93953 77.6331 7.25496C77.7908 7.41268 77.9486 7.72812 78.1063 7.88584C78.264 8.20127 78.264 8.20127 78.1063 8.5167C77.9486 9.14757 77.7908 9.62073 77.0022 9.62073C76.0559 9.62073 76.0559 8.98986 76.0559 8.04355V8.83214H76.2137Z" fill="#FFFF45"/>
<path fill-rule="evenodd" clip-rule="evenodd" d="M84.2572 19.8724C84.7304 19.7147 85.2035 19.557 85.519 19.0838C85.2035 18.9261 84.415 18.4529 84.2572 19.0838V19.8724Z" fill="#FFFF45"/>
<path fill-rule="evenodd" clip-rule="evenodd" d="M56.4989 119.235C56.9721 119.077 57.4452 118.919 57.7607 118.446C57.4452 118.288 56.6566 117.815 56.4989 118.446V119.235Z" fill="#FFC445"/>
<path fill-rule="evenodd" clip-rule="evenodd" d="M107.757 129.959C108.23 129.802 108.703 129.644 109.019 129.171C108.703 129.013 107.915 128.54 107.757 129.171V129.959Z" fill="#FFC445"/>
<path fill-rule="evenodd" clip-rule="evenodd" d="M90.4082 29.4932C90.8814 28.8623 91.5123 27.916 92.4586 28.3891C92.9317 28.7046 93.0894 29.6509 92.6163 29.9663C92.1431 30.2818 91.8277 30.4395 91.1968 30.5972C90.8814 30.7549 90.2505 30.4395 90.4082 29.8086V29.4932Z" fill="#FFFF45"/>
<path fill-rule="evenodd" clip-rule="evenodd" d="M57.1298 43.2146C57.603 42.5838 58.2338 41.6375 59.1801 42.1106C59.6533 42.426 59.811 43.3723 59.3379 43.6878C58.8647 44.0032 58.5493 44.1609 57.9184 44.3187C57.603 44.4764 56.9721 44.1609 57.1298 43.5301V43.2146Z" fill="#FFC445"/>
<path fill-rule="evenodd" clip-rule="evenodd" d="M112.331 18.7684C112.804 18.1375 113.435 17.1912 114.381 17.6643C114.854 17.9798 115.012 18.9261 114.539 19.2415C114.066 19.557 113.75 19.7147 113.12 19.8724C112.804 20.0301 112.173 19.7147 112.331 19.0838V18.7684Z" fill="#FFC445"/>
<path fill-rule="evenodd" clip-rule="evenodd" d="M81.4183 69.7112C81.8915 69.0803 82.5224 68.134 83.4687 68.6072C83.9418 68.9226 84.0995 69.8689 83.6264 70.1843C83.1532 70.4998 82.8378 70.6575 82.2069 70.8152C81.8915 70.9729 81.2606 70.6575 81.4183 70.0266V69.7112Z" fill="#FFC445"/>
<path fill-rule="evenodd" clip-rule="evenodd" d="M54.4486 22.5536C53.8177 22.8691 52.8714 23.3422 52.7137 24.2885C52.7137 24.7617 52.8714 25.0771 53.3446 25.2348C53.66 25.3926 54.2909 25.3926 54.764 25.2348C55.3949 24.9194 56.0258 24.4463 56.1835 23.9731C56.3412 23.5 56.3412 23.1845 56.1835 22.8691C56.0258 22.7114 55.8681 22.3959 55.5526 22.2382C54.764 21.9228 54.2909 22.7114 53.66 23.0268L54.4486 22.5536Z" fill="#FFFF45"/>
<path fill-rule="evenodd" clip-rule="evenodd" d="M56.3412 20.3455C56.6566 20.5032 56.9721 20.6609 57.1298 20.9764C56.8143 21.1341 56.4989 21.2918 56.1835 21.2918C55.7103 21.1341 55.7103 20.6609 55.7103 20.3455C55.7103 20.1878 56.1835 19.7146 56.3412 19.8724C56.4989 19.8724 56.4989 20.0301 56.4989 20.1878C56.6566 20.3455 56.6566 20.3455 56.4989 20.6609H56.3412V20.3455Z" fill="#FFFF45"/>
<path fill-rule="evenodd" clip-rule="evenodd" d="M23.0628 34.2248C22.4319 34.8556 21.801 35.4865 21.4856 36.2751C21.3279 36.7482 21.6433 36.7483 21.9588 36.5905C22.7473 36.4328 23.3782 36.2751 24.1668 36.1174C24.6399 35.9597 25.2708 35.8019 25.4285 35.4865C25.5863 35.1711 25.744 34.6979 25.744 34.3825C25.744 33.9093 25.2708 33.7516 24.9554 33.5939C24.0091 33.2785 22.5896 33.9093 22.2742 34.8556L23.0628 34.2248Z" fill="#FFFF45"/>
<path fill-rule="evenodd" clip-rule="evenodd" d="M23.536 37.5368C24.0091 37.5368 24.4822 37.6945 24.9554 37.8522C24.7977 38.01 24.7977 38.1677 24.7977 38.3254C24.64 38.6408 24.4822 38.7986 24.1668 38.9563C23.6937 39.2717 23.0628 39.2717 22.5896 39.114C21.1702 38.6408 23.3782 37.0637 23.6937 37.5368H23.536Z" fill="#FFFF45"/>
<path fill-rule="evenodd" clip-rule="evenodd" d="M66.2774 7.57045C66.7506 7.25501 67.2237 7.09729 67.6969 6.93958C68.3278 6.78186 68.9586 6.78186 69.5895 6.78186C69.9049 6.78186 70.6935 6.78186 70.3781 7.25501C70.2204 7.88588 68.9586 8.35904 68.4855 8.51675C67.6969 8.83219 66.9083 9.30534 65.962 9.46306C65.4888 9.46306 64.7002 9.62078 64.3848 9.14763C64.2271 8.67447 64.2271 8.35904 64.5425 8.0436C64.7003 7.72817 65.0157 7.57045 65.4888 7.41273C65.6466 7.41273 66.7506 7.0973 66.7506 7.41273L66.2774 7.57045Z" fill="#FFFF45"/>
<path fill-rule="evenodd" clip-rule="evenodd" d="M57.9184 7.72812C57.7607 7.88584 56.0258 8.83214 56.8144 9.3053C57.2875 9.46301 58.0761 9.46301 58.5493 9.3053C58.8647 9.14758 59.3378 8.83215 59.0224 8.35899C58.5493 7.41269 57.2875 8.04356 56.6566 8.35899L57.9184 7.72812Z" fill="#FFFF45"/>
<path fill-rule="evenodd" clip-rule="evenodd" d="M34.4185 69.5535C34.5762 70.1844 34.7339 70.973 35.3648 71.4461C35.9956 71.9193 36.7842 71.7616 37.2574 71.2884C37.7305 70.973 38.2037 70.6576 38.5191 70.4998C38.8346 70.3421 38.9923 70.3421 38.9923 69.869C38.9923 69.3958 38.6768 68.9227 38.3614 68.6072C38.046 68.2918 37.5728 67.8186 37.0997 67.6609C36.1534 67.3455 34.4185 67.6609 34.4185 68.9227V69.5535Z" fill="#FFD32F"/>
<path fill-rule="evenodd" clip-rule="evenodd" d="M88.0424 70.3422C88.2002 70.973 88.3579 71.7616 88.9888 72.2348C89.6196 72.7079 90.4082 72.5502 90.8814 72.0771C91.3545 71.7616 91.8277 71.4462 92.1431 71.2885C92.4586 71.1308 92.6163 71.1308 92.6163 70.6576C92.6163 70.1845 92.3008 69.7113 91.9854 69.3959C91.67 69.0804 91.1968 68.6073 90.7237 68.4496C89.7774 68.1341 88.0424 68.4496 88.0424 69.7113V70.3422Z" fill="#FFBA00"/>
<path fill-rule="evenodd" clip-rule="evenodd" d="M11.7071 97.3118C11.7071 97.3118 11.0762 99.993 12.9689 103.463C14.8615 106.933 16.2809 106.617 16.2809 106.617C16.2809 106.617 14.546 100.308 11.7071 97.3118Z" fill="#FFFF59"/>
<path fill-rule="evenodd" clip-rule="evenodd" d="M133.623 60.5636C133.623 60.5636 131.415 66.8723 131.099 67.8186C131.099 67.6609 134.569 66.7146 133.623 60.5636Z" fill="#FFFF59"/>
<path fill-rule="evenodd" clip-rule="evenodd" d="M145.452 62.4562C145.452 62.4562 143.875 63.5602 143.086 66.5569C143.086 66.5569 144.979 67.5032 145.452 62.4562Z" fill="#FFFF59"/>
<path fill-rule="evenodd" clip-rule="evenodd" d="M121.321 121.127C121.321 121.127 128.418 116.553 132.519 116.238C132.519 116.238 127.787 121.916 121.321 121.127Z" fill="#FFFF59"/>
<defs>
<radialGradient id="paint0_radial_4_1375" cx="0" cy="0" r="1" gradientUnits="userSpaceOnUse" gradientTransform="translate(29.3904 39.8634) scale(120.026)">
<stop offset="0.00558659" stop-color="#FFB80B"/>
<stop offset="0.258" stop-color="#FFB60C"/>
<stop offset="0.384" stop-color="#FEAE10"/>
<stop offset="0.4821" stop-color="#FCA117"/>
<stop offset="0.5656" stop-color="#FA8E21"/>
<stop offset="0.6392" stop-color="#F7762E"/>
<stop offset="0.662" stop-color="#F66D33"/>
<stop offset="0.7209" stop-color="#EF6836"/>
<stop offset="0.8061" stop-color="#DC593D"/>
<stop offset="0.9068" stop-color="#BD4049"/>
<stop offset="0.9832" stop-color="#A02A54"/>
</radialGradient>
<linearGradient id="paint1_linear_4_1375" x1="7.20489" y1="96.7919" x2="43.3834" y2="96.7919" gradientUnits="userSpaceOnUse">
<stop offset="0.0111732" stop-color="#FFA90B"/>
<stop offset="0.3713" stop-color="#FFA60E"/>
<stop offset="0.6354" stop-color="#FF9D16"/>
<stop offset="0.868" stop-color="#FF8D25"/>
<stop offset="1" stop-color="#FF8031"/>
</linearGradient>
<linearGradient id="paint2_linear_4_1375" x1="8.48099" y1="96.7919" x2="41.4722" y2="96.7919" gradientUnits="userSpaceOnUse">
<stop offset="0.0111732" stop-color="#FFE00B"/>
<stop offset="0.3061" stop-color="#FFDD0D"/>
<stop offset="0.5224" stop-color="#FFD412"/>
<stop offset="0.7136" stop-color="#FFC41B"/>
<stop offset="0.8891" stop-color="#FFAD27"/>
<stop offset="1" stop-color="#FF9B31"/>
</linearGradient>
<linearGradient id="paint3_linear_4_1375" x1="12.1067" y1="53.6167" x2="26.5116" y2="53.1598" gradientUnits="userSpaceOnUse">
<stop offset="0.0111732" stop-color="#FFA90B"/>
<stop offset="0.3713" stop-color="#FFA60E"/>
<stop offset="0.6354" stop-color="#FF9D16"/>
<stop offset="0.868" stop-color="#FF8D25"/>
<stop offset="1" stop-color="#FF8031"/>
</linearGradient>
<linearGradient id="paint4_linear_4_1375" x1="12.9941" y1="53.5885" x2="25.5931" y2="53.1889" gradientUnits="userSpaceOnUse">
<stop offset="0.0111732" stop-color="#FFE00B"/>
<stop offset="0.3061" stop-color="#FFDD0D"/>
<stop offset="0.5224" stop-color="#FFD412"/>
<stop offset="0.7136" stop-color="#FFC41B"/>
<stop offset="0.8891" stop-color="#FFAD27"/>
<stop offset="1" stop-color="#FF9B31"/>
</linearGradient>
<linearGradient id="paint5_linear_4_1375" x1="131.143" y1="122.417" x2="131.143" y2="71.1598" gradientUnits="userSpaceOnUse">
<stop offset="0.0111732" stop-color="#FF8E0B"/>
<stop offset="0.3475" stop-color="#FD8B0D"/>
<stop offset="0.5941" stop-color="#F98215"/>
<stop offset="0.8113" stop-color="#F17221"/>
<stop offset="1" stop-color="#E65D31"/>
</linearGradient>
<linearGradient id="paint6_linear_4_1375" x1="116.043" y1="96.7883" x2="146.211" y2="96.7883" gradientUnits="userSpaceOnUse">
<stop offset="0.0111732" stop-color="#FFE00B"/>
<stop offset="0.3061" stop-color="#FFDD0D"/>
<stop offset="0.5224" stop-color="#FFD412"/>
<stop offset="0.7136" stop-color="#FFC41B"/>
<stop offset="0.8891" stop-color="#FFAD27"/>
<stop offset="1" stop-color="#FF9B31"/>
</linearGradient>
<linearGradient id="paint7_linear_4_1375" x1="140.79" y1="69.9656" x2="140.79" y2="50.1833" gradientUnits="userSpaceOnUse">
<stop offset="0.0111732" stop-color="#FFA90B"/>
<stop offset="0.3713" stop-color="#FFA60E"/>
<stop offset="0.6354" stop-color="#FF9D16"/>
<stop offset="0.868" stop-color="#FF8D25"/>
<stop offset="1" stop-color="#FF8031"/>
</linearGradient>
<linearGradient id="paint8_linear_4_1375" x1="140.779" y1="68.6691" x2="140.779" y2="51.4798" gradientUnits="userSpaceOnUse">
<stop offset="0.0111732" stop-color="#FFE00B"/>
<stop offset="0.3061" stop-color="#FFDD0D"/>
<stop offset="0.5224" stop-color="#FFD412"/>
<stop offset="0.7136" stop-color="#FFC41B"/>
<stop offset="0.8891" stop-color="#FFAD27"/>
<stop offset="1" stop-color="#FF9B31"/>
</linearGradient>
<linearGradient id="paint9_linear_4_1375" x1="79.3278" y1="148.576" x2="79.3278" y2="137.051" gradientUnits="userSpaceOnUse">
<stop offset="0.0111732" stop-color="#FFA90B"/>
<stop offset="0.3713" stop-color="#FFA60E"/>
<stop offset="0.6354" stop-color="#FF9D16"/>
<stop offset="0.868" stop-color="#FF8D25"/>
<stop offset="1" stop-color="#FF8031"/>
</linearGradient>
<linearGradient id="paint10_linear_4_1375" x1="79.3264" y1="147.28" x2="79.3264" y2="138.347" gradientUnits="userSpaceOnUse">
<stop offset="0.0111732" stop-color="#FFE00B"/>
<stop offset="0.3061" stop-color="#FFDD0D"/>
<stop offset="0.5224" stop-color="#FFD412"/>
<stop offset="0.7136" stop-color="#FFC41B"/>
<stop offset="0.8891" stop-color="#FFAD27"/>
<stop offset="1" stop-color="#FF9B31"/>
</linearGradient>
<linearGradient id="paint11_linear_4_1375" x1="115.456" y1="75.878" x2="121.921" y2="27.1861" gradientUnits="userSpaceOnUse">
<stop offset="0.0111732" stop-color="#FFA90B"/>
<stop offset="0.3713" stop-color="#FFA60E"/>
<stop offset="0.6354" stop-color="#FF9D16"/>
<stop offset="0.868" stop-color="#FF8D25"/>
<stop offset="1" stop-color="#FF8031"/>
</linearGradient>
<linearGradient id="paint12_linear_4_1375" x1="115.624" y1="74.5945" x2="121.747" y2="28.4701" gradientUnits="userSpaceOnUse">
<stop offset="0.0111732" stop-color="#FFE00B"/>
<stop offset="0.3061" stop-color="#FFDD0D"/>
<stop offset="0.5224" stop-color="#FFD412"/>
<stop offset="0.7136" stop-color="#FFC41B"/>
<stop offset="0.8891" stop-color="#FFAD27"/>
<stop offset="1" stop-color="#FF9B31"/>
</linearGradient>
<linearGradient id="paint13_linear_4_1375" x1="0.948224" y1="69.609" x2="115.868" y2="69.609" gradientUnits="userSpaceOnUse">
<stop offset="0.0111732" stop-color="#FFE00B"/>
<stop offset="0.3061" stop-color="#FFDD0D"/>
<stop offset="0.5224" stop-color="#FFD412"/>
<stop offset="0.7136" stop-color="#F67C27"/>
<stop offset="0.8891" stop-color="#ED6930"/>
<stop offset="1" stop-color="#E76332"/>
</linearGradient>
<linearGradient id="paint14_linear_4_1375" x1="0.948248" y1="54.3098" x2="108.433" y2="54.3098" gradientUnits="userSpaceOnUse">
<stop offset="0.0111732" stop-color="#FFE00B"/>
<stop offset="0.3061" stop-color="#FFDD0D"/>
<stop offset="0.5224" stop-color="#FFD412"/>
<stop offset="0.7136" stop-color="#FFC41B"/>
<stop offset="0.8891" stop-color="#FFAD27"/>
<stop offset="1" stop-color="#FF9B31"/>
</linearGradient>
<linearGradient id="paint15_linear_4_1375" x1="100.555" y1="133.501" x2="120.264" y2="133.501" gradientUnits="userSpaceOnUse">
<stop offset="0.0111732" stop-color="#FFE00B"/>
<stop offset="0.3061" stop-color="#FFDD0D"/>
<stop offset="0.5224" stop-color="#FFD412"/>
<stop offset="0.7136" stop-color="#FFC41B"/>
<stop offset="0.8891" stop-color="#FFAD27"/>
<stop offset="1" stop-color="#FF9B31"/>
</linearGradient>
<linearGradient id="paint16_linear_4_1375" x1="123.957" y1="29.1807" x2="133.657" y2="29.1807" gradientUnits="userSpaceOnUse">
<stop offset="0.0111732" stop-color="#FFE00B"/>
<stop offset="0.3061" stop-color="#FFDD0D"/>
<stop offset="0.5224" stop-color="#FFD412"/>
<stop offset="0.7136" stop-color="#FFC41B"/>
<stop offset="0.8891" stop-color="#FFAD27"/>
<stop offset="1" stop-color="#FF9B31"/>
</linearGradient>
</defs>
</svg>
