<svg width="1600" height="960" viewBox="0 0 1600 960" fill="none" xmlns="http://www.w3.org/2000/svg">
<g clip-path="url(#clip0_1_2)">
<rect width="1600" height="960" fill="url(#paint0_linear_1_2)"/>
<circle r="6.68315" transform="matrix(4.37114e-08 -1 -1 -4.37114e-08 689.683 187.683)" fill="#E77E42"/>
<circle cx="134.683" cy="907.683" r="6.68315" transform="rotate(-90 134.683 907.683)" fill="#1BEAFF"/>
<circle r="6.68315" transform="matrix(4.37114e-08 -1 -1 -4.37114e-08 737.545 566.981)" fill="#1BEAFF"/>
<circle r="6.68315" transform="matrix(-4.37114e-08 1 1 4.37114e-08 867.389 777.519)" fill="#1BEAFF"/>
<circle r="6.68315" transform="matrix(4.37114e-08 -1 -1 -4.37114e-08 1018.24 110.618)" fill="#E77E42"/>
<circle cx="254.449" cy="523.063" r="6.68315" transform="rotate(90 254.449 523.063)" fill="#E77E42"/>
<circle cx="1430.68" cy="307.293" r="4.77368" transform="rotate(90 1430.68 307.293)" fill="white"/>
<circle r="4.77368" transform="matrix(4.37114e-08 -1 -1 -4.37114e-08 630.615 269.104)" fill="white"/>
<circle r="4.77368" transform="matrix(4.37114e-08 -1 -1 -4.37114e-08 1058.34 515.426)" fill="white"/>
<circle r="4.77368" transform="matrix(-4.37114e-08 1 1 4.37114e-08 546.598 829.075)" fill="white"/>
<circle cx="294.548" cy="118.256" r="4.77368" transform="rotate(90 294.548 118.256)" fill="white"/>
<circle cx="1453.77" cy="599.774" r="4.77368" transform="rotate(90 1453.77 599.774)" fill="white"/>
<circle cx="217.774" cy="778.774" r="4.77368" transform="rotate(-90 217.774 778.774)" fill="white"/>
<circle r="4.77368" transform="matrix(4.37114e-08 -1 -1 -4.37114e-08 1096.53 186.997)" fill="white"/>
<circle cx="1272.2" cy="897.815" r="4.77368" transform="rotate(-90 1272.2 897.815)" fill="white"/>
<circle cx="1260.74" cy="503.969" r="4.77368" transform="rotate(90 1260.74 503.969)" fill="white"/>
<circle r="4.77368" transform="matrix(4.37114e-08 -1 -1 -4.37114e-08 809.774 77.7737)" fill="white"/>
<circle cx="1472.69" cy="724.054" r="4.77368" transform="rotate(-90 1472.69 724.054)" fill="white"/>
<circle cx="1291.29" cy="372.215" r="6.68315" transform="rotate(90 1291.29 372.215)" fill="#E77E42"/>
<circle r="6.68315" transform="matrix(4.37114e-08 -1 -1 -4.37114e-08 357.561 234.733)" fill="#1BEAFF"/>
<circle cx="1195.68" cy="26.6831" r="6.68315" transform="rotate(90 1195.68 26.6831)" fill="#1BEAFF"/>
<circle cx="111.239" cy="32.3294" r="6.68315" transform="rotate(90 111.239 32.3294)" fill="#1BEAFF"/>
<circle cx="1134.72" cy="370.306" r="4.77368" transform="rotate(90 1134.72 370.306)" fill="#1BEAFF"/>
<circle cx="1427.82" cy="178.404" r="1.90947" transform="rotate(90 1427.82 178.404)" fill="white"/>
<circle r="1.90947" transform="matrix(4.37114e-08 -1 -1 -4.37114e-08 818.698 562.208)" fill="white"/>
<circle r="1.90947" transform="matrix(-4.37114e-08 1 1 4.37114e-08 786.237 782.292)" fill="white"/>
<circle cx="1276.97" cy="147.852" r="1.90947" transform="rotate(90 1276.97 147.852)" fill="white"/>
<circle r="1.90947" transform="matrix(4.37114e-08 -1 -1 -4.37114e-08 513.183 485.829)" fill="white"/>
<circle r="1.90947" transform="matrix(-4.37114e-08 1 1 4.37114e-08 1091.75 858.671)" fill="white"/>
<circle r="1.90947" transform="matrix(4.37114e-08 -1 -1 -4.37114e-08 927.538 497.286)" fill="white"/>
<circle r="1.90947" transform="matrix(-4.37114e-08 1 1 4.37114e-08 879.909 860.909)" fill="white"/>
<circle cx="163.749" cy="136.396" r="1.90947" transform="rotate(90 163.749 136.396)" fill="white"/>
<circle cx="1544.3" cy="344.528" r="1.90947" transform="rotate(90 1544.3 344.528)" fill="white"/>
<circle r="1.90947" transform="matrix(4.37114e-08 -1 -1 -4.37114e-08 780.508 625.22)" fill="white"/>
<circle r="1.90947" transform="matrix(-4.37114e-08 1 1 4.37114e-08 824.426 719.28)" fill="white"/>
<circle cx="1263.6" cy="468.644" r="1.90947" transform="rotate(90 1263.6 468.644)" fill="white"/>
<circle cx="341.33" cy="875.857" r="1.90947" transform="rotate(-90 341.33 875.857)" fill="white"/>
<circle r="1.90947" transform="matrix(4.37114e-08 -1 -1 -4.37114e-08 940.904 132.577)" fill="white"/>
<circle cx="177.116" cy="501.104" r="1.90947" transform="rotate(90 177.116 501.104)" fill="white"/>
<circle cx="1427.82" cy="843.396" r="1.90947" transform="rotate(-90 1427.82 843.396)" fill="white"/>
<circle r="1.90947" transform="matrix(4.37114e-08 -1 -1 -4.37114e-08 597.199 598.488)" fill="white"/>
<circle r="1.90947" transform="matrix(-4.37114e-08 1 1 4.37114e-08 1007.74 746.013)" fill="white"/>
<circle r="1.90947" transform="matrix(4.37114e-08 -1 -1 -4.37114e-08 875.982 619.492)" fill="white"/>
<circle r="1.90947" transform="matrix(-4.37114e-08 1 1 4.37114e-08 728.953 725.008)" fill="white"/>
<circle r="1.90947" transform="matrix(4.37114e-08 -1 -1 -4.37114e-08 839.702 659.591)" fill="white"/>
<circle r="1.90947" transform="matrix(-4.37114e-08 1 1 4.37114e-08 765.233 684.91)" fill="white"/>
<circle r="1.90947" transform="matrix(4.37114e-08 -1 -1 -4.37114e-08 1011.55 609.944)" fill="white"/>
<circle r="1.90947" transform="matrix(-4.37114e-08 1 1 4.37114e-08 593.38 734.556)" fill="white"/>
<circle cx="247.766" cy="61.9262" r="1.90947" transform="rotate(90 247.766 61.9262)" fill="white"/>
<circle cx="1141.4" cy="187.951" r="1.90947" transform="rotate(90 1141.4 187.951)" fill="white"/>
<circle r="1.90947" transform="matrix(4.37114e-08 -1 -1 -4.37114e-08 377.61 445.73)" fill="white"/>
<circle r="1.90947" transform="matrix(-4.37114e-08 1 1 4.37114e-08 1227.32 898.77)" fill="white"/>
<circle cx="1196.77" cy="207.046" r="1.90947" transform="rotate(90 1196.77 207.046)" fill="white"/>
<circle r="1.90947" transform="matrix(4.37114e-08 -1 -1 -4.37114e-08 432.985 426.635)" fill="white"/>
<circle r="1.90947" transform="matrix(-4.37114e-08 1 1 4.37114e-08 1171.95 917.865)" fill="white"/>
<circle cx="1122.3" cy="262.421" r="1.90947" transform="rotate(90 1122.3 262.421)" fill="white"/>
<circle r="1.90947" transform="matrix(4.37114e-08 -1 -1 -4.37114e-08 358.515 371.261)" fill="white"/>
<circle cx="1143.31" cy="291.063" r="1.90947" transform="rotate(90 1143.31 291.063)" fill="white"/>
<circle r="1.90947" transform="matrix(4.37114e-08 -1 -1 -4.37114e-08 379.52 342.618)" fill="white"/>
<circle cx="1303.7" cy="109.663" r="1.90947" transform="rotate(90 1303.7 109.663)" fill="white"/>
<circle r="1.90947" transform="matrix(4.37114e-08 -1 -1 -4.37114e-08 539.915 608.035)" fill="white"/>
<circle r="1.90947" transform="matrix(-4.37114e-08 1 1 4.37114e-08 1065.02 736.465)" fill="white"/>
<circle cx="1532.84" cy="8.46111" r="1.90947" transform="rotate(90 1532.84 8.46111)" fill="white"/>
<circle r="1.90947" transform="matrix(4.37114e-08 -1 -1 -4.37114e-08 515.092 653.862)" fill="white"/>
<circle r="1.90947" transform="matrix(-4.37114e-08 1 1 4.37114e-08 1089.84 690.638)" fill="white"/>
<circle cx="1351.44" cy="166.947" r="1.90947" transform="rotate(90 1351.44 166.947)" fill="white"/>
<circle r="1.90947" transform="matrix(4.37114e-08 -1 -1 -4.37114e-08 566.648 457.187)" fill="white"/>
<circle r="1.90947" transform="matrix(-4.37114e-08 1 1 4.37114e-08 1038.29 887.313)" fill="white"/>
<circle cx="1536.66" cy="128.758" r="1.90947" transform="rotate(90 1536.66 128.758)" fill="white"/>
<circle r="1.90947" transform="matrix(4.37114e-08 -1 -1 -4.37114e-08 772.87 504.923)" fill="white"/>
<circle r="1.90947" transform="matrix(-4.37114e-08 1 1 4.37114e-08 1438.91 680.909)" fill="white"/>
<circle cx="1357.17" cy="325.433" r="1.90947" transform="rotate(90 1357.17 325.433)" fill="white"/>
<circle r="1.90947" transform="matrix(4.37114e-08 -1 -1 -4.37114e-08 593.38 308.248)" fill="white"/>
<circle cx="1332.35" cy="516.38" r="1.90947" transform="rotate(90 1332.35 516.38)" fill="white"/>
<circle cx="272.589" cy="828.12" r="1.90947" transform="rotate(-90 272.589 828.12)" fill="white"/>
<circle r="1.90947" transform="matrix(4.37114e-08 -1 -1 -4.37114e-08 568.557 117.301)" fill="white"/>
<circle cx="1145.22" cy="102.025" r="1.90947" transform="rotate(90 1145.22 102.025)" fill="white"/>
<circle r="1.90947" transform="matrix(4.37114e-08 -1 -1 -4.37114e-08 381.429 531.656)" fill="white"/>
<circle r="1.90947" transform="matrix(-4.37114e-08 1 1 4.37114e-08 1223.51 812.844)" fill="white"/>
<circle cx="1208.23" cy="340.709" r="1.90947" transform="rotate(90 1208.23 340.709)" fill="white"/>
<circle r="1.90947" transform="matrix(4.37114e-08 -1 -1 -4.37114e-08 444.442 292.972)" fill="white"/>
<circle cx="1290.34" cy="218.503" r="1.90947" transform="rotate(90 1290.34 218.503)" fill="white"/>
<circle r="1.90947" transform="matrix(4.37114e-08 -1 -1 -4.37114e-08 564.738 524.018)" fill="white"/>
<circle r="1.90947" transform="matrix(-4.37114e-08 1 1 4.37114e-08 1040.2 820.482)" fill="white"/>
<circle r="1.90947" transform="matrix(4.37114e-08 -1 -1 -4.37114e-08 381.429 655.772)" fill="white"/>
<circle r="1.90947" transform="matrix(-4.37114e-08 1 1 4.37114e-08 1223.51 688.729)" fill="white"/>
<circle cx="1229.23" cy="653.862" r="1.90947" transform="rotate(90 1229.23 653.862)" fill="white"/>
<circle cx="375.701" cy="690.638" r="1.90947" transform="rotate(-90 375.701 690.638)" fill="white"/>
<circle cx="1150.95" cy="636.677" r="1.90947" transform="rotate(90 1150.95 636.677)" fill="white"/>
<circle cx="453.989" cy="707.823" r="1.90947" transform="rotate(-90 453.989 707.823)" fill="white"/>
<circle r="1.90947" transform="matrix(4.37114e-08 -1 -1 -4.37114e-08 954.27 567.936)" fill="white"/>
<circle r="1.90947" transform="matrix(-4.37114e-08 1 1 4.37114e-08 650.664 776.564)" fill="white"/>
<circle cx="190.482" cy="65.7452" r="1.90947" transform="rotate(90 190.482 65.7452)" fill="white"/>
<circle cx="1403" cy="373.17" r="1.90947" transform="rotate(90 1403 373.17)" fill="white"/>
<circle r="1.90947" transform="matrix(4.37114e-08 -1 -1 -4.37114e-08 1053.56 271.968)" fill="white"/>
<circle cx="289.774" cy="361.713" r="1.90947" transform="rotate(90 289.774 361.713)" fill="white"/>
<circle cx="1200.59" cy="409.45" r="1.90947" transform="rotate(90 1200.59 409.45)" fill="white"/>
<circle cx="404.343" cy="935.05" r="1.90947" transform="rotate(-90 404.343 935.05)" fill="white"/>
<circle r="1.90947" transform="matrix(4.37114e-08 -1 -1 -4.37114e-08 436.804 224.231)" fill="white"/>
<circle r="1.90947" transform="matrix(4.37114e-08 -1 -1 -4.37114e-08 820.607 210.865)" fill="white"/>
<circle cx="83.5516" cy="497.286" r="1.90947" transform="rotate(90 83.5516 497.286)" fill="white"/>
<circle cx="1521.38" cy="847.215" r="1.90947" transform="rotate(-90 1521.38 847.215)" fill="white"/>
<circle r="1.90947" transform="matrix(4.37114e-08 -1 -1 -4.37114e-08 828.245 270.058)" fill="white"/>
<circle cx="64.4569" cy="363.623" r="1.90947" transform="rotate(90 64.4569 363.623)" fill="white"/>
<circle r="1.90947" transform="matrix(4.37114e-08 -1 -1 -4.37114e-08 824.426 449.549)" fill="white"/>
<circle r="1.90947" transform="matrix(-4.37114e-08 1 1 4.37114e-08 1377.91 743.909)" fill="white"/>
<circle cx="60.6379" cy="184.132" r="1.90947" transform="rotate(90 60.6379 184.132)" fill="white"/>
<circle r="1.90947" transform="matrix(4.37114e-08 -1 -1 -4.37114e-08 938.994 636.677)" fill="white"/>
<circle r="1.90947" transform="matrix(-4.37114e-08 1 1 4.37114e-08 665.94 707.823)" fill="white"/>
<circle r="1.90947" transform="matrix(4.37114e-08 -1 -1 -4.37114e-08 973.365 655.772)" fill="white"/>
<circle r="1.90947" transform="matrix(-4.37114e-08 1 1 4.37114e-08 631.57 688.729)" fill="white"/>
<circle r="1.90947" transform="matrix(4.37114e-08 -1 -1 -4.37114e-08 917.99 208.956)" fill="white"/>
<circle cx="154.202" cy="424.726" r="1.90947" transform="rotate(90 154.202 424.726)" fill="white"/>
<circle cx="1450.73" cy="919.774" r="1.90947" transform="rotate(-90 1450.73 919.774)" fill="white"/>
<circle r="1.90947" transform="matrix(4.37114e-08 -1 -1 -4.37114e-08 914.171 386.536)" fill="white"/>
<circle r="1.90947" transform="matrix(-4.37114e-08 1 1 4.37114e-08 697.909 915.909)" fill="white"/>
<circle cx="150.383" cy="247.145" r="1.90947" transform="rotate(90 150.383 247.145)" fill="white"/>
<circle cx="1460.28" cy="113.482" r="1.90947" transform="rotate(90 1460.28 113.482)" fill="white"/>
<circle r="1.90947" transform="matrix(4.37114e-08 -1 -1 -4.37114e-08 648.755 537.385)" fill="white"/>
<circle r="1.90947" transform="matrix(-4.37114e-08 1 1 4.37114e-08 956.18 807.116)" fill="white"/>
<circle cx="1192.95" cy="109.663" r="1.90947" transform="rotate(90 1192.95 109.663)" fill="white"/>
<circle r="1.90947" transform="matrix(4.37114e-08 -1 -1 -4.37114e-08 429.166 524.018)" fill="white"/>
<circle r="1.90947" transform="matrix(-4.37114e-08 1 1 4.37114e-08 1175.77 820.482)" fill="white"/>
<circle r="1.90947" transform="matrix(4.37114e-08 -1 -1 -4.37114e-08 741.909 336.909)" fill="white"/>
<circle r="1.90947" transform="matrix(-4.37114e-08 1 1 4.37114e-08 816.788 927.412)" fill="white"/>
<circle cx="64.4569" cy="134.486" r="1.90947" transform="rotate(90 64.4569 134.486)" fill="white"/>
<circle r="1.90947" transform="matrix(4.37114e-08 -1 -1 -4.37114e-08 969.546 504.923)" fill="white"/>
<circle r="1.90947" transform="matrix(-4.37114e-08 1 1 4.37114e-08 635.389 839.577)" fill="white"/>
<circle cx="205.758" cy="128.758" r="1.90947" transform="rotate(90 205.758 128.758)" fill="white"/>
<circle r="1.90947" transform="matrix(4.37114e-08 -1 -1 -4.37114e-08 1021.1 558.389)" fill="white"/>
<circle r="1.90947" transform="matrix(-4.37114e-08 1 1 4.37114e-08 52.9095 773.909)" fill="white"/>
<circle cx="266.861" cy="14.1894" r="1.90947" transform="rotate(90 266.861 14.1894)" fill="white"/>
<circle r="1.90947" transform="matrix(4.37114e-08 -1 -1 -4.37114e-08 1126.12 464.825)" fill="white"/>
<circle r="1.90947" transform="matrix(-4.37114e-08 1 1 4.37114e-08 478.812 879.676)" fill="white"/>
<circle cx="362.334" cy="168.857" r="1.90947" transform="rotate(90 362.334 168.857)" fill="white"/>
<circle cx="1479.37" cy="378.898" r="1.90947" transform="rotate(90 1479.37 378.898)" fill="white"/>
<circle r="1.90947" transform="matrix(4.37114e-08 -1 -1 -4.37114e-08 769.052 233.779)" fill="white"/>
<circle cx="1357.17" cy="455.277" r="1.90947" transform="rotate(90 1357.17 455.277)" fill="white"/>
<circle cx="247.766" cy="889.223" r="1.90947" transform="rotate(-90 247.766 889.223)" fill="white"/>
<circle r="1.90947" transform="matrix(4.37114e-08 -1 -1 -4.37114e-08 580.014 218.503)" fill="white"/>
<circle r="1.90947" transform="matrix(4.37114e-08 -1 -1 -4.37114e-08 1007.74 189.861)" fill="white"/>
<circle cx="243.947" cy="443.82" r="1.90947" transform="rotate(90 243.947 443.82)" fill="white"/>
<circle cx="1360.99" cy="900.68" r="1.90947" transform="rotate(-90 1360.99 900.68)" fill="white"/>
<circle cx="1167.18" cy="507.788" r="4.77368" transform="rotate(90 1167.18 507.788)" fill="white"/>
<circle r="4.77368" transform="matrix(4.37114e-08 -1 -1 -4.37114e-08 411.026 89.6135)" fill="white"/>
<circle cx="1353.35" cy="252.873" r="1.90947" transform="rotate(90 1353.35 252.873)" fill="white"/>
<circle r="1.90947" transform="matrix(4.37114e-08 -1 -1 -4.37114e-08 589.561 380.808)" fill="white"/>
<circle r="1.90947" transform="matrix(4.37114e-08 -1 -1 -4.37114e-08 1034.47 373.17)" fill="white"/>
<circle cx="270.68" cy="260.511" r="1.90947" transform="rotate(90 270.68 260.511)" fill="white"/>
<circle cx="1273.15" cy="319.705" r="1.90947" transform="rotate(90 1273.15 319.705)" fill="white"/>
<circle r="1.90947" transform="matrix(4.37114e-08 -1 -1 -4.37114e-08 509.364 313.976)" fill="white"/>
<circle r="1.90947" transform="matrix(4.37114e-08 -1 -1 -4.37114e-08 923.719 325.433)" fill="white"/>
<circle cx="159.93" cy="308.248" r="1.90947" transform="rotate(90 159.93 308.248)" fill="white"/>
<circle cx="1515.65" cy="602.307" r="1.90947" transform="rotate(90 1515.65 602.307)" fill="white"/>
<circle cx="89.28" cy="742.194" r="1.90947" transform="rotate(-90 89.28 742.194)" fill="white"/>
<circle r="1.90947" transform="matrix(4.37114e-08 -1 -1 -4.37114e-08 751.866 31.3747)" fill="white"/>
<circle cx="1380.08" cy="632.858" r="1.90947" transform="rotate(90 1380.08 632.858)" fill="white"/>
<circle cx="224.852" cy="711.642" r="1.90947" transform="rotate(-90 224.852 711.642)" fill="white"/>
<circle r="1.90947" transform="matrix(4.37114e-08 -1 -1 -4.37114e-08 616.294 0.823134)" fill="white"/>
<circle r="1.90947" transform="matrix(4.37114e-08 -1 -1 -4.37114e-08 1030.65 12.28)" fill="white"/>
<circle cx="266.861" cy="621.401" r="1.90947" transform="rotate(90 266.861 621.401)" fill="white"/>
<circle cx="1338.07" cy="723.099" r="1.90947" transform="rotate(-90 1338.07 723.099)" fill="white"/>
<circle cx="1416.36" cy="245.235" r="1.90947" transform="rotate(90 1416.36 245.235)" fill="white"/>
<circle r="1.90947" transform="matrix(4.37114e-08 -1 -1 -4.37114e-08 652.574 388.446)" fill="white"/>
<circle r="1.90947" transform="matrix(-4.37114e-08 1 1 4.37114e-08 952.361 956.054)" fill="white"/>
<circle r="1.90947" transform="matrix(4.37114e-08 -1 -1 -4.37114e-08 1089.84 346.437)" fill="white"/>
<circle cx="326.054" cy="287.244" r="1.90947" transform="rotate(90 326.054 287.244)" fill="white"/>
<circle r="1.90947" transform="matrix(4.37114e-08 -1 -1 -4.37114e-08 1065.02 424.726)" fill="white"/>
<circle r="1.90947" transform="matrix(-4.37114e-08 1 1 4.37114e-08 539.915 919.774)" fill="white"/>
<circle cx="308.869" cy="237.598" r="1.90947" transform="rotate(90 308.869 237.598)" fill="white"/>
<circle r="1.90947" transform="matrix(4.37114e-08 -1 -1 -4.37114e-08 1114.67 537.384)" fill="white"/>
<circle r="1.90947" transform="matrix(-4.37114e-08 1 1 4.37114e-08 490.269 807.116)" fill="white"/>
<circle cx="350.878" cy="96.2967" r="1.90947" transform="rotate(90 350.878 96.2967)" fill="white"/>
<circle r="1.90947" transform="matrix(4.37114e-08 -1 -1 -4.37114e-08 1284.61 636.677)" fill="white"/>
<circle r="1.90947" transform="matrix(-4.37114e-08 1 1 4.37114e-08 320.326 707.823)" fill="white"/>
<circle cx="681.216" cy="640.496" r="1.90947" transform="rotate(90 681.216 640.496)" fill="white"/>
<circle cx="923.719" cy="704.004" r="1.90947" transform="rotate(-90 923.719 704.004)" fill="white"/>
<circle r="1.90947" transform="matrix(4.37114e-08 -1 -1 -4.37114e-08 1189.14 592.759)" fill="white"/>
<circle r="1.90947" transform="matrix(-4.37114e-08 1 1 4.37114e-08 415.799 751.741)" fill="white"/>
<circle cx="543.734" cy="39.0126" r="1.90947" transform="rotate(90 543.734 39.0126)" fill="white"/>
<circle r="1.90947" transform="matrix(4.37114e-08 -1 -1 -4.37114e-08 1089.84 617.582)" fill="white"/>
<circle r="1.90947" transform="matrix(-4.37114e-08 1 1 4.37114e-08 515.092 726.918)" fill="white"/>
<circle cx="354.696" cy="58.1073" r="1.90947" transform="rotate(90 354.696 58.1073)" fill="white"/>
<circle cx="1204.41" cy="304.429" r="1.90947" transform="rotate(90 1204.41 304.429)" fill="white"/>
<circle r="1.90947" transform="matrix(4.37114e-08 -1 -1 -4.37114e-08 440.623 329.252)" fill="white"/>
<circle r="1.90947" transform="matrix(4.37114e-08 -1 -1 -4.37114e-08 818.698 325.433)" fill="white"/>
<circle cx="54.9095" cy="308.248" r="1.90947" transform="rotate(90 54.9095 308.248)" fill="white"/>
<circle cx="1435.46" cy="510.652" r="1.90947" transform="rotate(90 1435.46 510.652)" fill="white"/>
<circle cx="169.478" cy="833.848" r="1.90947" transform="rotate(-90 169.478 833.848)" fill="white"/>
<circle r="1.90947" transform="matrix(4.37114e-08 -1 -1 -4.37114e-08 650.664 115.391)" fill="white"/>
<circle r="1.90947" transform="matrix(4.37114e-08 -1 -1 -4.37114e-08 1118.48 69.5642)" fill="white"/>
<circle cx="68.2758" cy="575.574" r="1.90947" transform="rotate(90 68.2758 575.574)" fill="white"/>
<circle cx="1536.66" cy="768.926" r="1.90947" transform="rotate(-90 1536.66 768.926)" fill="white"/>
<circle cx="1233.05" cy="546.932" r="1.90947" transform="rotate(90 1233.05 546.932)" fill="white"/>
<circle cx="371.882" cy="797.568" r="1.90947" transform="rotate(-90 371.882 797.568)" fill="white"/>
<circle r="1.90947" transform="matrix(4.37114e-08 -1 -1 -4.37114e-08 469.265 86.7493)" fill="white"/>
<circle r="1.90947" transform="matrix(4.37114e-08 -1 -1 -4.37114e-08 875.982 73.3831)" fill="white"/>
<circle cx="112.194" cy="560.298" r="1.90947" transform="rotate(90 112.194 560.298)" fill="white"/>
<circle cx="1492.74" cy="784.202" r="1.90947" transform="rotate(-90 1492.74 784.202)" fill="white"/>
<circle cx="1492.74" cy="250.964" r="1.90947" transform="rotate(90 1492.74 250.964)" fill="white"/>
<circle r="1.90947" transform="matrix(4.37114e-08 -1 -1 -4.37114e-08 629.66 474.372)" fill="white"/>
<circle r="1.90947" transform="matrix(-4.37114e-08 1 1 4.37114e-08 975.274 870.128)" fill="white"/>
<circle cx="1267.42" cy="231.869" r="1.90947" transform="rotate(90 1267.42 231.869)" fill="white"/>
<circle r="1.90947" transform="matrix(4.37114e-08 -1 -1 -4.37114e-08 503.635 401.812)" fill="white"/>
<circle r="1.90947" transform="matrix(-4.37114e-08 1 1 4.37114e-08 1101.3 942.688)" fill="white"/>
<circle r="1.90947" transform="matrix(4.37114e-08 -1 -1 -4.37114e-08 776.909 420.909)" fill="white"/>
<circle r="1.90947" transform="matrix(-4.37114e-08 1 1 4.37114e-08 760.909 871.909)" fill="white"/>
<circle cx="154.202" cy="220.412" r="1.90947" transform="rotate(90 154.202 220.412)" fill="white"/>
<circle cx="1540.48" cy="485.829" r="1.90947" transform="rotate(90 1540.48 485.829)" fill="white"/>
<circle cx="64.4568" cy="858.671" r="1.90947" transform="rotate(-90 64.4568 858.671)" fill="white"/>
<circle r="1.90947" transform="matrix(4.37114e-08 -1 -1 -4.37114e-08 776.689 147.852)" fill="white"/>
<circle cx="1299.88" cy="577.483" r="1.90947" transform="rotate(90 1299.88 577.483)" fill="white"/>
<circle cx="305.05" cy="767.017" r="1.90947" transform="rotate(-90 305.05 767.017)" fill="white"/>
<circle r="1.90947" transform="matrix(4.37114e-08 -1 -1 -4.37114e-08 486.45 142.124)" fill="white"/>
<circle r="1.90947" transform="matrix(4.37114e-08 -1 -1 -4.37114e-08 950.451 67.6547)" fill="white"/>
<circle cx="186.663" cy="566.027" r="1.90947" transform="rotate(90 186.663 566.027)" fill="white"/>
<circle cx="1418.27" cy="778.474" r="1.90947" transform="rotate(-90 1418.27 778.474)" fill="white"/>
</g>
<defs>
<linearGradient id="paint0_linear_1_2" x1="800" y1="0" x2="800" y2="960" gradientUnits="userSpaceOnUse">
<stop stop-color="#0E6CC7"/>
<stop offset="1" stop-color="#4A0383"/>
</linearGradient>
<clipPath id="clip0_1_2">
<rect width="1600" height="960" fill="white"/>
</clipPath>
</defs>
</svg>
